<svg xmlns="http://www.w3.org/2000/svg" viewBox="0 0 64 64" id="BagSecurity">
  <rect width="8.74" height="2" x="48.348" y="33.865" fill="#ffffff" class="color000000 svgShape"></rect>
  <rect width="5.847" height="2" x="48.348" y="28.845" fill="#ffffff" class="color000000 svgShape"></rect>
  <rect width="5.847" height="2" x="48.348" y="38.884" fill="#ffffff" class="color000000 svgShape"></rect>
  <path d="M37.293,34.129l-1.583-.671c-.656-.27-.984-.513-.984-1.041,0-.713.613-1.07,1.74-1.07A3.688,3.688,0,0,1,38.521,32l.442-1.755a4.091,4.091,0,0,0-2-.627V28.265h-1.74v1.484a2.889,2.889,0,0,0-2.454,2.811,2.5,2.5,0,0,0,1.783,2.511l1.683.7c.728.3,1.056.557,1.056,1.084,0,.77-.613,1.127-1.626,1.127a4.751,4.751,0,0,1-2.7-.913V38.98a4.628,4.628,0,0,0,2.254.727v1.484h1.74V39.565a2.818,2.818,0,0,0,2.283-2.882A2.63,2.63,0,0,0,37.293,34.129Z" fill="#ffffff" class="color000000 svgShape"></path>
  <path d="M35.941,24.954a9.761,9.761,0,1,0,9.762,9.76A9.771,9.771,0,0,0,35.941,24.954Zm0,17.522A7.761,7.761,0,1,1,43.7,34.714,7.769,7.769,0,0,1,35.941,42.476Z" fill="#ffffff" class="color000000 svgShape"></path>
  <path d="M19.853,11.976H14.322a1,1,0,0,0-1,1v1.451H11.228a3.062,3.062,0,0,0-3.059,3.06V28.34L1.754,30.491a1,1,0,0,0-.682.948V34.25A25,25,0,0,0,11.683,54.678l.963.677a1,1,0,0,0,1.15,0l.963-.677a24.9,24.9,0,0,0,4.907-4.564H60.655a3.062,3.062,0,0,0,3.059-3.06V17.487a3.062,3.062,0,0,0-3.059-3.06H58.561V12.976a1,1,0,0,0-1-1H52.03a1,1,0,0,0-1,1v1.451H48.252V8.182a3.843,3.843,0,0,0-3.838-3.838H27.469a3.842,3.842,0,0,0-3.837,3.838v6.245H20.853V12.976A1,1,0,0,0,19.853,11.976Zm-4.531,2h3.531v8.412H15.322Zm-4.094,2.451h2.094v2.988H10.169V17.487A1.061,1.061,0,0,1,11.228,16.427Zm2.38,36.614-.387.273-.388-.273A22.992,22.992,0,0,1,3.072,34.25V32.159l10.149-3.4,10.148,3.4V34.25A22.988,22.988,0,0,1,13.608,53.041ZM60.655,16.427a1.061,1.061,0,0,1,1.059,1.06v1.928H58.561V16.427ZM53.03,13.976h3.531v8.412H53.03Zm4.531,10.412a1,1,0,0,0,1-1V21.415h3.153V47.054a1.061,1.061,0,0,1-1.059,1.06h-39.5A24.979,24.979,0,0,0,25.369,34.25V31.439a1,1,0,0,0-.682-.948L13.539,26.752a1.02,1.02,0,0,0-.637,0l-2.733.917V21.415h3.153v1.973a1,1,0,0,0,1,1h5.531a1,1,0,0,0,1-1V21.415H51.03v1.973a1,1,0,0,0,1,1ZM25.632,8.182a1.839,1.839,0,0,1,1.837-1.838H44.414a1.839,1.839,0,0,1,1.838,1.838v6.245H43.728v-5.4a1,1,0,0,0-1-1H29.155a1,1,0,0,0-1,1v5.4H25.632Zm16.1,6.245H30.155v-4.4H41.728Zm-17.1,2h26.4v2.988H20.853V16.427Z" fill="#ffffff" class="color000000 svgShape"></path>
  <path d="M17.467,33.91l-5.423,5.422L9.96,37.247a3.082,3.082,0,0,0-4.254,0,3.007,3.007,0,0,0,0,4.253l4.213,4.213a3.007,3.007,0,0,0,4.252,0l7.549-7.548a3.008,3.008,0,1,0-4.253-4.254Zm2.839,2.838L12.758,44.3a1.034,1.034,0,0,1-1.426,0L7.12,40.086a1.008,1.008,0,0,1,1.426-1.424l2.791,2.792a1,1,0,0,0,1.414,0l6.13-6.129a1.007,1.007,0,1,1,1.425,1.423Z" fill="#ffffff" class="color000000 svgShape"></path>
</svg>
