<svg xmlns="http://www.w3.org/2000/svg" enable-background="new 0 0 70 70" viewBox="0 0 70 70" id="DiscountLabel">
  <path d="M55.6386719,31.5961914c-0.7353516-0.4023438-2.1054688-1.1518555-2.2099609-1.5288086
	c-0.1142578-0.4311523,0.6933594-1.762207,1.1757813-2.5576172c0.9550781-1.5737305,1.9423828-3.2006836,1.1845703-4.5175781
	c-0.7685547-1.3256836-2.6933594-1.2797852-4.5546875-1.2373047c-0.859375,0.019043-2.4580078,0.0581055-2.75-0.2319336
	c-0.2949219-0.2978516-0.2558594-1.8911133-0.2353516-2.7470703c0.0458984-1.8671875,0.09375-3.7973633-1.2441406-4.565918
	c-1.3144531-0.7583008-2.9423828,0.230957-4.5136719,1.1855469c-0.7958984,0.4824219-2.1376953,1.2875977-2.5556641,1.1762695
	c-0.3857422-0.1035156-1.1367188-1.4794922-1.5410156-2.21875C37.4951172,12.7045898,36.5644531,11,35,11
	c-1.5654297,0-2.5,1.7084961-3.4042969,3.3608398c-0.4023438,0.7358398-1.1513672,2.1054688-1.5292969,2.2104492
	c-0.4306641,0.1152344-1.7617188-0.6933594-2.5576172-1.1757813c-1.5732422-0.9560547-3.2011719-1.9428711-4.5126953-1.1860352
	c-1.3369141,0.7675781-1.2910156,2.6918945-1.2470703,4.5527344c0.0195313,0.855957,0.0566406,2.4482422-0.2460938,2.7480469
	c-0.2929688,0.2958984-1.8837891,0.2587891-2.7412109,0.2382813c-1.859375-0.0429688-3.7841797-0.0888672-4.5517578,1.2460938
	c-0.7568359,1.3144531,0.2304688,2.9414063,1.1855469,4.5151367c0.4824219,0.7954102,1.2900391,2.1264648,1.1777344,2.5527344
	c-0.1064453,0.3818359-1.4765625,1.1313477-2.2119141,1.5336914C12.7089844,32.5,11,33.4345703,11,35
	c0,1.5639648,1.7050781,2.4946289,3.3535156,3.3945313c0.7392578,0.4038086,2.1152344,1.1552734,2.2177734,1.5380859
	c0.1142578,0.4311523-0.6933594,1.762207-1.1757813,2.5576172c-0.9550781,1.5737305-1.9423828,3.2006836-1.1845703,4.5175781
	c0.7685547,1.3256836,2.6943359,1.2817383,4.5546875,1.2373047c0.859375-0.0205078,2.4580078-0.0581055,2.75,0.2319336
	c0.2949219,0.2978516,0.2558594,1.8911133,0.2353516,2.7470703c-0.0458984,1.8666992-0.09375,3.796875,1.2441406,4.565918
	c1.3144531,0.7583008,2.9423828-0.230957,4.5136719-1.1855469c0.7958984-0.4829102,2.1376953-1.2929688,2.5537109-1.1767578
	c0.3818359,0.105957,1.1308594,1.4755859,1.5332031,2.2114258C32.5,57.2915039,33.4345703,59,35,59
	c1.5644531,0,2.4951172-1.7045898,3.3945313-3.3530273c0.4042969-0.7392578,1.1552734-2.1152344,1.5390625-2.2182617
	c0.4365234-0.112793,1.7617188,0.6933594,2.5576172,1.1757813c1.5722656,0.9545898,3.1972656,1.9438477,4.5214844,1.1811523
	c1.3193359-0.7753906,1.2724609-2.6918945,1.2275391-4.5458984c-0.0205078-0.859375-0.0595703-2.4589844,0.2363281-2.7558594
	c0.2998047-0.2958984,1.8945313-0.2573242,2.7529297-0.2387695c1.859375,0.0444336,3.7792969,0.0893555,4.5605469-1.2397461
	c0.7568359-1.3144531-0.2304688-2.9414063-1.1855469-4.5151367c-0.4814453-0.7944336-1.2880859-2.1230469-1.1767578-2.5556641
	c0.1064453-0.3867188,1.4804688-1.1367188,2.21875-1.5400391C57.2949219,37.4946289,59,36.5639648,59,35
	C59,33.4345703,57.2910156,32.5,55.6386719,31.5961914z M54.6884766,36.6391602
	c-1.4746094,0.8051758-2.8671875,1.5654297-3.1923828,2.777832c0,0.0009766-0.0009766,0.0019531-0.0009766,0.0029297
	c-0.3320313,1.2539063,0.5087891,2.6401367,1.3994141,4.1079102c0.4472656,0.7363281,1.2783203,2.1064453,1.1699219,2.4677734
	c-0.2617188,0.3095703-1.9658203,0.2695313-2.7880859,0.25c-1.6953125-0.0400391-3.3017578-0.0776367-4.2099609,0.8208008
	c-0.90625,0.90625-0.8671875,2.5170898-0.8251953,4.222168c0.0195313,0.815918,0.0615234,2.5136719-0.2255859,2.7641602
	c-0.3847656,0.1210938-1.7509766-0.7114258-2.4873047-1.1577148c-1.4677734-0.8901367-2.8515625-1.7338867-4.1103516-1.3984375
	c-1.2128906,0.324707-1.9736328,1.7172852-2.7783203,3.1918945C36.2675781,55.3696289,35.3974609,56.9638672,35.0009766,57
	c-0.4003906-0.0351563-1.2763672-1.6367188-1.6503906-2.3203125c-0.8037109-1.4697266-1.5625-2.8579102-2.7705078-3.1835938
	c-0.1923828-0.0512695-0.3867188-0.074707-0.5849609-0.074707c-1.0957031,0-2.2802734,0.7192383-3.5234375,1.4736328
	c-0.7363281,0.4467773-2.1074219,1.2719727-2.4746094,1.1645508C23.6875,53.7973633,23.7294922,52.0922852,23.75,51.2734375
	c0.0419922-1.6972656,0.0810547-3.300293-0.8203125-4.2104492c-0.9042969-0.8950195-2.5068359-0.8579102-4.2109375-0.8173828
	c-0.8164063,0.0195313-2.5136719,0.059082-2.7714844-0.2290039c-0.1201172-0.3823242,0.7109375-1.7524414,1.1582031-2.4887695
	c0.890625-1.4677734,1.7314453-2.8540039,1.3984375-4.1108398c-0.3251953-1.2124023-1.7177734-1.9726563-3.1923828-2.777832
	C14.5732422,36.2358398,13.0371094,35.3974609,13,35.0004883c0.0361328-0.3999023,1.6367188-1.2758789,2.3212891-1.6494141
	c1.46875-0.8037109,2.8564453-1.5629883,3.1835938-2.7709961c0.3320313-1.2539063-0.5087891-2.6401367-1.3994141-4.1079102
	c-0.4472656-0.7363281-1.2783203-2.1064453-1.1650391-2.4755859c0.2607422-0.3066406,1.9609375-0.2666016,2.7744141-0.2485352
	c1.7001953,0.0395508,3.3095703,0.078125,4.2021484-0.8237305c0.9091797-0.8989258,0.8710938-2.5068359,0.8310547-4.2089844
	c-0.0195313-0.8154297-0.0595703-2.5131836,0.2363281-2.7680664c0.3857422-0.1220703,1.7509766,0.7114258,2.4873047,1.1577148
	c1.4667969,0.890625,2.8466797,1.7314453,4.1123047,1.3979492c1.2041016-0.324707,1.9628906-1.7128906,2.7666016-3.1826172
	c0.3740234-0.6835938,1.25-2.2851563,1.6484375-2.3203125c0.3984375,0.0361328,1.2685547,1.6303711,1.640625,2.3115234
	c0.8046875,1.4746094,1.5654297,2.8671875,2.7802734,3.1923828c1.2558594,0.3359375,2.640625-0.5083008,4.1083984-1.3989258
	c0.7363281-0.4467773,2.1269531-1.2758789,2.4746094-1.1640625C46.3125,16.203125,46.2705078,17.9077148,46.25,18.7265625
	c-0.0419922,1.6972656-0.0810547,3.300293,0.8203125,4.2104492c0.9033203,0.8945313,2.5078125,0.8574219,4.2109375,0.8173828
	c0.8164063-0.0195313,2.5136719-0.0595703,2.7714844,0.2290039c0.1201172,0.3823242-0.7109375,1.7524414-1.1582031,2.4887695
	c-0.890625,1.4677734-1.7314453,2.8540039-1.3974609,4.112793c0.3251953,1.203125,1.7128906,1.9624023,3.1816406,2.7661133
	C55.3632813,33.7246094,56.9638672,34.6005859,57,34.9995117C56.9628906,35.3974609,55.4267578,36.2358398,54.6884766,36.6391602z" fill="#ffffff" class="color000000 svgShape"></path>
  <path d="M32.2138672 30.9750977c0-3.3129883-1.3037109-5.2910156-3.4863281-5.2910156-2.1142578 0-3.4814453 2.0952148-3.4853516 5.3383789-.0439453 1.9116211.4355469 3.480957 1.3515625 4.4194336.5830078.5976563 1.3212891.9135742 2.1337891.9135742C30.9101563 36.3554688 32.2138672 34.3442383 32.2138672 30.9750977zM27.2421875 31.059082c0-.0083008 0-.0161133 0-.0244141 0-1.6137695.4648438-3.3505859 1.4853516-3.3505859 1.3417969 0 1.4863281 2.3012695 1.4863281 3.2910156 0 .7929688-.1074219 3.3803711-1.4863281 3.3803711-.2724609 0-.4960938-.0986328-.7021484-.3105469C27.5019531 33.5092773 27.2099609 32.3930664 27.2421875 31.059082zM41.2753906 33.6445313c-2.1347656 0-3.5136719 2.0976563-3.515625 5.3447266-.0214844 1.9145508.4765625 3.4863281 1.4042969 4.4248047.5830078.5898438 1.3134766.9018555 2.1113281.9018555 2.1826172 0 3.4853516-2.0112305 3.4853516-5.3798828C44.7607422 35.6225586 43.4580078 33.6445313 41.2753906 33.6445313zM41.2753906 42.315918c-.2626953 0-.4814453-.0976563-.6884766-.3076172-.5341797-.5400391-.8427734-1.6621094-.8271484-3.0014648 0-.0039063 0-.0078125 0-.0117188 0-1.6650391.5205078-3.3505859 1.515625-3.3505859 1.3408203 0 1.4853516 2.3017578 1.4853516 3.2915039C42.7607422 39.7290039 42.6533203 42.315918 41.2753906 42.315918zM41.1464844 24.1875c-.4814453-.2749023-1.0917969-.1054688-1.3632813.375L28.4785156 44.4492188c-.2734375.4799805-.1054688 1.090332.375 1.3632813.15625.0888672.3261719.1308594.4931641.1308594.3476563 0 .6865234-.1816406.8701172-.5058594l11.3046875-19.8867188C41.7949219 25.0708008 41.6269531 24.4604492 41.1464844 24.1875z" fill="#ffffff" class="color000000 svgShape"></path>
</svg>
