<svg id="SvgjsSvg1014" width="288" height="288" xmlns="http://www.w3.org/2000/svg" version="1.1" xmlns:xlink="http://www.w3.org/1999/xlink" xmlns:svgjs="http://svgjs.com/svgjs"><defs id="SvgjsDefs1015"></defs><g id="SvgjsG1016"><svg xmlns="http://www.w3.org/2000/svg" viewBox="0 0 64 64" width="288" height="288"><g font-weight="400"><path fill="#ffffff" style="line-height:normal;text-indent:0;text-align:start;text-decoration-line:none;text-decoration-style:solid;text-decoration-color:#000;text-transform:none;block-progression:tb;isolation:auto;mix-blend-mode:normal" d="M40.136 1014.139a2.008 2.008 0 0 0-.732 2.732 2.008 2.008 0 0 0 2.732.732c.951-.55 1.28-1.78.73-2.731a2.006 2.006 0 0 0-2.73-.733zm.5.866a.99.99 0 0 1 1.364.367.99.99 0 0 1-.364 1.365.993.993 0 0 1-1.366-.366.993.993 0 0 1 .366-1.366z" color="#000" font-family="sans-serif" overflow="visible" transform="translate(0 -988.362)" class="color2b4255 svgShape"></path><path fill="#f05542" style="line-height:125%;-inkscape-font-specification:'Bebas Neue Bold, '" d="M22.063 1024.778c1 1.732 2.997.89 3.717 2.138.25.433.15.699-.153.874-.303.175-.584.129-.834-.304l-.25-.433-.9.52.214.372c.56.97 1.365 1.244 2.3.704.936-.54 1.101-1.374.541-2.344-1-1.732-2.997-.89-3.717-2.138-.25-.433-.172-.697.131-.872.303-.175.572-.11.822.322l.145.251.9-.52-.11-.19c-.56-.97-1.356-1.25-2.283-.714-.926.535-1.083 1.364-.523 2.334zm4.625-4.61-1.394.805 2.53 6.622.875-.505-.47-1.195 1.169-.675.8 1.005.96-.555-4.47-5.502zm-.124 1.504 2.229 2.8-.918.53-1.311-3.33zm5.03 3.747 2.52-1.455-.5-.866-1.568.905-3-5.196-.952.55 3.5 6.062zm.895-7.446 1.646-.95-.5-.866-2.598 1.5 3.5 6.063 2.598-1.5-.5-.867-1.646.95-1.025-1.775 1.308-.755-.5-.866-1.308.755-.975-1.689z" font-family="Bebas Neue Bold" font-size="10" letter-spacing="0" transform="translate(0 -988.362)" word-spacing="0" class="colorf05542 svgShape"></path><path fill="#ffffff" style="line-height:normal;text-indent:0;text-align:start;text-decoration-line:none;text-decoration-style:solid;text-decoration-color:#000;text-transform:none;block-progression:tb;isolation:auto;mix-blend-mode:normal" d="M7.508 1034.361a.5.5 0 1 0 0 1h3.517a.5.5 0 1 0 0-1H7.508zm5.486 0a.5.5 0 1 0 0 1h1.016a.5.5 0 1 0 0-1h-1.016zm3 0a.5.5 0 1 0 0 1h35a.5.5 0 1 0 0-1h-35zm36.996 0a.5.5 0 1 0 0 1h2.518a.5.5 0 1 0 0-1H52.99z" color="#000" font-family="sans-serif" overflow="visible" transform="translate(0 -988.362)" class="color2b4255 svgShape"></path><path fill="#ffffff" style="line-height:normal;text-indent:0;text-align:start;text-decoration-line:none;text-decoration-style:solid;text-decoration-color:#000;text-transform:none;block-progression:tb;isolation:auto;mix-blend-mode:normal" d="M37.371 1008.877a.5.5 0 0 0-.236.066l-5.412 3.125-2.274 1.313-5.584 3.224a.5.5 0 1 0 .5.865l5.584-3.224 2.274-1.313 5.205-3.004 8.347 3.26-.3 1.979a.5.5 0 1 0 .988.15l.361-2.373a.5.5 0 0 0-.312-.541l-8.946-3.494a.5.5 0 0 0-.195-.033zm8.205 8.232a.5.5 0 0 0-.465.432l-.361 2.373-.326 2.135-21.008 12.13-6.998-12.12 3.627-2.094a.5.5 0 1 0-.5-.865l-4.06 2.343a.5.5 0 0 0-.184.684l7.498 12.984a.5.5 0 0 0 .683.184l21.65-12.5a.5.5 0 0 0 .245-.357l.361-2.373.364-2.374a.5.5 0 0 0-.526-.582zm-23.207.418a.5.5 0 0 0-.223.07l-.865.5a.5.5 0 1 0 .498.866l.867-.5a.5.5 0 0 0-.277-.936z" color="#000" font-family="sans-serif" overflow="visible" transform="translate(0 -988.362)" class="color2b4255 svgShape"></path><path fill="#f05542" fill-rule="evenodd" style="line-height:normal;text-indent:0;text-align:start;text-decoration-line:none;text-transform:none;block-progression:tb" d="M41.735 1007.176a.31.31 0 0 1 .308.318c0 .216.093.315.308.315.422-.01.422.63 0 .625-.207 0-.308.057-.308.301.01.423-.631.423-.625 0 0-.221-.104-.301-.309-.301-.423.01-.423-.631 0-.625.279 0 .309-.16.309-.315 0-.177.14-.32.317-.318zm8.493 10.107c.236 0 .425.199.422.436 0 .297.127.432.422.432.58-.01.58.866 0 .858-.284 0-.422.079-.422.414.01.58-.866.58-.858 0 0-.305-.143-.414-.424-.414-.58.01-.58-.866 0-.858.382 0 .424-.219.424-.432 0-.243.193-.44.436-.436z" color="#000" font-family="sans-serif" overflow="visible" transform="translate(0 -988.362)" class="colorf05542 svgShape"></path><path fill="#ffffff" fill-rule="evenodd" style="line-height:normal;text-indent:0;text-align:start;text-decoration-line:none;text-transform:none;block-progression:tb" d="M49.483 1024.26c.13 0 .233.109.231.239 0 .163.07.237.232.237.319-.01.319.476 0 .471-.156 0-.232.043-.232.227.01.319-.475.319-.47 0 0-.167-.079-.227-.233-.227-.319 0-.319-.475 0-.47.21 0 .232-.12.232-.238 0-.133.107-.241.24-.24zm-21.069-17.908a.31.31 0 0 1 .308.317c0 .217.093.315.307.315.423-.01.423.631 0 .625-.207 0-.307.057-.307.302.01.422-.631.422-.625 0 0-.222-.104-.302-.31-.302-.422.01-.422-.63 0-.625.28 0 .31-.16.31-.315 0-.176.14-.32.317-.317z" color="#000" font-family="sans-serif" overflow="visible" transform="translate(0 -988.362)" class="color2b4255 svgShape"></path><path fill="#f05542" fill-rule="evenodd" style="line-height:normal;text-indent:0;text-align:start;text-decoration-line:none;text-transform:none;block-progression:tb" d="M17.675 1016.633c.13 0 .234.11.232.24 0 .163.07.237.232.237.318-.01.318.475 0 .471-.156 0-.232.043-.232.227.01.319-.476.319-.471 0 0-.167-.078-.227-.233-.227-.318.01-.318-.476 0-.471.21 0 .233-.12.233-.237 0-.133.106-.242.239-.24z" color="#000" font-family="sans-serif" overflow="visible" transform="translate(0 -988.362)" class="colorf05542 svgShape"></path><path fill="#ffffff" fill-rule="evenodd" style="line-height:normal;text-indent:0;text-align:start;text-decoration-line:none;text-transform:none;block-progression:tb" d="M11.279 1024.42c.237 0 .426.2.422.436 0 .298.127.433.423.433.58-.01.58.866 0 .858-.285 0-.423.079-.423.413.01.58-.866.58-.858 0 0-.304-.142-.413-.424-.413-.58.01-.58-.867 0-.858.383 0 .424-.22.424-.433 0-.242.194-.44.436-.435zm7.232-9.453c.13 0 .234.109.232.239 0 .163.07.237.232.237.319-.01.319.476 0 .471-.156 0-.232.043-.232.228.01.318-.475.318-.47 0 0-.168-.079-.228-.233-.228-.32 0-.32-.475 0-.47.21 0 .232-.12.232-.238 0-.133.106-.241.24-.24zm27 15.707c.13 0 .234.109.232.239 0 .163.07.237.232.237.319-.01.319.476 0 .471-.156 0-.232.043-.232.227.01.319-.475.319-.47 0 0-.167-.079-.227-.233-.227-.32 0-.32-.476 0-.47.21 0 .232-.121.232-.238 0-.133.107-.241.24-.24z" color="#000" font-family="sans-serif" overflow="visible" transform="translate(0 -988.362)" class="color2b4255 svgShape"></path></g></svg></g></svg>