<svg xmlns="http://www.w3.org/2000/svg" enable-background="new 0 0 24 24" viewBox="0 0 24 24" id="packagedelivery">
  <path d="M6.5 17h-2C4.2 17 4 16.8 4 16.5v-2C4 14.2 4.2 14 4.5 14h2C6.8 14 7 14.2 7 14.5v2C7 16.8 6.8 17 6.5 17zM5 16h1v-1H5V16zM10 15H8.5C8.2 15 8 14.8 8 14.5S8.2 14 8.5 14H10c.3 0 .5.2.5.5S10.3 15 10 15zM12 17H8.5C8.2 17 8 16.8 8 16.5S8.2 16 8.5 16H12c.3 0 .5.2.5.5S12.3 17 12 17zM22 9h-1.5C20.2 9 20 9.2 20 9.5v.4c-.5-.3-.5-.9-.5-1.1 0-.7-.6-1.3-1.3-1.3S17 8.1 17 8.8V10h-2.8c-.7 0-1.3.6-1.3 1.3 0 .1 0 .2.1.3h-.8c-.7 0-1.3.6-1.3 1.3s.6 1.3 1.3 1.3h.3c0 .1-.1.2-.1.3 0 .7.6 1.3 1.3 1.3h.8c0 .1-.1.2-.1.3 0 .7.6 1.3 1.3 1.3H20v.5c0 .3.2.5.5.5H22c.3 0 .5-.2.5-.5v-8C22.5 9.2 22.3 9 22 9zM15.8 16c-.1 0-.3-.1-.3-.3s.1-.3.3-.3h1.8c.3 0 .5-.2.5-.5s-.2-.5-.5-.5h-1.8-2c-.1 0-.3-.1-.3-.3s.1-.3.3-.3h3.8c.3 0 .5-.2.5-.5S17.8 13 17.5 13h-3.8-1.5c-.1 0-.3-.1-.3-.3s.1-.3.3-.3h2 3.3c.3 0 .5-.2.5-.5s-.2-.5-.5-.5h-3.3c-.1 0-.3-.1-.3-.3s.1-.3.3-.3h3.3c.3 0 .5-.2.5-.5V8.8c0-.3.5-.3.5 0 0 .7.3 1.9 1.5 2.2V16H15.8zM21.5 17H21v-7h.5V17z" fill="#ffffff" class="color000000 svgShape"></path>
  <path d="M18,7c0.3,0,0.5-0.2,0.5-0.5v-1c0-0.1,0-0.1,0-0.2c0,0,0,0,0,0l-1.2-2.5c-0.1-0.2-0.3-0.3-0.4-0.3h-13
	c-0.2,0-0.4,0.1-0.4,0.3L2.1,5.3c0,0,0,0,0,0c0,0.1,0,0.1,0,0.2v13C2,18.8,2.2,19,2.5,19H18c0.3,0,0.5-0.2,0.5-0.5V18
	c0-0.3-0.2-0.5-0.5-0.5s-0.5,0.2-0.5,0.5H3V6h4.7v2.5c0,0.2,0.1,0.3,0.2,0.4C8.1,9,8.3,9,8.4,8.9L10.3,8l1.8,0.9
	C12.1,9,12.2,9,12.3,9c0.1,0,0.2,0,0.3-0.1c0.1-0.1,0.2-0.3,0.2-0.4V6h4.7v0.5C17.5,6.8,17.7,7,18,7z M11.1,3.5L11.6,5H8.9l0.5-1.5
	H11.1z M4.1,3.5h4.3L7.9,5H3.3L4.1,3.5z M11.8,7.7L10.5,7C10.4,7,10.3,7,10.3,7S10.1,7,10,7L8.7,7.7V6h3.1V7.7z M12.7,5l-0.5-1.5
	h4.3L17.2,5H12.7z" fill="#ffffff" class="color000000 svgShape"></path>
</svg>
