<svg xmlns="http://www.w3.org/2000/svg" viewBox="0 0 512 512" id="Alarm">
  <path d="M258.36,449.1c-78.17,0-146.12-58.41-156-137.94a157.18,157.18,0,1,1,156,137.94Zm.4-298.44a143.68,143.68,0,0,0-17.65,1.09A141.11,141.11,0,0,0,118.44,309.17c8.85,71.34,69.81,123.75,139.94,123.75a143.47,143.47,0,0,0,17.47-1.08A141.13,141.13,0,0,0,398.52,274.42h0A141.17,141.17,0,0,0,258.76,150.66Z" fill="#595bd4" class="color000000 svgShape"></path>
  <path d="M245.86 198.25a8.1 8.1 0 01-8-7.09l-1.66-13.35a8.09 8.09 0 1116.06-2l1.66 13.35a8.09 8.09 0 01-7 9A8.68 8.68 0 01245.86 198.25zM177.69 236.93a8.06 8.06 0 01-5-1.7L162.11 227a8.09 8.09 0 019.95-12.77l10.61 8.27a8.09 8.09 0 01-5 14.47zM143.49 314.15a8.09 8.09 0 01-1-16.12l13.35-1.66a8.09 8.09 0 012 16.06l-13.35 1.66A8.51 8.51 0 01143.49 314.15zM187.25 391.27a8 8 0 01-5-1.71 8.08 8.08 0 01-1.41-11.35l8.26-10.61a8.09 8.09 0 1112.77 9.95l-8.27 10.61A8.1 8.1 0 01187.25 391.27zM272.73 414.87a8.1 8.1 0 01-8-7.1l-1.66-13.35a8.09 8.09 0 0116.06-2l1.66 13.35a8.09 8.09 0 01-7 9A7 7 0 01272.73 414.87zM349.86 371.1a8 8 0 01-5-1.71l-10.61-8.26a8.09 8.09 0 0110-12.77l10.61 8.27a8.09 8.09 0 01-5 14.47zM360.1 287.28a8.09 8.09 0 01-1-16.12l13.35-1.66a8.09 8.09 0 112 16.06l-13.34 1.66A8.68 8.68 0 01360.1 287.28zM321.42 219.11A8.1 8.1 0 01315 206l8.27-10.61a8.09 8.09 0 0112.77 9.95L327.81 216A8.11 8.11 0 01321.42 219.11zM248.46 347a8.08 8.08 0 01-7.75-10.42l13.63-45.32-11.48-68a8.09 8.09 0 0116-2.69l11.79 69.89a8.06 8.06 0 01-.23 3.68l-14.17 47.12A8.1 8.1 0 01248.46 347zM179.13 500.06a21.23 21.23 0 01-17.92-32.49l12.55-20.06a8.09 8.09 0 1113.72 8.58l-12.56 20.07a5 5 0 004.9 7.68l201.85-25a5 5 0 002.87-8.65L371.67 437.8a8.09 8.09 0 1111.2-11.67l12.88 12.35a21.23 21.23 0 01-12.09 36.38l-201.85 25A22.14 22.14 0 01179.13 500.06zM184.4 167.36c-9 0-17.79-4.11-25-11.82-7.51-8-12.49-19.23-14-31.5s.57-24.32 5.89-34c5.79-10.48 14.67-17 25-18.24 20.29-2.52 39.45 16.81 42.71 43.09h0c3.25 26.27-10.6 49.69-30.89 52.21A30.63 30.63 0 01184.4 167.36zm-4.5-79.57a12.74 12.74 0 00-1.63.1c-5 .62-9.59 4.18-12.81 10-3.69 6.67-5.11 15.25-4 24.15s4.57 16.87 9.78 22.45c4.54 4.86 9.83 7.2 14.87 6.57 11.24-1.39 18.94-17 16.82-34.16h0C200.91 100.61 190.58 87.79 179.9 87.79zM139.47 71.28a8.09 8.09 0 01-6.68-12.65c.69-1 7-9.91 20.12-15.66 11.89-5.23 31.85-8.73 59.41 4.3A8.09 8.09 0 01205.4 61.9c-41.28-19.52-59.07 5.6-59.24 5.85A8.11 8.11 0 01139.47 71.28z" fill="#595bd4" class="color000000 svgShape"></path>
  <path d="M182.69 135.77a8.1 8.1 0 01-8-7.09l-1.75-14.12a8.09 8.09 0 0116.06-2l1.75 14.12a8.09 8.09 0 01-7 9A8.68 8.68 0 01182.69 135.77zM289.14 151.17c-18.92 0-36.07-18.57-39.14-43.31-3.26-26.27 10.6-49.69 30.88-52.21 10.33-1.28 20.51 2.83 28.69 11.59 7.52 8.05 12.5 19.23 14 31.5h0c1.52 12.26-.57 24.32-5.9 34-5.79 10.48-14.66 17-25 18.24A28.75 28.75 0 01289.14 151.17zm-4.65-79.56a12.32 12.32 0 00-1.61.1c-11.24 1.39-18.95 17-16.82 34.16s13.43 30.41 24.65 29c5.05-.62 9.6-4.18 12.82-10 3.68-6.67 5.1-15.25 4-24.15h0c-1.1-8.9-4.58-16.87-9.78-22.45C293.69 73.94 289 71.61 284.49 71.61zM317.63 46.06a8.06 8.06 0 01-5.19-1.88c-35-29.3-58.57-9.48-58.8-9.27A8.09 8.09 0 11243 22.71c.91-.8 9.3-7.82 23.41-10.09 12.82-2.06 33-.41 56.41 19.15a8.09 8.09 0 01-5.2 14.29z" fill="#595bd4" class="color000000 svgShape"></path>
  <path d="M287.29 119.59a8.08 8.08 0 01-8-7.09l-1.75-14.11a8.09 8.09 0 1116.05-2l1.75 14.11a8.08 8.08 0 01-7 9A8.55 8.55 0 01287.29 119.59zM430.57 207.86a8.06 8.06 0 01-6.2-2.89L347.7 113.48a8.08 8.08 0 011-11.39A67.77 67.77 0 11435.77 206 8.07 8.07 0 01430.57 207.86zM365.7 109.78l65.47 78.11a51.6 51.6 0 00-65.47-78.11z" fill="#595bd4" class="color000000 svgShape"></path>
  <path d="M438 123.78a8.09 8.09 0 01-5.2-14.29l19-15.88A8.09 8.09 0 01462.12 106l-18.95 15.88A8 8 0 01438 123.78zM60.72 244.29a8 8 0 01-3.72-.91 67.77 67.77 0 1162.41-120.32A8.1 8.1 0 01122.86 134l-54.95 106a8.09 8.09 0 01-4.74 4A7.88 7.88 0 0160.72 244.29zM88.29 131.64a51.58 51.58 0 00-30.73 93.09l46.92-90.47A51.18 51.18 0 0088.29 131.64z" fill="#595bd4" class="color000000 svgShape"></path>
  <path d="M35.21 163.84a8.13 8.13 0 01-3.71-.91L9.55 151.54A8.09 8.09 0 1117 137.18l22 11.38a8.1 8.1 0 01-3.74 15.28zM451.92 279.63a8.09 8.09 0 01-4.68-14.69l37.86-26.83a8.09 8.09 0 119.36 13.2L456.6 278.14A8 8 0 01451.92 279.63zM489.77 391a8.09 8.09 0 01-4.3-1.25l-42.33-26.63a8.09 8.09 0 118.62-13.7l42.33 26.64A8.09 8.09 0 01489.77 391zM498.72 324.31H456.39a8.09 8.09 0 110-16.18h42.33a8.09 8.09 0 010 16.18zM66.63 328.11a8.31 8.31 0 01-2.19-.3l-44.69-12.5a8.09 8.09 0 114.36-15.58L68.8 312.22a8.09 8.09 0 01-2.17 15.89zM68.52 445.72a8.1 8.1 0 01-6.36-13.09L93 393.28a8.09 8.09 0 1112.73 10L74.89 442.62A8.1 8.1 0 0168.52 445.72zM37.62 386a8.09 8.09 0 01-2.72-15.71L74.75 356a8.09 8.09 0 015.45 15.24L40.35 385.48A8.13 8.13 0 0137.62 386zM109.25 203.46a8.06 8.06 0 01-4-1L84.11 190.54A8.09 8.09 0 0192 176.43l21.19 11.88a8.09 8.09 0 01-4 15.15zM378.55 176.56a8.09 8.09 0 01-5.22-14.28l15.13-12.73a8.09 8.09 0 0110.42 12.38l-15.13 12.73A8 8 0 01378.55 176.56z" fill="#595bd4" class="color000000 svgShape"></path>
</svg>
