<svg xmlns="http://www.w3.org/2000/svg" viewBox="0 0 512 512" id="avatar">
  <g fill="#595bd4" class="color000000 svgShape">
    <path d="M294.842 363.329h-77.687a4.413 4.413 0 0 0 0 8.826h9.324v10.928a29.676 29.676 0 0 0 59.351 0v-10.928h9.012a4.413 4.413 0 1 0 0-8.826Zm-19.012 19.754a19.676 19.676 0 0 1-39.351 0v-10.565h39.351Z" fill="#595bd4" class="color000000 svgShape"></path>
    <path d="M386.847 85.006a185.338 185.338 0 0 0-133.46-53.738c-49.4.642-95.732 20.774-130.449 56.688A189.633 189.633 0 0 0 69.4 220.418v77.635a5 5 0 0 0 9.392 2.391l1.265-2.325L77.231 324a5 5 0 0 0 8.517 4.067l4.685-4.714 6.594 35.092a5 5 0 0 0 8.605 2.45l12.146-13.286c20.366 56.583 74.573 97.152 138.083 97.152 63.288 0 117.343-40.284 137.873-96.557l11.6 12.691a5 5 0 0 0 8.6-2.45l6.594-35.092 4.685 4.714a5 5 0 0 0 8.524-4.067l-3.008-27.524 2.223 4.007a5 5 0 0 0 9.372-2.426v-80.345a185.132 185.132 0 0 0-55.477-132.706ZM105.006 346.754l-6.5-34.6a5 5 0 0 0-8.46-2.6l-1.32 1.328 3.921-35.876 1.323-2.429 5.344 26.466a5 5 0 0 0 9.257 1.464c.207.265.42.523.629.785a146.265 146.265 0 0 0 5.1 35.294Zm150.855 88c-70.634 0-128.908-53.854-135.966-122.654a66.664 66.664 0 0 0 30.183 12.877 4.935 4.935 0 0 0 .819.067 5 5 0 0 0 3.459-8.608 82.93 82.93 0 0 1-20.979-31.317 91.2 91.2 0 0 1-4.768-20.858l24.335-44.011 15.193-24.182c.8.546 1.655 1.095 2.617 1.643a71 71 0 0 0 16.812 6.522q6.588 12.717 14.4 24.723a50.349 50.349 0 0 0-71.43 45.753 4.413 4.413 0 1 0 8.826 0 41.512 41.512 0 0 1 48.879-40.894c-19.777.323-35.779 18.267-35.779 40.29 0 22.224 16.293 40.305 36.318 40.305 18.653 0 34.059-15.688 36.086-35.8a4.359 4.359 0 0 0 2.017.51 4.414 4.414 0 0 0 4.413-4.414 50.405 50.405 0 0 0-.822-9 288.323 288.323 0 0 0 40.156 36.349 5 5 0 0 0 7.91-4.913c-.1-.541-10-54.3-12.818-83.26a141.437 141.437 0 0 0 11.676 6.994 142.728 142.728 0 0 0 27.09 11.075 50.382 50.382 0 0 0-23.781 42.758 4.414 4.414 0 0 0 4.413 4.414 4.364 4.364 0 0 0 1.814-.4c2.073 20.056 17.455 35.687 36.074 35.687 20.026 0 36.318-18.081 36.318-40.305 0-21.954-15.9-39.853-35.594-40.284a41.509 41.509 0 0 1 48.909 40.888 4.4 4.4 0 0 0 8.2 2.236 80.671 80.671 0 0 1-2.487 8.174 82.938 82.938 0 0 1-20.979 31.317 5 5 0 0 0 4.278 8.541 66.651 66.651 0 0 0 30.18-12.877c-7.056 68.8-65.333 122.657-135.972 122.657Zm-82.409-247.143 2.453-3.905c.6-.094 1.24-.178 1.926-.248q1.763 4.191 3.662 8.319a41.127 41.127 0 0 1-8.041-4.166Zm41.645 86.5c0 16.71-11.806 30.305-26.319 30.305s-26.318-13.6-26.318-30.305 11.806-30.311 26.318-30.311 26.322 13.6 26.322 30.308Zm100.2-47.227a4.938 4.938 0 0 0-.366-.86 242.036 242.036 0 0 1-9.388-18.813 92.863 92.863 0 0 0 12.122-1.574c2.228-.437 4.4-.955 6.508-1.526a314.548 314.548 0 0 1 28.2 24.956 50.224 50.224 0 0 0-37.074-2.183Zm7.711 16.922c14.512 0 26.318 13.6 26.318 30.305s-11.806 30.305-26.318 30.305-26.319-13.6-26.319-30.305 11.804-30.311 26.317-30.311Zm-21.594-46.43q-1.581-4.011-3.021-8.07 1.522-.653 3.287-1.291 6.087 3.964 11.963 8.189a75.8 75.8 0 0 1-12.231 1.169Zm77.626 61.909q2.043 2.632 4.041 5.307c-.41 3.408-.954 6.629-1.625 9.711a50.151 50.151 0 0 0-2.418-15.021Zm41.886 50.272a5 5 0 0 0-8.46 2.6l-6.5 34.6-8.715-9.532a146.173 146.173 0 0 0 5.276-35.914 82.81 82.81 0 0 0 2.416-3.169q.663 1.175 1.3 2.333a5 5 0 0 0 9.309-1.6l3.236-19.609 3.456 31.623Zm11.4-30.813-11.212-20.2a5 5 0 0 0-9.305 1.612l-3.989 24.168a5 5 0 0 0-7.068 1.825 67.645 67.645 0 0 1-11.04 14.539 49.552 49.552 0 0 1-13.534 9.426 87.91 87.91 0 0 0 11.565-21.55 102.535 102.535 0 0 0 5.5-24.841 5 5 0 0 0-.942-3.478 326.163 326.163 0 0 0-101.434-90.57 5 5 0 0 0-7.308 5.657c1.06 3.88 2.1 7.4 3.185 10.762a250.562 250.562 0 0 0 13.842 34.106 131.9 131.9 0 0 1-37.686-20.686 5 5 0 0 0-8.072 4.311c.309 4.093.6 7.5.908 10.734 1.979 20.529 7.492 53.411 10.656 71.477A276.222 276.222 0 0 1 182.829 169a5 5 0 0 0-8.918-.912L144.4 215.052c-.049.079-.1.159-.141.241l-25.173 45.524a5 5 0 0 0-.6 2.942 102.61 102.61 0 0 0 5.494 24.8 87.947 87.947 0 0 0 11.566 21.55 49.537 49.537 0 0 1-13.534-9.426 69.452 69.452 0 0 1-9.691-12.231 5 5 0 0 0-4.255-2.375h-.119a4.966 4.966 0 0 0-1.03.133l-5.872-29.082a5 5 0 0 0-9.292-1.4L79.4 278.416v-58c0-97.538 78.108-177.9 174.115-179.15a176.461 176.461 0 0 1 178.809 176.446Z" fill="#595bd4" class="color000000 svgShape"></path>
  </g>
</svg>
