<svg xmlns="http://www.w3.org/2000/svg" viewBox="0 0 3000 3000" id="cute-pug-is-sitting-on-the-sheet">
  <linearGradient id="a" x1="-2520.927" x2="-2519.632" y1="-6310.572" y2="-6310.572" gradientTransform="scale(1392.9176 -1392.9176)rotate(45 -8874.964 -112.661)" gradientUnits="userSpaceOnUse">
    <stop offset="0" stop-color="#ff8500"></stop>
    <stop offset="1" stop-color="#e9e41d"></stop>
  </linearGradient>
  <path fill="url(#a)" d="m899.11 2176.989-32.338-11.474-129.983-6.713s-62.809-1.342-65.241 0c-2.433 1.341-18.201 21.546-18.201 21.546s-130.357 69.917-149.723 88.895c-19.366 18.976-108.384 94.521-181.21 142.991-72.825 48.471-141.901 80.91-141.901 80.91s107.732 14.779 180.971 19.938c73.238 5.157 442.715 17.227 442.715 17.227l357.656 14.502s343.681 23.42 485.895 39.408c142.215 15.988 369.777 26.046 458.132 22.574 88.355-3.471 275.217-18.594 365.302-34.063 90.085-15.467 160.678-29.129 160.678-29.129s146.277-9.088 143.594-6.418c-2.682 2.67-124.956-58.743-186.826-125.369-61.869-66.625-56.968-88.135-108.886-123.909-51.917-35.772-76.246-85.985-76.246-85.985l-106.154-.596-1398.234-24.335z"></path>
  <linearGradient id="b" x1="-2520.247" x2="-2518.952" y1="-6310.65" y2="-6310.65" gradientTransform="matrix(1678.4424 0 0 -1678.4424 4230645.5 -10590603)" gradientUnits="userSpaceOnUse">
    <stop offset="0" stop-color="#dd8968"></stop>
    <stop offset="1" stop-color="#e9ce91"></stop>
  </linearGradient>
  <path fill="url(#b)" d="M2727.426 1214.618c-5.265 70.976-24.379 189.575-76.372 207.8-51.854 18.101-68.663 16.045-68.663 16.045s-.765 2.695-2.18 7.188a167.015 167.015 0 0 0-2.181 7.057h-.126c-6.292 20.155-18.488 57.376-29.657 82.532-2.944 6.418-5.778 11.94-8.335 16.302 0 0 .252 6.93.126 19.379-.126 63.668-6.68 270.566-81.248 418.429-88.944 176.741-143.368 192.915-143.368 192.915s-20.406 198.559-15.918 204.205c4.487 5.778 49.924 17.718 57.759 23.747 7.959 6.035 57.369 55.834 32.601 85.485-9.876 11.807-40.436 18.48-73.802 22.072-50.576 5.521-107.558 4.368-107.558 4.368s-121.934-122.704-130.658-159.544c-8.862-36.963-22.336-3.208-40.436.131-18.099 3.21-467.332 35.297-664.736 27.206-197.404-8.085-455.65-1.409-502.115-16.168-46.591-14.635-54.676-12.836-54.676-12.836s-77.787 86.506-143.494 77.393c-65.854-9.111-59.174-32.212-59.174-32.212s-85.61-28.365-48.91-68.412c36.713-40.174 153.772-101.911 174.566-125.915 20.92-24.127 110.767 7.961 158.899-41.714 28.49-29.519 73.163-104.481 104.862-160.565v-.133c2.445-4.361 4.751-8.599 7.057-12.702 17.85-31.963 30.033-55.195 30.033-55.195l16.044-50.314s-116.532-1.41-130.909-95.494c-14.252-94.083 36.324-184.186 155.049-195.222 118.726-11.17 125.908 48.902 131.561 110.765l5.641 61.738s130.659-68.926 186.111-119.496c55.326-50.57 103.458-85.867 103.458-85.867s36.061-136.436 81.75-164.42c45.825-28.109 26.573-20.919 23.238-36.194-3.083-15.148-19.253-80.989-19.253-80.989s-36.838 80.219-63.274 30.544c-26.573-49.797-109.613-143.625-116.932-263.122-7.446-119.495-32.866-239.117-5.002-244.764 27.852-5.521 198.682-65.335 198.682-65.335s-7.057-93.952 59.552-121.033c66.62-26.955 180.984-116.927 377.874-179.95 77.137-24.642 151.327-36.582 213.198-41.847 96.125-8.342 162.232-.895 162.232-.895s142.089 207.03 184.958 301.752c40.937 90.749 51.729 124.379 52.494 127.074-.514-.645-2.444-3.208-2.82-3.466.639 1.537 6.417 10.398 28.49 42.097 41.714 59.816 50.827 276.603 45.562 347.58z"></path>
  <linearGradient id="c" x1="-2520.153" x2="-2518.858" y1="-6313.088" y2="-6313.088" gradientTransform="matrix(302.8051 0 0 -302.8051 765289.938 -1910858.375)" gradientUnits="userSpaceOnUse">
    <stop offset="0" stop-color="#ecbcb2"></stop>
    <stop offset=".605" stop-color="#f8e7e3"></stop>
    <stop offset="1" stop-color="#fff"></stop>
  </linearGradient>
  <path fill="url(#c)" d="M2567.011 777.016c0 113.199-87.779 204.964-196.076 204.964-108.284 0-196.063-91.764-196.063-204.964 0-113.197 87.779-204.961 196.063-204.961 108.298 0 196.076 91.764 196.076 204.961z"></path>
  <path fill="#e2b2aa" d="M2424.62 902.705c-106.993 0-193.907-96.019-191.337-200.957.852-34.627 10.729-66.533 27.162-94.008-51.654 36.913-85.573 98.94-85.573 169.276 0 113.199 87.779 204.964 196.063 204.964 80.095 0 148.858-50.263 179.292-122.197-34.745 27.029-78.666 42.922-125.607 42.922z"></path>
  <path fill="#fefbfb" d="M2386.115 939.067c-106.993 0-193.906-96.019-191.337-200.957.852-34.877 10.892-66.977 27.538-94.583-29.531 35.867-47.443 82.464-47.443 133.49 0 113.199 87.779 204.964 196.063 204.964 80.095 0 148.858-50.263 179.292-122.197-1.992 1.554-4.123 2.933-6.179 4.411-37.228 45.981-94.774 74.872-157.934 74.872z"></path>
  <linearGradient id="d" x1="-2519.601" x2="-2518.306" y1="-6319.432" y2="-6319.432" gradientTransform="matrix(97.4493 0 0 -97.4493 248081.969 -615118.25)" gradientUnits="userSpaceOnUse">
    <stop offset="0" stop-color="#ecbcb2"></stop>
    <stop offset=".605" stop-color="#f8e7e3"></stop>
    <stop offset="1" stop-color="#fff"></stop>
  </linearGradient>
  <path fill="url(#d)" d="m2611.27 609.438-62.647-26.154 107.747 245.211s22.285-44.659 17.874-100.814c-4.414-56.154-62.974-118.243-62.974-118.243z"></path>
  <linearGradient id="e" x1="-2520.029" x2="-2518.734" y1="-6312.56" y2="-6312.56" gradientTransform="matrix(394.8588 0 0 -394.8588 997382.875 -2491462)" gradientUnits="userSpaceOnUse">
    <stop offset="0" stop-color="#af533e"></stop>
    <stop offset="1" stop-color="#de765e"></stop>
  </linearGradient>
  <path fill="url(#e)" d="M2796.741 1142.1c-45.312 47.875-58.147 38.762-58.147 38.762s-14.89 23.49-11.168 48.389c2.57 17.967-20.657 106.787-50.702 163.648-11.544 21.948-24.128 39.145-36.575 45.563-44.924 23.232-126.172-15.273-126.172-15.273l-77.011-51.215s-114.489-11.932-109.613-171.22c4.75-159.413 81.761-196.89 81.761-196.89s33.505-34.783 72.524-70.337c29.393-26.572 61.732-53.521 85.346-66.489 54.938-30.032 112.308-38.249 126.435-74.83 14.114-36.45 96.264-26.31 102.168 12.453 5.766 38.763 6.153 84.971 16.808 113.594 10.656 28.621 29.658 175.838-15.654 223.845z"></path>
  <path fill="#d36e97" d="M2080.4 827.505c-17.071-93.952-17.962-199.842 36.713-270.692 20.018-25.797 39.146-46.59 57.245-63.149-3.46 35.937 41.075-49.16 119.239-37.609 81.249 11.939-118.724-42.134-213.197 371.45zm235.91 1690.143-.25.125c-50.576 5.521-107.558 4.368-107.558 4.368s-121.934-122.704-130.658-159.544c0 0 0-.125-.263-1.027-.764-3.592-3.972-19.253-16.683-85.61-15.016-79.449-4.5-152.356-3.723-157.745-1.667 3.597-16.683 31.448-116.545 112.696-107.432 87.409-567.958 159.023-567.958 159.023-197.404-8.085-455.65-1.409-502.115-16.168-46.591-14.635-54.676-12.836-54.676-12.836s-77.787 86.506-143.494 77.393c-65.854-9.111-59.174-32.212-59.174-32.212s-33.366-11.037-49.411-29.135c-9.765-10.912-13.224-24.261.501-39.277 36.713-40.174 153.772-101.911 174.566-125.915 20.92-24.127 110.767 7.961 158.899-41.714 24.517-25.414 61.093-84.714 90.999-136.436a2076.964 2076.964 0 0 0 13.863-24.128v-.133l13.614-7.057-6.557-5.645c17.85-31.963 30.033-55.195 30.033-55.195l16.044-50.314s-11.933-.125-28.742-3.467c-35.434-6.93-92.416-28.107-102.167-92.027-14.252-94.083 36.324-184.186 155.049-195.222 23.992-2.313 43.508-1.543 59.289 1.285 62.258 11.931 67.772 60.063 72.272 109.48l5.641 61.738s130.659-68.926 186.111-119.496c55.326-50.57 103.458-85.867 103.458-85.867s36.061-136.436 81.75-164.42c45.825-28.109 26.573-20.919 23.238-36.194-3.083-15.148-19.253-80.989-19.253-80.989s-36.838 80.219-63.274 30.544c-26.573-49.797-109.613-143.625-116.932-263.122-7.446-119.495-32.866-239.117-5.002-244.764 27.852-5.521 198.682-65.335 198.682-65.335s-7.057-93.952 59.552-121.033c54.813-22.205 141.839-86.894 280.581-144.27-26.309 66.231-57.244 156.077-53.521 203.952 0 0-77.011 36.839-136.311 232.702-46.202 152.355-61.094 246.438-97.292 308.176 44.797-47.492 105.89-112.954 129.643-148.118-3.722 9.113-87.027 212.553-19.516 297.259 68.927 86.512 306.503 137.853 306.503 137.853s-141.313-12.835-253.621-27.337c-112.308-14.377-166.858 65.844 51.341 131.686 118.336 35.686 242.077 48.264 330.381 52.243-46.978 10.14-94.347 23.741-135.283 42.48 0 0-.125 0-.513.13-14.642 4.363-304.962 88.562-414.325 46.334-112.434-43.382-118.851-56.217-118.851-56.217s-17.586 57.759-173.276 142.729c0 0-165.191 65.844-133.103 194.195 32.088 128.353 255.037 128.353 357.718 97.035 102.682-31.192 197.405-95.367 322.548-77.782 125.143 17.585 195.223-90.999 195.223-90.999v-.132c22.336-30.032 36.838-63.405 36.838-63.405s-13.474 360.539 55.313 482.73c0 0 78.428 11.938 97.681 7.959 19.253-4.104 21.697 7.961 21.697 7.961s-99.473 31.316-95.499 65.841c3.978 34.527 96.518 52.37 96.518 52.37zm261.719-1064.94h-.126c-4.237 1.931-94.86 41.332-206.391 76.247 0 0-.263.125-.903.252h-.389c-15.781 3.208-178.539 32.99-195.348-83.299-17.711-122.191 60.967-298.676 60.967-298.676l-2.695-3.335v-.13c18.99-22.719 30.033-46.847 30.033-46.847s90.999-115.517 162.232-122.963c0 0-128.353 136.95-94.847 279.804 33.629 142.729 122.448 112.697 122.448 112.697s75.733 70.337 109.099 74.699c10.015 1.285 15.405 2.952 18.101 4.493 6.292 3.593-2.181 7.058-2.181 7.058zM1107.946 1600.388l75.406 43.406"></path>
  <linearGradient id="f" x1="-2521.688" x2="-2520.393" y1="-6315.881" y2="-6315.881" gradientTransform="matrix(196.4633 0 0 -196.4633 496341.563 -1239095.5)" gradientUnits="userSpaceOnUse">
    <stop offset="0" stop-color="#dd8968"></stop>
    <stop offset="1" stop-color="#e9ce91"></stop>
  </linearGradient>
  <path fill="url(#f)" d="M1026.886 1680.922c-52.871 67.127-10.392 110.508 13.612 126.552 17.962 11.94 24.379 62.892-13.474 80.22-35.434-6.93-92.416-28.107-102.167-92.027-14.252-94.083 36.324-184.186 155.049-195.222 23.992-2.313 43.508-1.543 59.289 1.285l37.74 33.241s-97.029-21.177-150.049 45.951z"></path>
  <linearGradient id="g" x1="-2524.389" x2="-2523.094" y1="-6336.084" y2="-6336.084" gradientTransform="matrix(40.0051 0 0 -40.0051 102595.602 -252224.406)" gradientUnits="userSpaceOnUse">
    <stop offset="0" stop-color="#dd8968"></stop>
    <stop offset="1" stop-color="#e9ce91"></stop>
  </linearGradient>
  <path fill="url(#g)" d="M1658.895 1222.833c-10.392 17.58-22.462 32.603-37.353 45.562-32.852 28.498-5.127-.381 37.353-45.562z"></path>
  <path fill="#9b3a69" d="M2674.293 1393.539c.903-.257 1.666-.513 2.431-.64-11.544 21.948-24.128 39.145-36.575 45.563-44.924 23.232-126.172-15.273-126.172-15.273l-77.011-51.215s-114.489-11.932-109.613-171.22c4.75-159.413 81.761-196.89 81.761-196.89s33.505-34.783 72.524-70.337l11.293-7.828s-85.485 212.803-30.809 315.874c54.424 103.064 244.897-18.74 244.897-18.74s-74.956 86.381-95.751 109.739c-20.793 23.232 34.534 70.594 63.025 60.967zm-17.924-551.545 6.643-15.643s124.391 20.983 136.599 13.099c12.209-7.885-2.607 35.836-3.22 38.241-.615 2.408-3.774 20.456-16.433 18.452-12.66-2.005-123.589-54.149-123.589-54.149z"></path>
  <path fill="#683e57" d="M2771.31 859.643c0 9.972-19.93 18.049-44.523 18.049-24.592 0-44.521-8.077-44.521-18.049 0-9.971 19.929-18.049 44.521-18.049 24.592-.001 44.523 8.078 44.523 18.049z"></path>
  <path fill="#fefbfb" d="M2757.872 789.25s20.456 36.701 23.064 47.53c0 0-2.608-46.527-11.532-48.332-8.925-1.806-11.532.802-11.532.802zm-27.475 140.586s5.213 184.506-56.154 277.562c0 0 69.39-79.419 76.609-233.44.001-.001.001-40.111-20.455-44.122zm71.07 20.055s12.409 119.002-21.509 179.831c0 0 57.746-80.495 21.509-179.831zm-427.022-109.25c0 31.762-25.745 57.507-57.507 57.507s-57.508-25.745-57.508-57.507c0-31.762 25.746-57.508 57.508-57.508s57.507 25.746 57.507 57.508z"></path>
  <path fill="#d36e97" d="m1807.465 670.725 19.666 81.531s51.756-74.976 147.994-35.003c0 0-74.68-58.824-49.773-184.237 24.906-125.412-68.15 50.269-68.15 50.269l-49.737 87.44zm44.923 291.199s-3.208 63.65-44.923 167.797c-41.714 104.148-74.078 136.312-57.896 202.857 16.181 66.546-48.797-5.653-48.797-5.653l52.143-197.203s62.572-96.402 99.473-167.798z"></path>
  <path fill="#e5b884" d="M1471.079 783.133s-29.945 138.744 0 316.669c29.944 177.926 92.14 227.123 92.14 227.123s-128.591-96.74-151.014-273.52c-22.425-176.778-8.511-232.449-8.511-232.449l67.385-37.823zm201.09 433.622s-50.828 153.459 28.603 233.96c0 0-85.021-34.08-93.933-88.092-8.911-54.01 14.703-94.228 14.703-94.228l50.627-51.64z"></path>
  <path fill="#e5b884" d="m1580.705 1422.657 49.21-35.829s53.146 53.628 50.902 54.355c-2.244.727-79.255 23.194-122.035 138.173-42.78 114.977-20.832 122.887-20.832 122.887s-30.51-87.59-28.905-131.981c1.605-44.391 71.66-147.605 71.66-147.605z"></path>
  <path fill="#e5b884" d="m1470.001 1594.328 28.955-30.233 15.003 36.293s-64.276 103.571-221.507 196.627c-157.232 93.055-220.305 97.742-276.207 205.3 0 0 23.514-97.003 103.734-164.388 80.22-67.384 125.695-87.666 202.43-135.685 76.736-48.019 147.592-107.914 147.592-107.914zm-456.965 430.575s-45.125 169.232-97.618 195.673c-52.494 26.567-110.191 12.26-186.048 48.709-75.983 36.325-87.277 117.058-157.87 109.099-2.696-.257-5.266-.77-7.696-1.409-9.765-10.912-13.224-24.261.501-39.277 36.713-40.174 153.772-101.911 174.566-125.915 20.92-24.127 110.767 7.961 158.899-41.714 24.517-25.414 61.093-84.714 90.999-136.436l24.267-8.73zm1052.737 81.761s47.355 320.681 172.886 415.44c0 0-47.593 15.862-96.941-58.19-49.346-74.054-108.033-205.364-75.945-357.25z"></path>
  <path fill="#d36e97" d="M2191.343 664.307s-85.56 128.064-60.241 224.071c25.32 96.007 152.244 150.03 217.133 121.414 64.891-28.616 33.053-35.836 33.053-35.836s-174.904-7.22-202.292-147.606c-27.387-140.383 12.347-162.043 12.347-162.043z"></path>
  <path fill="#683e57" d="M2380.374 822.441c-5.929-36.82-39.006-62.102-73.853-56.486-34.882 5.634-58.322 40.029-52.381 76.83 5.929 36.813 38.995 62.095 73.865 56.48 34.846-5.634 58.298-40.023 52.369-76.824zm-91.915 30.798c-29.919 0-29.919-46.422 0-46.422 29.932-.001 29.932 46.422 0 46.422zm55.552 24.779c-36.988 0-36.988-57.351 0-57.351 36.977 0 36.977 57.351 0 57.351zM670.007 2451.234c-14.515 0-27.4-2.82-38.581-8.454-14.878-7.489-22.938-18.106-26.962-25.212-26.008-5.496-43.482-16.872-52.005-33.868-13.011-25.947 1.191-53.935 1.805-55.121l2.081-4.01 4.136-1.825c.652-.288 65.718-29.242 104.399-67.923 44.635-44.635 65.38-56.586 151.829-62.296 77.162-5.095 128.728-90.229 169.002-172.837 7.846-16.118 14.402-30.796 20.493-44.453 25.37-56.868 43.708-97.956 113.374-149.403 22.587-16.677 56.931-38.77 96.703-64.345 106.292-68.363 251.866-161.989 287.94-227.375l22.487 12.396c-39.22 71.071-187.941 166.726-296.539 236.569-39.396 25.338-73.414 47.216-95.349 63.41-64.226 47.424-80.521 83.937-105.176 139.207-6.204 13.895-12.872 28.836-20.87 45.237-43.482 89.232-100.112 181.247-190.385 187.213-82.551 5.447-97.216 16.69-135.359 54.826-36.262 36.262-91.112 63.45-107.495 71.12-2.156 5.941-5.277 18-.063 28.228 6.706 13.187 25.37 18.789 39.859 21.17l7.696 1.266 2.419 7.415c.526 1.448 15.179 39.458 87.502 15.342 79.28-26.423 99.348-63.8 99.549-64.169l4.625-8.956 9.865 2.237c1.404.339 141.952 33.912 340.046 29.582 50.275-1.066 118.137-.233 196.714.739 235.785 2.896 558.632 6.863 717.82-37.696l6.919 24.717c-162.734 45.563-487.776 41.571-725.052 38.651-78.378-.966-146.038-1.812-195.85-.74-172.95 3.579-303.458-21.064-337.752-28.334-11.193 14.96-41.063 45.756-108.761 68.325-18.738 6.24-35.798 9.367-51.064 9.367z"></path>
  <path fill="#683e57" d="M2070.587 2044.092a691.578 691.578 0 0 0-6.117 65.192c-1.253 21.735-1.555 43.495-.84 65.166 1.103 43.325 6.041 86.45 16.17 128.064 9.777 41.671 25.745 81.624 48.145 117.19 22.499 35.465 52.08 66.068 87.075 89.063l-5.941-2.031h.038c27.751 2.031 56.079 2.983 83.867 2.313 13.902-.377 27.764-1.179 41.151-2.966 6.668-.902 13.237-2.068 19.316-3.697 5.954-1.561 11.946-3.899 14.74-6.205 5.704-4.449 9.614-16.827 8.737-28.172-.615-11.631-4.739-23.314-11.644-32.714-13.739-19.339-38.932-27.488-64.591-25.952l-.062.006-12.548.645-.877-12.628c-2.782-40.23-2.369-79.756.012-119.547 2.143-39.722 7.032-79.306 14.164-118.501 7.095-39.182 16.734-78.077 30.948-115.416 14.301-37.182 32.551-73.308 57.506-104.099-18.638 34.858-32.225 71.528-42.491 109.025-10.278 37.49-17.911 75.632-23.389 114.131-5.402 38.519-8.285 77.376-10.316 116.251-1.604 38.8-2.13 78.094-.814 116.47l-13.424-11.977h.063c15.494-.715 31.701.909 47.105 6.743 15.38 5.747 29.58 16.088 39.42 29.688 9.915 13.55 15.668 29.788 16.572 46.552.426 8.391-.365 16.99-2.959 25.52-2.62 8.354-7.145 17.285-15.455 24.086-8.524 6.448-16.383 8.654-24.041 10.891-7.658 2.044-15.129 3.329-22.537 4.338-14.815 1.974-29.394 2.789-43.908 3.189-29.079.683-57.658-.276-86.625-2.388l-.063-.006-3.222-.25-2.72-1.781c-19.09-12.452-36.977-26.881-52.896-43.268-15.881-16.427-29.644-34.79-41.426-54.186-23.716-38.87-38.142-82.288-46.866-125.97-8.461-43.884-10.667-88.462-8.824-132.534 2.294-44.053 8.123-87.894 19.567-130.235z"></path>
  <path fill="#683e57" d="m2317.038 2198.284-16.783-19.421c2.607-2.256 260.326-230.558 226.032-637.474l25.57-2.156c35.447 420.403-232.112 656.714-234.819 659.051z"></path>
  <path fill="#683e57" d="M2595.226 1438.814c-2.67 25.162-9.889 47.404-20.431 68.932-10.605 21.246-25.219 40.536-43.13 55.809-17.862 15.355-38.895 26.437-60.817 33.249-21.961 6.906-44.76 9.776-67.347 10.089 22.462-2.437 44.635-7.459 65.141-16.113 20.507-8.573 39.195-20.938 54.249-36.593 15.103-15.6 26.597-34.27 34.319-54.287 7.634-19.781 12.183-41.916 12.346-61.851l25.67.765z"></path>
  <path fill="#683e57" d="M2584.935 1454.018c-86.362 0-143.944-67.523-146.615-70.725l19.667-16.489c.639.751 65.091 75.77 153.559 59.017 24.568-4.656 45.901-20.8 63.412-47.988 36.425-56.542 45.6-145.417 36.148-184.242l24.944-6.079c10.316 42.378 2.194 139.488-39.508 204.222-21.472 33.335-48.458 53.289-80.208 59.307-10.83 2.055-21.322 2.977-31.399 2.977z"></path>
  <path fill="#683e57" d="M2465.019 1384.007c-36.701 0-77.588-8.562-108.322-38.524-40.561-39.546-51.992-106.003-33.969-197.524 42.592-216.23 322.31-326.828 334.192-331.434l9.276 23.94c-2.783 1.079-278.439 110.172-318.273 312.458-16.245 82.469-7.27 141.068 26.686 174.178 43.231 42.146 116.608 31.33 146.176 24.737 95.788-21.397 183.616-115.029 223.751-238.524 39.947-122.912 4.676-231.553 4.325-232.632l24.342-8.115c1.592 4.744 38.279 117.817-4.25 248.682-42.893 131.956-138.104 232.306-242.578 255.645-16.258 3.628-37.954 7.113-61.356 7.113z"></path>
  <path fill="#683e57" d="m2729.118 1196.323-3.409-25.445c3.422-.495 85.397-13.567 93.093-126.133 7.909-115.535-42.63-156.472-43.144-156.875l15.555-20.424c2.545 1.917 62.133 48.477 53.209 179.054-9.175 134.042-114.239 149.679-115.304 149.823z"></path>
  <path fill="#683e57" d="M2778.541 900.994c-43.181 0-129.468-45.367-138.405-62.339-6.743-12.803 5.954-25.795 10.128-30.064 25.908-26.523 95.261-65.562 135.408-45.607 21.421 10.661 29.293 64.308 28.579 89.326-.878 31.029-12.146 42.292-21.446 46.272-3.873 1.66-8.711 2.412-14.264 2.412zm-112.608-71.602c20.23 16.533 100.237 52.687 116.77 45.6.689-.301 3.597-3.467 5.076-13.507 4.174-28.384-7.044-69.941-14.126-75.876-9.413-4.607-25.971-3.191-46.014 4.375-29.243 11.024-53.973 30.257-61.706 39.408zm-79.657-59.883c-.05 56.011-23.89 111.693-63.648 150.971-39.597 39.589-95.098 62.671-151.152 62.891-56.08.659-112.171-22.161-152.08-61.951-40.286-39.389-64.001-95.456-63.963-152.08-.602-56.605 22.487-113.185 62.659-153.383 19.968-20.175 43.932-36.431 70.18-47.456 26.31-10.917 54.837-16.319 83.203-16.213 56.818-.032 113.373 23.52 152.857 64.182 39.921 40.185 62.721 96.584 61.944 152.863v.176zm-28.177-.176c-.213-49.003-20.794-97.079-55.64-130.978-34.62-34.099-82.539-53.928-130.984-53.389-48.358.187-96.064 19.841-130.471 53.904-34.594 33.893-54.874 81.792-54.913 130.469-.527 48.658 19.139 97.067 53.61 131.768 34.193 34.971 82.576 55.52 131.774 55.615 24.555.162 49.16-4.425 71.896-13.789 22.7-9.464 43.47-23.47 60.805-40.899 35.009-34.814 54.537-83.605 53.922-132.877v.176z"></path>
  <path fill="#683e57" d="M2450.83 526.862c-38.995-31.618-85.246-52.976-132.764-58.573-23.752-2.488-47.706-1.385-70.756 4.256-22.813 5.409-46.128 14.101-65.004 26.697-39.358 25.101-65.091 67.867-80.709 113.662-15.455 46.227-22.838 95.832-25.132 146.064-8.361-49.78-6.743-101.679 5.941-151.798 6.28-25.1 16.395-49.529 30.296-72.116 14.164-22.392 33.015-42.436 55.602-57.307 23.288-14.684 47.906-23.515 73.966-28.911 25.983-4.87 52.995-5.483 78.829-.269 51.742 10.02 98.119 38.986 129.731 78.295z"></path>
  <path fill="#683e57" d="M2644.323 825.387c-.777-2.093-78.328-210.34-232.263-413.39-51.466-3.009-448.367-16.276-778.097 250.807-3.685 11.506-15.292 50.2-15.292 82.256H1593c0-42.335 17.11-91.97 17.837-94.065l1.191-3.427 2.82-2.3c360.338-294.044 800.634-258.86 805.021-258.472l5.64.502 3.434 4.493c158.711 207.707 238.68 422.59 239.469 424.734l-24.089 8.862z"></path>
  <path fill="#683e57" d="M1873.245 692.655c-40.336 7.551-80.396 16.087-120.267 25.137-39.884 9.001-79.468 19.054-118.713 29.877-39.157 11.118-77.965 23.207-115.818 37.227-37.716 14.226-74.667 30.46-108.208 50.689l8.209-12.604c-3.748 43.231-2.707 88.505.163 132.564 3.196 44.26 9.689 88.242 20.344 130.991 10.353 42.792 24.779 84.52 44.76 123.243 20.08 38.589 45.023 74.588 76.109 104.702l-21.07-1.881c16.006-10.479 32.514-23.051 48.156-35.617a915.931 915.931 0 0 0 46.365-39.401c30.021-27.381 58.511-56.569 85.497-87.166 53.686-61.468 100.69-129.148 139.509-202.129-29.256 77.357-71.146 150.339-121.985 216.482-25.281 33.217-52.971 64.652-82.665 94.184-29.843 29.681-60.628 57.319-96.188 82.301l-10.792 7.582-10.291-9.462c-34.945-32.125-63.912-70.587-85.672-112.358-21.972-41.709-37.866-86.123-49.084-131.342-10.855-45.342-17.185-91.457-20.093-137.633-2.945-46.378-2.006-92.097 3.146-139.101l.928-8.437 7.281-4.178c37.165-21.303 76.398-36.358 115.969-49.086 39.571-12.816 79.706-22.951 120.091-31.361 80.72-16.923 162.357-28.141 244.319-33.223z"></path>
  <path fill="#683e57" d="M1629.526 1282.641c-2.933 9.174-5.013 21.19-5.841 32.15-.84 11.225-.601 22.562 1.028 33.661 3.146 22.192 12.059 43.558 27.137 60.886 14.929 17.455 35.534 30.547 58.009 39.446 22.512 9.036 46.841 14.201 71.409 17.191-24.755.201-49.825-1.724-74.392-8.034-24.468-6.211-48.758-17.173-68.702-35.04-20.055-17.666-34.469-42.165-41.676-68.274-3.698-13.061-5.754-26.51-6.506-40.004-.627-13.75-.376-26.516 2.206-41.457l37.328 9.475z"></path>
  <path fill="#683e57" d="M1630.705 1400.158c-9.727 5.57-21.133 13.655-30.76 22.023-9.876 8.484-19.253 17.672-27.601 27.738-16.544 20.18-30.295 42.986-38.543 68.255-8.16 25.176-12.559 52.188-11.744 79.688.137 27.538 4.65 55.376 11.055 83.103a288.113 288.113 0 0 1-27.575-81.585c-4.412-28.769-4.876-59.089 2.068-88.451 6.694-29.305 19.203-57.789 37.29-82.274 8.987-12.272 18.952-23.866 30.132-34.251 11.47-10.416 22.588-19.697 37.428-28.151l18.25 33.905zm-560.112 508.475c-18.788 24.041-33.943 53.509-42.415 83.773-8.537 30.423-9.902 63.055-1.192 93.734 8.485 30.74 26.786 58.617 49.9 81.599 23.151 23.113 50.714 41.858 79.731 57.651-29.97-13.894-58.887-30.865-84.118-52.971-25.144-21.96-46.403-49.818-57.745-82.407-11.583-32.482-12.459-68.45-5.291-102.123 7.358-33.912 20.783-65.492 40.801-94.936l20.329 15.68z"></path>
  <path fill="#683e57" d="M1070.481 1902.9c-26.748 2.926-52.093-.075-76.949-9.357-24.579-9.213-46.828-26.599-61.355-48.815-14.653-22.224-22.488-47.355-25.546-72.943-2.945-25.791.678-52.909 11.407-76.898 21.56-48.509 66.019-81.875 114-97.568 24.218-7.833 49.9-11.507 75.796-9.281 26.034 2.068 52.23 12.29 72.387 29.655 20.292 17.242 34.369 40.406 42.291 64.909 7.796 24.58 10.528 50.947 4.411 77.137-3.12 12.854-9.1 26.542-19.955 36.658-9.89 9.268-20.631 16.144-31.862 22.135-22.486 11.619-47.004 19.523-73.201 20.23-13.024.213-26.672-1.629-39.358-7.432-12.709-5.634-23.702-15.736-30.583-27.613-6.97-11.883-10.429-24.901-12.033-37.597-.778-6.236-1.204-12.924-1.154-19.009.051-6.661.602-13.029 1.831-19.585 2.482-12.935 8.035-26.21 18.137-36.319 9.977-10.196 24.43-15.849 38.455-15.429 14.026.469 27.726 6.794 36.25 17.611 8.686 10.76 10.641 25.252 6.806 36.782-1.454-12.152-6.618-22.693-14.803-29.142-7.998-6.544-18.364-9.533-28.166-8.874-9.89.395-19.09 4.707-25.834 11.601-6.768 6.987-10.866 16.69-12.696 27.118-1.793 10.365-1.454 21.633.074 32.694 1.554 10.9 4.7 21.335 10.003 30.002 10.304 17.737 30.935 25.369 52.544 24.292 21.609-.883 43.695-8.203 63.274-18.833 9.727-5.357 19.09-11.737 26.497-18.957 6.669-6.349 10.717-15.499 13.061-25.707 8.461-41.496-8.222-89.999-40.473-117.192-32.427-28.308-81.512-28.735-123.452-14.778-42.077 13.95-80.094 43.694-97.242 83.422-8.509 19.729-11.907 41.457-9.525 63.093 2.418 21.689 9.2 43.406 20.819 61.142 11.583 17.837 28.616 31.391 48.658 39.133 19.73 7.79 43.155 10.479 63.8 8.31l3.686 25.405zM2418.14 985.025c-28.904 10.335-57.871 27.608-83.316 47.412a353.566 353.566 0 0 0-67.924 70.355c-38.919 53.133-62.057 117.535-71.007 183.717 4.713-66.57 23.677-133.372 60.391-190.924 18.212-28.755 40.561-55.07 66.181-77.914 25.959-22.769 53.786-42.416 87.052-56.825l8.623 24.179zm-498.793 89.571c-2.081 25.369 1.93 51.266 11.619 74.366 9.538 23.189 25.871 43.187 46.628 56.593 20.768 13.6 45.01 20.274 69.328 25.407 24.492 5.171 49.786 7.125 75.518 9.226l.076 1.279c-25.42 4.907-51.73 5.785-77.801 2.136-26.034-3.711-51.567-13.806-72.988-29.625-21.659-15.554-38.042-37.986-46.74-62.708-8.5-24.831-10.718-51.347-6.92-76.862l1.28.188zm619.261-502.617c27.65 2.37 52.53 13.863 74.292 29.9 21.784 15.964 39.308 37.566 52.143 60.667 13.199 24.536 19.754 51.523 19.578 78.603-.275 27.049-5.666 53.308-17.849 77.613l-11.681-5.302c3.422-11.225 6.192-23.547 7.47-35.566 1.629-12.046 2.131-24.204 1.304-36.176-1.354-23.847-7.785-47.491-18.677-67.872-11.67-21.484-26.698-40.335-44.936-55.985-9.087-7.821-19.127-14.527-29.782-20.13-10.441-5.778-22.173-10.291-33.266-12.992l1.404-12.76zm120.394 399.371c0 13.18-10.68 23.866-23.866 23.866-13.187 0-23.866-10.685-23.866-23.866 0-13.18 10.679-23.866 23.866-23.866 13.185 0 23.866 10.685 23.866 23.866zm-91.991 77.682c0 10.153-8.223 18.381-18.376 18.381s-18.387-8.228-18.387-18.381 8.235-18.382 18.387-18.382c10.153 0 18.376 8.229 18.376 18.382zm107.232 55.282c0 7.971-6.469 14.439-14.44 14.439-7.972 0-14.439-6.468-14.439-14.439s6.468-14.44 14.439-14.44c7.972.001 14.44 6.469 14.44 14.44zM599.526 2390.242c11.393.965 24.992-.187 37.514-2.531 12.723-2.394 25.32-6.192 37.416-11.431 24.266-10.362 46.365-26.674 64.477-47.137-14.666 23.007-34.482 43.42-58.461 58.473-11.933 7.577-24.818 13.832-38.329 18.658-13.738 4.763-27.201 8.386-43.043 9.638l.426-25.67z"></path>
  <path fill="#683e57" d="M2009.331 2614.702c-106.129 0-211.079-4.869-296.3-16.075-210.753-27.708-646.186-59.688-982.182-63.048-317.597-3.178-552.503-33.975-554.847-34.288l-21.334-2.839 19.416-9.307c1.304-.627 132.037-63.731 229.743-143.582l28.829-23.615c76.009-62.358 98.959-81.173 163.749-114.044 62.873-31.894 66.295-47.837 66.32-47.994l-.74-6.75 6.794.57c1.241-.063 125.544-6.437 230.934 9.601l-1.931 12.685c-92.842-14.133-200.663-10.648-223.826-9.671-4.35 9.319-19.88 26.698-71.735 53.002-63.549 32.239-86.249 50.852-161.418 112.521l-28.854 23.633c-76.535 62.553-172.937 114.866-213.248 135.629 64.301 7.49 269.978 28.991 532.273 31.612 300.374 3.001 741.672 31.336 983.736 63.16 227.198 29.858 595.359 14.527 748.679-18.1 113.111-24.059 230.971-31.373 282.512-33.516-27.099-13.475-72.524-38.18-114-70.67-31.462-24.648-55.703-56.197-79.13-86.706-25.758-33.517-50.075-65.18-83.178-88.518-52.531-37.033-67.122-67.837-71.07-80.057h-91.563V2195.5h102.18l.727 5.596c.037.263 5.677 33.486 67.122 76.804 34.695 24.461 60.754 58.386 85.961 91.194 22.95 29.875 46.678 60.774 76.873 84.419 62.785 49.179 134.745 80.125 135.472 80.433l27.914 11.908-30.346.414c-1.566.019-158.372 2.507-306.792 34.093-96.74 20.585-278.388 34.341-456.74 34.341z"></path>
</svg>
