<svg xmlns="http://www.w3.org/2000/svg" enable-background="new 0 0 128 128" viewBox="0 0 128 128" id="world">
  <g id="World">
    <g>
      <circle cx="64" cy="64" r="48" fill="#9393ff"></circle>
      <path fill="#744cfd" d="M114,64c0-0.033-0.008-0.064-0.01-0.097c-0.008-12.198-4.396-23.831-12.552-33.044
			c-8.853-10-21.069-15.955-34.4-16.766c-0.99-0.061-1.976-0.083-2.96-0.086c-0.061-0.002-0.121-0.001-0.182,0.002
			c-12.185,0.007-23.826,4.398-33.037,12.552c-10.001,8.853-15.955,21.069-16.767,34.4c-0.06,0.991-0.082,1.978-0.085,2.963
			C14.007,63.95,14,63.974,14,64c0,0.033,0.008,0.064,0.01,0.097c0.008,12.198,4.396,23.831,12.552,33.044
			c8.853,10,21.069,15.955,34.4,16.766c1.014,0.062,2.027,0.091,3.036,0.093c0.001,0,0.002,0,0.002,0c0,0,0.001,0,0.001,0
			c0.022,0,0.045,0.002,0.067,0.002c12.209,0,23.852-4.401,33.072-12.563c10.001-8.853,15.955-21.069,16.767-34.4
			c0.06-0.991,0.082-1.978,0.085-2.963C113.993,64.05,114,64.026,114,64z M64,109.317c-5.163-4.75-9.41-10.282-12.655-16.317h25.311
			C73.41,99.035,69.163,104.567,64,109.317z M49.362,89c-3.224-7.197-5.046-14.998-5.309-23h39.895
			c-0.263,8.002-2.085,15.803-5.309,23H49.362z M18.043,66h22.012c0.246,7.972,1.951,15.751,4.965,23H25.377
			C20.907,82.126,18.386,74.231,18.043,66z M44.053,62c0.263-8.002,2.085-15.803,5.309-23h29.276c3.224,7.197,5.046,14.998,5.309,23
			H44.053z M64,18.683c5.163,4.75,9.41,10.282,12.655,16.317H51.345C54.59,28.965,58.837,23.433,64,18.683z M82.981,39H102
			c0.197,0,0.384-0.037,0.564-0.091c4.507,6.895,7.049,14.823,7.393,23.091H87.945C87.7,54.028,85.994,46.249,82.981,39z
			 M98.443,33.51c0.432,0.488,0.846,0.987,1.255,1.49H81.156c-3.025-6.089-7.005-11.723-11.829-16.687
			C80.6,19.613,90.864,24.947,98.443,33.51z M33.511,29.556c7.147-6.327,15.877-10.185,25.167-11.248
			C53.852,23.274,49.87,28.909,46.844,35H28.295C29.871,33.067,31.606,31.242,33.511,29.556z M25.438,38.91
			C25.617,38.963,25.803,39,26,39h19.019c-3.014,7.249-4.719,15.028-4.965,23H18.056c0.012-0.266,0.013-0.53,0.029-0.796
			C18.577,53.129,21.132,45.505,25.438,38.91z M29.557,94.49c-0.432-0.488-0.846-0.987-1.255-1.49h18.543
			c3.025,6.089,7.005,11.723,11.829,16.687C47.4,108.387,37.136,103.053,29.557,94.49z M94.489,98.444
			c-7.147,6.327-15.876,10.187-25.167,11.248C74.148,104.726,78.13,99.091,81.156,93h18.549
			C98.129,94.933,96.394,96.758,94.489,98.444z M102.621,89h-19.64c3.014-7.249,4.719-15.028,4.965-23h21.999
			c-0.012,0.266-0.013,0.53-0.029,0.796C109.425,74.834,106.891,82.425,102.621,89z"></path>
      <path fill="#00efc7" d="M114 63.66c0 .03-.01.05-.01.08 0 .98-.02 1.97-.08 2.96-.51 8.37-3.05 16.3-7.34 23.23l-2.72-3.28-7.82-9.46c-.65-.73-1.46-.53-1.7-.45-.23.07-1 .4-1.09 1.37-.24 2.59-2.38 4.55-4.98 4.55h-7.72c-2.45 0-4.53-1.76-4.93-4.18l-1.3-7.82h-4.35c-3.12 0-5.83-2.04-6.7-5-.04-.13-.08-.26-.11-.4l-.85-3.6-1.47-6.24c-.66-2.81.44-5.69 2.8-7.34l5.48-3.84-3.61-4.51c-.28-.35-.54-.7-.79-1.07-.83-1.24-1.48-2.59-1.94-4-.5-1.57-.77-3.23-.77-4.89V13.71c.63-.03 1.26-.04 1.9-.04.06 0 .12-.01.18 0 .98 0 1.97.02 2.96.08 13.33.81 25.55 6.77 34.4 16.77 8.15 9.21 12.54 20.84 12.55 33.04C113.99 63.6 114 63.63 114 63.66zM61.35 89.09l-5.48 14.61c-.19.52-.6.94-1.11 1.15-.25.1-.5.15-.76.15-.29 0-.58-.06-.84-.19l-28-13c-1-.46-1.44-1.64-.98-2.64l4.3-9.45-2.31-1.54c-2.05-1.36-3.06-3.89-2.53-6.29l2.71-12.19c.62-2.77 3.03-4.7 5.86-4.7h9.26c3.02 0 5.58 2.26 5.95 5.26l1.41 11.24 5.97 1.99c1.75.58 3.11 1.91 3.74 3.64l2.84 7.8C61.86 86.27 61.86 87.75 61.35 89.09z"></path>
      <circle cx="48" cy="37" r="6" fill="#ff9c33"></circle>
      <circle cx="80" cy="92" r="6" fill="#ff9c33"></circle>
      <path fill="#eceafd" d="M113.6,57.75c-1.19,0.84-2.44,1.67-3.75,2.51c-0.91,0.58-1.84,1.16-2.8,1.74c-2.2,1.34-4.54,2.67-6.98,4
			c-3.97,2.15-8.22,4.28-12.64,6.34c-1.43,0.67-2.87,1.32-4.33,1.97c-4.25,1.89-8.62,3.7-13.02,5.4
			c-7.18,2.77-14.49,5.28-21.54,7.36c-1.29,0.38-2.58,0.75-3.85,1.11c-1.04,0.28-2.07,0.56-3.09,0.82
			c-6.66,1.74-12.95,3.04-18.51,3.75c-3.25,0.43-6.24,0.65-8.92,0.65c-7,0-11.81-1.52-13.17-5.04c-1.77-4.58,2.73-10.66,13.4-18.09
			c0.18,1.48,0.43,2.94,0.74,4.38C6.45,80.97,4.05,85.18,4.73,86.92c0.88,2.28,6.57,3.16,15.97,2.11c1.37-0.15,2.81-0.34,4.33-0.58
			c5.25-0.81,11.39-2.13,18.29-4.03c1.25-0.34,2.53-0.71,3.84-1.1c6.58-1.93,13.77-4.36,21.47-7.34c5.4-2.09,10.44-4.21,15.09-6.32
			c1.42-0.65,2.8-1.29,4.15-1.92c1.22-0.59,2.41-1.17,3.56-1.74c2.71-1.35,5.26-2.69,7.64-4c3.84-2.12,7.26-4.18,10.22-6.14
			c1.27-0.84,2.47-1.67,3.57-2.47c7.67-5.55,11.29-10.04,10.41-12.31c-0.54-1.43-4.57-3.32-15.95-2.07
			c-0.74-1.28-1.54-2.53-2.4-3.75c12.88-1.68,20.31-0.21,22.08,4.38C128.88,44.5,123.3,50.99,113.6,57.75z"></path>
      <g>
        <path d="M52.937,105.257c0.317,0.159,0.686,0.243,1.063,0.243c0.324,0,0.634-0.061,0.95-0.188
				c0.645-0.266,1.151-0.791,1.388-1.437l5.479-14.61c0.098-0.259-0.033-0.547-0.292-0.644c-0.258-0.097-0.547,0.034-0.644,0.292
				L55.4,103.528c-0.142,0.387-0.444,0.7-0.826,0.857c-0.413,0.166-0.844,0.151-1.203-0.029l-19.16-8.896
				c-0.249-0.117-0.549-0.009-0.664,0.243c-0.116,0.25-0.008,0.548,0.242,0.664L52.937,105.257z"></path>
        <path d="M127.467,39.46c-1.849-4.794-9.355-6.384-22.32-4.732c-1.042-1.46-2.158-2.875-3.333-4.2
				c-8.942-10.104-21.281-16.12-34.744-16.938c-0.897-0.054-1.876-0.075-2.91-0.075c-0.096-0.015-0.176-0.01-0.26-0.006
				c-0.628,0.001-1.253,0.021-1.879,0.044c-0.008,0-0.014-0.004-0.022-0.004c-0.01,0-0.018,0.005-0.028,0.006
				c-11.6,0.454-22.701,4.894-31.443,12.63c-10.104,8.942-16.12,21.281-16.938,34.745c-0.055,0.906-0.081,1.884-0.077,2.935
				C13.508,63.896,13.5,63.968,13.5,64c0,0.038,0.004,0.076,0.01,0.1c0,1.996,0.129,3.987,0.366,5.929
				C3.176,77.526-1.316,83.754,0.533,88.54c1.375,3.557,5.963,5.36,13.637,5.36c2.683,0,5.706-0.22,8.983-0.654
				c5.419-0.692,11.667-1.958,18.569-3.762c0.871-0.222,1.75-0.458,2.635-0.697l0.47-0.126c1.271-0.361,2.562-0.731,3.854-1.112
				c6.957-2.052,14.218-4.533,21.579-7.373c1.595-0.616,3.178-1.25,4.752-1.89l0.104,0.615c0.439,2.665,2.721,4.599,5.423,4.599
				h7.72c2.858,0,5.214-2.151,5.479-5.004c0.064-0.699,0.625-0.904,0.75-0.942c0.259-0.083,0.753-0.16,1.156,0.294l10.306,12.457
				c-2.487,3.953-5.546,7.579-9.142,10.761c-9.803,8.676-22.597,13.129-35.818,12.346c-12.429-0.755-24.018-6.103-32.63-15.057
				c-0.192-0.199-0.508-0.205-0.707-0.014c-0.199,0.191-0.205,0.508-0.014,0.707c8.787,9.136,20.609,14.591,33.291,15.362
				c1.022,0.06,2.056,0.091,3.14,0.091c12.296,0,24.158-4.505,33.4-12.686c10.104-8.942,16.12-21.281,16.938-34.745
				c0.055-0.906,0.081-1.884,0.077-2.935c0.006-0.031,0.014-0.103,0.014-0.135c0-0.038-0.004-0.076-0.01-0.1
				c0-1.982-0.129-3.967-0.366-5.911C124.676,50.587,129.293,44.183,127.467,39.46z M14.51,63.92c0-1.086,0.026-2.044,0.079-2.93
				c0.803-13.196,6.699-25.291,16.603-34.056c8.441-7.469,19.124-11.808,30.309-12.361V30.11c0,1.693,0.267,3.39,0.794,5.045
				c0.481,1.471,1.154,2.858,2.002,4.125c0.258,0.381,0.525,0.742,0.813,1.103l3.277,4.094l-5.043,3.534
				c-2.53,1.768-3.707,4.855-3,7.864l2.317,9.828c0.032,0.156,0.076,0.3,0.119,0.438c0.897,3.053,3.642,5.203,6.827,5.351
				c0.008,0,0.016,0,0.023,0c0.266,0,0.487-0.209,0.499-0.477c0.014-0.276-0.2-0.51-0.476-0.522c-2.761-0.127-5.137-1.99-5.917-4.64
				c-0.035-0.115-0.071-0.23-0.101-0.367l-2.32-9.84c-0.612-2.608,0.408-5.284,2.601-6.816l5.48-3.84
				c0.113-0.08,0.188-0.202,0.208-0.339s-0.019-0.275-0.104-0.383l-3.61-4.51c-0.272-0.339-0.524-0.678-0.766-1.036
				c-0.795-1.188-1.428-2.493-1.879-3.874C62.751,33.294,62.5,31.7,62.5,30.11V14.543c0.467-0.014,0.932-0.033,1.4-0.033h0.18
				c1.093,0,2.052,0.026,2.93,0.079c13.195,0.802,25.29,6.698,34.057,16.603c1.217,1.373,2.375,2.838,3.445,4.356
				c0.846,1.2,1.645,2.449,2.376,3.712c1.283,2.217,2.398,4.544,3.313,6.919c0.101,0.258,0.392,0.388,0.646,0.287
				c0.258-0.099,0.386-0.389,0.287-0.646c-0.843-2.186-1.859-4.328-3.009-6.387c10.623-1.066,14.256,0.709,14.678,1.827
				c0.632,1.629-1.726,5.565-10.237,11.725c-1.092,0.793-2.287,1.62-3.553,2.457c-2.988,1.979-6.416,4.038-10.185,6.119
				c-2.449,1.349-5.015,2.691-7.621,3.99c-1.148,0.569-2.338,1.148-3.549,1.735c-1.35,0.629-2.729,1.269-4.146,1.918
				c-4.762,2.161-9.83,4.283-15.063,6.309c-2.964,1.147-5.891,2.213-8.789,3.23l-0.65-1.785c-0.685-1.88-2.161-3.317-4.052-3.943
				l-5.671-1.891l-1.371-10.927c-0.4-3.249-3.172-5.699-6.446-5.699h-9.26c-3.066,0-5.677,2.093-6.349,5.092l-2.71,12.19
				c-0.575,2.606,0.527,5.345,2.741,6.814L27.85,79.9l-3.722,8.176c-1.06,0.158-2.116,0.299-3.154,0.416
				c-2.486-4.359-4.287-9.048-5.345-13.948c-0.313-1.457-0.56-2.915-0.732-4.338c-0.257-1.997-0.387-4.051-0.401-6.15
				C14.502,64.024,14.51,63.952,14.51,63.92z M28.758,79.304l-2.312-1.54c-1.873-1.243-2.805-3.561-2.318-5.765l2.71-12.189
				c0.567-2.538,2.777-4.31,5.372-4.31h9.26c2.771,0,5.115,2.073,5.454,4.822l1.41,11.24c0.024,0.191,0.155,0.352,0.338,0.412
				l5.971,1.991c1.6,0.53,2.849,1.746,3.428,3.336l0.647,1.776c-3.986,1.383-7.903,2.65-11.7,3.764
				c-1.307,0.389-2.582,0.758-3.83,1.097c-6.464,1.78-12.474,3.109-17.88,3.96l3.628-7.971
				C29.037,79.704,28.962,79.439,28.758,79.304z M14.829,75.505c1.064,4.587,2.766,8.987,5.067,13.103
				C10.02,89.624,5.81,88.33,5.196,86.738C4.73,85.544,6.274,81.846,14.829,75.505z M113.49,64.08c0,1.086-0.026,2.044-0.079,2.93
				c-0.489,8.044-2.881,15.673-6.909,22.393L96.403,77.197c-0.851-0.955-1.925-0.694-2.218-0.596
				c-0.606,0.184-1.347,0.766-1.443,1.802c-0.217,2.335-2.144,4.096-4.482,4.096h-7.72c-2.211,0-4.077-1.582-4.437-3.764
				L75.962,77.9c2.489-1.022,4.946-2.068,7.341-3.133c1.463-0.651,2.906-1.303,4.338-1.974c4.45-2.074,8.712-4.211,12.669-6.354
				c2.649-1.445,4.939-2.757,6.999-4.011c0.963-0.582,1.897-1.164,2.811-1.747c1.136-0.728,2.143-1.396,3.065-2.032
				c0.191,1.734,0.308,3.497,0.321,5.295C113.498,63.976,113.49,64.048,113.49,64.08z M113.312,57.341
				c-1.094,0.772-2.314,1.589-3.73,2.497c-0.906,0.578-1.833,1.156-2.791,1.734c-2.048,1.247-4.323,2.551-6.958,3.988
				c-3.938,2.132-8.182,4.261-12.614,6.327c-1.427,0.668-2.864,1.317-4.321,1.966c-4.193,1.865-8.566,3.679-12.996,5.391
				c-7.336,2.83-14.57,5.302-21.502,7.347c-1.288,0.38-2.576,0.749-3.838,1.107l-0.463,0.125c-0.881,0.237-1.755,0.473-2.624,0.694
				c-6.864,1.794-13.071,3.051-18.449,3.738c-3.236,0.428-6.216,0.646-8.854,0.646c-7.219,0-11.493-1.588-12.703-4.72
				c-1.64-4.241,2.594-9.971,12.557-17.027c0.151,1.084,0.336,2.181,0.566,3.282C7.153,79.886,3.293,84.617,4.264,87.1
				c0.867,2.246,4.983,2.872,9.304,2.872c2.53,0,5.131-0.215,7.188-0.445c1.426-0.156,2.891-0.352,4.352-0.583
				c5.532-0.854,11.704-2.213,18.345-4.042c1.254-0.341,2.537-0.712,3.85-1.103c6.872-2.016,14.109-4.49,21.51-7.354
				c5.251-2.032,10.337-4.162,15.117-6.332c1.421-0.651,2.802-1.291,4.16-1.924c1.222-0.591,2.413-1.172,3.564-1.743
				c2.621-1.306,5.197-2.655,7.659-4.01c3.793-2.094,7.243-4.167,10.254-6.161c1.277-0.845,2.485-1.68,3.588-2.481
				c7.733-5.597,11.591-10.297,10.584-12.892c-0.726-1.928-5.363-3.564-16.154-2.423c-0.561-0.957-1.164-1.898-1.792-2.821
				c12.12-1.483,19.103-0.087,20.742,4.161C128.189,44.101,123.618,50.159,113.312,57.341z"></path>
      </g>
    </g>
  </g>
</svg>
