<svg xmlns="http://www.w3.org/2000/svg" viewBox="0 0 700 700" id="halloween-ice-cream">
  <path fill="#ff8983" d="m119.7,156.4c-6-15.6,5.8-33.9,19.3-44.3,11.7-9,30-16.2,42.9-6.8,2.3,1.7,4.2,1.7,6.7.2,5.4,6,19.3,16.9,37.9-.8,24.3-23.1,93.5-76.2,101.6-47.4,8.1,28.9-15,53.1,17.3,57.8,19.4,2.8,38.8-6.1,51.4-9.1,5,2,9.9,3.5,14.1,4.7.1.7.2,1.4.3,2.2,1.1,20.8-17.3,52-37,37-19.6-15-21.9-17.3-21.9,6.9s-83.1,19.6-95.9-6.9c-12.7-26.6-16.2-31.2-21.9-18.5-5.8,12.7-20.8,30-27.7,32.3-4.2,1.4-7.1-8.7-8.8-16.9l.8-1.2-.9.5-17.6,10-.6.3c-.2,0-13,7.4-27.2,10.7,0,0-8.2-.3-9.4,1.5-18.3,1.5-22.2-8.7-23.5-12.2Zm34.6,253.9c-5.2,5.4-22.2,37.7-26.1,83.2-3.6,41.8,3.6,103.1,57.9,157.4l6.4,6.4-8.7,2.3c-6.6,1.8-16.4,6.5-17,10.3-.2,1.6,1.7,4.8,8,8.8,10.9,6.9,85.3,11.6,170.4,10.8,1.4,0,2.8,0,4.2,0,42.6-.5,82.4-2.3,112-5.1,39.4-3.7,50.5-8.2,53.6-10l-20.2-28.8,4.2-3c.2-.1,20.2-15,35.5-51.2,14-33.1,26.7-91.3,8.8-181H154.3Zm393.2-96.1h-5.8c-2.4.3-4.9.5-7.3.5s-4.7-.2-6.8-.5H152.5c-23.6,0-42.9,19.2-42.9,42.9s19.2,42.9,42.9,42.9h394.9c23.6,0,42.9-19.2,42.9-42.9s-19.2-42.9-42.9-42.9Z"></path>
  <path fill="#faf4f3" d="m551.5,300.1c-2.4,1.9-6.2,3-10.2,3.7h-13.5c-1.2-.3-2.1-.6-2.6-1.1.2.2.4.6.4,1.1h-1.9l-8.2-2.2c-.2.7-.3,1.5-.3,2.2H152.5c-2.1,0-4.2.1-6.3.4-.8-.3-1.7-.4-2.8-.4v.8c-.4,0-.7.1-1.1.2,0,0,.1,0,.2,0-.1,0-.2,0-.4.1,0,0,0,0,0,0-.7.1-1.5.3-2.2.5-5.2.8-13.9.6-15.1-1.2,0,0,0-.4.2-1.2,3.5-10.6,23-18,30.2-20l9.8-2.7-7.9-6.4c-1.6-1.3-33.4-27.8-17.6-74.2,2.3-6.7,5.5-13.8,10-21.3,8.8-1.4,17.4-4.5,24-7.3-.3,3.1,0,6.5,1.4,9.8,3.1,7.2,10.6,11.9,22.3,13.8,21.4,3.6,36.3-11.2,44.3-25.1,6.8,13.7,23.6,34.3,64.5,43.2,8.1,1.8,15.5,2.6,22.3,2.6,12.6,0,22.8-3.1,30.4-9.2,6.3-5.1,9.6-11.3,11.4-16.5,5,3.6,10.4,5.3,16.4,5,19.1-1,36.9-23.7,44-33.9l19,14.7c8.7,6.8,15.3,6,19.3,4.2,8.9-4.1,12.6-16.8,14.1-25.7,5.6,3.2,13.9,7.4,22.7,10.4,22.7,20.9,33,41,30.6,59.5-3.6,27.2-33.7,43.1-34,43.3l-13.8,7.1,15.2,2.7c16.2,2.8,43.8,11,48.9,20.7.5.9.7,1.4-.9,2.6Zm-37.6-239c-4.8-5.4-26-4.8-38.9-2.7l-4.6.8-1.2-4.5c-7.8-28.5-25.9-38.8-39.7-42.4-4.9-1.3-9.9-1.9-15-1.9-16.1,0-32.3,6.1-42.8,16.8-4.8,5-10.5,13.2-10.2,24.1,0,.7,0,1.4.1,2,0,.7.1,1.3.2,2,0,.6.2,1.1.3,1.7.2,1.2.5,2.4.8,3.6.4,1.4.8,2.8,1.4,4.1.8,2.1,1.8,4.2,3,6.1.3.5.6,1,.9,1.5.3.5.6,1,1,1.4.7,1,1.4,1.9,2.2,2.8.8.9,1.5,1.7,2.3,2.6,3.7,3.8,7.9,7,12.3,9.7,10,6.1,21,9.9,29.3,12.1,2.2.6,4.1,1,5.8,1.4.6.1,1.1.2,1.6.3.3,0,.5,0,.7.1,2.2.4,3.7.7,4.2.7.1,0,.2,0,.2,0l2,.3,1.3,1.5c11.2,13.2,22.2,19.5,32.8,19,14.4-.8,26.4-14.4,34-25.6,8.1-12,13.7-25.3,16.1-33.1.9-3,0-4.1-.4-4.5Z"></path>
  <path fill="#b55957" d="m543.2,410.3c17.9,89.7,5.2,147.9-8.8,181-15.3,36.2-35.3,51.1-35.5,51.2l-4.2,3,20.2,28.8c-3,1.9-14.2,6.3-53.6,10-29.7,2.8-69.4,4.6-112,5.1-1.4,0-2.8,0-4.2,0,19.9-10.1,35.3-20.4,32.6-27.1-6.9-17.3-124.7-15-124.7-15l25.4-2.3s150.1,0,184.8-9.3c34.6-9.2,50.8-155.9,34.6-190.5-8.4-17.9-72.7-28.7-132.9-35h178.2Zm4.2-96.1h-5.8c-2.4.3-4.9.5-7.3.5s-4.7-.2-6.8-.5h-192.1c80.4,3.4,178.2,10.6,185.6,26.1,10.9,22.9-83.4,50.9-204.1,59.7h230.6c23.6,0,42.9-19.2,42.9-42.9s-19.2-42.9-42.9-42.9ZM226.5,104.6c24.3-23.1,93.5-76.2,101.6-47.4,8.1,28.9-15,53.1,17.3,57.8,19.4,2.8,38.8-6.1,51.4-9.1-20.7-8.1-44.6-24-45.7-54.2-.1-3.8.3-7.6,1.2-11.3,0-.3.2-.7.3-1,.1-.4.2-.8.4-1.2.1-.3.2-.7.3-1,.3-.8.6-1.6.9-2.4.1-.3.2-.6.4-.9.3-.6.5-1.2.8-1.8.3-.6.6-1.1.9-1.7.3-.5.6-1,.9-1.5.4-.6.8-1.3,1.2-1.9-8-1.2-15.7-1.8-23.1-1.8s-2.8,0-4.1,0c-1.4,0-2.9.1-4.3.2-1,0-2,.1-3,.2-2,.2-4,.4-6,.6-1,.1-2,.2-2.9.4-1,.1-2,.3-2.9.5-4.9.8-9.6,1.8-14.1,3-.9.2-1.8.5-2.7.8-.9.3-1.8.5-2.7.8-4.5,1.4-8.8,2.9-13,4.6-1.7.7-3.3,1.4-5,2.1-.8.4-1.6.7-2.4,1.1-.8.4-1.6.7-2.4,1.1-.8.4-1.6.8-2.4,1.2-.8.4-1.6.8-2.3,1.2-1.6.8-3.1,1.6-4.6,2.5-.8.4-1.5.8-2.3,1.3-1.5.8-2.9,1.7-4.4,2.6-.7.4-1.3.8-2,1.2-4.9,3.1-9.6,6.3-13.9,9.5-.7.5-1.3,1-2,1.5-1.9,1.5-3.8,2.9-5.6,4.4-1.1.9-2.1,1.7-3.1,2.6-.3.2-.5.4-.8.6-.9.8-1.9,1.6-2.8,2.4-6.3,5.5-11.7,10.7-16.3,15.4-.4.4-.8.8-1.2,1.2-.1.1-.2.2-.3.3-.6.6-1.2,1.2-1.8,1.8-1.9,2-3.7,3.8-5.2,5.5-4.5,4.7-7.5,7.9-10,9.5,5.4,6,19.3,16.9,37.9-.8Zm81.7,97.9c20,4.3,34.8,2.8,44-4.5,9.4-7.6,9.5-18.8,9.5-19v-15.3l9.3,12.1c4.5,5.9,9.3,8.6,14.9,8.3.5,0,1,0,1.4-.2,0,0,0,0,0,0,.4,0,.8-.1,1.1-.2.2,0,.3,0,.5-.1.4-.1.9-.2,1.3-.3.5-.2,1-.3,1.5-.5.5-.2.9-.3,1.4-.6,0,0,.2,0,.3-.1.4-.2.9-.4,1.3-.6.6-.3,1.3-.7,1.9-1.1.4-.2.7-.4,1.1-.7.5-.3,1-.6,1.5-1,.5-.3,1-.7,1.5-1.1.5-.3,1-.7,1.4-1.1,1.1-.9,2.2-1.8,3.3-2.8.3-.3.6-.6.9-.8,1-1,2-2,3-3,.3-.3.7-.7,1-1.1,0,0,.2-.2.2-.3.5-.5.9-1,1.4-1.5,1.3-1.4,2.5-2.8,3.7-4.2.6-.7,1.1-1.4,1.7-2.1,1.3-1.6,2.4-3.1,3.4-4.6.5-.7,1-1.3,1.4-2,0,0,.1-.1.1-.2.5-.7.9-1.3,1.3-2,0,0,0,0,0,0,.4-.6.8-1.2,1.1-1.8l3-5,28,21.8c2.5,2,6.1,4.1,8.6,3,.2-.1.4-.2.6-.3.1,0,.3-.2.4-.3,1.1-.8,2-2.1,2.9-3.8.1-.2.2-.5.4-.7,1.1-2.3,2-5.1,2.8-8,.1-.5.3-1.1.4-1.6.4-1.8.8-3.7,1-5.5,0-.6.2-1.2.2-1.7,0-.6.1-1.1.2-1.7,0-.5,0-1.1.1-1.6l.5-8.9,7.5,4.9c9,5.9,35.4,20.2,48.6,16.1,3-.9,4.9-2.8,6.1-5.8.5-1.3.8-2.6.8-4.1,0-9.9-11.8-23.8-33-38.4-.6.8-1.2,1.6-1.8,2.4-.3.4-.7.9-1,1.3-.7.9-1.4,1.7-2.1,2.5-.2.3-.5.6-.7.8-5.2,5.9-10.7,10.5-16.4,13.7-.4.2-.9.5-1.3.7-.6.3-1.1.6-1.7.8-.4.2-.8.4-1.2.6-.4.2-.8.4-1.2.5-.4.2-.8.3-1.3.5-.3.1-.6.2-.9.3,0,0-.1,0-.2,0-.5.2-1.1.3-1.6.5-.3.1-.7.2-1.1.3-.4.1-.8.2-1.3.3-.5.1-1,.2-1.5.3-.5,0-1,.2-1.5.2-.2,0-.5,0-.8,0-.4,0-.8,0-1.3.1-.7,0-1.3,0-2,0s-1.4,0-2.1,0c-.7,0-1.4-.1-2.1-.2-.6,0-1.2-.2-1.8-.3-.1,0-.3,0-.4,0-.7-.1-1.3-.2-2-.4-.8-.2-1.6-.4-2.4-.7-.5-.2-1-.3-1.5-.5-.3,0-.6-.2-.9-.3,0,0,0,0-.1,0-.5-.2-1-.4-1.5-.6,0,0-.2,0-.3-.1-.6-.2-1.1-.5-1.6-.7-.2,0-.3-.2-.4-.2-.7-.3-1.3-.7-2-1-.8-.5-1.6-.9-2.4-1.4-1.6-1-3.2-2.1-4.8-3.3-.8-.6-1.5-1.2-2.3-1.9-.8-.7-1.6-1.4-2.4-2.1-.6-.5-1.2-1.1-1.7-1.7-.2-.2-.4-.4-.6-.6-1-1-1.9-2-2.9-3-.6-.6-1.2-1.3-1.7-1.9-2.7-.4-7.6-1.3-13.8-3,.1.7.2,1.4.3,2.2,1.1,20.8-17.3,52-37,37-19.6-15-21.9-17.3-21.9,6.9s-83.1,19.6-95.9-6.9c-12.7-26.6-16.2-31.2-21.9-18.5-5.8,12.7-20.8,30-27.7,32.3-4.2,1.4-7.1-8.7-8.8-16.9l-11.4,17.1c-1.3,2-4.4,8.3-2.4,12.9,2,4.7,9,6.7,14.5,7.7,26.4,4.4,37.9-28.9,38.4-30.3l7.1-21.2,2.9,22.1c.2,1.4,5.8,35.6,60.9,47.6Z"></path>
  <path fill="#e2e2e2" d="m551.5,300.1c-2.4,1.9-6.2,3-10.2,3.7h-13.5c-1.2-.3-2.1-.6-2.6-1.1.2.2.4.6.4,1.1h-1.9l-8.2-2.2c-.2.7-.3,1.5-.3,2.2h-236.7c60.7-2.8,148.2-7.6,159.3-13.2,17.3-8.7-31.2-10.4-31.2-10.4,45-3.5,79.7-65.8,67.6-64.1-12.1,1.7-36.4-22.5-36.4-22.5,0,0,5.2,22.5-22.5,34.6-27.7,12.1-41.6-15.6-41.6-15.6,0,0-22.5,29.4-83.1,31.2-60.6,1.7-58.9-50.2-58.9-50.2,0,0-1.7,20.8-43.3,27.7-41.6,6.9-29.4-29.4-29.4-29.4-9.6,5.7-15.7,7.6-19.5,7.7,2.3-6.7,5.5-13.8,10-21.3,8.8-1.4,17.4-4.5,24-7.3-.3,3.1,0,6.5,1.4,9.8,3.1,7.2,10.6,11.9,22.3,13.8,21.4,3.6,36.3-11.2,44.3-25.1,6.8,13.7,23.6,34.3,64.5,43.2,8.1,1.8,15.5,2.6,22.3,2.6,12.6,0,22.8-3.1,30.4-9.2,6.3-5.1,9.6-11.3,11.4-16.5,5,3.6,10.4,5.3,16.4,5,19.1-1,36.9-23.7,44-33.9l19,14.7c8.7,6.8,15.3,6,19.3,4.2,8.9-4.1,12.6-16.8,14.1-25.7,5.6,3.2,13.9,7.4,22.7,10.4,22.7,20.9,33,41,30.6,59.5-3.6,27.2-33.7,43.1-34,43.3l-13.8,7.1,15.2,2.7c16.2,2.8,43.8,11,48.9,20.7.5.9.7,1.4-.9,2.6Z"></path>
  <path fill="#440202" d="m585.8,393.9c.4-.5.9-.9,1.3-1.4,0,0,.2-.2.2-.3,1.9-2.1,3.6-4.4,5.1-6.8.1-.2.3-.4.4-.6.3-.4.5-.9.8-1.3.2-.3.3-.6.5-.8.2-.4.4-.8.7-1.3.2-.3.3-.6.5-1,.2-.4.4-.8.6-1.2.2-.3.3-.7.5-1,.2-.4.3-.8.5-1.2.1-.4.3-.7.4-1.1.2-.4.3-.8.5-1.2.1-.4.3-.8.4-1.1.1-.4.3-.8.4-1.3.1-.4.2-.8.3-1.2.1-.4.2-.8.3-1.3,0-.4.2-.8.3-1.2,0-.4.2-.9.3-1.3,0-.4.2-.8.2-1.2,0-.4.1-.8.2-1.3,0-.4.1-.9.2-1.3,0-.4.1-.8.2-1.3,0-.5,0-.9.1-1.4,0-.4,0-.8,0-1.2,0-.6,0-1.2,0-1.8,0-.3,0-.5,0-.8,0-6.7-1.3-13.1-3.5-19-6.1-15.9-19.7-28.2-36.4-32.6.2-.2.3-.5.5-.7.8-1.2,1.4-2.4,1.6-3.7.6-2.6.2-5.4-1.3-8.2-6-11.5-26.6-18.8-41.3-22.7-.9-.2-1.8-.5-2.6-.7.5-.3.9-.7,1.4-1.1.2-.1.4-.3.5-.4.3-.3.7-.6,1-.8.3-.3.7-.6,1-.8.3-.3.7-.6,1-.9.4-.3.7-.6,1.1-1,.3-.3.7-.6,1-.9.4-.3.8-.7,1.1-1.1.3-.3.7-.7,1-1,.4-.4.8-.8,1.1-1.1.3-.3.7-.7,1-1,.4-.4.8-.8,1.1-1.2.3-.4.6-.7,1-1.1.4-.4.8-.9,1.2-1.3.3-.4.6-.7.9-1.1.2-.2.3-.4.5-.6.2-.2.4-.5.6-.7.4-.5.8-1,1.1-1.5.3-.5.7-.9,1-1.4.4-.5.7-1.1,1.1-1.6.3-.5.6-1,.9-1.5.3-.6.7-1.1,1-1.7.3-.5.6-1,.8-1.5.3-.6.6-1.2.9-1.8.3-.5.5-1,.8-1.6.3-.6.6-1.3.8-1.9.2-.5.4-1.1.7-1.6.3-.7.5-1.4.7-2.1.2-.5.4-1.1.5-1.6.2-.8.4-1.5.6-2.3.1-.5.3-1,.4-1.6.2-1,.4-1.9.5-2.9,0-.4.1-.7.2-1.1.2-1.3.3-2.6.4-3.9,0-.4,0-.7,0-1.1,0-1,0-1.9,0-2.9,0-.4,0-.9,0-1.3,0-.9,0-1.8-.2-2.7,0-.5,0-.9-.1-1.4-.1-.9-.3-1.9-.4-2.8,0-.4-.1-.8-.2-1.1-.3-1.3-.5-2.7-.9-4,0,0,0-.1,0-.2-.3-1.3-.7-2.5-1.2-3.8-.1-.4-.3-.9-.5-1.3-.3-.9-.7-1.8-1-2.7-.2-.5-.4-1-.6-1.5-.4-.9-.8-1.7-1.2-2.6-.2-.5-.5-1-.7-1.5-.5-.9-1-1.9-1.5-2.8-.2-.4-.4-.8-.7-1.2-.8-1.3-1.6-2.7-2.5-4-.1-.2-.2-.3-.3-.5-.8-1.2-1.6-2.4-2.4-3.5-.3-.5-.7-.9-1-1.4-.7-.9-1.3-1.8-2.1-2.7-.4-.5-.8-1-1.2-1.5-.7-.9-1.4-1.7-2.2-2.6-.4-.5-.9-1-1.3-1.5-.2-.2-.4-.5-.6-.7,3.3,0,6.4-.3,9.3-1.2,3-.9,5.5-2.4,7.7-4.4.5-.5,1.1-1.1,1.6-1.6.1-.1.2-.3.3-.4.4-.4.7-.9,1-1.4,0,0,0,0,0,0,.3-.4.5-.8.7-1.2.1-.2.2-.4.3-.6.4-.7.7-1.4,1-2.1,7.7-19.2-14.4-40-36.1-54.9,2.3-3.8,4.4-7.6,6.3-11.4,0-.1.1-.2.2-.4,2.9-5.8,5.2-11.2,6.8-15.7.5-1.4,1-2.8,1.4-4,.3-.8.4-1.6.6-2.4,0,0,0-.1,0-.2,0,0,0,0,0,0,.6-3.3,0-6-.8-8.1-.6-1.5-1.5-2.7-2.3-3.7-1.9-2.2-4.5-3.8-7.6-5-11-4.2-27.6-2.9-36.2-1.8-1.1-3.4-2.4-6.6-3.9-9.7-8.6-18.3-23.1-30.7-41.9-35.6-1.5-.4-2.9-.7-4.4-1-.6-.1-1.1-.2-1.7-.3-.9-.1-1.8-.3-2.8-.4-.8,0-1.5-.1-2.3-.2-.7,0-1.5-.1-2.2-.2-.8,0-1.7,0-2.5,0-.7,0-1.4,0-2,0-.9,0-1.7,0-2.6,0-.6,0-1.3,0-1.9,0-.9,0-1.7.2-2.6.2-.6,0-1.3.1-1.9.2-.9.1-1.7.3-2.6.4-.6.1-1.2.2-1.9.3-.9.2-1.7.4-2.6.5-.6.1-1.2.3-1.8.4-.9.2-1.7.4-2.5.7-.6.2-1.2.3-1.8.5-.8.3-1.7.5-2.5.8-.6.2-1.2.4-1.8.6-.8.3-1.6.6-2.4,1-.6.2-1.2.5-1.7.8-.8.4-1.5.7-2.3,1.1-.6.3-1.1.6-1.7.9-.8.4-1.5.8-2.2,1.2-.5.3-1.1.6-1.6.9-.7.4-1.4.9-2.1,1.4-.5.3-1,.7-1.5,1-.7.5-1.4,1-2,1.5-.5.4-.9.7-1.4,1.1-.7.5-1.3,1.1-1.9,1.7-.1.1-.3.2-.4.4-1.6-.3-3.3-.6-4.9-.9-.4,0-.7-.1-1.1-.2-1.2-.2-2.5-.4-3.7-.6-.4,0-.9-.1-1.3-.2-1.2-.2-2.4-.3-3.5-.4-.4,0-.8,0-1.2-.1-1.3-.1-2.6-.2-3.9-.3-.2,0-.5,0-.7,0-1.6-.1-3.2-.2-4.7-.3,0,0,0,0-.1,0-1.5,0-2.9,0-4.4-.1-.3,0-.7,0-1,0-1.2,0-2.4,0-3.6,0-.3,0-.6,0-.9,0-1.4,0-2.8,0-4.2.2,0,0,0,0,0,0,0,0,0,0,0,0-2.1.1-4.2.3-6.3.5-.1,0-.2,0-.4,0-4.1.4-8.1.9-12.1,1.6-.1,0-.2,0-.3,0-1.9.3-3.8.7-5.6,1.1-.2,0-.5.1-.7.2-1.8.4-3.6.8-5.4,1.3-.1,0-.3,0-.4.1-1.8.5-3.6,1-5.3,1.5,0,0-.2,0-.3,0-1.7.5-3.4,1.1-5.1,1.6-.3,0-.5.2-.8.3-1.7.6-3.3,1.1-4.9,1.8-.2,0-.4.2-.7.3-3.3,1.3-6.6,2.6-9.7,4.1-.2.1-.5.2-.7.3-1.5.7-3,1.4-4.5,2.1-.2.1-.5.2-.7.3-1.5.8-3,1.5-4.5,2.3,0,0,0,0,0,0-1.5.8-3,1.6-4.5,2.4-.2,0-.3.2-.5.3-1.4.8-2.8,1.6-4.2,2.5-.2.1-.4.2-.6.3-1.4.8-2.8,1.7-4.1,2.6,0,0-.1,0-.2.1-1.4.9-2.8,1.8-4.1,2.7,0,0,0,0-.1,0-1.3.9-2.7,1.8-4,2.7-.1,0-.3.2-.4.3-1.3.9-2.6,1.8-3.8,2.8,0,0-.1,0-.2.1-2.6,1.9-5.1,3.8-7.5,5.8,0,0-.1.1-.2.2-1.2,1-2.4,1.9-3.5,2.9,0,0,0,0-.1,0-3.5,2.9-6.8,5.9-9.9,8.7,0,0,0,0,0,0-8.2,7.6-14.8,14.6-19.7,19.7-2.2,2.3-4.4,4.7-6,6.2-.8-.4-1.6-.8-2.4-1.2-.3-.1-.6-.3-.9-.4-.5-.2-1.1-.4-1.6-.6-.3-.1-.7-.3-1-.4-.8-.2-1.5-.5-2.3-.7-.4-.1-.8-.2-1.3-.3-.5-.1-1-.2-1.4-.3-.4,0-.8-.1-1.3-.2-.8-.1-1.7-.2-2.5-.3-.3,0-.6,0-.8,0-.5,0-.9,0-1.4,0-.2,0-.5,0-.7,0-.3,0-.6,0-.8,0-.9,0-1.9,0-2.8.2-.2,0-.4,0-.5,0-.8,0-1.7.2-2.5.3-.3,0-.5,0-.8.1-1,.2-1.9.4-2.9.6-.2,0-.5.1-.7.2-.8.2-1.6.4-2.4.7-.3,0-.5.2-.8.2-1,.3-1.9.6-2.9,1-.3.1-.6.2-.8.3-.8.3-1.6.7-2.4,1-.2.1-.5.2-.7.3-1,.4-1.9.9-2.9,1.4-.3.2-.6.3-.9.5-.8.5-1.7.9-2.5,1.4-.2.1-.4.2-.6.3-1,.6-1.9,1.2-2.9,1.9-.3.2-.5.4-.8.6-1,.7-2,1.4-3,2.2-17,13.1-30.7,35.5-22.7,56.3,3.3,8.6,10.7,18.1,27.1,19-10.4,19.5-13.1,36.7-12,51.1,1.7,21.7,12.2,37.2,19.2,45.3-9.8,3.8-25,11.5-29.2,24-1.8,5.3-.4,10,3.7,13.1.7.5,1.5,1,2.4,1.4-5,3.6-9.3,8.1-12.8,13.2-5.8,8.5-9.2,18.8-9.2,29.8s0,1.3,0,1.9c0,.2,0,.4,0,.5,0,.5,0,1.1.1,1.6,0,.3,0,.6,0,.9,0,.5.1,1,.2,1.6,0,.3,0,.6.1.9,0,.5.2,1,.2,1.5,0,.3.1.6.2.9,0,.5.2,1,.3,1.5,0,.3.1.6.2.9.1.5.2,1,.4,1.5,0,.3.1.5.2.8.2.5.3,1.1.5,1.6,0,.1.1.3.2.4.6,1.9,1.4,3.8,2.2,5.6,0,.2.2.3.2.5.2.5.5,1,.7,1.5.1.2.2.4.3.7.3.5.5.9.8,1.4.1.2.3.4.4.7.3.5.5.9.8,1.4.1.2.3.4.4.6.3.5.6.9.9,1.4.1.2.3.4.4.5.3.5.7.9,1,1.4,0,0,.1.2.2.3,1.7,2.2,3.6,4.3,5.7,6.2,0,0,.2.2.3.3.4.4.9.8,1.4,1.2.1.1.3.2.4.3.5.4.9.8,1.4,1.1.1.1.3.2.4.3.5.4,1,.7,1.5,1.1.1,0,.2.2.3.2.5.4,1.1.8,1.6,1.1,0,0,0,0,0,0,3.1,2,6.4,3.7,9.9,5.1,0,0,.2,0,.2,0,.6.2,1.3.5,1.9.7,0,0,.2,0,.3.1.6.2,1.3.4,2,.6,0,0,.2,0,.2,0,.7.2,1.4.4,2.1.6,0,0,0,0,0,0,.7.2,1.5.4,2.3.5-.5.7-.9,1.5-1.4,2.3,0,0,0,.2-.1.2-.4.7-.9,1.5-1.3,2.3,0,0-.1.2-.2.3-.4.8-.9,1.7-1.4,2.6,0,.2-.2.4-.3.6-.3.7-.7,1.4-1,2.2-.1.3-.3.5-.4.8-.4.9-.8,1.8-1.3,2.8-.1.3-.2.5-.4.8-.3.7-.6,1.5-1,2.3-.2.4-.3.8-.5,1.1-.4.9-.7,1.8-1.1,2.7-.1.3-.3.7-.4,1-.3.9-.7,1.8-1,2.7-.2.4-.3.8-.5,1.3-.3.8-.6,1.7-.9,2.6-.1.3-.2.6-.3,1-.4,1.1-.8,2.3-1.1,3.4-.1.4-.3.8-.4,1.3-.3.9-.5,1.8-.8,2.7-.1.4-.2.8-.3,1.2-.4,1.2-.7,2.4-1,3.7-.1.4-.2.8-.3,1.2-.2.9-.5,1.9-.7,2.8-.1.5-.2.9-.3,1.4-.3,1.3-.6,2.5-.9,3.8,0,.4-.2.8-.3,1.2-.2.9-.4,1.9-.6,2.8-.1.6-.2,1.1-.3,1.7-.2.9-.4,1.9-.6,2.8,0,.4-.2.7-.2,1.1-1.3,6.9-2.4,14.9-3.1,23.7-1.3,16.6-1,36.3,3,57.3,6.2,32.3,21,67.9,52.2,101.3-1.4.6-2.9,1.3-4.4,2.1-5.7,3.1-11.2,7.6-12.2,13.9-.1.9-.2,1.8-.1,2.6.2,3.6,1.9,7.1,5.2,10.5,2,2.1,4.5,4.1,7.7,6.1,15.6,9.9,98.8,12.5,158,12.5s9.2,0,13.5,0c2.6,0,5.1,0,7.5,0,27.6-.3,102.3-1.8,145.3-9.2,14.9-2.6,26.1-5.8,30-10,1-1.1,1.7-2.2,2.1-3.5.8-2.2.5-4.6-.8-6.8-.1-.2-.3-.5-.4-.7l-12.6-18-2.8-4.1c7.1-6.4,22.2-22.4,34.6-51.5,3.6-8.5,7.2-18.6,10.2-30.4,0,0,0-.2,0-.3.3-1.3.7-2.7,1-4.1,0-.2,0-.3.1-.5.3-1.3.6-2.7.9-4,0-.2.1-.5.2-.7.3-1.3.6-2.7.8-4,0-.3.1-.6.2-.9.3-1.3.5-2.7.7-4.1,0-.3.1-.7.2-1,.2-1.3.5-2.7.7-4.1,0-.4.1-.8.2-1.1.2-1.4.4-2.8.6-4.2,0-.4.1-.8.2-1.2.2-1.4.4-2.8.5-4.2,0-.4.1-.9.2-1.3.2-1.4.3-2.9.5-4.3,0-.5,0-1,.1-1.4.1-1.4.3-2.9.4-4.4,0-.5,0-1,.1-1.5.1-1.5.2-3,.3-4.5,0-.5,0-1.1,0-1.6,0-1.5.2-3,.2-4.6,0-.6,0-1.1,0-1.7,0-1.5,0-3.1.1-4.7,0-.6,0-1.2,0-1.8,0-1.6,0-3.2,0-4.8,0-.6,0-1.2,0-1.9,0-1.6,0-3.2,0-4.8,0-.7,0-1.3,0-2,0-1.6,0-3.3-.1-4.9,0-.7,0-1.4,0-2,0-1.7-.1-3.3-.2-5,0-.7,0-1.4-.1-2.1,0-1.7-.2-3.4-.3-5.1,0-.7-.1-1.5-.2-2.3-.1-1.7-.3-3.4-.4-5.2,0-.8-.1-1.6-.2-2.4-.2-1.7-.3-3.5-.5-5.3,0-.8-.2-1.7-.3-2.5-.2-1.8-.4-3.5-.6-5.3-.1-.9-.2-1.8-.3-2.6-.2-1.8-.5-3.5-.7-5.3-.1-.9-.3-1.9-.4-2.8-.3-1.8-.5-3.6-.8-5.4-.2-1-.3-2-.5-2.9-.3-1.8-.6-3.6-.9-5.4-.2-1-.4-2.1-.6-3.1-.3-1.8-.7-3.6-1-5.4,0-.4-.1-.7-.2-1.1,8.2-1,15.9-3.8,22.5-8.1,0,0,.1,0,.2-.1.6-.4,1.2-.8,1.7-1.2,0,0,.2-.1.3-.2.5-.4,1.1-.8,1.6-1.2.1,0,.2-.2.4-.3.5-.4,1-.8,1.5-1.2.1-.1.3-.2.4-.3.5-.4.9-.8,1.4-1.3.1-.1.3-.2.4-.4.5-.4.9-.9,1.3-1.3.1-.1.2-.2.3-.4Zm-33.8,102.9c0,1.6,0,3.2,0,4.8,0,.5,0,1,0,1.4,0,1.6-.1,3.3-.2,4.9,0,.4,0,.8,0,1.2,0,1.7-.2,3.3-.3,4.9,0,.3,0,.7,0,1-.1,1.7-.2,3.3-.4,5,0,.3,0,.5,0,.8-.1,1.7-.3,3.4-.5,5,0,.2,0,.4,0,.6-.2,1.7-.4,3.4-.6,5.1,0,.1,0,.2,0,.3-.2,1.7-.5,3.5-.7,5.2,0,0,0,0,0,0-3.3,22.6-8.8,40.5-14.6,54.2-1.6,3.9-3.3,7.5-5.1,10.9-14.3,28.3-30.2,40.2-30.4,40.3l-1.5,1.1-2.7,1.9,20.2,28.8c-3,1.8-14.2,6.3-53.6,10-13.2,1.3-28.4,2.3-45,3.1-20.7,1-43.4,1.7-67.1,2-86.8,1-163.5-3.7-174.6-10.8-5.1-3.3-7.4-6-7.9-7.8-.1-.4-.2-.8-.1-1.1.6-3.9,10.4-8.6,17-10.3l8.7-2.3-6.4-6.4c-54.3-54.3-61.4-115.5-57.9-157.4.4-4.4.9-8.7,1.5-12.9,0-.3,0-.5.1-.8.2-1.1.3-2.2.5-3.2,0-.4.1-.9.2-1.3.1-.9.3-1.8.5-2.6,0-.5.2-1.1.3-1.6.1-.7.3-1.5.4-2.2.1-.6.3-1.2.4-1.8.1-.6.3-1.3.4-1.9.1-.7.3-1.3.4-2,.1-.5.2-1.1.4-1.6.2-.7.3-1.4.5-2.1.1-.5.2-.9.3-1.4.2-.7.4-1.5.6-2.2.1-.4.2-.8.3-1.2.2-.8.4-1.5.6-2.3,0-.3.2-.7.3-1,.2-.8.5-1.6.7-2.4,0-.3.2-.5.2-.8.3-.8.5-1.6.8-2.4,0-.2.1-.4.2-.6.3-.9.6-1.7.8-2.5,0-.1,0-.2.1-.3.3-.9.6-1.8.9-2.6,0,0,0,0,0,0,5.7-15.9,11.7-26.4,14.5-29.3h388.9c.1.7.3,1.4.4,2.1.3,1.5.6,2.9.8,4.3.3,1.4.5,2.7.7,4.1.2,1.4.5,2.7.7,4.1.2,1.4.5,2.8.7,4.2.2,1.3.4,2.5.6,3.8.2,1.4.4,2.9.6,4.3.2,1.2.3,2.4.5,3.5.2,1.5.4,2.9.6,4.3.1,1.1.3,2.2.4,3.3.2,1.5.3,2.9.5,4.4.1,1,.2,2,.3,3,.1,1.5.3,3,.4,4.5,0,.9.2,1.9.2,2.8.1,1.5.2,3,.3,4.6,0,.9.1,1.7.2,2.6,0,1.6.2,3.1.3,4.6,0,.8,0,1.6.1,2.3,0,1.6.1,3.1.2,4.7,0,.7,0,1.4,0,2.1,0,1.6,0,3.2,0,4.7,0,.6,0,1.3,0,1.9,0,1.6,0,3.2,0,4.8,0,.6,0,1.1,0,1.7Zm-396.8-214l4.6-1.3,5.2-1.4h0s0,0,0,0l-1.9-1.5-6-4.8c-.4-.3-2.4-2-5.1-5-10.4-11.7-30.8-43.1-2.5-90.4,0,0,0,0,0,0,.7-.1,1.3-.2,2-.4.3,0,.5-.1.8-.2.2,0,.5,0,.7-.1,0,0,.2,0,.3,0,.8-.2,1.5-.3,2.3-.5,0,0,0,0,0,0,.6-.1,1.1-.3,1.7-.4,0,0,.1,0,.2,0,0,0,0,0,.1,0,1.1-.3,2.1-.6,3.2-.9.2,0,.4,0,.5-.2.2,0,.3-.1.5-.2.5-.1.9-.3,1.4-.4.2,0,.4-.1.6-.2.3-.1.6-.2.9-.3.4-.1.8-.3,1.2-.4.3-.1.6-.2.9-.3.2,0,.3-.1.5-.2.2,0,.3-.1.5-.2.6-.2,1.1-.4,1.6-.6,0,0,0,0,0,0,0,0,.1,0,.2,0,.5-.2,1-.4,1.4-.6.8-.3,1.7-.7,2.5-1-.3,3.1,0,6.5,1.4,9.8,3.1,7.2,10.6,11.9,22.3,13.8,21.4,3.6,36.3-11.2,44.3-25.1,6.8,13.7,23.6,34.3,64.5,43.2,8.1,1.8,15.5,2.6,22.3,2.6,12.6,0,22.8-3.1,30.4-9.2,6.3-5.1,9.6-11.3,11.4-16.5,5,3.6,10.4,5.3,16.4,5,19.1-1,36.9-23.7,44-33.9l19,14.7c8.7,6.8,15.3,6,19.3,4.2.2,0,.4-.2.6-.3.2,0,.3-.2.5-.3,0,0,.1,0,.2-.1.3-.1.5-.3.7-.5,0,0,.2-.1.3-.2.1,0,.3-.2.4-.3.2-.2.4-.3.6-.5,0,0,0,0,0,0,0,0,0,0,0,0,.3-.2.5-.4.8-.7,0,0,0,0,0,0,.6-.6,1.2-1.2,1.7-1.8.1-.2.2-.3.4-.5.4-.5.8-1.1,1.2-1.7,0,0,.1-.2.2-.2,0,0,0-.2.1-.2,0-.1.1-.2.2-.4,0,0,.1-.2.2-.2,0-.1.1-.2.2-.3.3-.5.6-1,.8-1.5,0,0,0-.2.1-.3,0-.1.1-.3.2-.4,1.1-2.4,2.1-4.9,2.8-7.4,0,0,0,0,0-.1,0,0,0,0,0,0,.4-1.6.8-3.1,1.1-4.6,0-.1,0-.2,0-.3.2-.9.3-1.7.5-2.6.6.4,1.3.7,2,1.1.2.1.4.2.7.4.4.2.7.4,1.1.6,1.4.8,2.9,1.5,4.5,2.3h0s0,0,0,0c.8.4,1.7.8,2.6,1.2.3.1.6.3,1,.4.7.3,1.3.6,2,.9.4.2.8.3,1.1.5.7.3,1.3.6,2,.8.4.2.9.4,1.3.5.6.2,1.2.5,1.8.7.2,0,.5.2.7.3.6.2,1.2.4,1.9.7.8.7,1.5,1.5,2.3,2.2.5.5,1,1,1.5,1.5.8.8,1.7,1.7,2.5,2.5.5.5.9,1,1.4,1.4.8.8,1.5,1.6,2.2,2.4.4.5.9,1,1.3,1.4.7.8,1.3,1.6,2,2.4.4.5.9,1,1.3,1.5.6.7,1.2,1.5,1.7,2.2.4.5.8,1.1,1.2,1.6.5.7,1,1.4,1.5,2.1.4.6.8,1.1,1.2,1.7.4.7.8,1.3,1.3,2,.4.6.8,1.2,1.1,1.8.4.6.7,1.3,1,1.9.3.6.7,1.3,1,1.9.3.6.6,1.2.9,1.8.3.6.6,1.3.9,1.9.3.6.5,1.2.7,1.8.3.6.5,1.3.8,1.9.2.6.4,1.2.6,1.8.2.6.4,1.2.6,1.8.2.6.3,1.3.5,1.9.1.6.3,1.1.4,1.7.1.7.2,1.4.3,2.1,0,.5.2,1,.2,1.5,0,.8.1,1.5.2,2.3,0,.4,0,.9.1,1.3,0,.8,0,1.5,0,2.3,0,.4,0,.8,0,1.2,0,.5,0,.9-.1,1.4,0,.7,0,1.4-.2,2.1,0,.2,0,.4,0,.6,0,.6-.2,1.2-.3,1.8,0,.3-.1.6-.2.9-.1.5-.2,1-.3,1.5,0,.3-.2.6-.3,1-.1.5-.3.9-.4,1.3-.1.3-.2.6-.3,1-.1.4-.3.8-.4,1.3-.1.3-.2.6-.4,1-.2.4-.3.8-.5,1.2-.1.3-.3.6-.4,1-.2.4-.4.8-.5,1.2-.2.3-.3.6-.5.9-.2.4-.4.7-.6,1.1-.2.3-.3.6-.5.9-.2.4-.4.7-.6,1.1-.2.3-.4.6-.5.9-.2.4-.5.7-.7,1.1-.2.3-.4.5-.5.8-.3.4-.5.8-.8,1.1-.2.2-.3.5-.5.7-.4.6-.8,1.1-1.3,1.6,0,0,0,0,0,0-.5.6-.9,1.2-1.4,1.7,0,0,0,.1-.1.2-.4.5-.9,1-1.3,1.5,0,0,0,0-.1.1-.5.5-.9,1-1.4,1.5,0,0,0,0,0,0-.5.5-1,1-1.5,1.5,0,0,0,0,0,0-3.5,3.4-6.9,6.1-9.8,8.2,0,0-.1,0-.2.1-.3.2-.6.4-.9.7-.1,0-.2.2-.4.3-.2.2-.5.3-.7.5-.2.1-.4.2-.5.3-.2.1-.3.2-.5.3-.2.2-.5.3-.7.5,0,0-.1,0-.2.1-2,1.2-3.2,1.9-3.3,1.9l-13.8,7.1h0s0,0,0,0l7.5,1.3,7.8,1.4c16.2,2.8,43.8,11,48.9,20.7.1.2.2.4.3.6.2.6,0,1.1-1.2,2-.2.2-.5.3-.8.5-1.7,1.1-3.8,1.9-6.1,2.5-.1,0-.3,0-.4.1-.2,0-.4,0-.7.1-.3,0-.5.1-.8.2,0,0-.2,0-.3,0-.4,0-.8.1-1.2.2h-13.5c-1.2-.3-2.1-.6-2.6-1.1.2.2.4.6.4,1.1h-1.9l-8.2-2.2c-.2.7-.3,1.5-.3,2.2H152.5c-2.1,0-4.2.1-6.3.4-.8-.3-1.7-.4-2.8-.4v.8c-.4,0-.7.1-1.1.2,0,0,.1,0,.2,0-.1,0-.2,0-.4.1,0,0,0,0,0,0-.7.1-1.4.3-2.1.5,0,0,0,0-.1,0-3.2.5-7.8.6-11.1.2,0,0,0,0,0,0-2-.3-3.5-.7-4-1.4,0,0,0,0,0-.3,0-.2,0-.5.2-.9,1.5-4.6,6.1-8.6,11.3-11.8,6.8-4.2,14.9-7.1,18.9-8.2Zm-2.7,31.4h375.1c2.1.3,4.4.5,6.7.5s2.4,0,3.6-.1c1.2,0,2.4-.2,3.6-.4h5.9c19.3,0,35.7,12.9,41,30.5,1.2,3.9,1.8,8.1,1.8,12.4,0,23.6-19.2,42.9-42.9,42.9H152.5c-23.6,0-42.9-19.2-42.9-42.9s2.6-16.6,6.9-23.3c7.7-11.8,20.9-19.6,35.9-19.6ZM435.3,109.6c-1.3-1.3-2.6-2.8-3.9-4.3l-.8-1-.5-.6h-.2s-1.8-.3-1.8-.3c0,0-.1,0-.2,0-.1,0-.3,0-.4,0-.4,0-.9-.1-1.5-.2-.2,0-.4,0-.7-.1,0,0-.2,0-.3,0-.3,0-.7-.1-1.1-.2-.1,0-.2,0-.3,0,0,0,0,0,0,0-.5,0-1-.2-1.5-.3-.3,0-.5-.1-.8-.2-1.3-.3-2.7-.6-4.2-1,0,0,0,0-.1,0-.2,0-.4-.1-.6-.2-.6-.1-1.1-.3-1.7-.4-.4-.1-.8-.2-1.2-.3-.6-.2-1.3-.4-1.9-.6-.8-.2-1.7-.5-2.5-.8-.1,0-.2,0-.3,0-.5-.2-1-.3-1.5-.5-.3-.1-.7-.2-1-.4-.2,0-.3-.1-.5-.2-.3,0-.5-.2-.8-.3-2.5-.9-5.1-1.9-7.6-3,0,0,0,0,0,0-.9-.4-1.9-.8-2.8-1.3-.6-.3-1.3-.6-1.9-.9-.2,0-.4-.2-.6-.3-.8-.4-1.5-.8-2.3-1.2-.4-.2-.7-.4-1-.6-.3-.2-.6-.3-.9-.5-.1,0-.2-.1-.4-.2-.5-.3-1-.6-1.5-.9-1-.6-1.9-1.2-2.9-1.9-.1,0-.3-.2-.4-.3-.9-.6-1.8-1.3-2.7-2-.2-.1-.4-.3-.5-.4-.8-.6-1.6-1.3-2.4-2-.2-.2-.4-.4-.6-.5-.8-.7-1.5-1.4-2.3-2.2-.3-.3-.5-.6-.8-.9-.4-.5-.9-1-1.3-1.5-.3-.3-.5-.6-.8-.9-.2-.3-.4-.6-.7-.9-.4-.5-.8-1-1.2-1.6,0,0-.1-.2-.2-.3-.5-.7-.9-1.4-1.4-2.1-.1-.2-.3-.4-.4-.6-.5-.9-1.1-1.8-1.5-2.8,0,0,0-.1-.1-.2-.5-1-.9-2-1.3-3,0,0,0,0,0,0-.3-.7-.5-1.3-.7-2,0-.3-.2-.5-.2-.8-.1-.5-.3-.9-.4-1.4,0,0,0,0,0,0-.2-.8-.4-1.6-.5-2.4,0-.2,0-.5-.1-.7-.1-.8-.3-1.5-.3-2.3,0-.3,0-.6,0-.9,0-.9-.2-1.8-.2-2.7,0-1.7,0-3.3.2-4.9,1.1-8.5,5.8-15.1,9.9-19.2,2.6-2.7,5.6-5.1,8.8-7.1.3-.2.6-.4.9-.5,9.6-5.9,21.4-9.1,33.1-9.1s8.1.4,12.1,1.2c1,.2,1.9.4,2.9.7,9.8,2.5,21.7,8.4,30.5,21.7,3.7,5.5,6.8,12.3,9.1,20.6l1.2,4.5,4.5-.7h.1c10.8-1.8,27.5-2.5,35.4.5,0,0,0,0,0,0,0,0,.1,0,.2,0,1.4.6,2.4,1.2,3.1,2,0,0,0,0,.1.1.4.5,1.1,1.6.3,4.4-.3.9-.6,2-1,3.1-2.8,7.9-8,19.5-15.1,30-7.5,11.2-19.5,24.8-34,25.6-.4,0-.8,0-1.2,0-5.5,0-11-1.8-16.7-5.4-3.6-2.3-7.3-5.4-11-9.3Zm-315.6,46.8c-6-15.6,5.8-33.9,19.3-44.3,11.7-9,30-16.2,42.9-6.8.9.6,1.7,1,2.5,1.2,0,0,0,0,.1,0,.2,0,.5,0,.7,0,0,0,.1,0,.2,0,.2,0,.4,0,.7,0,0,0,0,0,.1,0,.2,0,.5-.1.7-.2,0,0,0,0,0,0,.5-.2,1.1-.4,1.6-.8,1-.6,2-1.5,3.2-2.5.1-.1.3-.3.4-.4.2-.2.5-.4.7-.7,1.6-1.6,3.5-3.5,5.7-5.9,1.3-1.3,2.6-2.8,4.1-4.3.2-.2.3-.3.5-.5.3-.3.7-.7,1-1,.5-.5.9-1,1.4-1.5.1-.1.2-.2.3-.3.4-.4.8-.8,1.2-1.2,3.4-3.5,7.3-7.3,11.6-11.2,0,0,.1-.1.2-.2,1.3-1.2,2.7-2.5,4.1-3.7.3-.3.6-.6,1-.8.7-.6,1.4-1.2,2.1-1.8.2-.2.5-.4.8-.6.8-.7,1.6-1.3,2.4-2,.5-.4.9-.8,1.4-1.2.6-.5,1.2-1,1.9-1.5.2-.1.4-.3.6-.4.8-.6,1.6-1.3,2.5-1.9.7-.5,1.3-1,2-1.5,2.2-1.6,4.4-3.2,6.7-4.8,0,0,.1,0,.2-.1,2.3-1.6,4.7-3.1,7.1-4.6.7-.4,1.3-.8,2-1.2,1.4-.9,2.9-1.7,4.4-2.6.7-.4,1.5-.8,2.3-1.3,1.5-.8,3-1.7,4.6-2.5.8-.4,1.6-.8,2.3-1.2.8-.4,1.6-.8,2.4-1.2.8-.4,1.6-.8,2.4-1.1.8-.4,1.6-.7,2.4-1.1,1.6-.7,3.3-1.4,5-2.1,1.9-.8,3.9-1.6,6-2.3-2,.7-4,1.5-6,2.3,4.2-1.7,8.6-3.3,13-4.6.9-.3,1.8-.5,2.7-.8.9-.3,1.8-.5,2.7-.8,1.4-.4,2.8-.7,4.2-1,.5-.1,1-.2,1.5-.3,1-.2,2-.4,3-.6.5-.1,1-.2,1.5-.3,1.3-.2,2.6-.5,3.9-.7,1-.2,1.9-.3,2.9-.5,1-.1,2-.3,2.9-.4,2-.2,4-.5,6-.6,1,0,2-.2,3-.2,1.4,0,2.8-.2,4.3-.2,1.4,0,2.7,0,4.1,0s3.6,0,5.5.1c.1,0,.2,0,.3,0,3.6.1,7.3.4,11,.8.2,0,.5,0,.8,0,1.8.2,3.7.5,5.5.7,0,0,0,0,0,0-.6.8-1.1,1.7-1.6,2.5-.2.3-.3.5-.5.8,0,0,0,.1-.1.2-.1.2-.3.5-.4.7-.1.3-.3.5-.4.8,0,.2-.1.3-.2.5-.1.3-.2.5-.4.8,0,.2-.2.4-.3.5,0,.2-.2.4-.3.6,0,.2-.1.3-.2.5,0,.2-.2.4-.3.6-.1.3-.3.7-.4,1,0,0,0,.1,0,.2,0,0,0,.1,0,.2,0,0,0,0,0,.1-.1.3-.2.7-.3,1,0,.2-.1.3-.2.5,0,.1,0,.2,0,.3,0,.1,0,.3-.1.4-.1.3-.2.7-.3,1,0,.1,0,.2,0,.4,0,.1,0,.3-.1.4,0,.2-.1.5-.2.7,0,.4-.2.8-.2,1.2-.1.7-.2,1.3-.3,2,0,.2,0,.4,0,.6,0,.3,0,.6,0,1,0,.2,0,.5,0,.7,0,.4,0,.7,0,1.1,0,0,0,.1,0,.2,0,.1,0,.3,0,.4,0,.7,0,1.4,0,2,0,.1,0,.3,0,.4,0,1.3.2,2.7.3,3.9,0,.3,0,.5,0,.8.2,1.2.3,2.5.6,3.7,0,.2,0,.4.1.5.2,1.1.5,2.2.8,3.3,0,.2,0,.4.1.5.3,1.1.7,2.3,1.1,3.4,0,.2.2.4.2.6.8,2.2,1.8,4.3,2.9,6.4,0,.2.2.4.3.5.6,1,1.1,2,1.8,2.9,0,0,.1.2.2.3.6.9,1.2,1.8,1.9,2.6,0,.1.2.2.3.4.7.9,1.4,1.8,2.1,2.6.1.1.2.3.4.4.7.8,1.5,1.6,2.2,2.4,0,0,0,0,0,0,.8.8,1.6,1.5,2.4,2.3.2.2.3.3.5.5.8.7,1.6,1.4,2.4,2.1.1.1.3.2.4.3.7.6,1.5,1.2,2.2,1.7.2.2.4.3.6.5.8.6,1.6,1.2,2.5,1.7.3.2.5.3.8.5.7.4,1.4.9,2.1,1.3.2.1.4.3.7.4.8.5,1.6.9,2.4,1.4.3.2.7.4,1,.6.7.4,1.4.7,2.1,1.1.5.2.9.5,1.4.7.5.3,1,.5,1.5.7.4.2.9.4,1.3.6.7.3,1.4.6,2.1.9.5.2,1,.4,1.5.6.3.1.7.3,1,.4,7.3,3,14.2,5,19.7,6.3,0,0,.2,0,.3,0,.5.1,1,.2,1.5.3.3,0,.5.1.7.2.3,0,.6.1.9.2,0,0,0,0,0,0,.4,0,.8.2,1.2.2.2,0,.4,0,.5.1.5.1,1,.2,1.5.3,0,0,0,0,0,0,1.1.2,2,.4,2.8.5.7.8,1.4,1.6,2.2,2.4.2.2.3.3.5.5.6.6,1.1,1.2,1.7,1.8.2.2.3.3.5.5,0,0,0,0,0,0,.7.7,1.4,1.4,2.1,2,.8.7,1.5,1.4,2.3,2,0,0,0,0,0,0,.8.6,1.5,1.3,2.3,1.9,0,0,.1.1.2.2.3.2.6.4.8.6.3.2.7.5,1,.7.2.1.4.3.5.4.1,0,.2.1.3.2.5.3,1,.7,1.5,1,.1,0,.3.2.4.3.8.5,1.6,1,2.4,1.4.7.4,1.5.8,2.2,1.1,0,0,.1,0,.2.1.3.2.7.3,1.1.5.3.1.5.3.8.4,0,0,0,0,0,0,0,0,.2,0,.3.1.2,0,.3.1.5.2.2,0,.5.2.7.3,0,0,0,0,.1,0,0,0,0,0,0,0,.3,0,.5.2.8.3.3.1.6.2.9.3.2,0,.5.2.7.2.2,0,.4,0,.6.2.5.1.9.3,1.4.4.1,0,.3,0,.4.1.1,0,.3,0,.4,0,.5.1.9.2,1.4.3.1,0,.2,0,.3,0,0,0,.2,0,.2,0,.2,0,.4,0,.6,0,.3,0,.7.1,1,.2.3,0,.6,0,.9,0,.4,0,.9,0,1.3.1.3,0,.7,0,1,0,.4,0,.8,0,1.2,0,.6,0,1.2,0,1.8,0,0,0,.1,0,.2,0,.4,0,.8,0,1.3-.1.3,0,.5,0,.8,0,0,0,.2,0,.2,0,.3,0,.6,0,.9-.1.7,0,1.3-.2,2-.3,0,0,.1,0,.2,0,.2,0,.4-.1.7-.2.1,0,.3,0,.4,0,.4,0,.7-.2,1.1-.3.1,0,.3,0,.4-.1.3,0,.5-.2.8-.2.1,0,.3,0,.4-.1,0,0,.1,0,.2,0,.3-.1.6-.2.9-.3,0,0,.1,0,.2,0,.5-.2,1-.4,1.4-.5.3-.1.6-.2.9-.4.2,0,.4-.2.6-.3.4-.2.8-.4,1.2-.6.5-.2,1-.5,1.5-.8.2-.1.5-.3.7-.4,0,0,.1,0,.2,0s0,0,0,0c.7-.4,1.3-.8,2-1.2.2-.1.3-.2.5-.3.4-.2.7-.5,1.1-.7.1,0,.2-.2.3-.2.1,0,.3-.2.4-.3,0,0,.1,0,.2-.1.2-.1.3-.2.5-.4.3-.2.7-.5,1-.7,0,0,0,0,.1,0,0,0,.2-.1.2-.2.3-.2.5-.4.7-.6.2-.2.4-.3.6-.5,0,0,0,0,0,0,.2-.2.5-.4.7-.6,0,0,.1-.1.2-.2.4-.4.9-.7,1.3-1.1,0,0,.2-.1.2-.2,0,0,0,0,0,0,.3-.3.7-.6,1-.9.1-.1.3-.3.4-.4.2-.2.4-.4.7-.6.3-.3.5-.6.8-.8,0,0,0,0,.1-.1.2-.2.4-.4.6-.6.2-.2.5-.5.7-.7.4-.4.7-.8,1.1-1.2.2-.2.3-.3.5-.5.2-.3.5-.5.7-.8,0,0,0-.1.1-.2.4-.5.8-.9,1.2-1.4.3-.3.5-.6.8-1,.1-.1.2-.3.3-.4,0,0,.1-.2.2-.3,0-.1.2-.2.3-.3.4-.5.8-1,1.2-1.5.3-.4.6-.8.9-1.2,21.2,14.6,33,28.4,33,38.4s-.3,2.8-.8,4.1c-1.2,3-3.2,4.9-6.1,5.8-13.1,4.2-39.5-10.2-48.6-16.1l-7.5-4.9-.5,8.9c0,.5,0,1-.1,1.6,0,.6-.1,1.1-.2,1.7,0,.5-.1,1-.2,1.6,0,0,0,.1,0,.2-.1.8-.2,1.6-.4,2.5,0,.2,0,.4-.1.6-.1.7-.3,1.5-.5,2.2,0,0,0,.2,0,.3-.1.5-.2.9-.3,1.3,0,0,0,.2,0,.3-.1.5-.3,1.1-.4,1.6,0,.2-.1.5-.2.7-.1.4-.2.7-.3,1.1-.1.3-.2.6-.3.9-.1.3-.2.6-.3.9-.1.3-.2.6-.4,1,0,.2-.2.4-.3.6-.3.7-.6,1.3-.9,1.8-.2.3-.3.6-.5.8-.1.2-.3.5-.4.7,0,.1-.2.3-.3.4-.2.3-.5.6-.7.9,0,0,0,0,0,0-.3.3-.6.6-.9.8,0,0,0,0,0,0-.3.2-.6.4-.9.5-2.5,1.1-6.1-1-8.6-3l-28-21.8-3,5c-.3.4-.6.9-.9,1.4-.2.3-.4.6-.6.8-.3.5-.7,1-1.1,1.6,0,0,0,.1-.1.2,0,0,0,0,0,0-.4.6-.9,1.2-1.3,1.9-.5.7-1,1.4-1.6,2.2,0,0,0,0,0,0-.6.8-1.2,1.5-1.8,2.3-.5.7-1.1,1.4-1.7,2.1-.5.6-1,1.2-1.5,1.8-.2.2-.4.4-.6.7-.5.6-1,1.2-1.5,1.7-.4.5-.9,1-1.4,1.5,0,0-.2.2-.2.3-.2.2-.3.3-.5.5-.2.2-.5.5-.7.7-.9,1-1.9,1.9-2.9,2.8-.4.4-.8.7-1.2,1.1-1,.9-2,1.7-3,2.5-.5.4-1,.8-1.4,1.1-.5.4-1,.7-1.5,1.1-.5.3-1,.7-1.5,1-.4.2-.7.5-1.1.7-.6.4-1.3.7-1.9,1.1-.5.2-.9.5-1.4.7,0,0-.1,0-.2,0-.5.2-.9.4-1.4.6-.5.2-1,.4-1.5.5-.2,0-.5.1-.7.2-.2,0-.4.1-.6.2-.1,0-.2,0-.3,0,0,0-.2,0-.3,0-.3,0-.6.1-1,.2,0,0,0,0,0,0-.5,0-1,.1-1.4.2-5.6.3-10.4-2.4-14.9-8.3l-9.3-12.1v15.3c0,.1-.1,11.4-9.5,19-9.1,7.4-23.9,8.9-44,4.5-55.1-12-60.7-46.2-60.9-47.6l-2.9-22.1-7.1,21.2c-.5,1.4-12,34.7-38.4,30.3-5.5-.9-12.4-3-14.5-7.7-2-4.6,1-10.9,2.4-12.9l11.4-17.1.8-1.2-.9.5-17.6,10-.6.3c-.2,0-13,7.4-27.2,10.7h0s0,0,0,0l-5.7-4c-1.3,1.9-2.6,3.7-3.7,5.5-18.3,1.5-22.2-8.7-23.5-12.2ZM307.8,27.9s0,0,.1,0c-.1,0-.3,0-.4,0,0,0,.2,0,.3,0Zm-4.7,1c-.2,0-.3,0-.5.1.2,0,.3,0,.5-.1Zm144,30.7c-11,7.5-19.5-1.6-24.6-10.3-4.8-8.2,1.5-18.7,11-17.7,14.8,1.5,27.1,18.7,13.6,28Zm-20.1,23.6c-9.4,9.4-19.5,2-26.1-5.6-6.2-7.2-1.9-18.7,7.6-19.4,14.8-1.2,30,13.5,18.5,25.1Zm-187.8,391.5c0,24.6-15.8,44.5-35.2,44.5s-35.2-19.9-35.2-44.5,15.8-44.5,35.2-44.5,35.2,19.9,35.2,44.5Zm125.9-4.6c0,24.6-15.8,44.5-35.2,44.5s-35.2-19.9-35.2-44.5,15.8-44.5,35.2-44.5,35.2,19.9,35.2,44.5Zm-64.7,103.9c0,24.6-15.8,44.5-35.2,44.5s-35.2-19.9-35.2-44.5,15.8-44.5,35.2-44.5,35.2,19.9,35.2,44.5Z"></path>
</svg>
