<svg xmlns="http://www.w3.org/2000/svg" enable-background="new 0 0 3000 3000" viewBox="0 0 3000 3000" id="AngryPanda">
  <linearGradient id="a" x1="-5540.245" x2="-5538.688" y1="2752.116" y2="2752.116" gradientTransform="matrix(1097.9867 0 0 -1097.9867 6083864 3022942.5)" gradientUnits="userSpaceOnUse">
    <stop offset="0" stop-color="#ffffff" class="stopColorffffff svgShape"></stop>
    <stop offset="1" stop-color="#e6f3e8" class="stopColorf3efe6 svgShape"></stop>
  </linearGradient>
  <path fill="url(#a)" d="M1155.474,1963.939c0,0-288.704-70.83-370.563-300.711c-81.859-229.881,0-693.749,0-693.749
		s75.882-310.601,306.447-453.373c230.564-142.772,370.114-175.794,370.114-175.794l142.58-77.479l-8.248,57.371
		c0,0,137.808-24.825,148.861-12.825c11.054,11.999-69.1,67.398-69.1,67.398s240.68-8.396,425.387,146.926
		c184.706,155.322,288.254,386.207,321.838,520.539c33.584,134.332,56.862,414.014,6.996,557.473
		c-49.865,143.459-187.506,268.114-278.459,310.093c-90.955,41.979-352.625,133.903-517.741,139.016
		C1468.469,2053.935,1155.474,1963.939,1155.474,1963.939z"></path>
  <linearGradient id="b" x1="-5539.799" x2="-5538.242" y1="2756.194" y2="2756.194" gradientTransform="matrix(368.1849 0 0 -368.1849 2041377 1016063.875)" gradientUnits="userSpaceOnUse">
    <stop offset="0" stop-color="#2c2c32" class="stopColor322c2e svgShape"></stop>
    <stop offset="1" stop-color="#434349" class="stopColor494345 svgShape"></stop>
  </linearGradient>
  <path fill="url(#b)" d="M1709.149,1291.318c0,0,8.396,216.891,148.326,250.474
		c139.929,33.584,317.64-32.184,389.005-110.544c71.363-78.361,16.791-188.21-48.976-275.315
		c-65.768-87.104-250.476-211.641-383.408-130.482C1681.162,1106.611,1709.149,1291.318,1709.149,1291.318z"></path>
  <linearGradient id="c" x1="-5540.574" x2="-5539.017" y1="2756.211" y2="2756.211" gradientTransform="matrix(365.1972 0 0 -365.1972 2024316.25 1007870.5)" gradientUnits="userSpaceOnUse">
    <stop offset="0" stop-color="#2c2c32" class="stopColor322c2e svgShape"></stop>
    <stop offset="1" stop-color="#434349" class="stopColor494345 svgShape"></stop>
  </linearGradient>
  <path fill="url(#c)" d="M1346.73,1036.645c0,0,118.94,99.351,120.34,163.718
		c1.399,64.368,39.88,153.224-8.396,257.122c-48.276,103.898-92.562,122.24-197.405,130.385
		c-104.844,8.145-337.827-94.703-343.075-159.771c-5.247-65.068-15.741-117.891,48.276-206.397
		c64.018-88.505,154.273-155.672,256.072-177.711C1324.341,1021.953,1346.73,1036.645,1346.73,1036.645z"></path>
  <linearGradient id="d" x1="-5540.088" x2="-5538.53" y1="2760.761" y2="2760.761" gradientTransform="matrix(201.4079 0 0 -201.4079 1117267.875 557630.688)" gradientUnits="userSpaceOnUse">
    <stop offset="0" stop-color="#2c2c32" class="stopColor322c2e svgShape"></stop>
    <stop offset="1" stop-color="#434349" class="stopColor494345 svgShape"></stop>
  </linearGradient>
  <path fill="url(#d)" d="M1603.549,1529.898c0,0-131.254,13.992-151.009,60.869
		c-19.754,46.877,103.384,69.265,162.156,60.87c58.77-8.396,122.438-29.681,142.729-51.922
		c20.289-22.241-11.895-51.626-14.694-53.725C1739.933,1543.891,1603.549,1529.898,1603.549,1529.898z"></path>
  <linearGradient id="e" x1="-5540.261" x2="-5538.704" y1="2752.099" y2="2752.099" gradientTransform="matrix(930.4673 0 0 -930.4674 5155853.5 2562927.75)" gradientUnits="userSpaceOnUse">
    <stop offset="0" stop-color="#2c2c32" class="stopColor322c2e svgShape"></stop>
    <stop offset="1" stop-color="#434349" class="stopColor494345 svgShape"></stop>
  </linearGradient>
  <path fill="url(#e)" d="M944.412,1863.938l-42.659,15.085c0,0-77.661,153.223-80.46,238.581
		c-2.799,85.357,30.784,86.057,30.784,86.057s105.588,88.856,120.31,152.524c14.722,63.668,58.344,117.859,58.344,117.859
		s167.673,74.544,290.811,19.971c123.138-54.573,126.636-187.249,126.636-187.249l6.297-37.336c0,0,179.11-17.493,206.397-13.294
		c27.286,4.198,46.176,13.294,46.176,13.294s9.796,81.858,93.753,152.522c83.958,70.665,116.26,66.506,116.26,66.506
		s83.84-171.453,185.29-224.626c101.449-53.173,167.915-62.969,167.915-62.969l-4.548-85.882l-44.603-192.054l-39.997-43.238
		c0,0-106.404,68.425-239.163,111.454c-132.757,43.029-198.875,51.863-391.454,45.652
		c-192.578-6.212-483.283-114.918-483.283-114.918L944.412,1863.938z"></path>
  <linearGradient id="f" x1="-5540.329" x2="-5538.771" y1="2753.317" y2="2753.317" gradientTransform="matrix(555.9323 0 0 -555.9323 3081037 1533151.75)" gradientUnits="userSpaceOnUse">
    <stop offset="0" stop-color="#2c2c32" class="stopColor322c2e svgShape"></stop>
    <stop offset="1" stop-color="#434349" class="stopColor494345 svgShape"></stop>
  </linearGradient>
  <path fill="url(#f)" d="M1155.474,2508.387l-85.456-12.273l-47.576-22.038c0,0,3.498,118.94-15.393,166.516
		c-18.891,47.576-17.841,82.909-17.841,82.909l301.549-44.528c0,0,265.516-18.889,368.365-9.395
		c102.848,9.494,163.547,9.134,163.547,9.134l-8.573-19.929l-20.23-46.601l9.034-27.212l52.125-107.046l-15.393-23.088
		c0,0-72.413-42.679-104.248-90.955c-31.834-48.276-32.184-99.7-32.184-99.7l-204.289,1.136l-42.686,14.257
		c0,0-4.898,129.785-75.912,182.608C1309.299,2515.004,1155.474,2508.387,1155.474,2508.387z"></path>
  <linearGradient id="g" x1="-5540.191" x2="-5538.634" y1="2758.284" y2="2758.284" gradientTransform="matrix(235.7932 0 0 -235.7932 1307713.125 652574)" gradientUnits="userSpaceOnUse">
    <stop offset="0" stop-color="#ffffff" class="stopColorffffff svgShape"></stop>
    <stop offset="1" stop-color="#e6f3e8" class="stopColorf3efe6 svgShape"></stop>
  </linearGradient>
  <path fill="url(#g)" d="M1655.304,2132.129c45.841,7.892,71.867,12.929,85.637,15.615
		c-2.688,8.564-5.542,17.296-8.397,26.027c-23.004,71.868-31.4,84.967-31.4,84.967l-248.683,14.776c0,0,1.511-103.94-78.752-165.397
		l1.175-3.022l34.759,27.035l9.906,10.915C1419.549,2143.044,1577.558,2118.695,1655.304,2132.129z"></path>
  <linearGradient id="h" x1="-5539.761" x2="-5538.204" y1="2754.183" y2="2754.183" gradientTransform="matrix(439.36 0 0 -439.36 2435742.75 1212590.125)" gradientUnits="userSpaceOnUse">
    <stop offset="0" stop-color="#2c2c32" class="stopColor322c2e svgShape"></stop>
    <stop offset="1" stop-color="#434349" class="stopColor494345 svgShape"></stop>
  </linearGradient>
  <path fill="url(#h)" d="M2477.755,2408.35c2.015,70.188-34.759,222.488-137.524,308.461
		c-94.873,79.424-155.825,109.65-264.467,100.247c-9.068-0.84-18.47-1.848-28.378-3.191
		c-126.944-17.295-235.083-137.356-251.37-184.707c-16.288-47.185,53.733-140.211,53.733-140.211l33.248-8.228l32.239,13.098
		l31.401-57.763c0,0,88.156-147.934,187.561-191.929c82.112-36.437,149.783-43.826,208.384-33.583
		c12.426,2.183,24.349,5.205,35.935,8.9C2445.18,2240.434,2475.573,2337.993,2477.755,2408.35z"></path>
  <linearGradient id="i" x1="-5541.044" x2="-5539.486" y1="2755.362" y2="2755.362" gradientTransform="matrix(346.5332 0 0 -346.5332 1920644.875 957279.5)" gradientUnits="userSpaceOnUse">
    <stop offset="0" stop-color="#2c2c32" class="stopColor322c2e svgShape"></stop>
    <stop offset="1" stop-color="#434349" class="stopColor494345 svgShape"></stop>
  </linearGradient>
  <path fill="url(#i)" d="M724.042,2133.787c0,0,132.233,39.089,223.188,183.217
		c90.955,144.128,95.018,262.654,65.067,347.725c-29.952,85.072-104.543,131.507-200.1,118.241
		c-95.555-13.266-169.315-54.573-249.075-186.806c-79.76-132.234-82.11-257.385-65.767-322.539
		C513.699,2208.472,576.416,2092.6,724.042,2133.787z"></path>
  <path fill="#fe9526" d="M2162.521 2739.592c0 0-93.053 5.598-111.944-94.452-18.891-100.051 37.08-200.8 89.554-258.871 52.474-58.071 138.531-98.138 213.394-79.504 74.862 18.634 70.664 126.38 63.668 174.656S2336.034 2720.702 2162.521 2739.592zM908.749 2562.26c0 0-2.798 118.562-140.63 110.866-137.831-7.697-187.506-217.948-187.506-217.948s-39.88-173.856 61.569-236.825c101.449-62.968 207.796 90.955 237.182 147.626C908.749 2422.651 915.046 2517.861 908.749 2562.26z" class="color59424b svgShape"></path>
  <linearGradient id="j" x1="-5539.133" x2="-5537.576" y1="2759.794" y2="2759.794" gradientTransform="matrix(252.8239 0 0 -252.8239 1402537.75 698470)" gradientUnits="userSpaceOnUse">
    <stop offset="0" stop-color="#2c2c32" class="stopColor322c2e svgShape"></stop>
    <stop offset="1" stop-color="#434349" class="stopColor494345 svgShape"></stop>
  </linearGradient>
  <path fill="url(#j)" d="M2231.932,659.265l-119.436-121.119l40.23-18.891c0,0,180.159-56.242,279.859,70.005
		s72.813,249.752,62.449,277.371c-10.365,27.619-86.586,82.909-86.586,82.909L2231.932,659.265z"></path>
  <linearGradient id="k" x1="-5540.998" x2="-5539.441" y1="2758.649" y2="2758.649" gradientTransform="matrix(291.1722 0 0 -291.1722 1614072.25 803852.375)" gradientUnits="userSpaceOnUse">
    <stop offset="0" stop-color="#2c2c32" class="stopColor322c2e svgShape"></stop>
    <stop offset="1" stop-color="#434349" class="stopColor494345 svgShape"></stop>
  </linearGradient>
  <path fill="url(#k)" d="M990.609,628.05L823.527,857.768l-79.195-31.717c0,0-88.156-165.817-44.778-307.146
		c43.378-141.329,191.004-166.517,267.266-152.524c76.262,13.993,174.213,114.743,174.213,114.743L990.609,628.05z"></path>
  <linearGradient id="l" x1="-5539.223" x2="-5537.665" y1="2765.843" y2="2765.843" gradientTransform="matrix(142.856 0 0 -142.856 793121.438 396440.531)" gradientUnits="userSpaceOnUse">
    <stop offset="0" stop-color="#ffffff" class="stopColorffffff svgShape"></stop>
    <stop offset="1" stop-color="#e6f3e8" class="stopColorf3efe6 svgShape"></stop>
  </linearGradient>
  <path fill="url(#l)" d="M1856.687,1328.137l-46.44,32.009c0,0,71.104,55.622,122.528,43.816
		c51.424-11.807,99.961-87.631,99.961-87.631v-57.196l-7.083-18.366L1856.687,1328.137z"></path>
  <linearGradient id="m" x1="-5540.854" x2="-5539.297" y1="2764.496" y2="2764.496" gradientTransform="matrix(154.9846 0 0 -154.9846 859877.25 429824)" gradientUnits="userSpaceOnUse">
    <stop offset="0" stop-color="#ffffff" class="stopColorffffff svgShape"></stop>
    <stop offset="1" stop-color="#e6f3e8" class="stopColorf3efe6 svgShape"></stop>
  </linearGradient>
  <path fill="url(#m)" d="M1215.721,1334.171l155.847,67.691c0,0-33.058,38.83-77.923,49.325
		c-44.865,10.494-107.308-25.712-107.308-25.712s-49.325-45.652-55.098-83.434c-5.772-37.781,14.168-55.622,14.168-55.622
		S1177.939,1312.132,1215.721,1334.171z"></path>
  <path fill="#167ffc" d="M1645.15,374.557c0,0-512.73,274.947-616.17,483.21
		c-103.439,208.263-139.862,401.366-127.947,525.204c11.914,123.838,180.355,175.889,254.442,190.171
		c74.087,14.281-147.375-1.965-164.166,108.579c-16.792,110.545,142.728,226.946,190.304,265.297l9.446,25.232
		c0,0-68.741-24.13-90.255-31.218c-21.514-7.088-241.768-67.306-308.196-239.721c-66.427-172.416-53.173-580.709-53.173-580.709
		s65.293-281.447,160.682-409.389c95.39-127.942,205.888-223.489,320.654-269.468c114.766-45.98,255.734-99.37,321.68-145.439
		c65.948-46.068,84.985-62.295,84.985-62.295l-23.886,74.395l46.382,3.117l129.182-8.112l-80.892,54.816L1645.15,374.557z" class="colorcfbdb2 svgShape"></path>
  <path fill="#5d5e87" d="M2301.052 2344.64c0 0 88.504 35.333 71.713 140.28s-104.947 191.004-161.618 213.043c0 0 94.453-32.009 143.253-117.541C2403.201 2494.889 2428.737 2371.226 2301.052 2344.64zM663.172 2256.135c0 0 82.927-20.99 157.955 90.254 75.028 111.245 61.734 250.475 16.257 286.157 0 0 43.378-23.608 52.474-103.458C898.954 2449.238 832.294 2223.09 663.172 2256.135z" class="color875d6e svgShape"></path>
  <path fill="#4d4d54" d="M1356.854 1045.471c0 0 89.925 217.861 45.498 345.897-44.427 128.036-115.141 180.089-170.365 183.658-55.224 3.568 36.073 35.015 86.057 12.844 49.984-22.171 120.259-63.571 144.612-139.482 24.354-75.911 9.346-221.474-2.04-275.678C1449.228 1118.504 1356.854 1045.471 1356.854 1045.471zM1871.478 991.868v39.98c0 0 184.697 13.193 281.249 141.929 96.552 128.736 85.551 265.391 38.577 302.711-46.974 37.319 99.209-17.466 86.988-155.89C2266.069 1182.173 2151.349 1001.663 1871.478 991.868zM2340.231 513.307L2298.254 528c0 0 100.75 49.675 129.434 174.912 28.686 125.237-43.378 206.933-43.378 206.933s31.223 45.802 32.606 45.187c1.382-.616 70.571-51.797 78.119-131.081 7.547-79.284-14.174-168.615-14.174-168.615S2422.091 542.693 2340.231 513.307zM815.87 407.486c0 0 150.076-21.514 260.27 107.571l67.166-23.088-20.99-41.454C1122.317 450.514 995.331 320.379 815.87 407.486z" class="color544d50 svgShape"></path>
  <linearGradient id="n" x1="-5540.342" x2="-5538.785" y1="2755.881" y2="2755.881" gradientTransform="matrix(346.5831 0 0 -346.5831 1921357.875 957093.313)" gradientUnits="userSpaceOnUse">
    <stop offset="0" stop-color="#53d86a" class="stopColor46c67a svgShape"></stop>
    <stop offset="1" stop-color="#595bd4" class="stopColor467985 svgShape"></stop>
  </linearGradient>
  <path fill="url(#n)" d="M1332.737,2086.12c0,0-4.198-22.192,0-20.892c4.198,1.301,7.696-11.993,7.696-11.993
		s-53.523,5.248-106.696-31.134c-53.174-36.381-64.718-126.986-64.718-126.986s90.955-9.096,130.135,37.431
		c39.181,46.527,54.922,69.965,54.922,69.965l24.138-39.18l63.319-161.27l45.827-10.495l-8.396,40.229l-68.733,187.681
		l26.054-16.966l37.781-13.627c0,0,39.881-55.639,131.534-35.699c91.654,19.94,103.2,42.504,103.2,42.504
		s-16.792,23.963-47.226,35.857c-30.435,11.894-95.502,12.765-114.394,1.485c-18.89-11.28-21.688,7.96-42.329-11.98
		c-20.639-19.94-30.435-26.927-30.435-26.927s-54.922,23.779-70.314,42.67c-15.393,18.891-26.295,74.561-26.295,74.561
		L1332.737,2086.12z"></path>
  <linearGradient id="o" x1="-5541.111" x2="-5539.553" y1="2763.092" y2="2763.092" gradientTransform="matrix(137.5796 0 0 -137.5796 763416.75 382759.438)" gradientUnits="userSpaceOnUse">
    <stop offset="0" stop-color="#53d86a" class="stopColor46c67a svgShape"></stop>
    <stop offset="1" stop-color="#595bd4" class="stopColor467985 svgShape"></stop>
  </linearGradient>
  <path fill="url(#o)" d="M1210.998,2513.955l-86.757-1.732c0,0-28.685,9.079-42.679,46.16
		c-13.993,37.082-6.646,51.774-6.646,51.774s8.42-18.191,41.991-26.237c33.571-8.046,41.267-11.544,41.267-11.544l-38.942,131.925
		l31.246,12.203l30.784-86.057l25.155-68.187h4.58c0,0,11.194,47.198,39.53,70.636c28.336,23.438,36.732,20.75,36.732,20.75
		s-14.343-22.848-14.343-59.58c0-36.731-18.891-80.074-18.891-80.074L1210.998,2513.955z"></path>
  <path fill="#4d4d54" d="M1324.046,2073.526c0,0,93.357,213.36,28.281,319.04
		c-65.075,105.68-219.721,109.832-219.721,109.832s113.856,23.102,225.559-20.277c111.703-43.378,88.925-252.735,88.925-252.735
		S1372.027,2084.021,1324.046,2073.526z" class="color544d50 svgShape"></path>
  <path fill="#167ffc" d="M1681.162 2149.088c0 0-51.774 69.965-55.972 100.05-4.198 30.085 75.561 0 75.561 0l40.189-82.559-15.001-17.491H1681.162zM1805 1866.255l-8.92-48.276-26.761-43.029 241.379-5.247-30.435 39.88-18.297 106.757 9.901 7.111 94.977-178.41c0 0-52.552-4.198-77.176-5.248-24.622-1.049-321.099 13.119-321.099 13.119l-38.831 15.742C1629.738 1768.654 1749.902 1840.018 1805 1866.255z" class="colorcfbdb2 svgShape"></path>
  <path fill="#4d4d54" d="M2125.07 1912.008c0 0 76.632 141.928 72.434 301.448l72.763-12.594c0 0 1.814-107.109-32.251-205.172-34.067-98.062-52.582-103.198-52.582-103.198L2125.07 1912.008zM1755.324 2153.985c0 0 178.411-21.688 237.881 94.453 0 0-22.388-139.23-152.523-131.534-130.134 7.696-130.76 113.398-130.76 113.398S1700.052 2180.573 1755.324 2153.985zM2477.755 2408.35c2.015 70.188-34.759 222.488-137.524 308.461-94.873 79.424-155.825 109.65-264.467 100.247 11.586-5.542 27.707-11.083 49.368-16.456 177.319-44.331 339.021-293.349 313.666-409.044-20.989-96.888-78.082-162.206-96.216-181.013 12.426 2.183 24.349 5.205 35.935 8.9C2445.18 2240.434 2475.573 2337.993 2477.755 2408.35z" class="color544d50 svgShape"></path>
  <path fill="#0f0f1d" d="M1209.569 1329.661c-1.186 5.017-2.069 10.143-2.069 15.53 0 40.959 33.204 74.164 74.162 74.164 22.893 0 43.106-10.594 56.711-26.896-7.392-3.498-14.726-7.245-22.042-11.184C1278.249 1370.492 1239.637 1354.219 1209.569 1329.661zM1980.025 1265.24c1.186 5.017 2.07 10.143 2.07 15.529 0 40.959-33.205 74.164-74.162 74.164-22.893 0-43.106-10.594-56.711-26.896 7.392-3.498 14.726-7.245 22.041-11.184C1911.346 1306.071 1949.958 1289.798 1980.025 1265.24z" class="color1d110f svgShape"></path>
  <linearGradient id="p" x1="-5539.623" x2="-5538.065" y1="2775.209" y2="2775.209" gradientTransform="matrix(86.2527 0 0 -86.2527 479398.344 240940.828)" gradientUnits="userSpaceOnUse">
    <stop offset="0" stop-color="#ffffff" class="stopColorffffff svgShape"></stop>
    <stop offset="1" stop-color="#e6f3e8" class="stopColorf3efe6 svgShape"></stop>
  </linearGradient>
  <path fill="url(#p)" d="M1725.24,1571.569c0,4.807-30.072,8.703-67.167,8.703c-37.094,0-67.166-3.897-67.166-8.703
		c0-4.808,30.072-8.704,67.166-8.704C1695.169,1562.865,1725.24,1566.762,1725.24,1571.569z"></path>
  <linearGradient id="q" x1="-5539.474" x2="-5537.917" y1="2832.532" y2="2832.532" gradientTransform="matrix(26.3333 0 0 -26.3333 147411.328 76164.445)" gradientUnits="userSpaceOnUse">
    <stop offset="0" stop-color="#ffffff" class="stopColorffffff svgShape"></stop>
    <stop offset="1" stop-color="#e6f3e8" class="stopColorf3efe6 svgShape"></stop>
  </linearGradient>
  <path fill="url(#q)" d="M1579.713,1574.522c0,3.177-9.182,5.751-20.507,5.751c-11.325,0-20.505-2.575-20.505-5.751
		c0-3.176,9.18-5.751,20.505-5.751C1570.531,1568.77,1579.713,1571.345,1579.713,1574.522z"></path>
  <path fill="#4d4d54" d="M1739.933,1554.386c0,0,16.091,39.18-65.766,51.774c-81.859,12.594-202.899,11.194-215.492,0
		c-12.594-11.194-14.233,9.13,30.664,30.802c44.898,21.672,119.06,25.205,195.322,0
		C1760.923,1611.757,1774.216,1583.771,1739.933,1554.386z" class="color544d50 svgShape"></path>
  <path fill="#35c94f" d="M1526.498 1954.838l4.59 5.87c0 0 48.801-4.919 82.384 14.332 33.582 19.251 50.779 31.32 77.862 27.122 27.085-4.198 27.609-13.277 27.609-13.277s-37.257-6.139-68.741-16.633C1618.719 1961.757 1599.044 1938.473 1526.498 1954.838zM1471.267 1798.088l-102.324 265.583c0 0 12.069 22.974 11.545 21.399-.526-1.574 106.871-293.503 106.871-293.503L1471.267 1798.088z" class="color6bc935 svgShape"></path>
  <path fill="#32337f" d="M1255.425,1915.056c0,0,24.93,37.081,35.378,62.618c10.449,25.538,31.282,61.072-6.071,69.541
		c-37.353,8.47,48.354,10.919,48.354,10.919l19.24-37.432l5.838-16.092C1358.165,2004.61,1304.751,1931.847,1255.425,1915.056z" class="color32717f svgShape"></path>
  <path fill="#35c94f" d="M1172.151,1894.874c0,0,115.809,33.125,178.777,119.882v-11.76
		C1350.927,2002.995,1308.216,1903.028,1172.151,1894.874z" class="color6bc935 svgShape"></path>
  <path fill="#32337f" d="M1150.512,2575.011c0,0,39.496,4.711,39.146,15.555c-0.35,10.845,18.541-24.837,18.541-24.837
		s17.732,42.266,27.21,52.123c9.479,9.858,42.752,32.363,44.153,27.287c1.402-5.077-3.498-64.368-3.498-64.368
		s-9.095-62.547-22.039-66.781c-12.943-4.233-125.237-5.447-125.237-5.447s-34.283,19.754-46.527,42.143
		c-12.243,22.389-13.643,55.622-13.643,55.622s41.944-31.671,61.918-31.484C1150.512,2575.011,1150.512,2575.011,1150.512,2575.011z
		" class="color32717f svgShape"></path>
  <path fill="#35c94f" d="M1263.472 2513.991l-22.039 7.311c0 0 11.349 17.141 14.77 53.523 3.421 36.381 11.817 62.968 23.361 70.315 11.545 7.346-5.517-27.843-6.933-59.151C1271.213 2554.679 1263.472 2513.991 1263.472 2513.991zM1068.619 2609.107c0 0 33.583-57.021 53.173-87.106 19.59-30.086-18.891 10.844-18.891 10.844S1064.072 2576.924 1068.619 2609.107z" class="color6bc935 svgShape"></path>
  <linearGradient id="r" x1="-5540.749" x2="-5539.192" y1="2756.449" y2="2756.449" gradientTransform="matrix(359.5099 0 0 -359.5099 1992701.25 992139.438)" gradientUnits="userSpaceOnUse">
    <stop offset="0" stop-color="#ffffff" class="stopColorffffff svgShape"></stop>
    <stop offset="1" stop-color="#f9fdfa" class="stopColorfdfbf9 svgShape"></stop>
  </linearGradient>
  <path fill="url(#r)" d="M1306.913,399.065c0,0-300.213,136.631-413.555,469.664
		c-113.344,333.033-76.962,619.889-53.174,759.819c23.788,139.93,162.712,259.997,252.07,309.808
		c0,0-215.403-86.808-287.609-210.203c-72.207-123.394-56.115-544.583-56.115-544.583l86.109-351.392
		C834.639,832.18,1022.217,486.323,1306.913,399.065z"></path>
  <path fill="#0f0f1d" d="M1853.747 1039.736l-2.516.682c0 0-.42.113-1.244.337-.414.143-1.03.356-1.842.638-2.263.797-5.909 2.298-10.694 4.567-9.594 4.65-23.24 13.571-38.27 28.17-14.85 14.729-30.402 36.075-42.442 64.496-12.129 28.266-20.237 63.77-23.758 102.984-1.872 21.303-2.641 41.407-2.091 62.732.566 10.71.589 21.718 2.141 32.619.608 5.488 1.22 11.016 1.836 16.586 1.011 5.473 2.029 10.985 3.055 16.535 8.234 44.161 27.193 89.252 61.435 122.415 17.104 16.428 38.099 29.26 61.484 37.007l8.847 2.751 2.219.696c0 0 1.469.397.377.185l1.238.242 4.958.967c6.51 1.131 13.527 2.999 19.498 3.277 12.135 1.589 25.249 2.051 38.525 2.331 53.045-.326 107.685-8.748 159.86-24.475 26.017-7.978 51.802-17.381 75.339-30.531 23.492-12.956 45.674-28.737 61.865-48.559 16.099-18.87 26.605-44.18 30.142-67.751 3.883-24.523 1.525-49.593-4.576-73.366-12.323-47.822-38.569-90.167-66.834-126.247-14.389-18.101-29.31-34.503-45.532-49.247-15.565-14.097-32.157-26.594-48.716-37.521-33.441-21.282-66.79-36.113-97.37-44.038-30.545-8.168-57.884-10.431-80.095-9.794-22.213 1.127-39.386 4.106-50.864 7.015C1861.561 1037.635 1856.193 1039.078 1853.747 1039.736zM1837.418 991.957l.497-.113c0 0 7.389-1.675 21.241-4.817 13.871-2.883 34.629-5.668 61.012-5.828 26.361.311 58.306 4.372 92.807 15.174 34.583 10.558 71.119 28.702 106.95 53.682 17.705 12.757 35.321 27.147 52.355 43.971 16.374 16.178 32.089 34.893 46.598 54.764 28.7 39.95 55.16 86.243 66.883 140.225 5.745 26.809 7.381 55.615 1.723 83.887l-2.108 10.594-3.557 10.663-3.659 10.62c-1.376 3.267-2.981 6.119-4.462 9.206l-4.539 9.108c-2.001 4.39-4.207 6.42-6.316 9.736-4.434 5.856-8.126 12.468-13.558 17.304-19.53 21.854-43.993 37.353-68.872 50.776-24.829 13.786-50.986 24.878-77.759 34.009-53.543 18.385-109.417 29.341-165.708 31.891-14.076.246-28.193.37-43.027-1.037-7.605-.271-13.771-1.742-20.572-2.654l-4.992-.774-1.247-.193-2.052-.484-2.628-.697-10.499-2.811c-27.835-8.011-53.712-22.413-74.897-41.247-42.589-38.076-65.989-89.903-77.04-138.542-1.369-6.142-2.728-12.243-4.079-18.299-.919-6.098-1.831-12.153-2.736-18.162-2.134-12.029-2.657-23.9-3.697-35.587-1.53-23.536-1.379-46.887-.347-67.142 2.242-43.859 9.659-83.982 22.869-118.544 12.936-34.552 31.655-62.642 50.963-82.385 19.132-20.107 38.683-31.354 52.44-37.995 7.03-3.219 12.665-5.388 16.784-6.745C1834.496 992.826 1836.201 992.319 1837.418 991.957zM1362.478 1026.95c1.207.393 2.898.944 5.187 1.69 4.081 1.462 9.659 3.775 16.604 7.175 13.582 6.993 32.837 18.739 51.444 39.332 18.793 20.233 36.784 48.796 48.826 83.67 12.315 34.89 18.697 75.192 19.809 119.094.511 20.275.061 43.62-2.076 67.11-1.341 11.656-2.17 23.51-4.612 35.48-1.059 5.983-2.128 12.013-3.203 18.085-1.506 6.02-3.022 12.083-4.549 18.188-12.299 48.338-37.025 99.546-80.581 136.512-21.663 18.282-47.902 32.013-75.933 39.305l-10.568 2.539-2.646.629-2.063.431-1.253.161-5.01.645c-6.824.737-13.025 2.049-20.635 2.124-14.865 1.025-28.973.538-43.038-.071-56.207-3.998-111.781-16.389-164.833-36.146-26.528-9.817-52.392-21.578-76.857-36-24.526-14.058-48.581-30.182-67.541-52.532-5.306-4.974-8.827-11.679-13.108-17.647-2.023-3.37-4.176-5.456-6.063-9.896l-4.304-9.221c-1.402-3.123-2.932-6.018-4.224-9.319l-3.384-10.71-3.281-10.751-1.837-10.644c-4.928-28.408-2.55-57.162 3.884-83.815 13.109-53.663 40.752-99.26 70.471-138.456 15.017-19.492 31.208-37.797 47.994-53.547 17.461-16.38 35.44-30.311 53.469-42.608 36.463-24.049 73.454-41.247 108.296-50.911 34.768-9.911 66.808-13.148 93.168-12.779 26.37.84 47.05 4.158 60.843 7.397 13.767 3.497 21.109 5.362 21.109 5.362L1362.478 1026.95zM1344.925 1074.292c-2.429-.72-7.758-2.302-15.863-4.706-11.399-3.204-28.49-6.624-50.667-8.323-22.187-1.209-49.575.35-80.319 7.729-30.775 7.135-64.495 21.102-98.473 41.516-16.834 10.497-33.741 22.562-49.665 36.254-16.596 14.322-31.933 30.333-46.785 48.058-29.184 35.341-56.513 76.996-70.062 124.484-6.711 23.609-9.714 48.61-6.463 73.225 2.928 23.653 12.779 49.226 28.387 68.504 15.676 20.232 37.445 36.579 60.595 50.136 23.192 13.751 48.725 23.815 74.529 32.46 51.753 17.066 106.158 26.891 159.177 28.583 13.279.06 26.4-.064 38.572-1.34 5.976-.124 13.039-1.81 19.577-2.774l4.981-.838 1.244-.21c-1.097.184.383-.175.383-.175l2.235-.64 8.915-2.522c23.577-7.143 44.895-19.43 62.415-35.412 35.085-32.271 55.198-76.858 64.568-120.793 1.167-5.522 2.328-11.006 3.479-16.451.76-5.552 1.514-11.063 2.263-16.533 1.833-10.857 2.139-21.862 2.98-32.553 1.098-21.304.847-41.421-.476-62.765-2.51-39.291-9.701-74.992-21.099-103.562-11.303-28.72-26.3-50.46-40.766-65.567-14.649-14.981-28.061-24.25-37.531-29.147-4.725-2.391-8.332-3.985-10.572-4.84-.806-.302-1.416-.531-1.826-.685-.818-.245-1.234-.369-1.234-.369L1344.925 1074.292z" class="color1d110f svgShape"></path>
  <path fill="#0f0f1d" d="M1754.785,2033.032c51.357-8.779,101.616-22.124,151.094-37.09
		c49.386-15.329,97.755-33.49,144.475-54.754c46.346-21.882,92.08-45.302,133.449-74.878l15.894-10.472l15.013-11.636l29.917-23.281
		l27.765-25.606c4.573-4.307,9.363-8.398,13.757-12.868l12.523-14.019l24.178-27.035l22.819-31.655
		c3.707-5.279,7.824-10.545,11.193-15.835l8.796-15.863c5.708-10.691,12.147-20.701,17.346-31.794
		c21.405-44.622,36.313-92.058,45.676-140.824c17.418-98.117,11.93-200.03-5.135-300.639
		c-8.207-50.079-19.768-101.509-28.934-152.575c-9.491-48.258-26.413-96.556-45.847-143.145
		c-19.704-46.664-43.044-91.92-69.367-135.33c-25.982-43.639-55.534-85.147-87.996-124.148
		c-32.606-38.822-67.408-76.062-106.181-108.769l-7.1-6.33c-1.031-1.097-4.703-3.749-6.923-5.547l-15.383-11.997l-15.383-11.998
		c-5.13-3.834-10.269-6.932-15.399-10.445c-20.064-14.075-42.008-26.601-64.072-38.629c-44.519-23.341-92.208-40.751-141.401-51.616
		c-48.782-10.661-100.734-16.309-149.013-11.949l-50.787,4.586l38.014-31.963l0.003-0.003c9.623-8.27,18.995-15.472,28.901-22.68
		c9.869-7.1,19.94-13.957,30.525-20.226c21.147-12.451,43.626-23.916,70.596-28.605l-1.434,30.487
		c-4.31-0.952-9.789-1.993-14.901-2.668c-5.182-0.817-10.478-1.284-15.742-1.851c-10.586-0.871-21.24-1.319-31.903-1.234
		c-10.672,0.047-21.314,0.79-31.947,1.667c-10.584,1.321-21.176,2.596-31.605,4.825c-5.265,0.866-10.455,2.059-15.591,3.474
		c-5.136,1.395-10.373,2.459-15.431,4.109l-15.167,4.988c-5.127,1.475-9.91,3.857-14.87,5.776
		c-4.867,2.138-9.964,3.777-14.651,6.311l-14.257,7.174c-9.51,4.775-18.253,10.944-27.433,16.312l-16.781-25.797
		c5.866-3.837,12.244-8.487,18.201-13.017c6.026-4.598,11.945-9.359,17.684-14.29c11.529-9.813,22.458-20.265,32.218-31.438
		c2.525-2.742,4.946-5.543,7.15-8.466c2.218-2.909,4.694-5.695,6.712-8.692c4.178-5.94,8.161-11.938,11.386-18.18
		c1.909-3.038,3.124-6.234,4.473-9.389c1.367-3.152,2.856-6.287,3.529-9.501c0.738-3.189,2.134-6.367,2.432-9.537l1.177-9.473
		l0.012-0.093l28.797,10.493c-17.533,21.866-36.131,39.411-56.34,56.596c-20.119,16.913-41.442,32.341-63.807,46.118
		c-44.609,27.104-93.999,48.889-143.056,63.423c-24.654,7.819-47.125,16.231-69.878,25.805c-22.919,9.52-45.25,20.421-67.503,31.449
		c-44.062,23.006-86.718,48.645-127.344,77.154c-40.689,28.485-78.334,60.851-114.179,94.876c-16.832,18.055-34.928,35-50.2,54.375
		c-7.811,9.522-16.135,18.654-23.542,28.474l-21.699,29.841c-7.576,9.72-13.756,20.344-20.22,30.779
		c-6.319,10.517-13.209,20.714-19.079,31.47c-10.676,22.05-23.575,43.071-31.938,66.143l-14.082,33.907l-11.942,35.403
		c-8.814,24.261-14.21,47.634-21.081,71.359c-11.93,48.076-22.009,97.055-28.25,146.512c-7.16,49.359-10.317,99.267-12.475,149.139
		c-1.707,49.929-0.508,99.933,2.706,149.745c3.427,49.785,9.787,99.378,19.583,147.812c2.113,12.245,5.553,23.939,8.264,35.938
		c1.29,6.052,3.348,11.654,4.979,17.507l2.591,8.693l1.293,4.348c0.468,1.296-0.462-1.157-0.282-0.7l0.216,0.555l0.431,1.109
		l0.862,2.219c4.716,11.584,8.952,24.238,14.059,34.943c5.637,9.976,10.171,20.25,16.47,30.192
		c25.211,40.254,58.632,75.929,97.676,105.468c38.6,30.196,82.098,54.916,127.194,76.942
		c45.097,22.219,92.544,40.372,139.649,60.087c-50.055-9.784-99.817-21.754-148.441-38.876
		c-48.597-17.009-96.019-39.074-139.983-68.156c-43.365-29.553-83.828-66.219-113.281-111.786
		c-7.583-11.291-13.908-24.112-20.789-36.209c-6.042-12.07-10.147-23.517-15.315-35.307c-9.824-27.21-15.849-51.334-21.492-77.252
		c-10.819-51.029-17.844-102.364-21.887-153.881c-3.819-51.516-5.529-103.162-4.249-154.793
		c1.573-51.597,4.853-103.235,12.198-154.451c6.424-51.359,16.726-102.075,29.194-152.57c7.151-25.084,13.437-51.234,21.969-74.764
		l12.37-36.8l15.207-36.427c9.317-24.68,23.21-47.159,34.967-70.642c6.403-11.457,13.824-22.31,20.7-33.482
		c7.018-11.086,13.773-22.354,21.901-32.648l23.418-31.554c7.986-10.366,16.866-19.988,25.263-30.006
		c16.458-20.385,35.658-38.146,53.672-57.021c38.113-35.564,78.033-69.154,120.895-98.579
		c42.895-29.283,87.411-56.185,134.052-78.992c23.526-10.988,47.115-21.798,71.358-31.205c24.285-9.572,49.68-18.281,73.626-25.231
		c48.7-13.233,93.349-31.924,136.241-56.408c41.813-24.729,82.877-55.052,113.899-90.374l34.829-39.658l-6.032,50.151l-0.015,0.137
		l-1.766,13.965c-0.607,4.657-2.301,8.86-3.452,13.296c-1.107,4.495-2.969,8.505-4.758,12.57c-1.775,4.074-3.487,8.203-5.767,11.863
		c-4.1,7.733-8.87,14.818-13.822,21.724c-2.426,3.504-5.199,6.622-7.789,9.945c-2.579,3.34-5.326,6.475-8.155,9.513
		c-11.068,12.457-23.066,23.73-35.59,34.238c-6.245,5.282-12.641,10.35-19.17,15.253c-6.622,4.939-12.993,9.555-20.341,14.288
		l-16.78-25.797c10.061-5.862,19.71-12.452,30.136-17.651l15.591-7.89c5.138-2.761,10.691-4.616,16.019-6.96
		c5.421-2.124,10.677-4.701,16.268-6.355l16.583-5.496c5.535-1.808,11.24-3.014,16.854-4.542c5.615-1.549,11.282-2.862,17.019-3.836
		c11.386-2.447,22.924-3.89,34.46-5.336c11.58-1.002,23.175-1.825,34.805-1.908c11.626-0.122,23.261,0.333,34.892,1.268
		c5.818,0.603,11.63,1.113,17.465,2.009c5.932,0.805,11.431,1.768,17.997,3.234l76.471,17.073l-77.907,13.415
		c-19.57,3.37-40.034,13.169-59.146,24.666c-9.638,5.732-19.01,12.148-28.206,18.798c-9.095,6.634-18.347,13.821-26.536,20.904
		l-0.003,0.002l-12.774-27.375c55.274-7.22,108.239-2.981,161.235,6.899c52.711,10.013,104.164,27.072,152.53,50.61
		c24.009,12.061,47.651,24.74,70.451,40.205c5.664,3.73,11.699,7.34,17.053,11.189l15.609,11.7l15.611,11.699
		c2.873,2.237,4.593,3.257,8.415,6.493l7.594,6.499c41.441,33.655,78.749,72.006,113.752,112.109
		c70.022,80.423,126.41,172.086,168.841,269.955c20.924,49.164,39.184,99.405,50.299,153.209l15.424,76.348
		c5.323,25.576,10.531,51.391,15.051,77.463c8.957,52.121,16.149,105.145,17.162,158.879c1.084,53.649-1.977,107.83-12.196,161.263
		c-11.524,53.128-28.718,105.353-54.151,153.803c-6.383,12.161-14.455,23.868-21.649,35.738l-11.128,17.68
		c-3.877,5.484-8.024,10.31-12.023,15.497l-24.199,30.613l-1.563,1.954l-0.885,0.908l-1.771,1.816l-3.542,3.629l-7.083,7.253
		l-14.166,14.477l-14.165,14.438c-4.923,4.583-10.218,8.751-15.307,13.138l-30.809,25.943l-32.715,23.239l-16.376,11.534
		l-17.15,10.266c-45.229,28.309-93.983,49.652-142.891,69.198c-49.083,19.412-100.095,32.917-151.139,44.507
		c-25.535,5.832-51.336,10.409-77.24,13.943C1806.823,2029.019,1780.835,2031.933,1754.785,2033.032z" class="color1d110f svgShape"></path>
  <path fill="#0f0f1d" d="M1284.733,1866.771c29.047-17.838,59.439-33.616,90.545-47.742
		c15.583-7.006,31.3-13.758,47.149-20.241c15.836-6.527,31.898-12.503,48.111-18.089c16.264-5.418,32.515-11.002,49.086-15.56
		c16.479-4.862,33.17-9.068,49.915-13.091l25.542-5.557l25.074-4.455c16.715-2.859,34.271-5.208,51.252-7.395
		c34.072-4.131,68.162-7.307,102.251-9.758c34.092-2.556,68.217-3.658,102.305-4.745c34.098-0.962,68.18-1.809,102.27-1.497
		c34.111,0.224,68.094,0.522,102.336,2.05l0.046,0.002l22.253,0.921l-6.595,20.779c-3.06,9.641-6.196,18.444-9.626,27.485
		c-3.376,8.981-6.952,17.867-10.732,26.679c-7.549,17.624-15.774,34.991-24.938,51.979c-9.299,16.927-19.407,33.524-30.875,49.446
		c-6.055,7.781-11.766,15.772-18.636,23.078c-3.402,3.666-6.444,7.57-10.246,10.968l-10.98,10.467l-6.506,6.203l-9.142-2.71
		c-32.689-9.688-64.182-20.51-95.758-32.176c-31.477-11.693-62.609-24.344-93.384-37.934c-15.314-6.979-30.651-13.905-45.724-21.476
		c-15.224-7.212-30.028-15.409-44.968-23.273c-14.674-8.452-29.509-16.572-43.768-25.866c-14.557-8.715-28.353-18.852-42.39-28.534
		l19.929-27.032c13.345,9.171,26.343,18.772,40.341,27.137c13.6,8.883,27.953,16.723,42.083,24.874
		c14.479,7.609,28.773,15.545,43.606,22.564c14.641,7.358,29.609,14.113,44.548,20.925c30.055,13.272,60.547,25.666,91.405,37.128
		c30.787,11.389,62.229,22.163,93.295,31.37l-15.643,3.492l9.308-8.906c3.217-2.811,5.921-6.348,8.884-9.524
		c5.986-6.303,11.153-13.595,16.595-20.542c10.396-14.442,19.784-29.826,28.495-45.674c8.595-15.936,16.397-32.399,23.573-49.152
		c3.594-8.374,7.001-16.843,10.206-25.366c3.212-8.438,6.335-17.267,8.931-25.451l15.656,21.696h-0.046
		c-67.452,0.039-135.267,0.877-202.801,2.346c-33.793,0.728-67.529,2.373-101.228,3.808c-33.707,1.444-67.333,3.605-100.786,6.681
		c-16.741,1.678-32.924,3.332-49.75,5.704l-25.194,3.728l-24.396,4.444c-16.449,3.069-32.907,6.321-49.222,10.24
		c-16.351,3.772-32.676,7.778-48.963,12.019c-32.446,8.879-64.989,17.973-97.017,28.843
		C1348.393,1842.956,1316.332,1854.043,1284.733,1866.771z" class="color1d110f svgShape"></path>
  <path fill="#0f0f1d" d="M1694.921,1825.776l-0.723-16.775c2.164-0.099,217.586-9.002,354.559-0.353l-1.05,16.759
		C1911.653,1816.823,1697.052,1825.702,1694.921,1825.776z" class="color1d110f svgShape"></path>
  <path fill="#0f0f1d" d="M2071.352 1737.306l-70.453 77.481c0 0-41.305 112.198-38.828 112.944 2.477.744 85.999-91.546 100.99-137.574C2078.052 1744.129 2071.352 1737.306 2071.352 1737.306zM1776.269 1581.099c0 0-.062.7-.184 2.055-.061.678-.135 1.52-.225 2.52-.024.829-.163 2.157-.846 4.571-2.117 9.854-7.735 17.34-16.25 25.571-17.094 15.788-44.846 27.33-78.547 35.333-16.925 3.779-35.292 7.22-54.908 9.244-9.859.941-20.096 1.738-30.069 2.371-10.499.468-21.151.609-31.92.298-21.629-.664-43.941-3.578-66.612-9.345-11.283-3.265-22.684-7.271-33.725-14.028-5.466-3.464-10.983-7.48-15.682-13.329-2.478-2.717-4.539-6.043-6.221-9.827-.987-1.753-1.685-3.68-2.088-5.808l-.706-3.11-.319-1.563-.151-.782-.074-.392c-.032-.858-.031 1.368-.089-2.022l.092-4.213.046-2.106.709-3.49c.532-2.342 1.188-4.688 1.942-6.964.807-1.897 1.691-3.458 2.577-5.193 3.551-6.808 8.259-11.973 13.034-16.586 9.687-9.078 20.259-15.504 30.881-21.168 21.358-10.871 43.515-17.272 64.995-22.129 21.457-4.585 42.834-7.614 62.545-8.198 20.329-.752 39.521-.132 57.071 2.437 35.159 4.736 64.344 14.647 83.324 29.099 9.389 7.247 16.142 15.691 18.698 23.323 2.63 7.307 2.484 11.934 2.684 11.799L1776.269 1581.099zM1750.611 1581.362c-.158-.015-.271-1.278-1.36-3.748-.882-2.423-4.297-6.389-10.706-10.694-12.938-8.916-38.951-16.228-70.644-18.682-15.938-1.101-33.319-1.761-51.567-.95-18.852.996-38.093 2.278-57.937 6.002-19.761 3.504-39.701 9.286-58.496 17.031-17.974 8.125-36.924 19.787-36.571 33.902-.022-3.218.013-.82.017-1.506l.032.125.06.249.103.5.139 1.016c-.051.693.125 1.412.567 2.119.478 1.442 1.157 2.984 2.452 4.498 2.047 3.118 5.505 6.155 9.285 8.891 7.715 5.495 17.24 9.731 26.969 13.235 19.783 6.744 40.901 9.694 61.293 11.237 10.276.662 20.332.882 30.099.811 10.282-.209 19.835-.678 29.176-1.806 18.768-2.098 36.391-5.301 52.051-10.073 31.366-8.935 55.681-22.544 66.725-34.562 5.411-5.519 8.029-11.802 7.836-12.398.093-.223.251-.279.335-.611.012-.581.023-1.122.033-1.624.02-1.004.036-1.849.05-2.529.027-1.361.041-2.063.041-2.063L1750.611 1581.362zM2108.139 526.13c0 0 .652-.425 1.919-1.247 1.364-.82 3.39-2.036 6.032-3.622 5.176-3.034 12.802-7.153 22.914-11.611 20.213-8.409 50.344-19.707 88.821-22.176 19.17-1.656 40.159-.113 62.11 3.255 21.646 4.629 44.674 10.785 66.028 22.404 2.968 1.52 4.938 2.195 8.753 4.433l7.343 4.427c4.929 3.026 9.824 5.803 14.878 9.092 10.211 7.484 21.17 14.752 30.303 23.287 19.261 16.337 36.641 35.642 51.006 56.956 28.758 42.667 46.145 92.353 50.136 140.355.952 12.021 1.349 23.936.64 35.695-.665 5.97-.853 11.6-1.945 17.619-.856 5.218-1.638 10.315-3.027 16.11-4.896 22.126-12.219 41.491-21.185 58.738-17.622 34.685-43.315 56.944-62.801 68.497-9.891 5.783-18.364 8.994-24.168 10.853-5.853 1.731-8.973 2.654-8.973 2.654l-5.025-16.609c0 0 2.548-1.118 7.323-3.213 4.741-2.116 11.384-5.918 19.301-11.44 7.749-5.789 16.633-13.607 25.139-24.198 8.473-10.588 16.612-23.77 23.597-39.076 6.873-15.242 12.373-33.228 15.34-51.773.838-4.329 1.363-9.652 1.91-14.968.579-4.485.435-9.657.722-14.514.03-9.989-.475-20.291-1.694-30.768-5.123-41.932-21.074-85.723-46.521-122.786-12.326-18.821-27.298-35.868-44.045-50.397-8.129-7.822-16.895-13.551-25.235-20.07-4.636-3.115-9.767-6.121-14.577-9.155l-7.287-4.517c-1.074-.68-4.366-2.188-6.423-3.24-18.457-10.026-37.635-16.552-56.22-21.419-18.809-3.721-37.03-6.06-54.01-5.354-33.946.632-62.264 7.716-81.268 14.183-9.445 3.424-16.931 6.142-21.74 8.4-4.812 2.09-7.109 3.333-7.261 3.407L2108.139 526.13zM1135.311 495.331c0 0-.543-.768-1.594-2.256-.982-1.293-2.44-3.212-4.343-5.715-4.079-5.186-10.39-12.681-18.913-21.814-8.729-8.929-19.594-19.548-33.175-30.205-6.917-5.133-13.969-11.053-22.262-15.866-4.016-2.604-8.136-5.276-12.353-8.01-4.436-2.271-8.976-4.595-13.611-6.967-9.043-5.326-19.4-8.298-29.711-12.39-5.087-2.355-10.767-2.749-16.237-4.272-5.563-1.066-11.077-3.033-16.881-3.483-11.627-.347-23.452-3.109-35.659-1.197-6.09.396-12.245.795-18.46 1.199-6.158 1.058-12.31 2.8-18.551 4.14-6.164 1.752-12.68 2.124-18.716 4.958-6.116 2.451-12.277 4.921-18.475 7.405-12.729 4.017-24.145 12.249-36.266 18.797l-9.028 5.157-2.265 1.289c.618-.545-1.129.785-1.577 1.085l-4.533 3.265c-6.108 4.354-12.351 8.758-16.916 12.993-5.055 4.1-10.045 8.533-14.901 13.566-5.104 4.64-9.654 9.799-14.157 15.004-18.107 20.73-32.302 44.779-41.844 70.281-9.618 25.446-15.234 52.12-16.499 78.242-2.852 52.27 9.053 101.763 28.891 138.062 9.879 18.178 21.142 33.388 32.708 45.089 11.62 11.673 23.441 19.604 33.54 25.225 10.221 5.411 18.823 8.434 24.767 10.036 5.986 1.552 9.178 2.379 9.178 2.379l-5.83 33.073c0 0-4.132-.878-11.879-2.524-7.695-1.763-18.92-5.171-32.226-11.561-13.148-6.569-28.467-16.095-43.33-29.892-14.748-13.825-29.263-31.508-41.258-52.817-24.196-42.398-39.397-98.63-36.971-159.193 1.26-30.223 7.474-61.339 18.574-91.339 11.004-30.04 27.619-58.74 48.902-83.509 5.294-6.217 10.677-12.35 16.638-17.91 5.611-5.778 11.882-11.256 18.516-16.549 6.638-5.751 12.686-9.877 18.748-14.139l4.559-3.227c1.096-.734.767-.635 3.031-2.052l2.581-1.468 10.312-5.845c13.917-7.462 26.799-16.34 41.899-21.236 7.304-2.833 14.564-5.648 21.773-8.443 7.073-3.116 15.05-3.843 22.45-5.815 7.54-1.58 14.946-3.493 22.416-4.673 7.609-.467 15.145-.93 22.599-1.388 14.913-1.774 29.473 1.556 43.601 2.6 7.055.808 13.708 3.169 20.412 4.679 6.574 1.956 13.421 2.861 19.424 5.691 12.209 5.053 24.412 9.164 34.799 15.505 5.326 2.918 10.541 5.776 15.637 8.569 4.77 3.248 9.429 6.42 13.971 9.512 9.263 5.981 16.927 12.955 24.448 19.105 14.719 12.665 26.234 24.963 35.44 35.281 8.994 10.523 15.625 19.162 20 25.268 4.596 6.56 6.551 9.675 6.551 9.675L1135.311 495.331zM1794.422 1336.114c20.183-5.777 40.378-12.888 60.329-20.119 20.006-7.214 39.675-15.338 59.056-23.966 38.753-17.091 76.737-36.807 109.475-62.187l10.499-8.139 5.602 11.35c4.254 8.621 6.715 16.25 8.714 24.718 1.817 8.329 3.188 16.811 3.188 25.416.315 8.587-.744 17.194-2.301 25.671-1.047 4.18-2.07 8.386-3.285 12.524-1.557 4.017-2.998 8.104-4.719 12.049l-6.008 11.419-7.244 10.579c-2.513 3.443-5.471 6.473-8.204 9.718l-2.094 2.392c-.505.539-.35.484-1.398 1.509l-1.069 1.005-4.278 4.02c-5.253 5.343-12.551 10.765-19.253 15.888-6.974 4.571-13.92 9.207-21.474 12.838-7.304 4.069-15.258 6.915-23.082 9.935l-12.067 3.828-12.461 2.626c-8.388 1.237-16.93 2.537-25.559 2.116-8.636.24-17.255-1.162-25.848-2.548-8.494-2.082-16.925-4.435-24.984-8.04-4.184-1.462-8.021-3.588-11.833-5.802-3.764-2.256-7.88-4.09-11.244-6.91l-10.543-7.959c-3.276-2.894-6.306-6.038-9.463-9.083-6.616-5.898-11.325-13.136-17.056-19.781l-15.634-18.13L1794.422 1336.114zM1825.225 1358.986c.246.268.409.621.666.879 2.297 2.56 4.478 5.287 6.859 7.779l7.711 6.808c2.436 2.507 5.519 4.012 8.294 6.033 2.814 1.973 5.661 3.918 8.829 5.245 6 3.439 12.615 5.416 19.232 7.481 6.788 1.351 13.617 2.918 20.682 3.01 6.993.748 14.138-.07 21.206-.729l10.618-1.694 10.461-2.792c6.862-2.206 13.81-4.556 20.218-8.047 6.646-3.037 12.773-7.038 18.977-10.923 5.728-4.356 11.273-7.991 17.135-13.712l4.341-3.952 1.086-.988c-.351.34.415-.483.569-.667l1.793-2.006c2.328-2.714 4.941-5.243 7.074-8.089l6.172-8.689 5.069-9.282c2.935-6.396 5.246-13.022 6.811-19.882 1.124-6.933 1.939-13.942 1.555-21.02-.073-7.067-1.357-14.123-2.952-21.037-1.605-6.756-4.282-14.03-7.03-19.409l16.096 3.21c-8.802 6.799-17.628 13.58-26.853 19.562-9.092 6.255-18.517 11.818-27.924 17.406-9.465 5.465-18.869 11.012-28.487 16.12-9.557 5.24-19.252 10.17-28.969 15.048C1891.874 1330.656 1858.79 1344.947 1825.225 1358.986zM1347.29 1408.59c-33.551-14.076-66.618-28.405-99.188-44.446-9.713-4.889-19.401-9.828-28.952-15.08-9.613-5.12-19.011-10.677-28.469-16.152-9.401-5.598-18.82-11.171-27.905-17.437-9.22-5.992-18.037-12.783-26.831-19.592l16.099-3.192c-2.754 5.377-5.44 12.647-7.051 19.402-1.603 6.911-2.895 13.967-2.974 21.034-.394 7.078.414 14.087 1.529 21.022 1.558 6.86 3.861 13.49 6.789 19.889l5.059 9.287 6.162 8.697c2.129 2.848 4.74 5.38 7.065 8.097l1.791 2.008c.153.184.92 1.007.569.667l1.084.99 4.336 3.957c5.856 5.728 11.397 9.369 17.12 13.731 6.199 3.892 12.321 7.9 18.965 10.945 6.404 3.498 13.348 5.856 20.209 8.069l10.457 2.805 10.615 1.704c7.067.668 14.212 1.494 21.206.753 7.065-.084 13.895-1.643 20.685-2.986 6.62-2.059 13.237-4.028 19.24-7.461 3.17-1.323 6.019-3.265 8.834-5.235 2.777-2.018 5.862-3.52 8.3-6.024l7.72-6.799c2.384-2.49 4.567-5.214 6.868-7.772C1346.88 1409.211 1347.043 1408.857 1347.29 1408.59zM1386.698 1410.829c-5.738 6.639-10.456 13.871-17.078 19.762-3.161 3.041-6.194 6.182-9.473 9.072l-10.551 7.948c-3.367 2.816-7.486 4.645-11.253 6.897-3.814 2.21-7.654 4.331-11.839 5.789-8.063 3.596-16.498 5.94-24.993 8.012-8.595 1.376-17.215 2.768-25.851 2.519-8.631.411-17.171-.899-25.557-2.144l-12.458-2.641-12.063-3.842c-7.821-3.028-15.773-5.882-23.07-9.96-7.551-3.64-14.492-8.284-21.46-12.862-6.697-5.13-13.988-10.561-19.236-15.909l-4.274-4.024-1.069-1.006c-1.046-1.027-.892-.972-1.396-1.51l-2.091-2.396c-2.73-3.248-5.685-6.281-8.193-9.726l-7.233-10.588-5.996-11.425c-1.717-3.947-3.152-8.036-4.706-12.054-1.21-4.139-2.23-8.347-3.27-12.528-1.548-8.479-2.599-17.087-2.274-25.673.01-8.605 1.39-17.085 3.218-25.412 2.007-8.466 4.478-16.093 8.741-24.709l5.614-11.345 10.49 8.152c32.709 25.416 70.672 45.175 109.406 62.308 19.371 8.65 39.032 16.795 59.03 24.031 19.943 7.253 40.13 14.386 60.306 20.185l24.234 6.966L1386.698 1410.829zM2196.414 1879.688c0 0 .938 1.015 2.701 2.919 1.868 2.068 4.312 4.861 7.299 8.652 5.673 7.645 14.05 18.466 22.044 32.625 7.845 14.183 17.08 30.861 24.315 49.826 3.924 9.37 7.34 19.275 10.571 29.425 3.355 10.111 5.793 20.648 8.689 31.066 2.11 10.588 4.22 21.176 6.297 31.599 1.343 10.526 2.665 20.885 3.944 30.909.802 10.063 1.097 19.827 1.535 29.045.478 9.219-.078 17.96-.06 25.992.195 16.087-2.065 29.394-2.804 38.688-1.141 9.268-1.792 14.564-1.792 14.564l-19.477-1.159c0 0-.342-5.167-.941-14.21-.208-4.499-.461-9.962-.751-16.228-.113-6.258-1.141-13.284-1.597-20.942-.725-7.646-.931-15.96-2.195-24.652-1.177-8.7-2.528-17.839-3.533-27.318-1.589-9.392-3.232-19.096-4.901-28.958-2.104-9.755-4.239-19.665-6.374-29.575-2.669-9.76-4.706-19.716-7.725-29.206-3.022-9.487-5.472-19.008-8.808-27.888-6.033-17.996-12.499-34.512-18.777-48.35-6.405-13.761-11.842-25.204-16.178-32.895-2.123-3.764-3.792-6.723-4.928-8.74-1.206-2.004-1.848-3.073-1.848-3.073L2196.414 1879.688z" class="color1d110f svgShape"></path>
  <path fill="#0f0f1d" d="M1866.708,2607.755c0,0,2.433-7.301,6.996-20.988c4.729-13.636,11.938-33.562,22.358-58.451
		c10.452-24.866,23.72-54.885,41.28-88.285c17.48-33.416,39.602-70.113,69.082-106.787c14.791-18.271,31.783-36.336,52.06-52.541
		c10.576-8.208,19.977-15.286,30.987-22.895c10.89-7.574,22.152-14.856,33.848-21.656c46.837-26.633,102.777-48.564,164.314-49.306
		c15.285-0.447,30.682,1.055,46.069,3.106c15.112,2.767,30.63,5.412,46.449,11.787c31.996,13.33,56.227,37.512,74.643,64.657
		c36.874,54.971,48.121,123.955,39.953,188.178c-4.065,32.213-12.706,63.755-24.248,93.299
		c-11.162,29.295-24.581,58.061-40.203,85.204c-31.542,54.138-73.662,102.263-124,136.146
		c-50.165,34.181-107.06,53.186-161.25,60.477c-13.574,1.919-27.02,3.031-40.256,3.771c-6.841,0.157-12.692,0.589-20.197,0.503
		c-6.488-0.285-12.199,0.025-19.18-0.745c-27.288-2.26-51.556-8.735-74.268-17.656c-45.099-18.098-80.936-44.488-108.874-70.716
		c-28.081-26.264-49.322-51.993-65.464-73.993c-16.018-22.12-27.232-40.359-34.511-53.007c-7.186-12.707-10.599-19.85-10.599-19.85
		c-1.269-2.638-0.16-5.805,2.479-7.075c2.473-1.19,5.433-0.255,6.836,2.038c0,0,3.868,6.411,12.069,18.08
		c8.119,11.7,20.403,28.681,37.616,48.886c17.228,20.124,38.872,44.088,67.006,67.463c28.131,23.07,62.033,47.13,103.364,61.969
		c20.367,7.406,43.252,12.412,65.583,13.661c5.385,0.621,12.252,0.236,18.385,0.403c5.128-0.01,11.999-0.538,17.983-0.779
		c12.377-0.91,24.902-2.155,37.462-4.154c50.215-7.654,101.487-25.91,146.311-57.558c44.966-31.409,82.629-75.697,111.113-126.51
		c14.38-25.426,26.931-52.06,37.506-80.024c10.694-27.488,18.304-55.739,21.92-84.544c7.538-57.134-1.599-117.271-32.14-163.859
		c-14.847-23.121-35.453-42.549-58.122-53.029c-11.554-5.205-25.253-8.093-38.779-11.034c-13.547-2.216-27.12-4.037-40.688-4.052
		c-54.454-1.178-106.613,16.894-151.888,40.775c-11.466,5.938-22.498,12.135-33.079,18.653c-10.49,6.39-21.81,13.85-31.17,20.459
		c-19.235,14.019-36.156,30.388-51.114,47.308c-30.046,33.882-52.881,69.292-72.425,100.926
		c-19.354,31.834-34.373,60.785-46.288,84.833C1878.079,2579.109,1866.708,2607.755,1866.708,2607.755z" class="color1d110f svgShape"></path>
  <path fill="#0f0f1d" d="M2375.596 2612.31c0 0-2.958 4.022-8.504 11.563-5.217 7.444-14.47 18.823-26.584 32.099-12.196 13.165-28.108 28.183-48.15 43.232-20.356 14.547-44.922 29.242-74.506 39.318-14.963 4.371-30.911 8.562-48.09 8.865-16.993.882-35.2-1.185-52.376-8.223-4.397-1.479-8.662-3.324-12.662-5.837-4.119-2.601-8.154-3.959-12.458-7.555l-10.52-8.12-10.447-10.868c-12.727-15.035-21.601-32.876-27.284-51.915-10.867-38.384-8.374-79.707.538-119.29 9.742-39.706 26.353-77.37 49.029-112.821 5.883-8.207 10.975-16.387 17.501-24.608 6.555-8.189 12.958-16.637 20.092-24.019 13.586-15.578 29.229-29.201 45.252-42.088 32.783-24.792 70.653-43.562 111.557-49.132 20.414-2.441 41.444-1.309 61.199 4.703 20.079 5.631 37.328 17.856 50.349 31.402 14.808 15.154 23.311 31.444 29.362 48.483 6.471 16.809 8.24 33.825 9.679 49.81 1.526 32.152-3.7 60.85-10.431 85.263-7.274 24.305-15.736 44.608-23.726 60.771-8.145 16.073-15.206 28.34-20.607 36.308-5.229 8.074-8.018 12.38-8.018 12.38L2375.596 2612.31zM2358.47 2600.443c0 0 2.488-4.17 7.151-11.988 4.841-7.698 11.068-19.527 18.167-34.866 7-15.391 14.166-34.686 19.608-57.391 5.005-22.718 8.268-48.976 5.857-76.723-1.769-13.697-4.178-27.95-9.568-41.292-2.069-6.993-5.953-13.073-9.146-19.647-4.193-5.83-8.234-12.279-12.948-16.605-10.747-10.802-23.326-19.676-38.061-24.085-14.7-4.666-31.063-5.929-47.821-4.201-33.774 3.895-67.558 20.106-98.004 41.63-14.901 11.307-29.69 23.32-42.696 37.388-13.417 13.503-24.847 28.311-36.854 44.861-21.332 31.162-38.746 66.896-48.841 103.306-9.755 36.539-12.239 74.798-3.346 109.049 4.654 16.907 12.271 32.714 22.566 45.448l7.88 8.792 10.345 8.329c2.341 2.259 6.68 4.072 9.91 6.075 3.383 2.172 7.034 3.727 10.812 4.955 14.642 6.016 30.452 7.821 45.585 6.986 15.218-.245 29.766-4.13 43.459-8.126 27.282-9.151 50.27-23.281 68.995-37.575 18.554-14.65 33.274-29.194 44.519-41.93 11.098-12.806 19.043-22.907 24.396-30.91 5.366-7.669 8.228-11.76 8.228-11.76L2358.47 2600.443zM897.431 2379.123c0 0 1.689 4.698 4.856 13.507 3.268 8.475 7.56 22.523 11.825 39.998 4.129 17.478 7.723 39.079 9.039 64.132.738 25.029-.649 53.68-9.014 83.856-4.78 14.863-10.26 30.432-19.651 44.839-4.066 7.533-10.051 14.078-15.531 21.047-6.457 6.203-12.789 12.723-20.618 17.777-3.659 2.858-7.552 5.404-11.856 7.358-4.437 2.026-7.825 4.595-13.236 6.159l-12.618 4.173-14.881 2.586c-19.607 2.138-39.368-.496-58.33-6.44-37.854-12.51-70.852-37.566-98.381-67.322-27.168-30.248-49.04-65.697-65.129-103.521-3.723-10.168-7.419-18.526-10.568-28.651-3.046-9.975-6.391-19.948-8.454-29.963-5.177-19.905-7.586-40.39-9.185-60.744-1.915-40.742 3.322-82.26 21.346-118.833 9.229-18.06 21.695-34.612 37.41-47.429 15.74-13.053 35.082-20.295 53.294-23.559 20.212-3.73 38.283-1.778 55.488 2.644 17.265 3.949 32.355 11.487 46.394 18.998 27.552 16.109 48.555 36.216 65.297 55.112 16.372 19.296 28.625 37.567 37.641 53.17 8.882 15.669 15.2 28.34 18.851 37.248 3.837 8.826 5.884 13.533 5.884 13.533L897.431 2379.123zM877.569 2386.886c0 0-2.041-4.401-5.868-12.654-3.629-8.335-9.888-20.138-18.558-34.652-8.797-14.447-20.675-31.247-36.21-48.741-15.812-17.151-35.669-34.761-60.014-48.821-12.377-6.396-25.565-12.846-39.938-15.886-7.081-2.226-14.462-2.432-21.859-3.469-7.361.213-15.11-.052-21.681 1.506-31.124 4.875-56.843 26.449-72.926 56.88-15.807 30.671-21.543 68.132-20.325 105.705 1.214 18.809 3.091 37.885 7.667 56.592 1.793 9.523 4.708 18.5 7.296 27.658 2.562 8.989 6.732 19.042 9.694 27.681 14.616 35.871 34.65 69.624 59.564 98.323 25.209 28.224 55.464 51.721 88.906 63.359 16.632 5.543 33.994 8.01 50.278 6.546l11.662-1.648 12.678-3.957c3.154-.679 7.074-3.288 10.558-4.792 3.703-1.554 7.051-3.68 10.201-6.095 13.215-8.731 23.432-20.952 31.151-33.967 8.238-12.779 13.08-27.021 17.354-40.605 7.424-27.74 8.664-54.633 7.288-78.128-1.783-23.548-5.617-43.864-9.894-60.294-4.417-16.344-8.347-28.556-11.997-37.472-3.363-8.735-5.157-13.395-5.157-13.395L877.569 2386.886zM1954.004 2165.638c0 0-8.919-6.269-25.048-14.981-16.114-8.469-39.55-20.147-68.846-24.373-14.616-1.804-30.563-.95-46.493 3.722-3.903 1.428-7.859 2.876-11.862 4.342-3.927 1.659-7.644 4.037-11.542 6.019l-5.264 2.856-5.939 4.243c-3.732 2.883-8.548 5.62-11.494 8.697-13.416 10.913-25.561 26.761-33.623 43.63-8.198 17.103-12.622 36.25-13.189 55.602-.608 19.346 2.176 38.915 8.137 57.23 6.064 18.29 15.01 35.251 25.693 50.103l4.049 5.511 1.635 2.271 2.417 2.77c3.215 3.678 6.399 7.322 9.548 10.926 6.237 6.06 12 12.101 18.783 17.706 12.989 11.336 26.216 21.205 39.085 29.423 25.546 16.765 48.983 27.587 65.275 34.902 8.202 3.551 14.71 6.204 19.118 7.839 4.259 1.552 6.529 2.38 6.529 2.38l-10.405 31.931c0 0-2.727-.959-7.842-2.757-4.945-1.78-11.99-4.567-20.878-8.311-17.625-7.729-42.486-19.556-70.203-37.851-13.88-9.059-28.501-19.759-42.735-32.734-7.165-6.2-14.281-13.807-21.51-21.381-3.074-3.68-6.181-7.4-9.317-11.156l-2.354-2.822-2.692-3.713-4.617-6.571c-24.41-35.178-39.923-80.834-36.648-127.19 1.605-23.021 7.853-45.87 18.562-66.034 10.931-20.231 24.952-37.438 43.035-50.995 15.891-11.8 35.278-23.031 54.395-27.659 19.343-4.879 38.476-5.043 55.363-2.216 33.982 6.438 57.233 23.471 71.259 36.101C1948.312 2156.308 1954.004 2165.638 1954.004 2165.638zM1125.317 2707.039c0 0-35.759 6.268-71.519 12.534-35.831 5.842-71.662 11.684-71.662 11.684-4.576.747-8.891-2.358-9.638-6.935-.74-4.542 2.321-8.828 6.841-9.622 0 0 35.758-6.267 71.518-12.534 35.831-5.843 71.662-11.685 71.662-11.685 4.577-.746 8.891 2.359 9.637 6.936C1132.897 2701.959 1129.835 2706.245 1125.317 2707.039zM1164.065 2682.758c0 0 10.414-1.608 28.638-4.421 18.224-2.635 44.226-6.799 75.968-9.946 15.821-1.798 32.964-3.64 51.072-5.1 18.12-1.512 37.214-3.588 57.038-4.401 19.812-.983 40.272-2.493 61.094-3.082 20.818-.71 41.962-1.755 63.123-1.96 42.322-.52 84.641.005 124.295 1.024 39.66 1.035 76.619 3.536 108.277 5.77 31.666 2.146 57.969 5.364 76.399 7.306 18.403 2.172 29.015 3.836 29.015 3.836 5.913.927 9.956 6.471 9.028 12.385-.87 5.555-5.892 9.453-11.39 9.138 0 0-41.696-2.535-104.568-4.379-31.42-1.231-68.118-1.554-107.41-2.088-39.293-.508-81.218-.493-123.114.557-20.957.053-41.898.731-62.521 1.193-20.63.314-40.892 1.551-60.524 2.268-19.622.949-38.59 1.867-56.576 2.737-18.021.743-34.965 1.897-50.593 3.057-31.226 2.042-57.53 3.83-75.905 5.514-18.392 1.341-28.901 2.106-28.901 2.106-5.967.437-11.159-4.047-11.596-10.015C1154.498 2688.594 1158.556 2683.625 1164.065 2682.758z" class="color1d110f svgShape"></path>
  <path fill="#0f0f1d" d="M980.219,2341.656c0,0,3.268,6.502,9.396,18.694c6.211,11.668,14.882,31.324,24.044,56.004
		c9.055,24.675,17.799,55.55,23.94,91.951c5.343,36.464,7.621,78.8-0.285,124.746c-4.942,22.734-10.678,46.766-22.939,69.619
		c-5.053,11.822-13.177,22.548-20.533,33.738c-8.781,10.342-17.453,21.085-28.647,29.813l-8.031,6.913l-8.983,5.799l-9.148,5.681
		l-4.608,2.828c1.056-0.49-2.086,1.075-1.962,0.989l-0.552,0.237l-1.104,0.472l-2.211,0.945c-5.9,2.524-11.835,5.063-17.805,7.618
		c-7.305,2.15-14.895,4.162-22.435,6.094c-29.461,6.018-59.255,4.944-88.393-1.092c-29.013-6.396-56.434-18.235-82.482-32.521
		c-25.891-14.669-49.543-33.034-71.795-52.994c-43.86-41.008-79.523-89.517-107.888-143.678
		c-6.104-13.383-12.79-25.768-18.409-39.959c-5.603-14.165-11.537-28.264-15.657-42.586c-9.692-28.333-15.462-57.787-19.825-87.092
		c-3.364-29.507-4.513-59.13-1.712-88.371c3.266-29.146,9.278-57.912,20.484-84.714c11.477-26.615,27.591-51.125,48.267-70.667
		c20.461-19.989,46.297-32.868,71.445-40.214c13.696-4.459,26.84-5.426,39.849-6.87c12.955,0.23,25.943-0.487,38.218,1.929
		c25.022,2.681,47.65,11.054,68.91,19.325c41.764,18.61,75.56,43.356,102.907,67.621c26.845,24.889,47.787,49.016,63.401,70.046
		c15.508,21.084,26.773,38.365,33.54,50.635c7.028,12.139,10.776,18.613,10.776,18.613L980.219,2341.656z M953.248,2355.291
		c0,0-3.461-6.168-9.951-17.734c-6.223-11.718-16.66-28.181-31.013-48.311c-14.457-20.078-33.896-43.078-58.746-66.825
		c-25.263-23.116-56.579-46.738-94.823-63.579c-19.311-7.461-39.801-15.122-61.774-17.396c-10.893-2.235-22.059-1.424-33.317-1.758
		c-11.142,1.297-22.692,2.167-32.908,5.546c-22.474,6.552-44.325,17.182-61.172,34.561c-17.219,16.879-30.821,38.154-40.591,61.781
		c-9.512,23.836-14.532,49.939-17.098,76.566c-2.118,26.777-0.599,54.182,2.955,81.54c4.561,27.226,10.329,54.631,19.894,81.055
		c4.115,13.519,9.748,26.104,14.989,38.918c5.226,12.792,12.57,26.007,18.755,38.997c26.534,48.426,61.597,94.415,102.312,130.84
		c20.733,17.904,42.605,33.99,65.697,46.944c23.247,12.444,47.317,22.537,71.784,27.692c24.315,4.854,49.085,5.166,71.094,0.527
		c5.17-1.331,10.312-2.655,15.425-3.971c5.947-2.607,11.86-5.198,17.737-7.775l2.202-0.965l1.1-0.482l0.55-0.241
		c0.504-0.218-2.326,1.081-0.925,0.394l3.505-2.271l6.999-4.467l7.011-4.352l6.224-5.381c8.792-6.562,15.602-15.146,22.738-23.171
		c5.874-9.097,12.67-17.427,16.882-27.343c10.23-18.708,15.653-39.304,20.682-58.928c8.102-40.087,7.313-78.806,3.332-112.524
		c-4.735-33.738-12.022-62.818-19.863-86.191c-7.941-23.255-14.827-40.582-21.054-53.192c-5.777-12.362-8.858-18.955-8.858-18.955
		L953.248,2355.291z" class="color1d110f svgShape"></path>
  <path fill="#0f0f1d" d="M818.871 2192.157c-35.206-193.915 85.664-344.121 90.829-350.418l25.991 21.276c-1.164 1.427-116.148 144.852-83.761 323.14L818.871 2192.157zM1018.14 2454.059c0 0 2.978 2.15 9.922 6.169 6.818 3.926 17.168 9.452 30.953 15.24 27.422 11.592 69.088 24.507 120.533 26.529 25.64 1.085 53.591-.649 82.545-6.106 14.316-2.536 29.628-6.447 43.607-10.76l11.441-3.873 10.139-4.324c6.652-2.873 13.615-6.621 20.077-10.59 26.407-15.751 48.15-40.085 62.869-68.948 14.777-28.911 22.603-62.171 24.41-95.724 1.768-33.54-2.205-67.76-12.228-98.733-5.097-15.319-11.538-30.241-20.191-41.951l-2.966-3.986-4.218-4.806c-2.852-3.396-5.575-6.236-8.161-8.693-5.048-5.192-11.121-10.567-17.074-15.191-24.078-18.948-51.467-31.689-78.45-38.983-26.99-7.521-53.867-9.228-78.165-6.469-24.345 3.028-45.719 11.228-63.251 21.446-17.439 10.478-30.396 23.409-40.059 34.96-9.875 11.501-15.97 22.063-20.073 29.264-3.969 7.358-6.084 11.283-6.084 11.283s1.075-4.359 3.091-12.531c2.448-8.054 6.354-19.943 14.041-34.117 7.616-14.163 19.685-30.232 37.268-45.306 17.614-14.974 41.647-27.487 69.768-34.161 28.136-6.493 60.154-6.745 92.374.758 32.074 7.91 64.004 23.705 91.54 46.884 6.995 5.805 13.412 11.734 19.961 18.823 3.406 3.514 6.426 6.911 8.963 10.11l4.084 4.919c2.081 2.622 3.087 4.166 4.674 6.316 11.443 16.13 18.505 33.668 24.232 51.472 11.007 35.721 14.764 73.287 12.376 110.587-2.493 37.227-11.605 74.515-29.085 107.727-17.34 33.126-43.575 61.728-74.699 79.751-7.755 4.608-15.447 8.644-23.815 12.157l-12.401 5.016-11.489 3.727c-16.675 4.933-31.87 8.521-47.623 11.167-31.088 5.449-61.141 6.935-88.669 5.42-55.257-2.886-99.736-17.294-129.14-30.163-14.787-6.434-25.952-12.566-33.491-17.036-7.421-4.394-11.638-7.473-11.638-7.473L1018.14 2454.059z" class="color1d110f svgShape"></path>
  <rect width="345.212" height="16.805" x="1261.332" y="1938.616" fill="#0f0f1d" transform="rotate(-69.194 1433.982 1947.014)" class="color1d110f svgShape"></rect>
  <rect width="297.796" height="16.797" x="1239.396" y="1930.643" fill="#0f0f1d" transform="rotate(-67.741 1388.28 1938.991)" class="color1d110f svgShape"></rect>
  <polygon fill="#0f0f1d" points="1157.95 2729.644 1111.183 2710.852 1173.922 2512.895 1189.926 2517.962 1131.91 2701.079 1147.685 2707.425 1213.097 2512.223 1229.003 2517.552" class="color1d110f svgShape"></polygon>
  <path fill="#0f0f1d" d="M1306.861 2669.578l-20.317-7.01c-94.092-32.559-80.367-128.815-80.219-129.782.705-4.583 5.116-7.666 9.56-7.01 4.576.697 7.724 4.977 7.035 9.552-.459 3.124-9.855 71.126 51.441 103.726-3.673-12.43-7.462-30.615-8.117-54.138-.935-34.346-9.478-56.286-26.106-67.084-3.886-2.525-4.985-7.723-2.459-11.617 2.541-3.895 7.74-4.969 11.61-2.468 21.612 14.037 32.648 40.437 33.747 80.71 1.18 42.578 13.495 65.937 13.627 66.166L1306.861 2669.578zM1063.432 2623.483c-16.644-80.457 60.229-121.124 61.001-121.526 4.132-2.091 9.183-.508 11.298 3.608 2.131 4.108.525 9.175-3.592 11.306-2.296 1.206-48.554 25.884-53.801 74.89 16.365-14.439 44.864-24.237 84.974-29.189 4.69-.673 8.79 2.698 9.363 7.297.574 4.608-2.705 8.798-7.297 9.364-87.074 10.757-85.434 41.191-85.401 41.495L1063.432 2623.483zM1326.571 2063.671c-37.781 0-131.922-15.775-168.883-166.268l-2.214-9.028 9.199-1.286c1.279-.156 129.807-16.48 201.433 120.337 2.148 4.108.557 9.183-3.559 11.331-4.066 2.164-9.166.566-11.331-3.542-55.737-106.489-145.516-113.057-174.721-112.187 44.766 163.595 161.75 143.277 162.98 143.04 4.46-.853 8.954 2.106 9.822 6.666.869 4.559-2.115 8.954-6.674 9.831C1342.346 2062.613 1336.345 2063.671 1326.571 2063.671zM1589.432 2047.215c-76.301 0-101.471-23.072-117.083-48.178-34.73 7.109-64.722 39.766-65.051 40.118-3.116 3.46-8.428 3.698-11.856.574-3.427-3.116-3.69-8.42-.574-11.856 1.526-1.689 36.994-40.282 79.514-46.218 8.986-11.577 42.717-47.546 110.441-39.445 35.436 4.264 58.525 15.144 77.087 23.884 21.384 10.093 35.535 16.759 58.131 10.068l28.172-8.339-19.514 21.965c-2.033 2.287-50.686 55.991-132.594 57.369C1593.843 2047.198 1591.596 2047.215 1589.432 2047.215zM1487.682 1991.88c12.627 19.637 33.206 39.716 108.129 38.487 46.143-.771 81.055-20.17 101.093-34.985-15.021-1.303-27.958-7.404-42.159-14.094-18.367-8.65-39.174-18.464-71.922-22.4C1523.053 1951.639 1494.52 1983.025 1487.682 1991.88z" class="color1d110f svgShape"></path>
  <path fill="#0f0f1d" d="M1343.101 2038.136c-.102-.136-1.223-1.829-4.024-5.341-2.725-3.455-6.964-8.279-12.299-13.896-10.735-11.184-26.298-25.238-43.192-37.764-16.829-12.592-34.617-24.09-48.42-31.93-13.73-7.979-23.166-12.868-23.166-12.868s9.855 3.926 24.373 10.538c14.588 6.475 33.574 16.225 51.916 27.304 18.39 11.003 35.793 23.806 48.208 34.41 6.184 5.337 11.197 10.012 14.59 13.528 3.358 3.424 5.46 5.946 5.349 5.815 2.818 3.683 2.116 8.952-1.566 11.77C1351.188 2042.52 1345.918 2041.819 1343.101 2038.136zM1479.84 1993.876c-.229.112 2.824-1.418 7.182-2.983 4.453-1.646 10.817-3.465 18.482-5.122 15.345-3.198 35.979-4.95 56.285-3.491 20.303 1.332 40.223 4.859 54.77 8.807 14.593 3.732 24.087 6.883 24.087 6.883s-9.804-2.143-24.595-4.309c-14.75-2.388-34.682-3.764-54.34-2.986-19.697.651-38.966 4.422-52.615 8.801-6.803 2.244-12.285 4.46-15.879 6.245-3.703 1.824-5.031 2.726-5.251 2.849-4.057 2.245-9.166.774-11.41-3.283C1474.312 2001.229 1475.782 1996.12 1479.84 1993.876zM1450.901 2297.736c-7.445 0-14.25-4.985-16.234-12.52-2.361-8.97 3.001-18.153 11.955-20.514 5.51-1.451 136.645-35.411 260.844-19.21 9.182 1.205 15.676 9.626 14.462 18.825-1.197 9.191-9.592 15.717-18.824 14.479-117.46-15.34-246.643 18.046-247.939 18.39C1453.738 2297.556 1452.311 2297.736 1450.901 2297.736zM1794.031 2629.239c-.312 0-.607-.016-.919-.049-4.608-.5-7.936-4.641-7.445-9.249 12.199-112.778 81.63-157.043 84.58-158.873 3.936-2.443 9.101-1.246 11.545 2.698 2.443 3.927 1.246 9.101-2.674 11.561-.656.41-65.478 42.2-76.758 146.418C1801.901 2626.049 1798.26 2629.239 1794.031 2629.239zM1743.574 2170.118c-154.175-44.397-331.175-5.067-332.946-4.657l-7.462-32.747c7.56-1.722 187.086-41.708 349.688 5.133L1743.574 2170.118z" class="color1d110f svgShape"></path>
</svg>
