<svg xmlns="http://www.w3.org/2000/svg" viewBox="0 0 512 512" id="avatar">
  <g fill="#167ffc" class="color000000 svgShape">
    <path fill="#3b3c72" d="M121.574 325.84 19.183 346.339l46.694 17.708-35.305 42.652H82.96l-3.417 51.249 92.649-93.901-25.309-43.368-25.309 5.161zM390.426 325.84l102.391 20.499-46.694 17.708 35.305 42.652H429.04l3.417 51.249-92.649-93.901 25.309-43.368 25.309 5.161z" class="color5c3b72 svgShape"></path>
    <path fill="#f4dec6" d="M194.963 156.646h122.069a80.669 80.669 0 0 1 80.668 80.669v61.035A141.7 141.7 0 0 1 256 440.053a141.7 141.7 0 0 1-141.7-141.7v-61.038a80.669 80.669 0 0 1 80.669-80.669Z" class="colorf4dcc6 svgShape"></path>
    <path fill="#fe9526" d="M256 429.744a141.7 141.7 0 0 1-141.7-141.7v10.308A141.7 141.7 0 0 0 256 440.053a141.7 141.7 0 0 0 141.7-141.7v-10.312A141.7 141.7 0 0 1 256 429.744zm61.032-273.098H194.963a80.669 80.669 0 0 0-80.67 80.668v2.093H397.7v-2.093a80.668 80.668 0 0 0-80.668-80.668z" class="colorc99673 svgShape"></path>
    <circle cx="180.912" cy="274.712" r="45.967" fill="#ecf1ed" class="colorecf0f1 svgShape"></circle>
    <path fill="#53d86a" d="M180.912 228.745a45.967 45.967 0 0 0-45.967 45.967h91.933a45.966 45.966 0 0 0-45.966-45.967Z" class="colorbdc3c7 svgShape"></path>
    <ellipse cx="180.912" cy="274.712" fill="#414141" rx="31.319" ry="35.305" class="color414141 svgShape"></ellipse>
    <ellipse cx="180.912" cy="274.712" fill="#ecf1ed" rx="15.785" ry="17.794" class="colorecf0f1 svgShape"></ellipse>
    <circle cx="331.083" cy="274.712" r="45.967" fill="#ecf1ed" class="colorecf0f1 svgShape"></circle>
    <path fill="#53d86a" d="M331.083 228.745a45.966 45.966 0 0 0-45.967 45.967h91.933a45.966 45.966 0 0 0-45.966-45.967Z" class="colorbdc3c7 svgShape"></path>
    <ellipse cx="331.083" cy="274.712" fill="#414141" rx="31.319" ry="35.305" class="color414141 svgShape"></ellipse>
    <ellipse cx="331.083" cy="274.712" fill="#ecf1ed" rx="15.785" ry="17.794" class="colorecf0f1 svgShape"></ellipse>
    <circle cx="160.523" cy="274.712" r="10.25" fill="#ecf1ed" class="colorecf0f1 svgShape"></circle>
    <circle cx="310.694" cy="274.712" r="10.25" fill="#ecf1ed" class="colorecf0f1 svgShape"></circle>
    <path fill="#fe9526" d="m260.9 338.826 15.816-17.974a6.523 6.523 0 0 0-4.9-10.833h-31.632a6.523 6.523 0 0 0-4.9 10.833l15.816 17.974a6.523 6.523 0 0 0 9.8 0Z" class="colorc99673 svgShape"></path>
    <path fill="#414141" d="M226.878 279.125a4.413 4.413 0 0 1-4.413-4.413 41.554 41.554 0 1 0-83.107 0 4.413 4.413 0 0 1-8.826 0 50.38 50.38 0 0 1 100.76 0 4.414 4.414 0 0 1-4.414 4.413zm150.172 0a4.414 4.414 0 0 1-4.414-4.413 41.554 41.554 0 1 0-83.107 0 4.413 4.413 0 0 1-8.826 0 50.38 50.38 0 1 1 100.76 0 4.413 4.413 0 0 1-4.413 4.413z" class="color414141 svgShape"></path>
    <ellipse cx="314.757" cy="200.29" fill="#3b3c72" rx="31.579" ry="10.629" transform="rotate(-11.107 314.767 200.298)" class="color5c3b72 svgShape"></ellipse>
    <ellipse cx="196.696" cy="200.29" fill="#3b3c72" rx="10.629" ry="31.579" transform="rotate(-78.893 196.695 200.29)" class="color5c3b72 svgShape"></ellipse>
    <path fill="#51529b" d="M253.591 36.564C153.87 37.857 74.539 120.985 74.539 220.715v128.154a78.878 78.878 0 0 0 37.161 66.942v-51.764L180.912 390a139.719 139.719 0 0 1-37.482-95.232v-.006a118.754 118.754 0 0 1 3.57-28.921l20.9-83.248a11.329 11.329 0 0 1 18.294-5.9L256 235.6l69.81-58.9a11.329 11.329 0 0 1 18.294 5.9l20.54 81.843a124.411 124.411 0 0 1 3.922 29.546A139.72 139.72 0 0 1 331.088 390l69.212-25.953v51.764a78.877 78.877 0 0 0 37.16-66.942V218.008A181.461 181.461 0 0 0 253.591 36.564Z" class="color81519b svgShape"></path>
    <path fill="#595bd4" d="m401.321 109.346-35.142 35.144-11.853-11.852-37.543 37.543-11.621-11.619-32.482 32.482L256 174.363l-16.68 16.681-32.483-32.482-11.618 11.619-37.546-37.543-11.852 11.852-34.559-34.56a185.57 185.57 0 0 0-27.357 52.662l24.6 24.6 11.853-11.852 37.31 37.311 3.577-3.576 6.647-26.487a11.329 11.329 0 0 1 18.294-5.9L256 235.6l69.81-58.9a11.329 11.329 0 0 1 18.294 5.9l6.648 26.489 3.573 3.574 37.313-37.311 11.85 11.852 25.146-25.144a180.943 180.943 0 0 0-27.313-52.714Z" class="color9462b5 svgShape"></path>
    <ellipse cx="250.16" cy="403.283" fill="#fe9526" rx="7.972" ry="11.255" transform="rotate(-70.11 250.157 403.282)" class="colorc99673 svgShape"></ellipse>
    <path fill="#414141" d="M235.5 383.878a51.173 51.173 0 0 1 10.878-.081c.434.043.867.091 1.3.147-.867-.111.515.082.554.089q1.291.206 2.572.477a52.578 52.578 0 0 1 5.267 1.4q1.247.4 2.471.863c.408.154.814.314 1.218.477.286.118.27.109-.047-.024q.4.173.8.351 2.387 1.074 4.657 2.382a51.208 51.208 0 0 1 4.391 2.839c.353.255.7.512 1.05.779-.592-.457.364.3.475.391a52.753 52.753 0 0 1 2.3 2.007 4.413 4.413 0 0 0 6.241-6.242 56.633 56.633 0 0 0-44.127-14.681c-2.286.258-4.528 1.844-4.413 4.413.1 2.168 1.956 4.691 4.413 4.413Z" class="color414141 svgShape"></path>
  </g>
</svg>
