<svg xmlns="http://www.w3.org/2000/svg" enable-background="new 0 0 672.2 512" viewBox="0 0 672.2 512" id="heart-character">
  <g>
    <path fill="#1F1C1D" d="M262.9,304.7c0,0-45.5,100.5-112.6,110.5l5.6,22.8c0,0,80.6-2.8,129.4-120.6L262.9,304.7z"></path>
    <g>
      <path fill="#F4C64F" d="M182.5,400.3c0,0,14.8,14,11.9,27.8c0,0-22.8,11.8-39.5,10.6l-9.6-28.7
			C145.3,409.9,163.6,411.3,182.5,400.3z"></path>
      <path fill="#1F1C1D" d="M157.5,442.3c-0.9,0-2,0-2.9-0.1c-1.4-0.1-2.6-1.1-3-2.4l-9.6-28.7c-0.4-1.2-0.1-2.4,0.5-3.3
			c0.8-0.9,1.8-1.4,3-1.3c0.1,0,17.6,1.2,35.2-9.2c1.3-0.8,3-0.7,4.2,0.5c0.7,0.7,16.3,15.5,13,31.1c-0.3,1.1-0.9,2-1.8,2.4
			S174.5,442.3,157.5,442.3z M157.5,435.2L157.5,435.2c12.9,0,28.7-7.1,33.7-9.5c0.7-8-5.4-16.7-9.3-21c-12.9,6.8-25.1,8.4-31.6,8.7
			L157.5,435.2z"></path>
    </g>
    <g>
      <path fill="#E75A3E" d="M616.7,168.5c0,0-19.7,86.9-121.8,65.2l10.5-25.9c0,0,66.2,25.5,93.6-49.4L616.7,168.5z"></path>
      <path fill="#1F1C1D" d="M525.5,240.7c-11.2,0-21.9-1.4-31.4-3.4c-1.1-0.3-1.8-0.9-2.4-1.8c-0.5-0.9-0.5-2-0.1-3l10.5-25.9
			c0.8-1.8,2.8-2.6,4.6-2c0.3,0.1,26.1,9.7,51.2-1.7c16.8-7.6,29.5-23.1,37.8-45.7c0.4-0.9,1.2-1.7,2.1-2.1c0.9-0.4,2.1-0.3,3,0.3
			l17.7,10.1c1.3,0.8,2.1,2.4,1.7,3.8c-0.3,0.9-5.4,22.8-23.5,42.4C575.9,234,549.7,240.7,525.5,240.7z M499.7,231.1
			c39,7.2,69.8-0.8,91.6-24.2c13.5-14.4,19.4-30.7,21.3-36.9l-11.8-6.7c-8.9,22.4-22.4,37.8-40,45.8c-22.6,10.2-45,5.3-53.3,2.9
			L499.7,231.1z"></path>
    </g>
    <g>
      <path fill="#F7F3F4" d="M590.6,141.5c0,0-10.9,2.9-7.6,14.4c3.2,11.6,39.4,27.2,46.3,23c7.1-4.2,10-12.5,7.6-18.4
			c0,0,24.7-6.2,21.1-43.7c0,0,15.1-23.6,8.9-32.7c-6-8.9-14-4.2-14-4.2s4.9-13.1-3.8-18.5s-13.4,0-13.4,0s-2-11.8-10.2-12.5
			c-8.3-0.7-9.6,6.4-9.6,6.4s-5.6-9.8-14.7-6.4c-9.1,3.4-19.6,12.9-18.8,23.1c0,0,1.6,12.6,2.2,26.4
			C585,106.1,574.6,128.1,590.6,141.5z"></path>
      <path fill="#1F1C1D" d="M625.9,183.1c-5.6,0-13-2.5-17.6-4.5c-11.8-4.7-26.4-13.4-28.7-21.9c-1.2-4.5-0.9-8.4,1.1-11.8
			c1.2-2,2.6-3.4,4.1-4.5c-9.5-11.3-6.4-25.9-4.6-35c0.5-2.8,1.1-5.5,1.1-7c-0.7-13.5-2.2-26-2.2-26.1c0-0.1,0-0.1,0-0.3
			c-0.8-11.4,10.1-22.4,21.1-26.6c6.4-2.4,11.8,0.3,15.4,3.5c2.1-2.2,5.4-4.1,10.4-3.7c7,0.5,10.5,6.3,12.1,10.6
			c3.3-1.1,7.9-1.1,13.3,2.4c4.6,2.9,7,7.9,6.8,14.4c0,0.8-0.1,1.6-0.1,2.4c3.7-0.1,8.4,1.2,12.3,7c6.6,9.7-4.6,29.5-8.3,35.4
			c0.9,11.3-0.3,26.5-10.2,37.4c-3.7,4.1-7.6,6.3-10.4,7.6c0.9,7.2-3,15.1-10,19.2C629.7,182.8,627.9,183.1,625.9,183.1z
			 M591.5,144.9c-7.1,2-5.5,8.7-5.3,10.1c1.2,4.2,10.4,10.9,21.8,16c11,4.9,18.1,5.6,19.4,4.9c5.8-3.4,7.7-10,6.2-14
			c-0.4-0.9-0.3-2,0.1-2.9c0.5-0.9,1.3-1.6,2.2-1.8c0.9-0.3,21.7-6.2,18.5-39.9c-0.1-0.8,0.1-1.6,0.5-2.2
			c5.8-9.1,12.3-23.9,9.1-28.7c-3.8-5.6-8.1-3.8-9.3-3.2c-1.3,0.8-2.9,0.5-4.1-0.4c-1.2-0.9-1.6-2.5-1.1-3.9
			c0-0.1,3.7-10.5-2.4-14.3c-5.8-3.7-8.7-0.9-8.9-0.7c-0.9,1.1-2.2,1.4-3.5,1.1c-1.3-0.4-2.2-1.4-2.5-2.9c0-0.1-1.7-9.2-7.1-9.6
			c-4.6-0.4-5.6,2.6-5.8,3.5c-0.3,1.4-1.4,2.6-2.9,2.8c-1.4,0.3-2.9-0.5-3.7-1.7c-0.1-0.3-4.2-7.2-10.4-4.9
			C591.8,56,585.6,65.2,586,71.5c0.1,1.3,1.7,13.5,2.2,26.5c0.1,2.4-0.4,5.1-1.2,8.7c-2,9.7-4.6,23,5.9,31.9
			c1.1,0.8,1.4,2.2,1.2,3.4C593.8,143.6,592.9,144.6,591.5,144.9z"></path>
    </g>
    <path fill="#1F1C1D" d="M622.3,128.1c-1.6,0-3-1.1-3.4-2.6c-2.5-10.2-7.6-15.2-7.6-15.2c-1.2-1.2-1.4-3-0.5-4.5
		c0.9-1.4,2.8-2,4.3-1.3c5.9,2.4,18.6-1.1,23.1-6.2c1.7-2,1.3-3.3,0.7-4.3c-4.2-7-21.4-5.5-27-4.5c-2,0.4-3.8-0.9-4.1-2.9
		c-0.4-2,0.9-3.8,2.9-4.1c2.8-0.5,26.9-4.6,34.4,7.7c2.5,4.1,2,8.7-1.3,12.6c-4.6,5.4-14,9.1-22.3,9.5c1.6,2.9,3.3,6.8,4.5,11.6
		c0.5,1.8-0.7,3.8-2.6,4.3C622.8,128.1,622.5,128.1,622.3,128.1z"></path>
    <g>
      <path fill="#5EAAD3" d="M209.3,451.4c31.1,14,22.1,49.9,22.1,49.9s-74.4,12.5-102.6,4.9c0,0-4.3-5.8-6.3-21.5
			c-2-15.9-13-19.7-21.1-27.8c-8.1-8.1-24.9-36.9-11-46.1c13.9-9.1,20.6-8.1,25.5-5.3c4.9,2.9,30.2-2.4,34.1-7.2
			c3.8-4.9,14.4-4.3,16.3,3.8c2,8.1-5.8,6.3-3.8,17.3c2,11,10.1,24.4,10.1,24.4S190.7,443,209.3,451.4z"></path>
      <path fill="#1F1C1D" d="M155,512c-10.5,0-20.2-0.8-27.2-2.6c-0.8-0.3-1.4-0.7-1.8-1.3c-0.5-0.7-5-7-7-23.2
			c-1.3-10.4-6.8-14.7-13.1-19.8c-2.4-1.8-4.7-3.7-7-5.9c-7-7-18.6-26.3-17.3-39.8c0.5-5.1,2.9-9.2,6.8-11.7
			c12.6-8.3,21.7-9.8,29.1-5.4c4.1,2,26.6-3,29.5-6.4c2.9-3.5,8.1-5.1,13-4.1c4.9,1.1,8.4,4.6,9.5,9.3c1.3,5.5-0.8,8.1-2.2,10.1
			c-1.3,1.7-2.2,3-1.6,7.4c1.4,8,6.4,17.7,8.7,21.5c5.5,0.1,20.7,0.9,36.4,8c13.9,6.3,22.4,17.6,24.8,32.9
			c1.7,11.3-0.7,20.7-0.7,21.1c-0.4,1.3-1.4,2.4-2.9,2.6C229.7,505,187.7,512,155,512z M131,502.9c25.3,5.9,84.8-2.9,97.4-4.9
			c1.3-7.6,3.5-32.7-20.6-43.6c-17.6-7.9-35.2-7.4-35.3-7.4c-1.3,0-2.5-0.7-3.2-1.7c-0.4-0.5-8.5-14.2-10.5-25.7
			c-1.2-6.8,0.7-10,2.9-12.7c1.2-1.6,1.6-2.1,1.1-4.3c-0.7-2.8-2.6-3.7-4.1-4.1c-2.2-0.5-4.9,0.1-6,1.6c-3.3,4.1-14.2,6.8-18.6,7.7
			c-5.6,1.2-15.8,2.8-20,0.3c-2.4-1.4-7.2-4.3-21.7,5.3c-2.1,1.4-3.3,3.5-3.7,6.6c-1.2,11,9.5,28.2,15.2,34c2,2,4.1,3.7,6.3,5.4
			c6.7,5.3,14.2,11.3,15.8,24.5C127.3,495.1,129.9,500.8,131,502.9z M231.4,501.2L231.4,501.2L231.4,501.2z"></path>
    </g>
    <path fill="#1F1C1D" d="M150.2,466.3c-0.5,0-1.1-0.1-1.6-0.4c-1.7-0.9-2.5-3-1.6-4.7c8.3-16.5,23.6-20.9,24.3-21
		c1.8-0.5,3.8,0.7,4.3,2.5c0.5,1.8-0.7,3.8-2.5,4.3c-0.3,0-13,3.8-19.8,17.3C152.9,465.7,151.6,466.3,150.2,466.3z"></path>
    <g>
      <path fill="#E75A3E" d="M332.7,62.6c0,0-70.1-84.4-162.1-22.1s-47.4,154.2,0,207.3c24.4,27.3,105.5,117.1,162.1,126.7
			c0,0,80.6-4.9,193.9-169.9c0,0,68.1-90.2-25.9-162.1S332.7,62.6,332.7,62.6z"></path>
      <path fill="#1F1C1D" d="M332.7,378c-0.3,0-0.4,0-0.5,0c-38.7-6.6-95.6-50.8-164.2-127.8c-11.9-13.4-28.5-34.7-40.4-60.5
			c-11.6-25.3-16.1-49.5-13.3-71.8c3.9-31.5,22.2-58.4,54.3-80.2c49-33.1,91.8-25.2,119.1-12.6c23.1,10.6,39,25.9,45,32.3
			c6.3-7,23-23.6,47.3-34.9c28.4-13.3,72.8-21,122.7,17.2c50,38.2,54.5,81.8,49.6,111.4c-5.3,31.5-21.7,53.9-23,55.5
			C470.5,292.3,420.5,334.1,389,354.2c-34.7,22.1-55.3,23.5-56.2,23.6C332.8,378,332.7,378,332.7,378z M239.2,21
			c-22.3,0-44.6,7.5-66.7,22.4c-30.3,20.6-47.6,45.9-51.3,75.2c-6.7,54.2,34.1,106.7,52,126.8c84.9,95.3,133.6,120.9,159.6,125.5
			c2.8-0.3,22.2-3.2,53.2-23c30.8-19.8,79.8-61,137.7-145.3c0,0,0-0.1,0.1-0.1c0.1-0.3,16.7-22.4,21.7-52.8
			c6.7-40.4-9.2-75.5-46.9-104.5C460.8,16.4,422,10.7,383.2,28.6c-29.1,13.5-47.5,36-47.6,36.2c-0.7,0.8-1.7,1.3-2.8,1.3
			s-2.1-0.4-2.8-1.3l0,0c-0.1-0.3-17.5-20.7-45.5-33.6C269.4,24.4,254.3,21,239.2,21z"></path>
    </g>
    <path fill="#E75A3E" d="M190.7,192.4c-23.6-6.3-85.8-13.4-129.3,69.3l20.2,12.9c0,0,34.7-76.8,103.7-60.2
		c6.4,1.6,12.7-2.9,13.7-9.5l0,0C199.7,199.3,196.2,194,190.7,192.4z"></path>
    <g>
      <path fill="#F7F3F4" d="M98.9,267.7c-9.1-5.8-27.8-17.5-43.6-24.8c-3.9-1.8-8.7-2-12.5,0.1c-4.1,2.2-7.7,7-5.9,17.2
			c0,0-28,22.1-33.1,58.8C3.1,325,3.6,331,6.1,336.4c1.7,3.7,4.5,7.5,8.8,9.8c0,0,8.7,16.8,18.4,8c0,0,11.9,18.8,25.9,2.2
			c0,0,26.4,7.5,28.6-13.5c0,0,2.6-10.4-3.8-17.3c0,0,16.1-16.3,4.1-33.3c0,0,11.3-0.3,15.6-8C106.7,278.6,104.4,271.4,98.9,267.7z"></path>
      <path fill="#1F1C1D" d="M47.2,367c-0.4,0-0.7,0-1.1,0c-6.2-0.4-11-4.7-13.7-7.7c-2.8,1.4-5.1,1.4-7,1.1
			c-6.8-1.2-11.7-8.7-13.3-11.4c-3.9-2.5-7.1-6.2-9.3-10.9c-2.6-5.6-3.5-12.3-2.6-19.3c4.6-33.1,26.5-54.5,32.8-59.9
			c-1.3-11.3,3.5-16.4,8.1-18.9c4.6-2.5,10.5-2.5,15.6-0.1c15.9,7.4,34.4,18.8,44.1,25.1l0,0c7.2,4.7,9.8,14,5.8,21.3
			c-3,5.5-8.8,8-13.1,9.1c3.2,6.8,3.2,14.2,0.1,21.7c-1.6,3.9-3.7,7.1-5.3,9.1c4.7,7.4,3.2,16.1,2.8,17.9c-0.7,6.3-3.4,11-7.9,14
			c-7.6,5.1-18.4,3.7-23,2.8C56.1,364.7,51.8,367,47.2,367z M33.3,350.8c0.1,0,0.3,0,0.5,0c1.1,0.1,2,0.8,2.5,1.6
			c1.2,2,5.5,7.1,10.4,7.4c3.2,0.3,6.4-1.7,9.7-5.6c0.9-1.1,2.4-1.6,3.7-1.2c0.1,0,12.3,3.4,19.3-1.3c2.8-1.8,4.3-4.9,4.9-9.1
			c0-0.1,0-0.4,0.1-0.5c0-0.1,2.1-8.7-3-14c-1.3-1.4-1.3-3.5,0.1-4.9c0.5-0.5,13.9-14.4,3.7-28.9c-0.8-1.1-0.9-2.5-0.3-3.7
			c0.7-1.2,1.8-2,3-2c0.1,0,9.3-0.3,12.6-6.2c2.2-3.9,0.7-9.3-3.4-11.9l0,0c-9.5-6-27.7-17.3-43.2-24.5c-3.2-1.4-6.6-1.4-9.3,0
			c-3.9,2.1-5.4,6.7-4.2,13.5c0.3,1.3-0.3,2.6-1.3,3.4c-0.3,0.3-26.9,21.7-31.8,56.6c-0.8,5.6-0.1,10.9,2,15.2
			c1.8,3.8,4.2,6.6,7.4,8.3c0.7,0.4,1.1,0.8,1.4,1.4c1.1,2,4.9,8,8.8,8.7c0.9,0.1,2.2,0.1,4.1-1.6C31.6,351.2,32.4,350.8,33.3,350.8
			z"></path>
    </g>
    <path fill="#1F1C1D" d="M87.9 295.9c-.7 0-1.3-.1-1.8-.5 0 0-5.6-3.4-11.8-7.5-1.7-1.1-2.1-3.3-1.1-4.9 1.1-1.6 3.3-2.1 4.9-1.1 6.2 3.9 11.7 7.4 11.7 7.4 1.7 1.1 2.2 3.2 1.2 4.9C90.3 295.3 89.1 295.9 87.9 295.9zM43.7 268.5c-.7 0-1.4-.3-2-.7l-6.7-4.7c-1.6-1.1-2-3.3-.9-4.9 1.1-1.6 3.3-2 4.9-.9l6.7 4.7c1.6 1.1 2 3.3.9 4.9C45.9 268 44.7 268.5 43.7 268.5zM59 360.1c-.7 0-1.3-.3-2-.7-.7-.4-15.2-10.6-14.4-27 .1-2 1.7-3.4 3.7-3.3 2 .1 3.4 1.7 3.3 3.7-.7 12.5 11.3 20.7 11.4 20.9 1.6 1.1 2 3.3.9 4.9C61.3 359.5 60.2 360.1 59 360.1zM83.8 329.3L83.8 329.3c-.5 0-9.7-.3-15-1.3-2-.4-3.2-2.2-2.8-4.2.4-2 2.2-3.2 4.2-2.8 4.6.9 13.7 1.2 13.7 1.2 2 0 3.5 1.7 3.4 3.7C87.2 327.7 85.7 329.3 83.8 329.3z"></path>
    <path fill="#1F1C1D" d="M69 340.2c-.3 0-.5 0-.7-.1-2-.4-3.2-2.2-2.8-4.2 2.2-11.2-1.8-25.7-2-26-.5-1.8.5-3.8 2.4-4.3 1.8-.5 3.8.5 4.3 2.4.1.7 4.7 16.5 2.1 29.3C72 339 70.6 340.2 69 340.2zM471.2 439.8c0 0-13.1-65.2-39.8-85.6-17.5-13.3-44.5-36.4-53.7-39.9-6.6-2.5-13.9 1.1-16 7.7l0 0c-2.1 6.4 2.2 11.8 8 15.4 10.6 6.6 34.8 26.8 46.5 35.3 21.8 15.9 28.7 71.8 28.7 71.8L471.2 439.8zM321.4 81.6c-.7 0-1.3-.1-1.8-.5-1.7-1.1-2.1-3.2-1.1-4.9 6.8-11 11.4-15.9 11.7-16 1.3-1.4 3.5-1.4 5-.1s1.4 3.5.1 5l0 0c0 0-4.3 4.6-10.8 15C323.8 80.9 322.6 81.6 321.4 81.6zM637 164c-.1 0-.3 0-.4 0-.4 0-8.4-.8-18.1-6.7-1.7-1.1-2.2-3.2-1.2-4.9 1.1-1.7 3.2-2.2 4.9-1.2 8.3 5 15.1 5.8 15.1 5.8 2 .1 3.4 2 3.2 3.8C640.4 162.7 638.8 164 637 164zM598.5 149.5c-.5 0-.9-.1-1.4-.3-5.1-2.2-8.4-4.7-8.5-4.9-1.6-1.2-1.8-3.4-.7-5 1.2-1.6 3.4-1.8 5-.7.1 0 2.9 2.1 7.2 4.1 1.8.8 2.6 2.9 1.7 4.7C601.1 148.7 599.8 149.5 598.5 149.5zM618.3 88.6c-.1 0-.4 0-.5 0-2-.3-3.3-2.1-3-4.1 1.4-9.7-2.4-28.1-2.4-28.4-.4-2 .8-3.8 2.8-4.2 2-.4 3.8.8 4.2 2.8.1.8 4.1 19.8 2.5 30.8C621.5 87.4 620 88.6 618.3 88.6zM633.3 89.7c-.1 0-.4 0-.5 0-2-.3-3.3-2.1-2.9-4.1 1.4-9.1 2.5-24.2 2.5-24.3.1-2 1.8-3.4 3.8-3.3 2 .1 3.4 1.8 3.3 3.8 0 .7-1.1 15.6-2.5 24.9C636.4 88.6 635 89.7 633.3 89.7zM641.8 95.5c-1.2 0-2.2-.5-2.9-1.6-1.1-1.6-.7-3.8 1.1-4.9 6.8-4.6 10-10.4 10-10.5.9-1.7 3-2.4 4.7-1.6 1.7.9 2.4 3 1.6 4.7-.1.3-3.9 7.6-12.3 13.1C643.1 95.2 642.5 95.5 641.8 95.5zM68.3 253.2c-.5 0-1.1-.1-1.4-.4-1.7-.8-2.5-2.9-1.7-4.7.4-.8 8.7-18.1 27.4-34.4 17.3-15 47.1-31.8 90.8-26.3 2 .3 3.3 2 3 3.9-.3 2-2 3.3-3.9 3-32.9-4.2-61.7 4.1-85.3 24.5-17.6 15.2-25.6 31.9-25.6 32C70.8 252.4 69.7 253.2 68.3 253.2z"></path>
    <path fill="#1F1C1D" d="M88.9,265.1c-0.5,0-1.1-0.1-1.6-0.4c-1.7-0.9-2.5-3-1.6-4.7c0.3-0.7,8.3-16.1,24.4-30.1
		c15.1-12.9,40.6-26.6,75.7-18.9c2,0.4,3.2,2.4,2.6,4.2c-0.4,2-2.4,3.2-4.2,2.6c-26-5.6-49.4,0.1-69.4,17.2
		c-15.2,13-22.8,28-23,28.1C91.4,264.3,90.3,265.1,88.9,265.1z"></path>
    <path fill="#F7F3F4" d="M167 496.2c-6.4 0-12.3-.4-17.5-1.2-13.7-2.4-14.3-9.2-15.1-15.8-.7-6.2-1.4-13.9-13.5-23.4-21.9-17.3-21.8-33.1-21.8-33.7 0-2 1.7-3.5 3.7-3.4 2 0 3.4 1.7 3.4 3.5 0 .3.3 13.3 19 28.1 14.4 11.3 15.5 21.5 16.1 28.2.7 6 .8 8 9.2 9.5 21.7 3.7 66-3.3 66.4-3.3 2-.3 3.7 1.1 4.1 2.9.3 2-1.1 3.7-2.9 4.1C216.9 492 189.8 496.2 167 496.2zM509.5 181.1c-.9 0-1.8-.1-2.8-.5-3.9-1.6-5.8-5.9-4.3-9.8 12.3-31.5 8.8-59.3-10.5-82.8-14.8-18.1-33.9-26.9-34-27-3.8-1.7-5.5-6.2-3.8-10 1.7-3.8 6.2-5.5 10-3.8.9.4 22.1 10.1 39.1 30.7 16 19.4 31.4 52.1 13.3 98.4C515.4 179.3 512.5 181.1 509.5 181.1zM416.2 53.8c-3.5 0-6.7-2.5-7.4-6.2-.8-4.1 1.8-8 5.9-8.9 8.9-1.7 13.8-2 21.4-.8 4.1.7 7 4.5 6.3 8.7-.7 4.1-4.5 7-8.7 6.3-5.5-.9-8.4-.9-16.1.7C417.2 53.8 416.7 53.8 416.2 53.8z"></path>
    <g>
      <g>
        <path fill="#1F1C1D" d="M375.1,244.4c0,0,3.9,26.1-19.8,40.3c0,0-19.7,12.9-45.2,4.6c0,0-29.5-12.7-31.2-42.3
				c0,0-1.3-19.8,18.9-15.6c0,0,25.3,9.6,43.7,5.4C359.7,232.7,373,231.8,375.1,244.4z"></path>
        <path fill="#1F1C1D" d="M327.4,295.6c-5.6,0-11.8-0.8-18.5-3l-0.3-0.1c-1.3-0.5-31.5-14-33.3-45.3c0-0.4-0.5-10.4,6-16.1
				c4.1-3.5,9.8-4.6,17.1-3.2l0.5,0.1c0.3,0.1,24.5,9.2,41.6,5.3c14.2-3.3,25.1-4.5,31.9,0.1c3.3,2.2,5.4,5.6,6.2,10.2l0,0
				c0.1,1.2,4.1,28.6-21.5,43.8C355.8,288.5,344.3,295.6,327.4,295.6z M311.3,286c23.4,7.5,41.7-4.2,41.9-4.3l0.1-0.1
				c21.3-12.7,18.4-35.6,18.2-36.8c-0.4-2.6-1.4-4.3-3.2-5.5c-5-3.4-16.1-1.4-26.4,0.9c-18.4,4.2-42.4-4.3-45.4-5.4
				c-4.9-0.9-8.4-0.4-10.8,1.6c-3.9,3.4-3.7,10.2-3.7,10.4C283.9,272.7,309.2,285,311.3,286z"></path>
      </g>
      <g>
        <path fill="#E995C2" d="M361.7,279.8c0,0-9.1-16.9-34.7-16.7c0,0-24-0.3-29.7,18.1c0,0,11.7,12.6,32.6,10.9
				C329.9,292,348.1,292,361.7,279.8z"></path>
        <path fill="#1F1C1D" d="M325.9,295.7c-19.7,0-30.7-11.6-31.1-12.1l-1.4-1.4l0.7-2c6.4-20.6,32-20.6,33.1-20.6
				c27.4-0.3,37.4,17.9,37.8,18.6l1.3,2.5l-2.1,1.8c-14,12.5-32,13.1-34,13.1C328.6,295.7,327.3,295.7,325.9,295.7z M301.5,280.2
				c3.5,3,13.3,9.6,28.1,8.3h0.3c0.1,0,15-0.3,27.2-9.5c-3.4-4.2-12.3-12.7-29.9-12.5c-0.1,0-5.6,0-11.8,2.1
				C308.4,270.9,303.8,274.8,301.5,280.2z"></path>
      </g>
    </g>
    <g>
      <g>
        <path fill="#F7F3F4" d="M361.1,193.2c0,0-14.2-43.8,6.8-66.4c19.7-21.1,34.9,14.3,33.3,36.2c-1.6,21.8-6.3,29.1-6.3,29.1
				S378.1,184.6,361.1,193.2z"></path>
        <path fill="#1F1C1D" d="M361.1,196.7c-0.5,0-0.9-0.1-1.3-0.3c-0.9-0.4-1.7-1.2-2-2.1c-0.1-0.5-3.7-11.6-4.6-25.6
				c-1.3-19,2.9-34.4,12.2-44.2c8.4-8.9,15.8-8.4,20.5-6.3c13.4,5.8,20.1,30.2,18.9,45.2c-1.6,22.1-6.3,29.9-6.8,30.7
				c-0.9,1.4-2.8,2.1-4.5,1.3c-0.1,0-15.5-6.6-30.8,1.1C362.1,196.6,361.6,196.7,361.1,196.7z M379.8,123.7c-2.2,0-5.4,1.1-9.5,5.4
				c-15.9,17.1-9.8,48.3-7.1,59.1c12.5-4.7,24.2-2.4,29.7-0.7c1.3-3.5,3.5-11.3,4.6-24.9c1.1-13.9-5.6-34.3-14.7-38.2
				C382.3,124.3,381.3,123.7,379.8,123.7z"></path>
      </g>
      <path fill="#1F1C1D" d="M367.9,126.7c0,0,18.5,3.8,19.6,30.5l-8.7,5.6l8.4,4.2c0,0,1.8,11.6-2.5,22.4c0,0-9.7-0.4-23.5,3.7
			C361.1,193.2,348.2,144.9,367.9,126.7z"></path>
      <path fill="#1F1C1D" d="M351.2,205.4c-0.8,0-1.6-0.3-2.2-0.8c-1.4-1.2-1.7-3.4-0.5-5c0.3-0.3,24.9-29.4,60.5-2
			c1.6,1.2,1.8,3.4,0.7,5c-1.2,1.6-3.4,1.8-5,0.7c-30.2-23.2-50-0.1-50.8,0.9C353.2,204.8,352.3,205.4,351.2,205.4z"></path>
    </g>
    <g>
      <g>
        <path fill="#F7F3F4" d="M262.9,193.2c0,0-14.2-43.8,6.8-66.4c19.7-21.1,34.9,14.3,33.3,36.2c-1.6,21.8-6.3,29.1-6.3,29.1
				S279.9,184.6,262.9,193.2z"></path>
        <path fill="#1F1C1D" d="M262.9,196.7c-0.5,0-0.9-0.1-1.3-0.3c-0.9-0.4-1.7-1.2-2-2.1c-0.1-0.5-3.7-11.6-4.6-25.6
				c-1.3-19,2.9-34.4,12.2-44.2c8.4-8.9,15.8-8.4,20.5-6.3c13.4,5.8,20.1,30.2,18.9,45.2c-1.6,22.1-6.3,29.9-6.8,30.7
				c-0.9,1.4-2.8,2.1-4.5,1.3c-0.1,0-15.5-6.6-30.8,1.1C263.9,196.6,263.4,196.7,262.9,196.7z M281.6,123.7c-2.2,0-5.4,1.1-9.5,5.4
				c-15.9,17.1-9.8,48.3-7.1,59.1c12.5-4.7,24.2-2.4,29.7-0.7c1.3-3.5,3.5-11.3,4.6-24.9c1.1-13.9-5.6-34.3-14.7-38.2
				C284.1,124.3,283.1,123.7,281.6,123.7z"></path>
      </g>
      <path fill="#1F1C1D" d="M269.7,126.7c0,0,18.5,3.8,19.6,30.5l-8.7,5.6l8.4,4.2c0,0,1.8,11.6-2.5,22.4c0,0-9.7-0.4-23.5,3.7
			C262.9,193.2,250,144.9,269.7,126.7z"></path>
      <path fill="#1F1C1D" d="M254.2,205.4c-0.8,0-1.6-0.3-2.2-0.8c-1.4-1.2-1.7-3.4-0.5-5c0.3-0.3,24.9-29.4,60.5-2
			c1.6,1.2,1.8,3.4,0.7,5c-1.2,1.6-3.4,1.8-5,0.7c-30.2-23.2-50-0.1-50.8,0.9C256.2,204.8,255.3,205.4,254.2,205.4z"></path>
    </g>
    <path fill="#1F1C1D" d="M33.3 357.9c-1.3 0-2.5-.7-3.2-1.8-.1-.4-4.7-8.8-2.5-24 .3-2 2.1-3.3 3.9-3 2 .3 3.3 2.1 3 3.9-1.8 12.6 1.7 19.6 1.7 19.7.9 1.7.3 3.8-1.4 4.7C34.3 357.8 33.8 357.9 33.3 357.9zM14.9 349.9c-1.6 0-3-1.1-3.4-2.6-.1-.4-2.4-8.9 1.8-19.3.8-1.8 2.8-2.6 4.6-2 1.8.8 2.6 2.8 2 4.6-3.3 8-1.6 14.7-1.6 14.7.5 1.8-.7 3.8-2.5 4.3C15.6 349.8 15.2 349.9 14.9 349.9z"></path>
    <g>
      <g>
        <path fill="#E995C2" d="M199.2,68.9c2.5,4.2,3.4,9.3,2.2,14c-1.1,4.2-3.7,8.4-10.1,8.1c-12.3-0.5-23.8-14.3-21.5-26.4
				C172.2,51.5,191.1,54.7,199.2,68.9z"></path>
        <path fill="#1F1C1D" d="M191.9,94.6c-0.3,0-0.5,0-0.8,0c-7-0.3-14-4.2-19-10.5c-4.9-6.2-7-13.4-5.8-20c1.1-6,5.1-10,10.9-11
				c9.1-1.6,19.6,4.3,25.1,14l0,0c3,5.3,3.9,11.2,2.6,16.7C203.1,90.7,198.4,94.6,191.9,94.6z M179.9,59.9c-0.5,0-1.1,0-1.6,0.1
				c-2.9,0.5-4.6,2.2-5.1,5.3c-0.8,4.5,0.8,9.8,4.3,14.3c3.7,4.7,8.9,7.6,13.9,7.9c2.4,0.1,5.3-0.4,6.6-5.5
				c0.9-3.7,0.3-7.7-1.8-11.4C192.1,63.6,185.2,59.9,179.9,59.9z"></path>
      </g>
      <g>
        <path fill="#E995C2" d="M191.2,91c0,0-7,51.7-30.3,54.6c-15,1.8-19.8-7.4-20.9-16.9c-0.9-7.9-8-13.7-15.9-13.1
				c-12.7,0.8-25.2-6-14.6-31.9c15.8-38.1,60.1-18.9,60.1-18.9S170.2,86.6,191.2,91z"></path>
        <path fill="#1F1C1D" d="M157.2,149.3c-5.1,0-9.5-1.3-12.9-4.1c-4.3-3.4-7-8.9-7.9-16.3c-0.7-6-6-10.4-12.2-10
				c-8.5,0.5-15.4-2.1-19-7.4c-4.7-6.6-4.3-16.4,0.9-29.4c4.6-11.2,11.9-18.8,21.8-22.8c19.7-8,42.1,1.4,43.1,2
				c1.3,0.5,2.1,1.8,2.1,3.2c0,0.8,0.8,19.2,18.8,23c1.8,0.4,3,2.1,2.8,3.9c-0.3,2.2-7.6,54.5-33.3,57.6
				C160,149.3,158.5,149.3,157.2,149.3z M125,111.9c9.5,0,17.5,7,18.5,16.3c0.7,5.4,2.4,9.3,5.3,11.6c2.8,2.1,6.7,2.9,11.7,2.2
				c15.8-2,24.2-33.2,26.8-48.4c-14.7-4.6-20-18-20.9-26.4c-5.5-2-21.9-6.7-35.7-1.1c-8,3.3-14,9.6-17.9,18.9
				c-4.3,10.4-4.9,18.2-1.7,22.6c3.2,4.3,9.5,4.6,12.9,4.5C124.3,111.9,124.7,111.9,125,111.9z"></path>
      </g>
      <path fill="#F7F3F4" d="M123.1,98.3c-0.3,0-0.5,0-0.9-0.1c-1.8-0.5-3-2.4-2.5-4.3c1.8-7.2,10-21,27.7-21c0,0,0,0,0.1,0
			c2,0,3.5,1.6,3.5,3.5s-1.6,3.5-3.5,3.5c0,0,0,0-0.1,0c-16.5,0-20.7,15-20.9,15.6C126.1,97.2,124.7,98.3,123.1,98.3z"></path>
      <g>
        <path fill="#E995C2" d="M179.8,55.5c0,0-9.1-33.3,22.4-49.2c4.7-2.4,10.1-3.3,15.2-2.4c7.9,1.3,18.4,5.8,19.3,20.9
				c0.4,5.5,3.4,10.4,8,13.3c5.4,3.4,10.8,10.1,7.7,23c-5.5,23.2-42.4,20.9-50.8,18.4C202,79.2,198.2,59.8,179.8,55.5z"></path>
        <path fill="#1F1C1D" d="M216.3,84.4c-7,0-12.7-0.9-15.4-1.7c-1.3-0.4-2.2-1.4-2.5-2.8c-0.1-0.7-3.7-17.3-19.6-21
				c-1.3-0.3-2.2-1.3-2.6-2.5c-0.1-0.4-9.5-36.4,24.3-53.3c5.4-2.8,11.6-3.7,17.5-2.8c13.5,2.1,21.4,10.6,22.3,24
				c0.3,4.2,2.6,8.1,6.4,10.5c11.8,7.5,10.9,20,9.3,26.8c-1.7,7.1-5.9,12.6-12.7,16.4C235.2,82.9,224.8,84.4,216.3,84.4z
				 M204.9,76.3c7.2,1.4,24.2,2,35-4.2c5.1-2.9,8.1-6.8,9.3-11.9c2.1-8.8,0-15.2-6.2-19.2c-5.6-3.5-9.3-9.6-9.7-16
				c-0.7-10-6.2-15.9-16.4-17.6c-4.5-0.7-9.1,0-13.1,2.1c-24.7,12.5-22.4,36.2-21.1,43.2C197.8,57.3,203.3,71,204.9,76.3z"></path>
      </g>
      <path fill="#F7F3F4" d="M193.6,46.7c-0.3,0-0.5,0-0.8-0.1c-1.8-0.4-3-2.4-2.6-4.2c0.3-0.9,5.4-22.2,24-26.1c2-0.4,3.8,0.8,4.2,2.8
			c0.4,2-0.8,3.8-2.8,4.2c-14.3,3-18.5,20.7-18.6,20.9C196.6,45.5,195.1,46.7,193.6,46.7z"></path>
    </g>
    <g>
      <path fill="#F4C64F" d="M433.9,409.5c0,0,13.5-15.2,27.4-12.7c0,0,12.6,22.4,11.8,39.1l-28.5,10.5
			C444.7,446.4,445.5,428,433.9,409.5z"></path>
      <path fill="#1F1C1D" d="M444.7,449.9c-0.8,0-1.4-0.3-2.1-0.7c-0.9-0.7-1.4-1.8-1.4-3c0-0.1,0.5-17.6-10.2-34.9
			c-0.8-1.3-0.7-3,0.4-4.2c0.7-0.7,15-16.7,30.7-13.9c1.1,0.1,2,0.8,2.5,1.7c0.5,0.9,13.1,23.5,12.3,41.1c0,1.4-0.9,2.6-2.4,3.2
			L446,449.7C445.5,449.8,445.1,449.9,444.7,449.9z M438.2,410c7.2,12.6,9.2,24.8,9.7,31.4l21.7-8c-0.4-12.7-8-28.5-10.6-33.5
			C450.4,399.4,441.9,406.5,438.2,410z"></path>
    </g>
    <path fill="#1F1C1D" d="M581.4,407.3c0,0,20.1,10.1,2.4,32c-17.7,21.8-37.5,36.5-58.9,46.3c-25.9,11.9-23.8,21.3-33.7,23.8
		c-7.5,2-13.4,5.3-31.8-13.5C459.5,495.9,533.8,397.9,581.4,407.3z"></path>
    <g>
      <path fill="#5EAAD3" d="M485,421.3c0,0,21.9-47,66.2-37.1c0,0,32.3,7.4,34.5,31.6c0,0-10,2.6-27.4,8.3
			c-17.5,5.6-40.8,36.4-49.9,46.6c-9.1,10.2-31.1,31.6-43.6,24.3s-22.8-23.8-21.8-37.3c0,0-12.1-4.6-8.5-18.1
			c3.4-12.6,23.6-6.8,36.8-23.1c2.8-3.3,7.6-4.3,10.9-1.6C483.9,416.3,485.2,418.3,485,421.3z"></path>
      <path fill="#1F1C1D" d="M470.5,500.2c-2.6,0-5.3-0.7-7.6-2c-13.5-8-23.4-24.3-23.5-38.2c-5.1-3-11.3-10-8.3-21.3
			c2.2-8,9.6-10.4,16.8-12.5c6.8-2.1,14.6-4.5,20.6-11.8c4.1-5,11.2-5.9,15.9-2.1c0.4,0.3,0.8,0.7,1.2,1.1
			c2.9-4.6,7.4-10.8,13.5-16.7c15.4-14.6,33.6-20.1,52.9-15.8c1.4,0.3,34.9,8.1,37.3,34.8c0.1,1.7-0.9,3.3-2.6,3.7
			c-0.1,0-10.1,2.8-27.3,8.3c-13.8,4.5-32.8,27.2-43.1,39.4c-2.1,2.5-3.8,4.6-5.3,6.2C504.8,480.2,485.9,500.2,470.5,500.2z
			 M477.7,417c-1.3,0-2.8,0.7-3.7,1.8c-7.4,9.1-16.7,11.9-24,14.2c-7.1,2.2-10.9,3.5-11.9,7.6c-1.2,4.3-0.5,7.9,2,10.8
			c2,2.2,4.3,3.3,4.5,3.3c1.4,0.5,2.4,2,2.2,3.5c-0.9,11.7,8,26.9,20,34c8.3,4.9,26.1-8.8,39.1-23.6c1.4-1.6,3.2-3.7,5.1-6
			c11.4-13.7,30.6-36.5,46.3-41.6c11.8-3.8,20.3-6.3,24.5-7.5c-4.2-19.3-31.1-25.6-31.4-25.6c-17.1-3.8-32.7,0.8-46.3,13.8
			c-10.5,10-15.9,21.3-15.9,21.4c-0.7,1.6-2.4,2.4-4.1,2c-1.6-0.4-2.8-2-2.6-3.7c0.1-1.4-0.4-2.6-1.4-3.4
			C479.3,417.2,478.5,417,477.7,417z"></path>
    </g>
    <path fill="#1F1C1D" d="M473.8,456.1c-0.3,0-0.5,0-0.7-0.1c-2-0.4-3.2-2.2-2.8-4.2c3.5-17.1,11.2-31.6,11.4-32.2
		c0.9-1.7,3-2.4,4.7-1.4c1.7,0.9,2.4,3,1.4,4.7c-0.1,0.1-7.5,14.3-10.8,30.3C477,455,475.5,456.1,473.8,456.1z"></path>
    <path fill="#F7F3F4" d="M472,482.9c-1.6,0-3-1.2-3.4-2.8c-0.4-1.8,0.8-3.8,2.6-4.2c10.5-2.4,24.3-18.9,28.7-25.1
		c35.7-51.3,66.3-47.8,67.6-47.6c2,0.3,3.3,2.1,3,3.9c-0.3,2-2,3.3-3.9,3c-0.4,0-28-2.5-60.9,44.6c-0.8,1.1-17.6,24.5-32.9,28
		C472.5,482.9,472.2,482.9,472,482.9z"></path>
    <path fill="#1F1C1D" d="M611.6 88.6c-1.7 0-3.2-.4-4.2-.8-7.6-3.2-9.8-13.8-10.1-15-.4-2 .9-3.8 2.8-4.2 2-.4 3.8.9 4.2 2.8l0 0c.4 2.1 2.4 8.4 5.9 9.8 1.7.7 3.8.1 6.4-1.6 1.6-1.1 3.8-.7 4.9.9 1.1 1.6.7 3.8-.9 4.9C617 87.8 614 88.6 611.6 88.6zM653 120.2c-2.2 0-5.1-.8-8.1-3.7-3.3-3.3-3.8-6.7-3.7-9.1.5-6.6 6.7-11.6 7.5-12.1 1.6-1.2 3.8-.9 5 .7s.9 3.8-.7 5c-1.2.9-4.5 4.1-4.7 7 0 .8 0 2 1.6 3.5 1.8 1.8 3 1.7 3.4 1.6 2.4-.3 4.7-3.3 5.4-4.2 1.1-1.7 3.2-2.1 4.9-1.2 1.7 1.1 2.1 3.2 1.2 4.9-.4.7-4.3 6.8-10.5 7.5C653.8 120.2 653.4 120.2 653 120.2z"></path>
  </g>
</svg>
