<svg xmlns="http://www.w3.org/2000/svg" enable-background="new 0 0 64 64" viewBox="0 0 64 64" id="Horse">
  <path fill-rule="evenodd" d="M31.858,32.364c3.939,0,7.519,1.267,10.114,3.315c1.032,0.814,1.911,1.751,2.601,2.781V26.446c0-6.991-5.724-12.713-12.715-12.713c-6.99,0-12.714,5.723-12.714,12.713V38.46c0.689-1.03,1.568-1.967,2.601-2.781C24.342,33.631,27.918,32.364,31.858,32.364L31.858,32.364z M51.85,10.915c-0.121,4.318-2.732,8.254-6.682,10.019c-0.349-0.833-0.77-1.624-1.26-2.37c0.655-1.762,1.81-3.276,3.34-4.368L51.85,10.915L51.85,10.915z M42.731,17.014c-0.548-0.631-1.149-1.213-1.797-1.741c1.259-1.603,2.977-2.742,4.947-3.271l2.446-0.654l-2.061,1.469C44.752,13.899,43.54,15.336,42.731,17.014L42.731,17.014z M39.562,14.281c1.485-1.913,3.543-3.289,5.885-3.915L52.412,8.5c0.501-0.132,1.006,0.21,1.061,0.728c0.607,5.617-2.565,11.062-7.747,13.305c0.355,1.246,0.542,2.559,0.542,3.914v17.462c0,3.227-1.64,6.135-4.295,8.228c-2.596,2.048-6.175,3.315-10.114,3.315c-3.94,0-7.517-1.267-10.113-3.315c-2.656-2.093-4.298-5.001-4.298-8.228V26.446c0-1.37,0.194-2.696,0.556-3.953c-5.119-2.272-8.249-7.691-7.648-13.265c0.055-0.518,0.562-0.86,1.061-0.728l6.968,1.867c2.319,0.621,4.365,1.98,5.847,3.868c2.216-1.392,4.83-2.199,7.627-2.199C34.686,12.035,37.329,12.86,39.562,14.281L39.562,14.281z M22.853,15.217c-0.646,0.52-1.247,1.094-1.796,1.715c-0.809-1.642-2.006-3.051-3.495-4.114L15.5,11.348l2.448,0.654C19.895,12.525,21.596,13.643,22.853,15.217L22.853,15.217z M11.98,10.915l4.599,3.281c1.498,1.069,2.639,2.543,3.301,4.261c-0.512,0.763-0.952,1.578-1.313,2.433C14.665,19.103,12.099,15.201,11.98,10.915L11.98,10.915z M40.925,37.011c2.255,1.777,3.648,4.217,3.648,6.897c0,2.679-1.394,5.12-3.648,6.896c-2.312,1.822-5.518,2.95-9.066,2.95s-6.755-1.128-9.067-2.95c-2.253-1.777-3.647-4.217-3.647-6.896c0-2.68,1.394-5.121,3.647-6.897c2.312-1.822,5.518-2.949,9.067-2.949S38.613,35.189,40.925,37.011z" clip-rule="evenodd" fill="#595bd4" class="color000000 svgShape"></path>
  <path fill-rule="evenodd" d="M25.317 41.063c1.625 0 3.38 1.07 3.38 2.845 0 1.773-1.755 2.845-3.38 2.845-1.625 0-3.381-1.071-3.381-2.845C21.937 42.134 23.692 41.063 25.317 41.063L25.317 41.063zM25.317 42.76c-.642 0-1.684.363-1.684 1.148 0 .784 1.042 1.147 1.684 1.147S27 44.692 27 43.908C27 43.123 25.959 42.76 25.317 42.76zM38.399 41.063c1.627 0 3.382 1.07 3.382 2.845 0 1.773-1.755 2.845-3.382 2.845-1.626 0-3.38-1.071-3.38-2.845C35.02 42.134 36.773 41.063 38.399 41.063L38.399 41.063zM38.399 42.76c-.643 0-1.683.363-1.683 1.148 0 .784 1.04 1.147 1.683 1.147.645 0 1.685-.363 1.685-1.147C40.084 43.123 39.044 42.76 38.399 42.76zM27.087 25.764c0 1.624-1.071 3.38-2.845 3.38-1.773 0-2.845-1.756-2.845-3.38 0-1.626 1.072-3.381 2.845-3.381C26.016 22.383 27.087 24.138 27.087 25.764L27.087 25.764zM25.391 25.764c0-.645-.365-1.684-1.149-1.684-.784 0-1.148 1.039-1.148 1.684 0 .642.365 1.682 1.148 1.682C25.026 27.446 25.391 26.406 25.391 25.764zM42.291 25.764c0 1.624-1.069 3.38-2.842 3.38-1.774 0-2.847-1.756-2.847-3.38 0-1.626 1.072-3.381 2.847-3.381C41.222 22.383 42.291 24.138 42.291 25.764L42.291 25.764zM40.594 25.764c0-.645-.363-1.684-1.145-1.684-.786 0-1.149 1.039-1.149 1.684 0 .642.363 1.682 1.149 1.682C40.23 27.446 40.594 26.406 40.594 25.764z" clip-rule="evenodd" fill="#595bd4" class="color000000 svgShape"></path>
</svg>
