<svg xmlns="http://www.w3.org/2000/svg" viewBox="0 0 135 135" id="LaughingBee">
  <path d="m124.255 32.158.07.01-.33-2.09h-.02c-1.786-8.614-10.629-12.46-17.33-7.2-.41-.18-.81-.34-1.23-.5 2.12-3.88 4.64-6.86 7.16-8.48 1.64-1.04 3.25-1.48 4.72-1.28a3.646 3.646 0 0 0 3.62 3.29c2.01 0 3.64-1.64 3.64-3.65 0-3.827-5.224-5.058-6.89-1.61-1.96-.29-4.1.24-6.17 1.57-2.87 1.83-5.69 5.2-8.01 9.52-2.86-.86-5.8-1.26-8.76-1.19-1.906-2.417-4.563-3.929-7.49-4.21 1.962-3.649 5.13-6.556 9.26-7.18 1.325 3.923 7.11 2.964 7.11-1.14 0-4.265-6.155-5.03-7.18-.88-5.242.684-9.185 4.485-11.46 9.26-2.658.354-5.143 1.785-6.9 3.724-1.864-4.256-4.957-7.024-9.638-7.147C61.772 12.8 57 15.761 54.203 21.776c-.894 1.922-1.533 4.09-1.973 6.412-2.094-2.165-4.347-3.802-6.72-4.6-4.427-1.49-8.688-.004-12.662 4.414-6.14 6.827-7.646 14.878-4.354 23.282 1.04 2.655 2.496 5.188 4.202 7.56-12.657 2.778-19.072 21.885-8.4 38.024.056.1.072.114.172.198a28.555 28.555 0 0 0 4.597 5.297c-2.401 3.793-6.027 8.207-11.457 12.295-.55-.29-.637-.49-.923-.94-2.895-5.005-11.092-1.13-5.78 5.37 2.755 3.383 6.667 5.643 10.9 5.04 4.546-.687 5.645-8.006-1.63-8.91-.011 0-.02-.002-.03-.004 4.842-3.886 8.19-7.96 10.49-11.544 2.079 1.6 3.871 2.488 3.976 2.551-2.61 2.97-5.451 7.982-7.238 16.368-6.522 3.325-1.013 10.279 3.682 7.16 1.908-1.185 3.78.86 6.58.86 4.305 0 5.847-5.299 2.27-7.79-3.065-2.068-6.782-2.284-10.28-1.15-.002 0-.004 0-.006.002 1.815-7.63 4.546-12.017 6.897-14.523.102.02 6.445 3.052 15.27 2.76.044 0 .237-.028.26-.05.008-.002.015-.008.024-.01 20.514-.56 40.61-12.982 47.167-32.364 6.27 2.607 14.338 7.34 11.267 13.383-2.597-2.596-6.813-1.694-6.749 3.271 0 1.51-.905 1.973-2.29 2.82-6.894 4.301-.559 14.125 6.01 9.56 4.397-3.058 5.584-10.55 4.26-13.82l-.002-.006c4.329-6.673-1.605-12.133-8.725-15.685 18.073-1.843 28.026-20.834 20.067-38.089.873-1.984 1.335-4.373 1.18-6.76zm-4.61-20.93c.29-.37.75-.61 1.27-.61 2.174 0 2.163 3.29 0 3.29a1.642 1.642 0 0 1-1.27-2.68zm-19.69-4.85c.91 0 1.65.73 1.65 1.64 0 1.548-1.995 2.231-2.92 1.02-.881-1.03-.1-2.66 1.27-2.66zm-78.45 115.77c-6.62 1.006-13.672-8.403-8.72-8.71 3.239 0 .597 2.94 7.06 3.75 2.029.254 4.059 4.63 1.66 4.96zm18.28 5.04c-1.248 3.093-4.991.16-7.58.16-2.253 0-2.828 1.978-4.76.87-.9-.52-1.22-1.59-.95-2.26.26-.65.97-1.23 2.24-1.81 6.493-2.923 12.096.283 11.05 3.04zm66.55-22.32c-1.88 1.317-2.983.821-3.8.47-1.35-.57-2.3-2.86-2.05-4.21.21-1.14.93-1.79 2.03-2.46 3.578-2.2 3.13-3.222 3.24-5.41.18-2.477 2.875-2.23 3.96-.17.67 1.3.296 9.23-3.38 11.78zm15.95-72.15c-.23-.39-.51-.75-.82-1.06l.76.14c.03.31.05.61.06.92zm-.46-3.03-16.15-2.87c4.757-6.947 13.915-5.197 16.15 2.87zm-3.64 4.705c-.651.41-1.128 1.122-1.307 1.95-.339 1.542.434 3.003 1.772 3.33.164.037.33.056.492.056.54 0 1.055-.207 1.488-.56-.37.75-.901 1.407-1.615 1.85-2.546 1.527-4.952-1.288-4.31-4.87.516-2.83 2.617-4.249 4.14-3.79 1.09.282 1.813 1.212 2.164 2.376a2.194 2.194 0 0 0-1.082-.65 2.265 2.265 0 0 0-1.742.308zM119.731 37c-.12.496-.462.762-.62.726-.184-.045-.39-.448-.279-.957.078-.359.268-.589.419-.684a.33.33 0 0 1 .17-.059c.014 0 .028.001.04.004.188.046.383.472.27.97zm-3.456-6.262c-4.96 2.346-4.92 11.286.29 12.57.04.01.07.02.11.02-8.094 4.52-16.2-5.373-12.03-14.66l11.63 2.07zm-20.41-.9c-.32-.59-.72-1.11-1.18-1.53l1.11.2c.05.44.07.88.07 1.33zm-11.83-11.21h.01c5.247-1.489 9.96 2.25 11.37 7.78L78.254 23.23l-.011-.002-.04-.008h.004c-.007 0-.01-.001-.018-.003 0 0-.001 0 0 0h-.004c1.47-2.32 3.57-3.94 5.85-4.59zm7.515 12.884c-.693.436-1.198 1.202-1.384 2.101-.344 1.645.452 3.194 1.813 3.527.169.041.341.061.514.061.423 0 .849-.122 1.234-.36.2-.123.378-.281.544-.455-.403 1.015-1.044 1.9-1.946 2.452-2.94 1.75-5.22-1.953-4.56-5.49.421-2.372 2.239-4.823 4.43-4.23 1.252.342 2.06 1.506 2.401 2.935a2.323 2.323 0 0 0-1.269-.845c-.596-.15-1.226-.04-1.777.304zm1.62 2.834c-.097.42-.319.685-.494.793-.086.053-.162.072-.224.058-.192-.048-.463-.529-.328-1.176.09-.43.311-.703.49-.815a.36.36 0 0 1 .183-.064c.014 0 .029.002.042.005.226.058.473.565.33 1.199zm-3.385-6.948c-5.644 2.296-5.458 12.84.35 13.81-8.51 5.278-17.5-5.597-12.94-16.14l12.59 2.33zm-33.769-4.779c2.43-5.224 6.573-7.796 12.358-7.645 3.397.09 6.407 1.887 8.27 6.925-.2.3-.39.61-.559.929h-.02l-.93 1.86.05.01c-.914 2.315-1.332 4.84-1.13 7.34-4.596 6.895-5.605 17.147-1.33 26.65-1.77.53-3.92 1.06-6.12 1.38-.692-7-5.58-21.309-12.658-29.947.396-2.757 1.052-5.314 2.07-7.502zm15.77 38.408c-1.748 2.293-3.47 4.123-5.363 5.371.225-1.356.32-2.814.291-4.319.102-.019 2.015-.248 5.061-1.051h.011zm-41.43-10.473c-3.04-7.76-1.701-14.899 3.979-21.215 3.39-3.769 6.935-5.067 10.537-3.855 10.51 3.535 18.893 25.976 19.748 34.825-4.662.407-9.411-.282-10.285-4.881 3.64.525 6.17-2.966 3.41-6.41-.86-1.087-.874-1.566-.13-3.53l.06-.16c2.791-7.387-8.033-11.276-10.37-3.78-1.14 3.65.37 7.35 1.84 9.8.68 1.14 1.63 2.5 3.08 3.36.547 6.385 6.1 8.221 12.498 7.6.022 2.044-.223 3.817-.607 5.27-7.144 2.943-14.892-3.568-22.259-7.24a43.02 43.02 0 0 0-.482-.22c-.021-.011-.219-.11-.24-.1-2.047-.74-3.41-1.412-6.116-1.412-1.919-2.508-3.551-5.215-4.663-8.052zm26.19.194c1.527 2.291-1.742 4.053-4.29 1.44-.58-.58-1.03-1.26-1.39-1.86-3.848-6.443-1.335-10.85 1.49-10.85 1.32 0 3.02 1.05 3.54 2.06.48.91.37 1.77.01 2.81-.101.301-.094.256-.16.43-1.434 3.917-.194 4.433.8 5.97zM25.867 65.511c4.697-5.359 9.06-5.677 13.463-4.066-4.6 7.657-10.987 14.497-18.826 18.747-.272-4.885 1.76-10.572 5.363-14.68zm-5.09 16.796c8.31-4.208 15.609-11.964 20.414-20.074 2.29 1.094 4.528 2.542 6.893 3.937-1.693 5.38-5.076 11.962-9.5 17.378-3.809 4.584-7.846 8.18-13.14 11.41-2.368-3.871-3.818-8.21-4.667-12.651zm13.55 21.469c-3.071-1.815-5.668-4.199-7.78-7.146 5.356-3.302 9.508-6.907 13.577-11.812 4.355-5.314 7.731-11.634 9.73-17.64 3.06 1.673 6.016 2.816 9.473 3.019-.031.101-2.134 10.043-7.543 18.071-4.955 7.38-11.61 12.717-17.456 15.508zm17.03 4.12c-5.2.055-10.241-.78-14.901-2.986.006-.003.012-.006.018-.012 13.286-6.943 21.508-19.855 24.91-34.69 1.64-.13 3.17-.55 4.63-1.26.26 14.2-4.346 28.015-14.658 38.948zm2.81-.121c5.742-6.482 9.617-13.721 11.947-22.527 2.467-9.772 1.829-16.963 1.87-17.495 2.424-1.705 4.357-4.072 6.082-6.433a31.629 31.629 0 0 0 6.916 8.427c1.482 12.098-1.33 23.75-8.48 33.353-5.623 2.495-12.02 4.218-18.335 4.675zm36.204-18.387c-3.761 4.699-8.488 8.843-14.228 11.926 5.777-9.161 7.968-19.54 7.033-29.845a30.133 30.133 0 0 0 7.306 3.888c.572 4.571.58 9.129-.111 14.031zm2.354-3.219c.3-3.848.2-6.75-.17-10.136.638.155 2.084.646 4.737.945-1.086 3.17-2.62 6.257-4.567 9.191zm25.84-19.601c-11.269 14.12-33.931 10.096-43.03-6.7-.33-.59-.63-1.19-.9-1.8-3.39-7.37-3.62-15.86-.06-22.94 1.56 5.785 6.055 9.42 10.99 9.42 7.41 0 12.844-7.733 12.26-15.66l.06.01-.31-2.09h-.02c-.29-1.5-.8-2.94-1.5-4.23 2.43.04 4.84.44 7.19 1.18l.01.01c.06.06.14.12.23.16.14.07.3.11.45.11.04 0 .07 0 .11-.02.33.11.67.23 1 .36-.55.62-1.05 1.31-1.5 2.06h-.02l-.97 1.86.07.01c-3.473 8.552 1.777 18.12 9.94 18.12 3.493 0 6.966-1.843 9.28-5.26 3.371 8.363 2.582 18.065-3.28 25.4z" fill="#595bd4" class="color000000 svgShape"></path>
  <path d="M83.245 53.338c-.4-.17-.85-.08-1.15.23-.29.31-.35.77-.15 1.15 16.921 32.088 38.97 8.041 38.97-2.38 0-5.562-11.526 12.876-37.67 1zm9.91 12.46c4.938-2.403 12.245-2.702 17.82-.56-6.127 4.696-12.267 4.66-17.82.56zm19.49-2.01c-2.83-1.29-6.33-1.99-9.94-1.99-4.24 0-8.19.93-11.22 2.62-1.36-1.116-3.963-4.09-6.34-8.08 11.462 4.637 21.7 4.298 33.51-2.12-.971 3.8-4.298 8.232-6.01 9.57z" fill="#595bd4" class="color000000 svgShape"></path>
</svg>
