<?xml version="1.0" encoding="utf-8"?>
<!-- Generator: Adobe Illustrator 27.5.0, SVG Export Plug-In . SVG Version: 6.00 Build 0)  -->
<svg version="1.1" id="Layer_1" xmlns="http://www.w3.org/2000/svg" xmlns:xlink="http://www.w3.org/1999/xlink" x="0px" y="0px"
	 viewBox="0 0 1920 1080" style="enable-background:new 0 0 1920 1080;" xml:space="preserve">
<g>
	<defs>
		<rect id="SVGID_1_" width="1920" height="1080"/>
	</defs>
	<clipPath id="SVGID_00000089556653011658756690000015879488633687683764_">
		<use xlink:href="#SVGID_1_"  style="overflow:visible;"/>
	</clipPath>
	
		<rect style="clip-path:url(#SVGID_00000089556653011658756690000015879488633687683764_);fill-rule:evenodd;clip-rule:evenodd;fill:#C2BD30;" width="1920" height="1080"/>
	<g style="clip-path:url(#SVGID_00000089556653011658756690000015879488633687683764_);">
		<path style="fill:#FCEF44;" d="M142.071,703.164c-0.442,0-0.884,0-1.325,0c-0.221,0.552-0.442,1.104-0.663,1.657
			c0.221,0.11,0.442,0.221,0.663,0.331c0.442-0.331,0.884-0.663,1.325-0.994C142.071,703.826,142.071,703.495,142.071,703.164z"/>
		<path style="fill:#FCEF44;" d="M196.078,936.418c0-0.442,0-0.884,0-1.325c-0.552-0.11-1.104-0.221-1.657-0.331
			C194.212,936.708,194.19,936.672,196.078,936.418z"/>
		<path style="fill:#FCEF44;" d="M252.735,723.706c0.663-0.773,1.325-1.546,1.988-2.319c-0.331-0.221-0.663-0.442-0.994-0.663
			c-0.331,0-0.663,0-0.994,0c-0.552,0.663-1.104,1.325-1.657,1.988c0,0.221,0,0.442,0,0.663c0.221,0.221,0.442,0.442,0.663,0.663
			C252.072,723.927,252.404,723.816,252.735,723.706z"/>
		<path style="fill:#FCEF44;" d="M379.633,749.55c-0.331,0.552-0.663,1.104-0.994,1.657c0,0.11,0,0.221,0,0.331
			c0.989-0.429,0.397,0.014,0.994-0.663C380.208,749.81,380.19,750.612,379.633,749.55z"/>
		<path style="fill:#FCEF44;" d="M442.586,1058.678c-33.947-24.076-60.857-57.766-78.193-98.404
			c-11.951-28.013-18.912-59.636-25.844-93.103c-7.631-36.843-9.674-74.189-26.506-101.055
			c-9.682-15.454-24.251-27.517-42.079-34.789c-6.074-1.656-12.149-3.313-18.223-4.97c-1.052-0.726-0.939-1.59-1.988-2.319
			c-6.219,2.507-16.793-0.331-24.518,0.994c-13.526,2.32-25.526,4.469-35.452,10.271c-37.814,22.104-62.426,58.841-97.079,84.489
			c-18.935,14.015-39.689,26.543-62.952,36.115c-10.496,4.318-23.921,5.462-34.458,10.602c0,64.161,0,128.341,0,192.501
			c5.19-3.534,10.382-7.069,15.572-10.603c10.296-6.314,21.65-12.001,34.127-15.904c46.125-14.427,100.158-4.142,124.911-41.085
			c10.298-15.368,11.223-39.546,0-54.669c-19.425-26.176-53.964-18.97-65.272,9.609c-6.158,15.562,4.332,26.704,14.91,31.145
			c1.719,0.722,4.163,2.297,6.627,1.325c0.331-0.11,0.663-0.221,0.994-0.331c1.63-7.495-8.792-17.005,3.976-19.88
			c3.457-0.778,7.446,0.525,9.608,1.325c11.884,4.398,3.769,17.52-2.651,22.199c-16.971,12.368-42.887,3.21-52.681-9.609
			c-4.782-6.258-7.809-14.315-9.609-23.524c-14.773-75.586,84.109-100.591,121.266-54.338c8.146,10.14,14.353,20.757,19.548,34.127
			c7.967,20.501,4.536,50.006-2.651,68.585c-11.92,30.814-29.39,50.68-59.639,62.952c-13.084,5.309-28.091,6.849-42.41,10.603
			c-9.608,2.65-19.218,5.302-28.826,7.952c-0.221,0.331-0.442,0.663-0.663,0.994c0.221,0.221,0.442,0.442,0.663,0.663
			c26.614,0,53.236,0,79.85,0c31.944-21.408,57.999-39.3,69.579-81.507c15.446-56.297-12.579-109.617-44.398-132.2
			c-7.175-5.092-32.598-18.464-46.386-14.578c2.466-5.385,23.893-7.032,32.47-5.301c24.438,4.932,44.792,18.393,57.651,35.121
			c9.401,12.229,18.483,25.618,23.524,42.079c14.708,48.022-3.41,105.375-23.856,134.188c-5.564,7.841-12.586,14.163-18.886,21.205
			c0,0.331,0,0.663,0,0.994c89.781,0,179.589,0,269.37,0c0-0.11,0-0.221,0-0.331c-4.417-1.877-8.836-3.755-13.253-5.633
			C460.036,1069.281,451.31,1063.979,442.586,1058.678z"/>
		<path style="fill:#FCEF44;" d="M-4.707,563.012c0.11,0.442,0.221,0.884,0.331,1.325c0.11,0,0.221,0,0.331,0
			C-4.265,563.896-4.486,563.454-4.707,563.012z"/>
		<path style="fill:#FCEF44;" d="M11.528,570.964c-6.136,2.645-10.686-1.787-14.247-4.639
			C-1.357,570.099,7.937,576.081,11.528,570.964z"/>
		<path style="fill:#FCEF44;" d="M0.926,639.88c0-0.11,0-0.221,0-0.331c-0.331-0.221-0.663-0.442-0.994-0.663
			c-1.581,0.616-3.509,0.388-4.639,1.325C-2.83,640.101-0.952,639.99,0.926,639.88z"/>
		<path style="fill:#FCEF44;" d="M47.974,1059.341c-0.221,0.11-0.442,0.221-0.663,0.331c0,0.552,0,1.104,0,1.657
			c0.552,0,1.104,0,1.657,0c0.11-0.11,0.221-0.221,0.331-0.331c-0.11-0.442-0.221-0.884-0.331-1.325
			C48.637,1059.562,48.306,1059.452,47.974,1059.341z"/>
		<path style="fill:#FCEF44;" d="M29.42,1065.305c0.221,0,0.442,0,0.663,0c0.221-0.442,0.442-0.884,0.663-1.325
			c-0.442,0-0.884,0-1.325,0C29.42,1064.422,29.42,1064.863,29.42,1065.305z"/>
		<path style="fill:#FCEF44;" d="M400.838,775.393c0-0.331,0-0.663,0-0.994c-0.442-0.221-0.884-0.442-1.325-0.663
			c-0.18,1.31-0.253,1.08,0.663,1.988C400.397,775.614,400.617,775.504,400.838,775.393z"/>
		<path style="fill:#FCEF44;" d="M610.9,1024.22c0.331,0.221,0.663,0.442,0.994,0.663c0.331-0.331,0.663-0.663,0.994-0.994
			c-0.552-0.221-1.104-0.442-1.657-0.663C611.121,1023.558,611.011,1023.889,610.9,1024.22z"/>
		<path style="fill:#FCEF44;" d="M636.744,1011.961c-0.331,0-0.663,0-0.994,0c-0.221,0.663-0.442,1.325-0.663,1.988
			c0.11,0,0.221,0,0.331,0C636.405,1013.226,636.378,1013.416,636.744,1011.961z"/>
		<path style="fill:#FCEF44;" d="M681.142,1060.667c-0.331,0-0.663,0-0.994,0c-3.976,1.767-7.952,3.534-11.928,5.301
			c-13.077,5.726-25.083,10.766-41.747,13.584c3.959,1.952,12.548,0.178,16.898-0.994c13.575-3.657,24.705-12.89,37.44-17.229
			C680.921,1061.108,681.031,1060.887,681.142,1060.667z"/>
		<path style="fill:#FCEF44;" d="M1104.91,1080.546c0.773-4.086,1.546-8.173,2.319-12.259c-1.63,2.444-2.28,8.403-2.651,12.259
			C1104.689,1080.546,1104.8,1080.546,1104.91,1080.546z"/>
		<path style="fill:#FCEF44;" d="M1120.814,1062.654c0-0.11,0-0.221,0-0.331c-0.442,0-0.884,0-1.325,0
			C1119.93,1062.434,1120.372,1062.544,1120.814,1062.654z"/>
		<path style="fill:#FCEF44;" d="M487.646,1010.305c0.11,0.221,0.221,0.442,0.331,0.663c0.331,0,0.663,0,0.994,0
			c0.531-1.391,0.666-0.842-0.331-1.988C488.309,1009.421,487.978,1009.863,487.646,1010.305z"/>
		<path style="fill:#FCEF44;" d="M404.152,796.598c-0.442,0-0.883,0-1.325,0c-0.11,0.331-0.221,0.663-0.331,0.994
			c0.331,0.221,0.663,0.442,0.994,0.663c0.331-0.331,0.663-0.663,0.994-0.994C404.372,797.04,404.262,796.819,404.152,796.598z"/>
		<path style="fill:#FCEF44;" d="M438.61,945.696c-0.331-0.221-0.663-0.442-0.994-0.663c-0.331,0.331-0.663,0.663-0.994,0.994
			c0,0.11,0,0.221,0,0.331c0.331,0.11,0.663,0.221,0.994,0.331c0.11,0,0.221,0,0.331,0
			C438.168,946.358,438.389,946.027,438.61,945.696z"/>
		<path style="fill:#FCEF44;" d="M413.097,835.032c-0.221,0.331-0.442,0.663-0.663,0.994c0.331,0.221,0.663,0.442,0.994,0.663
			C413.878,835.345,414.041,836.164,413.097,835.032z"/>
		<path style="fill:#FCEF44;" d="M465.779,979.16c-0.11-0.331-0.221-0.663-0.331-0.994c-0.331-0.11-0.663-0.221-0.994-0.331
			c-0.448,1.016-0.522,0.833-0.331,1.988c0.442,0,0.884,0,1.325,0C465.558,979.602,465.668,979.381,465.779,979.16z"/>
		<path style="fill:#FCEF44;" d="M1641.33,154.153c11.242,4.857,26.016,10.649,42.41,9.609
			c49.557-3.145,87.979-28.68,102.049-68.585c4.607-13.066,8.972-33.736,5.301-51.356c-2.578-12.375-6.744-23.542-12.59-32.801
			c-2.476-3.921-7.518-7.176-8.946-11.928c-54.443,0-108.902,0-163.345,0c-3.644,4.859-7.29,9.719-10.934,14.578
			c-6.471,10.332-11.43,22.621-14.247,36.446C1570.105,103.73,1607.764,139.651,1641.33,154.153z M1620.125,45.478
			c7.318-18.853,19.851-33.076,38.765-40.422c6.891-2.676,16.587-1.685,23.524-4.307c45.869-0.22,87.019,43.964,66.928,93.103
			c-9.547,23.352-31.709,36.793-60.302,41.416c-10.773,1.742-22.728-1.861-29.82-4.639
			C1629.284,118.901,1603.727,87.72,1620.125,45.478z"/>
		<path style="fill:#FCEF44;" d="M1655.577,111.743c0.221,0.11,0.442,0.221,0.663,0.331c-1.877-3.975-3.755-7.952-5.633-11.928
			c-5.047-14.166-2.257-33.905,7.289-41.085c14.825-11.149,40.332-2.963,43.735,12.922c2.115,9.871-8.035,19.871-18.223,16.235
			c-7.397-2.64-6.54-10.729-5.964-18.886c-9.22-2.607-13.369,11.266-11.596,20.211c2.996,15.118,22.066,27.64,39.428,17.56
			c32.183-18.684,25.346-75.069-19.88-74.217c-5.614,2.159-10.769,1.594-15.241,4.307c-13.542,8.214-28.447,34.795-22.53,57.651
			C1649.32,101.394,1653.139,106.238,1655.577,111.743z"/>
		<path style="fill:#FCEF44;" d="M1682.415,216.443c-0.552-0.11-1.104-0.221-1.656-0.331c0.221,0.442,0.442,0.884,0.663,1.325
			C1681.752,217.106,1682.083,216.774,1682.415,216.443z"/>
		<path style="fill:#FCEF44;" d="M1127.772,1075.907c-1.767,0.883-3.534,1.767-5.301,2.651c-0.11,0.331-0.221,0.663-0.331,0.994
			c0,0.331,0,0.663,0,0.994c6.184,0,12.37,0,18.554,0C1139.064,1077.463,1132.611,1075.766,1127.772,1075.907z"/>
		<path style="fill:#FCEF44;" d="M1646.3,201.533c-0.221,0.442-0.442,0.884-0.663,1.325c0,0.442,0,0.884,0,1.325
			c1.822,1.301,2.507,1.498,4.307,0c-0.111-0.552-0.221-1.104-0.331-1.657c-0.442-0.221-0.884-0.442-1.325-0.663
			C1647.625,201.754,1646.963,201.644,1646.3,201.533z"/>
		<path style="fill:#FCEF44;" d="M1651.601,220.419c0.331-0.331,0.663-0.663,0.994-0.994c-0.552-0.221-1.104-0.442-1.657-0.663
			c-0.11,0.221-0.221,0.442-0.331,0.663C1650.938,219.756,1651.27,220.088,1651.601,220.419z"/>
		<path style="fill:#FCEF44;" d="M1842.777,33.55c-0.331-0.11-0.663-0.221-0.994-0.331c-0.221,0.663-0.442,1.325-0.663,1.988
			c0.442,0,0.884,0,1.325,0C1842.556,34.654,1842.667,34.102,1842.777,33.55z"/>
		<path style="fill:#FCEF44;" d="M1842.777,58.068c0.221,0.11,0.442,0.221,0.663,0.331c0.331,0,0.663,0,0.994,0
			c0-0.442,0-0.884,0-1.325c-0.442-0.221-0.884-0.442-1.325-0.663c-0.11,0.442-0.221,0.884-0.331,1.325
			C1842.777,57.847,1842.777,57.958,1842.777,58.068z"/>
		<path style="fill:#FCEF44;" d="M1832.838,141.563c0.11-0.442,0.221-0.884,0.331-1.325c-0.221-0.442-0.442-0.884-0.663-1.325
			c-0.663-0.11-1.325-0.221-1.988-0.331c0,0.663,0,1.325,0,1.988C1831.24,141.64,1831.085,141.475,1832.838,141.563z"/>
		<path style="fill:#FCEF44;" d="M1568.438,164.093c0.331-0.11,0.663-0.221,0.994-0.331c0-0.442,0-0.884,0-1.325
			c-0.442-0.11-0.884-0.221-1.325-0.331c-0.221,0.11-0.442,0.221-0.663,0.331C1567.814,163.635,1567.705,163.41,1568.438,164.093z"
			/>
		<path style="fill:#FCEF44;" d="M27.763,542.801c0-0.11,0-0.221,0-0.331c7.982,3.93,12.123,20.624,7.621,31.145
			c-6.337,14.809-18.319,24.969-40.091,22.53c0,6.295,0,12.591,0,18.886c27.214,0.203,43.932-7.164,54.006-23.856
			c3.627-6.01,5.09-14.522,4.97-23.193c-0.461-33.145-24.623-49.502-58.976-49.036c0,7.951,0,15.905,0,23.856
			c11.935-6.126,23.436,0.506,25.844,11.928c2.919,13.849-15.959,28.082-23.193,17.892c-0.442,0-0.884,0-1.325,0
			c0.221,0.442,0.442,0.884,0.663,1.325c-0.221,0.221-0.442,0.442-0.663,0.663c-2.19-0.132-1.496,12.076-1.325,15.572
			C25.423,595.876,40.967,569.4,27.763,542.801z"/>
		<path style="fill:#FCEF44;" d="M1837.145,5.056c0,0.331,0,0.663,0,0.994c0.221,0,0.442,0,0.663,0
			C1837.379,5.061,1837.821,5.652,1837.145,5.056z"/>
		<path style="fill:#FCEF44;" d="M1558.498-0.908c-0.773,0-1.546,0-2.319,0c-0.11,0.442-0.221,0.884-0.331,1.325
			c0,0.11,0,0.221,0,0.331c0.663,0.221,1.325,0.442,1.988,0.663C1558.056,0.638,1558.277-0.135,1558.498-0.908z"/>
		<path style="fill:#FCEF44;" d="M505.538,858.225c-0.221,0.331-0.442,0.663-0.663,0.994c0.11,0.221,0.221,0.442,0.331,0.663
			c0.663,0,1.325,0,1.988,0c0.221,0,0.442,0,0.663,0c0.11-0.221,0.221-0.442,0.331-0.663c-0.746-1.093-0.344-0.99-1.988-1.325
			C505.98,858.004,505.759,858.115,505.538,858.225z"/>
		<path style="fill:#FCEF44;" d="M16.167,28.249c-0.331-0.331-0.663-0.663-0.994-0.994c-0.331,0-0.663,0-0.994,0
			c-0.11,0.442-0.221,0.884-0.331,1.325c0,0.11,0,0.221,0,0.331c0.552,0.11,1.104,0.221,1.657,0.331
			C15.725,28.911,15.946,28.58,16.167,28.249z"/>
		<path style="fill:#FCEF44;" d="M-4.707,516.295c0,0.221,0,0.442,0,0.663c0.221-0.221,0.442-0.442,0.663-0.663
			C-4.265,516.295-4.486,516.295-4.707,516.295z"/>
		<path style="fill:#FCEF44;" d="M8.546,114.063c0.11-0.552,0.221-1.104,0.331-1.657c-0.331,0-0.663,0-0.994,0
			c-0.221,0.331-0.442,0.663-0.663,0.994c0,0.11,0,0.221,0,0.331c0.331,0.11,0.663,0.221,0.994,0.331
			C8.325,114.063,8.436,114.063,8.546,114.063z"/>
		<path style="fill:#FCEF44;" d="M11.528,62.044c-0.331,0-0.663,0-0.994,0c-0.11,0.442-0.221,0.883-0.331,1.325
			c0.442,0,0.884,0,1.325,0C11.528,62.928,11.528,62.486,11.528,62.044z"/>
		<path style="fill:#FCEF44;" d="M678.491,60.388c-0.221,0-0.442,0-0.663,0c-0.221,0.331-0.442,0.663-0.663,0.994
			c0,0.11,0,0.221,0,0.331c0.11,0,0.221,0,0.331,0C677.828,61.271,678.16,60.829,678.491,60.388z"/>
		<path style="fill:#FCEF44;" d="M1542.594,116.382c0.11,0,0.221,0,0.331,0c0.111-0.442,0.221-0.884,0.331-1.325
			c-0.442-0.221-0.883-0.442-1.325-0.663c-0.221,0.331-0.442,0.663-0.663,0.994c0.11,0.331,0.221,0.663,0.331,0.994
			C1541.932,116.382,1542.263,116.382,1542.594,116.382z"/>
		<path style="fill:#FCEF44;" d="M1538.618,24.935c0.11-0.442,0.221-0.884,0.331-1.325c-0.442-0.221-0.884-0.442-1.325-0.663
			c-0.221,0.331-0.442,0.663-0.663,0.994c0.442,0.331,0.884,0.663,1.325,0.994C1538.397,24.935,1538.508,24.935,1538.618,24.935z"/>
		<path style="fill:#FCEF44;" d="M1331.207,52.436c19.495-8.339,29.305-25.911,29.82-53.344c-36.884,0-73.78,0-110.664,0
			C1250.453,35.283,1291.937,69.233,1331.207,52.436z"/>
		<path style="fill:#FCEF44;" d="M498.249,2.074c0.11,0,0.221,0,0.331,0c-0.413-1.596-0.131-1.476-1.657-1.988
			c0.221,0.552,0.442,1.104,0.663,1.657C497.807,1.853,498.028,1.963,498.249,2.074z"/>
		<path style="fill:#FCEF44;" d="M1282.171,236.985c-0.552,0.883-1.104,1.767-1.657,2.651
			C1281.682,238.762,1282.014,237.967,1282.171,236.985z"/>
		<path style="fill:#FCEF44;" d="M1376.599,348.643c-3.994,13.063,4.557,28.238,19.217,25.181
			c21.233-4.428,21.766-36.987-6.627-36.115C1383.852,340.702,1378.525,342.345,1376.599,348.643z M1383.557,355.932
			c1.767,2.871,3.534,5.743,5.301,8.615C1385.877,362.495,1384.763,359.822,1383.557,355.932z"/>
		<path style="fill:#FCEF44;" d="M1266.598,268.13c1.325-4.969,2.651-9.94,3.976-14.91c-1.53,4.509-4.135,8.932-4.639,14.247
			c0.11,0.221,0.221,0.442,0.331,0.663C1266.377,268.13,1266.488,268.13,1266.598,268.13z"/>
		<path style="fill:#FCEF44;" d="M1279.851,239.636c-0.11,0.331-0.221,0.663-0.331,0.994
			C1280.335,239.972,1279.953,240.293,1279.851,239.636z"/>
		<path style="fill:#FCEF44;" d="M653.642,92.858c0.442,0.11,0.884,0.221,1.325,0.331c0.11-0.221,0.221-0.442,0.331-0.663
			c-0.221-0.221-0.442-0.442-0.663-0.663c-0.331,0-0.663,0-0.994,0C653.642,92.195,653.642,92.526,653.642,92.858z"/>
		<path style="fill:#FCEF44;" d="M473.73,205.178c0.221,0.11,0.442,0.221,0.663,0.331c0.331,0,0.663,0,0.994,0
			c0-0.442,0-0.884,0-1.325c-0.442-0.221-0.884-0.442-1.325-0.663c-0.221,0.331-0.442,0.663-0.663,0.994
			C473.51,204.736,473.62,204.957,473.73,205.178z"/>
		<path style="fill:#FCEF44;" d="M428.67,198.551c0.221-0.11,0.442-0.221,0.663-0.331c0-0.221,0-0.442,0-0.663
			c-0.442-0.221-0.884-0.442-1.325-0.663c0,0.552,0,1.104,0,1.657C428.228,198.551,428.449,198.551,428.67,198.551z"/>
		<path style="fill:#FCEF44;" d="M1924.947,310.209c0-103.695,0-207.422,0-311.117c-2.209,0-4.418,0-6.627,0
			c0.389,11.464,4.049,24.314,1.988,37.109c-0.221,5.19-0.442,10.382-0.663,15.572c-3.764,22.529-1.719,46.413-6.627,67.26
			c-14.702,62.448-50.496,105.469-97.742,135.182c-22.016,13.846-47.31,25.469-74.549,33.795
			c-39.056,11.939-92.977,6.108-128.224-4.639c-85.115-25.952-141.553-85.753-163.676-174.61c-5.467-21.96-7.389-53.98-2.651-78.193
			c2.098-10.491,4.197-20.985,6.295-31.476c-18.332,0-36.669,0-55,0c-3.641,40.742-21.468,67.654-52.35,80.844
			c-53.374,22.798-102.749-14.659-120.272-49.036c-4.392-8.617-9.968-20.183-10.603-31.807c-5.853,0-11.708,0-17.56,0
			c0.115,11.545,4.405,22.142,7.952,30.813c13.6,33.255,35.771,53.655,69.248,66.928c11.441,4.536,36.395,12.057,53.344,6.958
			c0.11,0.11,0.221,0.221,0.331,0.331c-3.399,3.934-9.69,6.206-14.91,8.283c-20.192,8.036-41.771,7.904-62.29,0
			c-47.815-18.42-79.877-55.499-87.802-113.314c-93.425,0-186.878,0-280.303,0c1.081,5.28,2.365,10.757,3.313,16.898
			c3.9,25.244-16.685,66.942-28.826,76.537c-5.33,4.212-11.159,7.019-17.56,10.271c-17.195,8.734-45.844,10.152-61.627-1.325
			c-10.828-7.874-18.47-19.852-20.542-36.446c-3.212-25.72,30.447-50.792,55-36.446c2.926,1.709,5.071,4.811,6.958,7.621
			c1.435,2.136,2.773,4.452,3.645,7.289c1.103,3.589,0.196,9.152-0.994,11.596c-8.489,17.432-43.867-2.758-45.392,20.874
			c3.767,4.129,7.233,8.397,13.253,10.271c16.485,5.132,35.135-11.992,39.428-21.868c2.705-6.222,2.796-13.042,2.651-21.536
			c16.891-13.754,9.071-28.477,0.331-43.735c-22.418,0-44.842,0-67.26,0c-5.912,2.188-11.16,9.122-15.904,12.922
			c-20.019,16.037-35.614,49.745-46.717,74.88c-28.84,65.287-50.492,125.102-110.332,160.031
			c-23.083,13.474-64.653,22.266-100.392,14.91c-22.03-4.535-40.827-12.442-60.964-18.223c-12.779-3.669-25.699-4.912-40.091-7.289
			c-43.402-7.169-83.32,19.045-94.76,45.392c-3.443,7.929-8.245,22.331-6.295,34.458c2.125,13.216,5.133,22.463,10.603,31.807
			c4.437,7.58,8.619,14.563,14.578,20.542c19.189,19.254,34.559,12.755,55.332,0.663c11.363-6.615,43.356-18.887,63.284-15.572
			c40.123,6.673,64.495,16.503,84.157,43.404c6.062,8.294,11.255,18.316,14.578,29.157c3.75,12.232,4.056,29.67,1.325,43.073
			c-7.17,35.185-18.249,55.683-46.717,69.247c-14.307,6.817-40.079,11.388-57.32,3.976c-19.629-8.439-33.554-40.773-19.88-64.609
			c1.705-2.972,2.388-5.95,4.97-7.952c15.546-12.054,36.206,10.262,20.542,17.892c-3.383-5.284,0.785-18.547-12.59-15.904
			c-9.334,1.845-15.844,17.836-9.609,28.163c2.243,3.714,6.909,7.036,10.603,9.277c31.109,18.877,54.757-8.522,59.308-35.783
			c2.031-12.167-3.009-22.375-6.958-29.157c-16.004-27.488-50.506-43.624-89.127-26.838c-30.085,13.077-41.325,40.174-57.982,66.597
			c-15.147,24.027-34.851,44.867-62.621,56.326c-14.076,5.808-31.39,10.8-51.024,7.621c-10.182-1.649-20.862-2.021-29.82-5.301
			c-27.587-10.102-52.148-29.96-57.982-61.958c-5.516-30.252,12.801-50.112,30.814-59.639c3.589-1.898,19.221-9.951,24.85-5.633
			c0,0.11,0,0.221,0,0.331c-28.74-0.288-45.784,33.103-34.127,60.964c18.705,44.707,93.316,48.64,123.254,11.265
			c4.961-6.193,9.803-13.304,12.922-21.205c1.436-5.411,2.872-10.824,4.307-16.235c8.198-39.345-24.95-50.253-45.061-64.278
			c-10.445-7.284-20.542-17.101-27.169-28.163c-4.033-6.732-6.819-15.418-8.946-23.856c-14.063-55.797,16.244-99.466,39.097-128.555
			c19.723-25.105,49.195-41.569,85.483-50.031c8.429-1.966,16.305-1.445,25.512-2.982c9.21-1.537,23.118-1.629,32.47,0
			c34.723,6.048,80.738,17.803,119.278,7.952c13.919-3.558,23.695-10.947,34.127-17.892c17.147-11.415,34.316-24.291,46.717-40.422
			c14.573-18.956,26.454-39.759,40.422-59.639c6.736-9.276,13.475-18.555,20.211-27.832c4.086-4.859,8.173-9.719,12.259-14.578
			c0.331-0.331,0.663-0.663,0.994-0.994c-49.694-0.11-99.403-0.221-149.098-0.331c0,0.11,0,0.221,0,0.331
			c4.574,7.876,10.261,14.359,13.253,24.187c5.714,18.765-1.22,40.727-8.615,53.013c-5.057,8.401-12.167,18.165-20.542,23.193
			c-4.134,2.482-10.143,2.806-12.59-1.325c3.423-3.313,6.848-6.627,10.271-9.94c7.011-7.053,13.594-16.987,16.566-27.832
			c6.927-25.271-23.794-60.35-49.037-51.687c-12.735,4.37-28,35.737-11.596,47.049c8.358,5.763,25.542,1.673,23.856-10.271
			c-1.152-8.16-7.245-6.989-14.91-6.627c-9.315-8.616,0.27-21.219,14.578-18.554c11.261,2.097,19.286,9.135,23.193,18.554
			c9.359,22.563-11.247,37.204-24.187,43.735c-6.154,3.106-18.123,5.105-24.85,0.663c-0.221,0-0.442,0-0.663,0
			c2.372-0.895,5.014,0.658,7.621,0.994c0-0.11,0-0.221,0-0.331c-21.875-5.735-43.79-31.357-33.464-61.958
			c2.011-5.96,4.775-12.261,8.283-16.898c2.429-2.098,4.86-4.197,7.289-6.295c-90.554,0-181.135,0-271.689,0
			c1.767,2.871,3.534,5.743,5.301,8.615c3.537,5.864,6.066,13.293,7.621,20.874c7.851,38.284-26.841,75.126-54.338,80.181
			c-21.157,3.889-42.141-9.924-49.368-21.205c-5.57-8.694-4.54-21.892,3.976-26.838c4.439,2.692,7.009,7.81,11.596,10.602
			c15.994,9.735,42.128,7.597,52.35-5.964c21.085-27.975-0.056-56.366-27.832-61.296C99.537,0.923,85.503,10.939,77.794,18.64
			c-23.941,23.916-54.989,93.899-34.789,140.814c12.692,29.478,53.086,65.254,93.434,41.416c7.493-4.427,14.916-10.583,19.88-17.56
			c6.477-9.104,15.555-29.36,12.259-47.38c-1.705-9.323-6.277-16.051-7.621-24.85c2.665-6.268,14.505-10.612,23.524-6.958
			c8.416,3.409,13.496,12.758,16.235,21.868c9.663,32.133-9.119,63.536-21.868,79.519c-14.738,18.477-47.459,40.327-82.501,33.795
			c-13.201-2.461-21.099-9.047-34.458-11.265c-25.823-4.287-54.12,19.429-48.043,43.404c0.663,0.221,1.325,0.442,1.988,0.663
			c1.656-4.086,3.313-8.173,4.97-12.259c5.727-9.794,19.615-24.395,37.109-19.548c4.877,1.351,8.624,4.739,12.922,6.295
			c7.971,2.886,14.436,3.392,17.56,10.934c5.727,13.826-1.716,41.344-4.97,52.018c-11.009,36.116-31.147,64.254-57.32,85.151
			c-8.634,6.893-19.032,17.828-30.814,20.874c0,24.626,0,49.26,0,73.886c46.504-0.818,73.684,22.865,84.489,58.976
			c4.09,13.67,2.181,33.145-2.651,44.729C66.416,618.856,31.85,641.91-4.707,641.537c0,39.203,0,78.418,0,117.621
			c7.494-1.999,13.445-9.666,19.217-13.916c17.775-13.086,32.191-29.642,49.368-43.073c35.885-28.057,65.58-53.685,115.302-68.916
			c10.165-3.114,20.349-3.318,32.139-5.301c14.812-2.492,34.969-2.289,50.031,0.331c14.462,2.516,28.516,3.9,41.747,7.621
			c25.159,7.074,47.901,17.081,66.928,30.482c37.094,26.126,66.157,62.216,78.856,112.651c7.832,31.106,3.06,72.33,9.609,105.031
			c8.971,44.801,27.537,75.227,64.94,91.446c10.899,4.726,35.653,14.382,52.681,11.596c33.346-5.455,47.899-11.557,63.946-34.127
			c4.006-5.634,8.346-11.057,11.265-17.892c17.326-40.558-8.306-82.12-38.765-91.446c-41.888-12.826-82.195,33.836-55.994,67.591
			c10.393,13.39,37.994,11.815,46.386-2.319c5.539-9.329,1.494-22.198-7.621-24.187c-6.089-1.329-9.814,2.331-13.253,3.976
			c-5.458-9.244,12.908-17.217,21.868-13.584c19.963,8.094,25.504,39.128,11.596,57.651c-14.964,19.93-51.332,25.463-75.543,10.934
			c-19.395-11.639-30.177-31.165-36.115-56.326c-7.417-31.428,8.201-59.626,20.542-76.537c15.637-21.426,36.113-36.11,64.278-45.061
			c61.001-19.385,121.629,9.933,148.766,44.398c15.137,19.224,24.871,42.275,30.814,70.904
			c10.358,49.903-12.86,104.943-32.139,131.537c-6.194,8.545-12.402,18.278-20.542,24.85c-12.084,9.755-23.859,19.401-37.771,27.5
			c-10.491,4.859-20.985,9.719-31.476,14.578c0,0.331,0,0.663,0,0.994c146.211,0,292.467,0,438.678,0
			c-0.773-2.982-1.546-5.964-2.319-8.946c0-0.221,0-0.442,0-0.663c-0.442,2.982-0.884,5.964-1.325,8.946
			c-2.705-6.804,2.617-21.509,4.639-25.512c8.511-16.851,26.074-34.607,54.669-29.488c25.363,4.541,50.646,26.65,51.024,55.663
			c28.381,0,56.77,0,85.151,0c0.229-24.068,12.588-41.597,29.819-48.705c35.314-14.568,78.017,17.44,78.856,48.705
			c117.499,0,235.034,0,352.533,0c4.789-25.687,40.395-49.174,75.212-41.085c14.049,3.264,24.241,10.262,33.795,17.892
			c6.228,4.973,15.665,13.773,16.898,23.193c20.319,0,40.645,0,60.964,0c0-66.701,0-133.421,0-200.122
			c-3.676,1.278-6.934,7.061-9.277,9.94c-7.178,6.847-14.358,13.696-21.536,20.542c-20.071,16.002-41.929,29.113-68.585,38.765
			c-13.469,4.878-27.774,7.18-43.735,9.94c-31.121,5.382-68.203-0.058-92.44-7.289c-19.106-5.7-36.964-10.486-52.681-19.548
			c-47.303-27.275-79.631-68.598-102.049-120.603c-6.336-14.698-9.71-31.211-13.253-48.705c-0.994-10.601-1.988-21.206-2.982-31.807
			c0.221-20.651,0.442-41.308,0.663-61.958c-1.427-8.651-0.806-17.149-2.651-24.85c-6.407-26.741-21.086-47.004-46.386-54.669
			c-14.59-4.42-30.839,0.086-40.091,5.964c-16.531,10.503-23.278,29.439-33.133,46.717c-8.254,14.471-17.999,27.54-28.494,39.759
			c-14.439,16.81-36.408,32.826-57.982,42.079c-60.087,25.768-156.397,23.681-211.387-5.301
			c-42.774-22.544-70.999-58.001-86.145-108.344c-8.883-29.524-9.074-63.833,2.651-90.121c7.788-17.462,27.756-23.465,40.422-36.115
			c7.893-7.882,11.955-18.551,14.247-32.139c-0.331-5.632-0.663-11.266-0.994-16.898c-4.065-23.193-10.223-30.886-25.844-42.079
			c-20.65-14.796-57.906-33.333-95.754-23.856c-22.195,5.558-39.806,14.123-55.994,25.512
			c-40.717,28.645-64.053,113.739-47.711,181.899c6.873,28.664,20.592,53.054,34.127,75.543
			c12.359,20.535,22.786,41.468,35.452,61.296c24.56,38.447,56.604,78.862,92.44,106.025c6.3,4.775,11.996,11.212,18.223,16.235
			c29.557,23.841,60.667,42.31,104.699,52.018c46.564,10.266,88.045-24.72,133.194-5.633c12.886,5.448,26.724,14.525,33.795,25.844
			c3.953,6.326,4.491,16.696,10.271,21.205c11.088,8.65,24.948,14.468,36.115,22.862c12.591,9.464,21.688,23.037,33.795,32.801
			c5.522,4.749,11.045,9.498,16.566,14.247c4.969,5.522,9.94,11.045,14.91,16.566c13.495,10.758,37.374,21.844,63.946,16.566
			c21.233-4.217,39.029-11.192,53.344-22.199c3.819-2.937,16.654-20.032,18.223-20.542c1.437,12.943-9.612,24.367-15.572,31.807
			c-11.599,14.479-38.693,30.407-67.922,25.844c-6.783-1.059-13.651,0.698-19.88-0.663c-23.164-5.06-42.128-13.155-59.639-23.856
			c-13.548-8.279-24.19-19.611-37.109-28.163c-20.801-13.77-42.418-23.373-71.235-29.82c-15.871-3.55-42.9-7.299-61.958-4.307
			c-3.313,0-6.627,0-9.94,0c-14.908,0.442-29.821,0.883-44.729,1.325c-8.062-0.552-16.125-1.104-24.187-1.657
			c-13.143-2.308-25.847-4.037-37.771-7.621c-17.249-5.184-36.478-11.002-50.031-20.542c-4.694-3.304-9.449-8.301-14.247-11.265
			c-2.43-0.773-4.86-1.546-7.289-2.319c-10.686-6.327-19.003-16.875-28.494-24.518c-16.474-13.267-31.574-28.048-49.036-40.422
			c-29.142-20.65-62.727-34.74-94.428-53.344c-44.615-26.183-85.689-58.198-107.35-107.35c-9.31-21.125-18.542-42.782-24.85-66.928
			c-2.209-12.7-4.418-25.403-6.627-38.103c-7.303-38.706-4.279-91.758,5.301-124.579c3.405-11.664,5.325-23.935,9.609-34.789
			c25.341-64.217,69.988-118.546,132.862-145.122c16.985-7.179,36.536-11.036,56.657-15.241c12.464-2.605,24.479-3.421,35.783-6.958
			c42.68-13.355,82.458-37.419,106.688-69.579c23.172-30.756,25.718-76.844-7.621-99.067c-23.162-15.439-63.919-10.405-79.187,8.283
			c-14.57,17.833-13.493,47.945,11.596,54.006c25.577,6.18,47.423-27.305,21.868-37.109c-3.697,0.097-4.643,1.899-5.633,4.639
			c1.31,2.933,2.996,4.778,2.982,8.946c-0.552,0.663-1.104,1.325-1.657,1.988c-3.041,0.797-4.991,0.233-7.621-0.663
			c-9.128-12.85,7.196-26.931,21.868-19.548c22.868,11.507,19.655,41.758,5.964,60.964c-10.019,14.055-37.975,20.131-58.976,11.596
			c-20.536-8.346-34.896-27.053-39.428-51.356c-3.814-20.454,2.681-42.006,8.283-56.326c4.63-11.836,9.074-23.408,16.235-32.801
			c18.633-24.444,64.485-48.936,111.326-37.109c41.677,10.524,70.657,35.024,86.477,71.236c16.579,37.95,13.163,88.78-6.295,121.266
			c-11.322,18.903-36.617,46.433-34.458,76.537c1.936,26.993,12.132,48.884,29.488,63.284c5.853,5.632,11.707,11.266,17.56,16.898
			c10.843,14.448,17.668,34.813,20.542,55.994c0.968,7.134-0.235,15.45-1.325,21.205c-1.494,7.89-2.184,14.735-4.97,21.205
			c-4.63,10.752-12.785,17.42-19.548,25.844c-7.929,9.876-15.632,19.043-21.536,31.145c-7.428,15.225-10.622,43.946-0.994,59.639
			c5.097,8.308,11.149,15.867,18.223,22.199c30.402,27.213,103.759,30.442,145.784,11.928c19.456-8.571,32.991-24.044,47.049-38.103
			c3.203-3.423,6.406-6.848,9.608-10.271c23.311-18.768,40.52-35.03,73.224-45.392c14.294-4.529,35.617-10.592,55.332-7.289
			c8.282,1.215,16.567,2.43,24.849,3.645c51.633,13.531,85.858,43.405,101.386,93.103c4.892,15.658,5.967,33.441,5.964,54.006
			c0,5.522,0,11.045,0,16.566c-2.246,13.489-1.497,32.009,0.994,44.398c11.914,59.243,45.625,104.843,95.091,126.567
			c14.597,6.411,42.001,15.448,64.94,11.265c47.417-8.646,83.479-43.245,104.7-78.193c11.265-18.552,23.177-37.071,38.103-52.018
			c4.026-4.032,10.953-12.539,17.229-13.584c0-36.442,0-72.896,0-109.338c-7.929,1.874-20.485,7.745-31.476,3.645
			c-7.376-2.752-15.522-5.784-21.205-10.271c-14.963-11.817-26.338-44.842-15.904-69.579c10.578-25.077,32.916-37.058,68.585-36.446
			c0-27.497,0-55.003,0-82.501c-5.964,0.736-11.177,5.102-16.235,7.289c-12.037,4.638-24.078,9.278-36.115,13.916
			c-34.286,13.288-71.399,19.98-111.658,27.169c-13.441,2.4-27.011,0.455-41.747,2.319c-5.08,0-10.161,0-15.241,0
			c-5.19,0-10.382,0-15.572,0c-14.025-1.215-28.054-2.43-42.079-3.645c-37.554-6.89-73.293-13.009-108.013-21.536
			c-17.875-4.39-36.569-5.066-55.663-8.283c-11.749-1.98-29.152-1.847-40.753,0c-13.252,1.104-26.508,2.209-39.759,3.313
			c-34.27,5.542-73.336-4.233-92.772-16.235c-24.092-14.878-39.946-39.696-47.38-71.235c-1.104-9.387-2.209-18.776-3.313-28.163
			c-1.187-7.226,0.169-16.845,1.325-22.862c4.36-22.679,7.971-42.852,23.524-53.013c2.54-2.098,5.081-4.197,7.621-6.295
			c8.609-5.193,21.276-2.269,27.832,2.651c1.977,8.663-7.198,23.622-10.603,30.813c-13.697,28.936-25.643,82.288-6.295,114.308
			c4.566,7.557,12.554,18.18,23.856,18.554c0.11-0.11,0.221-0.221,0.331-0.331c-0.555-5.087-4.456-8.266-6.295-12.259
			c-2.869-6.227-4.763-13.231-6.295-20.542c-8.697-41.503,16.064-83.256,47.711-89.459c13.624-2.67,25.845,3.315,33.795,7.952
			c11.581,6.753,21.919,13.036,32.139,20.874c7.73,6.736,15.463,13.475,23.193,20.211c21.262,16.533,39.978,34.464,63.284,49.368
			c29.605,18.931,69.624,26.297,110.001,34.127c21.298,4.13,56.011,3.887,77.531,0.331c11.525-1.904,21.741-1.791,32.47-4.307
			c48.918-11.473,91.173-28.841,128.886-51.687c13.141-8.282,26.287-16.567,39.428-24.85
			C1909.705,320.37,1917.327,315.289,1924.947,310.209z M300.777,57.074c3.25-10.676,10.265-13.012,20.211-17.229
			c35-0.639,37.072,44.7,8.946,50.031C312.119,93.252,295.541,74.278,300.777,57.074z M93.697,31.893
			c1.907-6.43,6.29-8.804,11.928-11.596c19.562-0.589,23.238,27.18,5.964,31.476C99.547,54.768,90.349,43.183,93.697,31.893z
			 M201.048,547.108c1.436,0.221,2.872,0.442,4.307,0.663C204.121,548.259,202.156,547.756,201.048,547.108z M557.225,688.585
			c-11.592,13.839-33.901,7.619-42.079-4.97c-2.548-3.923-3.831-10.945-4.307-16.566c-0.331,0.221-0.663,0.442-0.994,0.663
			c-0.224-18.825,10.898-21.713,24.187-27.169C562.336,640.062,573.777,668.824,557.225,688.585z M568.159,470.24
			c-1.546,8.061-3.093,16.125-4.639,24.187c-11.181,35.846-35.33,54.394-73.223,63.284c-20.921,4.908-40.668-3.4-57.32-4.639
			c5.669-2.361,20.468,1.816,28.494,0.331c14.44-2.672,25.485-6.102,35.783-12.59c17.671-11.134,28.907-26.679,39.759-44.729
			c1.299-2.16,9.438-11.306,9.609-12.259c0.051-0.286-2.052-3.157-1.325-6.295c4.518-19.519,6.212-45.392,0-64.94
			c-6.536-20.566-17.831-37.864-28.163-55.332c-2.319-3.534-4.639-7.069-6.958-10.603c2.209,0.994,4.418,1.988,6.627,2.982
			c0,0.442,0,0.884,0,1.325c-0.552-0.331-1.104-0.663-1.657-0.994c-0.11,0.11-0.221,0.221-0.331,0.331
			c2.194,3.601,4.465,1.89,8.283,3.976c3.644,2.65,7.29,5.302,10.934,7.952c13.52,10.395,23.734,24.227,30.482,41.416
			C571.541,421.542,572.602,448.723,568.159,470.24z M1609.191,1014.943c2.714-13.579,9.797-17.389,21.205-22.53
			c34.831-0.624,39.508,45.351,8.946,53.344C1622.082,1050.271,1605.873,1031.543,1609.191,1014.943z M1535.305,974.853
			c-12.199,23.948-46.326,51.142-87.139,43.404c-37.329-7.077-58.932-31.712-78.525-56.657
			c-7.545-9.606-16.392-18.483-22.862-29.157c-4.086-7.73-8.173-15.463-12.259-23.193c-4.638-5.963-9.278-11.928-13.916-17.892
			c-10.641-13.274-27.389-21.994-46.386-26.838c-6.515-1.325-13.033-2.651-19.548-3.976c-2.54-0.221-5.081-0.442-7.62-0.663
			c-0.331-0.221-0.663-0.442-0.994-0.663c11.881-8.618,32.142-12.705,48.705-15.904c7.178-0.773,14.358-1.546,21.536-2.319
			c56.316-0.173,94.02,19.579,110.995,58.314c11.924,27.211,10.532,69.904,41.416,78.525c24.369,6.802,53.526-14.786,45.723-40.753
			c-2.09-6.955-8.876-13.929-15.904-15.904c-11.457-3.219-26.288,4.158-22.862,15.904c0.552,0.552,1.104,1.104,1.657,1.657
			c2.913,0.982,6.238-1.414,8.946,0c2.23,0.996,3.818,3.246,4.307,5.964c-0.778,1.563-1.356,2.577-2.982,3.313
			c-13.898,5.854-24.342-18.487-16.898-30.813c13.426-22.23,46.688-15.111,59.97,1.988
			C1540.865,932.317,1544.169,957.451,1535.305,974.853z M838.191,963.587c7.109-17.207,20.995-27.772,40.091-33.133
			c4.859-0.773,9.719-1.546,14.578-2.319c33.256-0.145,55.336,19.693,64.94,43.404c3.354,8.279,5.268,21.322,3.313,32.47
			c-5.658,32.274-21.138,53.848-53.344,59.308c-13.014,2.206-26.371-2.382-34.127-6.958
			C847.825,1041.125,821.288,1004.499,838.191,963.587z M755.359,219.425c-13.007,2.372-26.801-14.121-22.862-27.5
			c3.141-10.668,9.279-14.146,18.886-18.554C786.623,172.629,784.313,214.145,755.359,219.425z M1765.247,642.531
			c2.982-0.442,5.964-0.883,8.946-1.325c36.395-0.171,53.87,12.734,65.934,36.446c3.918,7.701,9.578,20.664,7.621,33.133
			c-1.2,7.643-4.3,11.596-5.633,19.217c-0.221,0.11-0.442,0.221-0.663,0.331c0.211-26.318-10.089-45.946-26.506-55.663
			c-21.948-12.992-48.988-1.724-58.645,14.247c-12.822,21.205-1.603,45.781,18.554,50.693c18.307,4.461,37.483-7.844,32.139-26.506
			c-1.32-3.055-7.066-4.953-10.603-2.651c-2.998,2.631-2.5,7.278-6.958,9.94c-13.935-0.102-10.378-16.759-5.301-23.524
			c9.004-12,28.768-2.091,34.789,5.633c15.216,19.52,7.787,39.861-4.307,56.326c-3.801,5.174-7.957,10.641-14.578,12.922
			c-8.333,2.87-20.034,1.546-28.826,0.663c0-0.11,0-0.221,0-0.331c0.994-0.11,1.988-0.221,2.982-0.331
			c-1.63-2.411-14.746-5.094-18.223-6.627c-8.064-3.555-18.235-11.874-23.524-18.554c-5.2-6.568-10.975-13.952-14.247-22.199
			c-13.228-33.339,8.432-67.027,30.482-76.537C1754.202,646.065,1759.725,644.298,1765.247,642.531z M1693.348,555.06
			c2.53-8.48,8.051-10.915,15.904-14.247c29.351-0.687,32.682,37.225,7.952,42.079
			C1702.252,585.826,1688.857,570.115,1693.348,555.06z"/>
		<path style="fill:#FCEF44;" d="M1439.551,376.806c0.331-0.442,0.663-0.884,0.994-1.325c0-0.552,0-1.104,0-1.657
			c-1.436-0.11-2.872-0.221-4.307-0.331c-0.084,1.527,0.964,2.041,1.988,3.313C1438.668,376.806,1439.11,376.806,1439.551,376.806z"
			/>
		<path style="fill:#FCEF44;" d="M1868.952,388.734c-0.552-0.221-1.104-0.442-1.656-0.663c0.331,0.442,0.663,0.884,0.994,1.325
			C1868.51,389.175,1868.731,388.954,1868.952,388.734z"/>
		<path style="fill:#FCEF44;" d="M1595.938,813.827c0-0.552,0-1.104,0-1.657c-0.663-0.221-1.325-0.442-1.988-0.663
			c0,0.552,0,1.104,0,1.657C1594.613,813.385,1595.275,813.606,1595.938,813.827z"/>
		<path style="fill:#FCEF44;" d="M1349.099,967.232c0-0.11,0-0.221,0-0.331c-0.994-0.331-1.988-0.663-2.982-0.994
			C1346.029,967.524,1347.094,967.166,1349.099,967.232z"/>
		<path style="fill:#FCEF44;" d="M855.089,765.122c47.682-3.999,43.091-72.685-5.301-71.898c-2.982,0.663-5.964,1.325-8.946,1.988
			c-10.443,4.087-18.288,11.284-22.53,21.536C807.923,741.855,829.934,767.232,855.089,765.122z"/>
		<path style="fill:#FCEF44;" d="M770.6,513.975c0.221-0.221,0.442-0.442,0.663-0.663c-0.221-0.221-0.442-0.442-0.663-0.663
			c-0.11,0.442-0.221,0.884-0.331,1.325C770.379,513.975,770.49,513.975,770.6,513.975z"/>
		<path style="fill:#FCEF44;" d="M710.961,874.46c0-0.11,0-0.221,0-0.331c-0.442-0.331-0.884-0.663-1.325-0.994
			c-0.18,1.31-0.253,1.08,0.663,1.988C710.519,874.902,710.74,874.681,710.961,874.46z"/>
		<path style="fill:#FCEF44;" d="M694.064,853.587c0,0.331,0,0.663,0,0.994c0.221,0,0.442,0,0.663,0
			C694.298,853.591,694.74,854.183,694.064,853.587z"/>
		<path style="fill:#FCEF44;" d="M33.727,321.143c0-0.11,0-0.221,0-0.331c-0.663-0.11-1.325-0.221-1.988-0.331
			c-0.11,0.442-0.221,0.884-0.331,1.325c0.11,0.221,0.221,0.442,0.331,0.663c0.331,0.11,0.663,0.221,0.994,0.331
			C33.352,322.049,33.351,322.348,33.727,321.143z"/>
		<path style="fill:#FCEF44;" d="M978.674,173.702c0-0.552,0-1.104,0-1.657c2.736-0.651,4.063,0.786,6.627,1.325
			c-2.389-2.439-7.779-3.449-11.596-4.307c0.727,1.886,2.291,3.342,3.645,4.639C977.791,173.702,978.232,173.702,978.674,173.702z"
			/>
		<path style="fill:#FCEF44;" d="M986.626,174.364c-0.11,0.221-0.221,0.442-0.331,0.663c1.325,0.442,2.651,0.884,3.976,1.325
			c0-0.11,0-0.221,0-0.331C989.056,175.469,987.841,174.917,986.626,174.364z"/>
		<path style="fill:#FCEF44;" d="M940.903,58.731c-0.11-0.221-0.221-0.442-0.331-0.663c-0.11,0.221-0.221,0.442-0.331,0.663
			C940.461,58.731,940.682,58.731,940.903,58.731z"/>
		<path style="fill:#FCEF44;" d="M1023.072,296.624c-3.004,9.586,6.886,20.007,15.904,18.554
			c20.167-3.248,20.525-30.909-2.982-30.151C1029.826,288.324,1025.306,289.494,1023.072,296.624z M1044.608,305.239
			c0.221,0,0.442,0,0.663,0c-0.331,0.331-0.663,0.663-0.994,0.994C1044.388,305.902,1044.498,305.57,1044.608,305.239z"/>
		<path style="fill:#FCEF44;" d="M1408.406,947.684c0.11,0.11,0.221,0.221,0.331,0.331c0.442,0,0.884,0,1.325,0
			c0.11-0.11,0.221-0.221,0.331-0.331c0-0.331,0-0.663,0-0.994c-0.663-0.221-1.325-0.442-1.988-0.663
			C1408.406,946.579,1408.406,947.131,1408.406,947.684z"/>
		<path style="fill:#FCEF44;" d="M497.917,406.294c0.11,0.442,0.221,0.884,0.331,1.325c0.11,0,0.221,0,0.331,0
			C498.26,406.418,498.602,406.944,497.917,406.294z"/>
		<path style="fill:#FCEF44;" d="M506.201,512.319c0.221-0.221,0.442-0.442,0.663-0.663c-0.159-2.431-1.036-3.415-2.651-4.307
			c-0.442,0.663-0.884,1.325-1.325,1.988c0.771,0.886,0.301,0.842,1.657,1.325C505.096,511.214,505.648,511.767,506.201,512.319z"/>
		<path style="fill:#FCEF44;" d="M435.296,474.216c0.11,0,0.221,0,0.331,0c-0.842-4.268-4.76-5.419-9.609-5.633
			C426.02,470.662,433.437,470.648,435.296,474.216z"/>
		<path style="fill:#FCEF44;" d="M1845.428,702.501c-0.442-0.221-0.884-0.442-1.325-0.663c-0.11,0.221-0.221,0.442-0.331,0.663
			c0.331,0.221,0.663,0.442,0.994,0.663C1844.986,702.943,1845.207,702.722,1845.428,702.501z"/>
		<path style="fill:#FCEF44;" d="M1891.814,529.879c-8.104,11.248-4.247,30.17,4.97,37.109c10.343,7.786,16.185,3.999,28.163,2.651
			c0-16.786,0-33.576,0-50.362C1909.603,518.552,1898.274,520.912,1891.814,529.879z M1914.013,561.355
			c-12.204,2.779-18.28-11.76-12.922-20.542c1.883-3.087,4.947-4.579,8.283-6.295
			C1927.702,533.892,1928.324,558.097,1914.013,561.355z"/>
		<path style="fill:#FCEF44;" d="M408.128,486.144c0,0.11,0,0.221,0,0.331c0.221,0.11,0.442,0.221,0.663,0.331
			c0.883-2.761,1.767-5.522,2.651-8.283c-0.442,0.221-0.884,0.442-1.325,0.663C409.453,481.505,408.79,483.825,408.128,486.144z"/>
		<path style="fill:#FCEF44;" d="M1328.225,1052.383c-21.574-6.591-41.038,9.427-41.747,28.163c24.184,0,48.376,0,72.561,0
			c0.11-0.221,0.221-0.442,0.331-0.663C1354.158,1066.976,1342.037,1056.603,1328.225,1052.383z"/>
		<path style="fill:#FCEF44;" d="M509.514,507.349c0.11,0.442,0.221,0.884,0.331,1.325c0.221,0.11,0.442,0.221,0.663,0.331
			C510.199,507.507,510.554,508.03,509.514,507.349z"/>
		<path style="fill:#FCEF44;" d="M1113.193,1059.672c2.8,1.655,10.092-0.1,14.91,0.663c12.448,1.97,19.844,6.083,19.88,20.211
			c1.546,0,3.093,0,4.639,0c0.211-6.504,3.265-12.882,0-18.223C1146.307,1051.992,1121.448,1048.73,1113.193,1059.672z"/>
		<path style="fill:#FCEF44;" d="M1793.409,1068.618c-9.343,3.913-16.577,4.045-22.199,11.265
			c3.357,1.818,11.592,0.663,16.235,0.663c13.031,0,26.066,0,39.097,0c0.11-0.221,0.221-0.442,0.331-0.663
			C1819.771,1072.514,1808.125,1068.264,1793.409,1068.618z"/>
		<path style="fill:#FCEF44;" d="M526.412,359.245c0-0.11,0-0.221,0-0.331c-0.442-0.331-0.884-0.663-1.325-0.994
			C525.6,359.307,525.019,358.736,526.412,359.245z"/>
		<path style="fill:#FCEF44;" d="M895.18,1010.967c32.357-3.965,31.448-48.692-2.651-48.043
			c-9.974,3.884-16.339,6.214-19.548,16.566C867.897,995.89,878.878,1012.965,895.18,1010.967z"/>
		<path style="fill:#FCEF44;" d="M230.867,240.63c0.11-0.442,0.221-0.884,0.331-1.325c-0.442-0.221-0.884-0.442-1.325-0.663
			c-0.221,0.331-0.442,0.663-0.663,0.994C229.893,240.36,229.658,240.279,230.867,240.63z"/>
		<path style="fill:#FCEF44;" d="M311.711,170.057c-0.11-0.221-0.221-0.442-0.331-0.663c-0.11,0.221-0.221,0.442-0.331,0.663
			C311.269,170.057,311.49,170.057,311.711,170.057z"/>
		<path style="fill:#FCEF44;" d="M320.988,209.816c0.11,0.221,0.221,0.442,0.331,0.663c0.331,0.11,0.663,0.221,0.994,0.331
			c-0.195-1.621-0.073-1.24-0.994-1.988C321.209,209.154,321.099,209.485,320.988,209.816z"/>
		<path style="fill:#FCEF44;" d="M920.692,986.78c0.11,0,0.221,0,0.331,0c2.719-13.945-12.021-26.402-25.512-26.175
			c2.871,0.773,5.743,1.546,8.615,2.319C912.709,966.53,920.591,974.86,920.692,986.78z"/>
		<path style="fill:#FCEF44;" d="M860.059,1041.781c0.11,0,0.221,0,0.331,0c-0.687-1.807-2.543-3.266-4.307-3.976
			c1.215,1.104,2.43,2.209,3.645,3.313C859.838,1041.339,859.948,1041.56,860.059,1041.781z"/>
		<path style="fill:#FCEF44;" d="M306.741,170.057c0.663,0.442,1.325,0.884,1.988,1.325c0.057-0.133-1.583-5.92-1.657-5.964
			C306.496,166.7,306.659,167.801,306.741,170.057z"/>
		<path style="fill:#FCEF44;" d="M1404.762,929.129c0.331-0.11,0.663-0.221,0.994-0.331c0-0.442,0-0.884,0-1.325
			c-0.552-0.11-1.104-0.221-1.657-0.331C1403.919,928.452,1403.846,928.222,1404.762,929.129z"/>
		<path style="fill:#FCEF44;" d="M263.006,268.793c0.221,0.331,0.442,0.663,0.663,0.994c1.377-0.435,1.05-0.171,1.657-1.325
			c-0.442-0.331-0.884-0.663-1.325-0.994c-0.331,0.331-0.663,0.663-0.994,0.994C263.006,268.572,263.006,268.682,263.006,268.793z"
			/>
		<path style="fill:#FCEF44;" d="M1122.47,1061.992c-0.442,0-0.884,0-1.325,0c0.442,0.11,0.884,0.221,1.325,0.331
			C1122.47,1062.213,1122.47,1062.102,1122.47,1061.992z"/>
	</g>
</g>
</svg>
