<svg xmlns="http://www.w3.org/2000/svg" viewBox="0 0 48 48" id="Penguin">
  <g fill="#fe9526" class="color000000 svgShape">
    <path fill="#595bd4" d="M39.70312,27.85254a34.01011,34.01011,0,0,1-9.262-6.24054,1.55562,1.55562,0,0,0,.04865-.41766,6.52459,6.52459,0,0,0-.32715-1.55616c-.07666-.26318-.15723-.53857-.22559-.82275a1.80523,1.80523,0,0,0-.39966-.76862A6.45092,6.45092,0,0,0,30.5,14.66016a6.54244,6.54244,0,0,0-.06573-.8761c-.00074-.01044.00268-.02021.00128-.03064-.0036-.0268-.01313-.05194-.017-.07868a6.45275,6.45275,0,0,0-.18817-.87c-.01239-.04187-.02961-.08191-.04291-.12348a6.389,6.389,0,0,0-.28272-.72259c-.02691-.05835-.05139-.11725-.0802-.17487a6.39391,6.39391,0,0,0-.4414-.75158c-.02918-.04279-.06031-.084-.09058-.12622q-.15472-.2159-.32745-.42a1.76925,1.76925,0,0,0,.06372-1.571,7.69729,7.69729,0,0,0-.45264-.8335,1.76428,1.76428,0,0,0-1.21142-.82763c-.26587-.04462-.515-.0669-.77192-.0998a9.64428,9.64428,0,0,0-6.365-2.13189A2.31528,2.31528,0,1,0,17.353,8.0293,11.84737,11.84737,0,0,0,17.42926,9.722a1.64826,1.64826,0,0,0-.34869.54755,3.27136,3.27136,0,0,0-.10645,1.79785,1.73994,1.73994,0,0,0,.72968,1.07007,5.30673,5.30673,0,0,0-.13837.60913l-.00049.007-.001.00427.00025.00543a6.25151,6.25151,0,0,0-.06421.89692,6.45858,6.45858,0,0,0,.47375,2.42431,1.72741,1.72741,0,0,0-.53283.75244c-.189.51368-.42383.999-.65088,1.46875-.14453.29786-.28027.57911-.38721.83155a1.68655,1.68655,0,0,0-.1272.73675A33.52113,33.52113,0,0,1,5.66211,25.33643a1.074,1.074,0,0,0-.80762.96435,1.05126,1.05126,0,0,0,.63184,1.05567A22.72979,22.72979,0,0,0,12.76,29.06866a13.05952,13.05952,0,0,0-.34979,2.59,11.94653,11.94653,0,0,0,1.8977,7.233,1.33547,1.33547,0,0,0-.88061.19129c-.12549.07666-.51075.38232-.20752,1.09717a6.54252,6.54252,0,0,0,5.37744,3.26416,5.10816,5.10816,0,0,0,1.28271-.16407,3.18411,3.18411,0,0,0,.6875-.27087c.08332.02142.1684.04224.28418.06482.10987.02588.21289.05029.28711.063a6.16852,6.16852,0,0,0,.64209.10791l.20264.03125c.30957.03515.50293.04394.5166.0459A10.1919,10.1919,0,0,0,24.47363,43.5c.29059,0,.6084-.01587.93848-.043.68573.83075,1.97943,1.99518,2.647,1.99518a.46965.46965,0,0,0,.1001-.01026,1.2125,1.2125,0,0,0,.84766-.75488.89.89,0,0,0,.083-.187,7.55949,7.55949,0,0,1,1.73536.50488.47963.47963,0,0,0,.24951.03076.89477.89477,0,0,0,.63867-.35839,1.4638,1.4638,0,0,0,.09424-1.17237c-.00879-.042-.01856-.09179-.02735-.14062.06055.00928.12452.02148.1709.03027A1.77517,1.77517,0,0,0,33.169,43.3042a.59544.59544,0,0,0,.32519-.563c-.02954-.65472-1.23315-1.45038-2.28644-1.96918a8.22542,8.22542,0,0,0,.58136-.66021,13.30332,13.30332,0,0,0,2.251-7.83155,13.64441,13.64441,0,0,0-.12348-1.999c.33545.01544.67042.03754,1.00532.03754a22.56073,22.56073,0,0,0,4.54833-.44092,1.06254,1.06254,0,0,0,.82764-.91357A1.08541,1.08541,0,0,0,39.70312,27.85254ZM26.16675,24.35492c.43994,1.09985.79907,2.07788,1.088,2.96143l-2.15564.46636a.323.323,0,0,1-.38183-.24414l-.65821-2.88037A9.06812,9.06812,0,0,0,26.16675,24.35492Zm.95123-.31323a11.32849,11.32849,0,0,0,2.28937-1.2041,19.36385,19.36385,0,0,1,2.06726,6.24786.20911.20911,0,0,1-.12109.2041L29.29,30.28076a.20728.20728,0,0,1-.19092-.00146.20042.20042,0,0,1-.10547-.15918,20.17574,20.17574,0,0,0-.63623-2.64844C28.04254,26.46118,27.63165,25.32849,27.118,24.04169ZM18.5,14.66016a5.29216,5.29216,0,0,1,.04932-.68354,5.8898,5.8898,0,0,1,.35949-.54559,1.69821,1.69821,0,0,0,.55213-.15857,16.63044,16.63044,0,0,1,3.25219-1.20532,3.34563,3.34563,0,0,1,.91285.73511.50042.50042,0,0,0,.748,0,2.59871,2.59871,0,0,1,2.26465-1.03809,4.04362,4.04362,0,0,1,2.79346,2.18292,5.49359,5.49359,0,0,1,.06787.71308,5.5,5.5,0,0,1-11,0Zm9.74182-3.45295c.043.05231.085.10505.12592.15876-.07-.04413-.14106-.08332-.2121-.123C28.184,11.23016,28.21417,11.22156,28.24182,11.20721Zm-.51916-2.60467a6.70742,6.70742,0,0,1,.39453.72412.78026.78026,0,0,1-.05078.73877.714.714,0,0,1-.5962.33984,19.33325,19.33325,0,0,0-8.45947,1.97461.7197.7197,0,0,1-.64013.002.75631.75631,0,0,1-.41895-.52539,2.255,2.255,0,0,1,.07227-1.25586l.00048-.001a.72242.72242,0,0,1,.2168-.29443,9.24527,9.24527,0,0,1,6.33936-2.30079,15.8529,15.8529,0,0,1,2.61865.23584A.77738.77738,0,0,1,27.72266,8.60254ZM24.52325,7.00336A10.11456,10.11456,0,0,0,18.3689,8.947,3.93722,3.93722,0,0,1,18.84521,6.269a7.097,7.097,0,0,1,1.05127-.21411c.00538-.00049.0102.00189.01563.00122.01208-.00152.02142-.00879.0332-.01111A7.62187,7.62187,0,0,1,24.52325,7.00336Zm-7.783-1.18354A1.3216,1.3216,0,0,1,18.06006,4.5a1.30643,1.30643,0,0,1,1.13483.65753c-.24378.04926-.48987.10846-.73932.18378a.4971.4971,0,0,0-.16211.08349,2.5658,2.5658,0,0,0-.821,1.57984A1.3067,1.3067,0,0,1,16.74023,5.81982Zm.57959,14.71534c.1045-.24561.23389-.51172.37012-.794.22656-.46826.4834-.999.6919-1.56543a.73627.73627,0,0,1,.07934-.13135A6.47824,6.47824,0,0,0,28.905,18.912a.82666.82666,0,0,1,.05939.13537c.07275.30274.15722.59326.23828.8711a5.82533,5.82533,0,0,1,.28759,1.3042.71578.71578,0,0,1-.32275.57177,10.77386,10.77386,0,0,1-2.23419,1.25116.4826.4826,0,0,0-.11035.0423c-.15241.05982-.30463.12091-.45771.17151a.47426.47426,0,0,0-.09375.01794c-.00946.00385-.01544.012-.02453.0163a8.06316,8.06316,0,0,1-2.68537.38013.47411.47411,0,0,0-.1784-.01325,9.57942,9.57942,0,0,1-3.29028-.80761c-.009-.00428-.01478-.01221-.024-.016-.00885-.0036-.01807-.00207-.027-.00512a14.891,14.891,0,0,1-2.47253-1.38648A.74066.74066,0,0,1,17.31982,20.53516ZM5.85107,26.37842a.08149.08149,0,0,1,.06885-.07569,38.43558,38.43558,0,0,0,9.55744-3.73211,25.02043,25.02043,0,0,0-2.45478,5.5039A20.80033,20.80033,0,0,1,5.85107,26.37842ZM19.62891,42.3125A4.84178,4.84178,0,0,1,15.708,41.457a5.00261,5.00261,0,0,1-1.52881-1.58057,1.61681,1.61681,0,0,1,.28125.05811,1.27491,1.27491,0,0,0,1.06006-.06689.714.714,0,0,0,.1004-.09577.49515.49515,0,0,0,.07849-.07483,1.88181,1.88181,0,0,0,.30011-1.16925c.00391-.105.00781-.21142.01514-.31592v-.00048a.25759.25759,0,0,1,.13037-.207.24715.24715,0,0,1,.24121-.00634,3.21489,3.21489,0,0,0,1.44629.47216c.58154,0,.86523-.5039,1.07227-.87158a3.31824,3.31824,0,0,1,.21728-.34863c.5332.481,1.8457,2.44678,1.689,3.84912A1.35819,1.35819,0,0,1,19.62891,42.3125Zm11.52343.15234c-.52.26612-.39843.87354-.32519,1.23633.01367.0708.0332.16651.04541.25147A6.69912,6.69912,0,0,0,29.08984,43.5a1.09172,1.09172,0,0,0-.97412.73291,1.42252,1.42252,0,0,1-.10888.188A6.63668,6.63668,0,0,1,26.596,43.28564a8.60176,8.60176,0,0,0,3.82788-1.77655,8.31938,8.31938,0,0,1,1.54785.87275A1.30179,1.30179,0,0,0,31.15234,42.46484Zm-.17187-2.94629c-2.95313,3.918-8.23047,2.83545-8.36475,2.812-.0083-.00049-.1958-.01075-.52881-.04981l-.17822-.02734c-.11871-.0138-.27643-.04218-.43494-.07282a2.99937,2.99937,0,0,0,.2118-2.33734c-.34619-1.37256-1.78907-3.87744-2.71338-3.647a1.6071,1.6071,0,0,0-.93848.91162c-.07031.125-.18848.33447-.20117.3623A2.75089,2.75089,0,0,1,16.833,37.103a1.25733,1.25733,0,0,0-1.81543,1.03759v.00007a11.09873,11.09873,0,0,1-1.60742-6.45954c.07708-3.38293,1.85809-6.9436,3.48486-9.5188.04089.03376.06781.08008.1123.11011a16.08875,16.08875,0,0,0,2.235,1.28668A29.82819,29.82819,0,0,0,16.93262,35.1626a.49963.49963,0,0,0,.499.48144l.019-.00049a.49984.49984,0,0,0,.481-.51806,28.8103,28.8103,0,0,1,2.23041-11.1731,10.56848,10.56848,0,0,0,2.86578.68054l.71485,3.12781A1.32478,1.32478,0,0,0,25.02832,28.791a1.29762,1.29762,0,0,0,.28711-.03223l2.22638-.482a18.423,18.423,0,0,1,.46356,1.99518,1.191,1.191,0,0,0,.627.8916,1.21154,1.21154,0,0,0,1.09375.01709l1.3584-.65264a22.30052,22.30052,0,0,1,.51709,4.24835.5.5,0,0,0,.5.49072h.00928a.50011.50011,0,0,0,.49072-.50928,23.4954,23.4954,0,0,0-.59863-4.71618,1.17574,1.17574,0,0,0,.46436-1.07483,13.44731,13.44731,0,0,0-.32074-1.76258A13.9647,13.9647,0,0,1,33.04,32.25879,12.32423,12.32423,0,0,1,30.98047,39.51855Zm8.271-10.61669a22.13737,22.13737,0,0,1-5.49487.38012,18.33752,18.33752,0,0,0-1.82068-5.00708,42.41741,42.41741,0,0,0,7.317,4.47022C39.26807,28.75293,39.31348,28.77637,39.25146,28.90186Z" class="color4d4d4d svgShape"></path>
    <path fill="#595bd4" d="M22.78711,18.90674a2.006,2.006,0,0,0,2.42578,0c1.9209-1.39649,2.167-2.02588,2.167-2.418,0-.47559-.30371-1.15918-2.93164-1.59717a2.65681,2.65681,0,0,0-.89648,0c-2.62793.438-2.93164,1.12158-2.93164,1.59717C20.62012,16.88086,20.86621,17.51025,22.78711,18.90674Zm.92871-3.02881a1.69935,1.69935,0,0,1,.56836,0,7.35618,7.35618,0,0,1,2.09766.58789c-.03467.14795-.44678.6792-1.75684,1.63232a1.00928,1.00928,0,0,1-1.25,0,9.46732,9.46732,0,0,1-1.77148-1.53808A4.47,4.47,0,0,1,23.71582,15.87793Z" class="color4d4d4d svgShape"></path>
    <circle cx="21.768" cy="13.821" r="1" fill="#595bd4" class="color4d4d4d svgShape"></circle>
    <circle cx="26.232" cy="13.821" r="1" fill="#595bd4" class="color4d4d4d svgShape"></circle>
  </g>
</svg>
