<svg xmlns="http://www.w3.org/2000/svg" viewBox="0 0 128 128" id="Pocket-monster">
  <path d="M55.86 123.79a4.63 4.63 0 0 0 1.39.21c2.83 0 5.71-2.38 7.11-4l15.14-17.42a2 2 0 1 0-3-2.62l-15.15 17.42c-1.49 1.71-3.56 2.83-4.29 2.59a4.18 4.18 0 0 1-3-4.48c1.09-8.65 7.44-24.6 7.5-24.76a2 2 0 0 0-3.71-1.49c-.27.67-6.61 16.58-7.76 25.74a8.11 8.11 0 0 0 5.77 8.81zM42 61.9a2 2 0 0 0-4 .19l.15 3.15a2 2 0 0 0 2 1.91h3.41l2.44 2.3a2 2 0 0 0 2.15.39l2.64-1.11A2 2 0 1 0 49.22 65l-1.44.6-2.06-2a2 2 0 0 0-1.38-.55h-2.3zm5-1.9a2 2 0 0 0 2-2 2 2 0 0 0 0-4h-4a2 2 0 0 0 0 4 2 2 0 0 0 2 2zm17 6c3.36 0 6-3.51 6-8s-2.64-8-6-8-6 3.51-6 8 2.63 8 6 8zm-1.87-9.29a2 2 0 0 0 3.69-.29A6.77 6.77 0 0 1 66 58c0 2.44-1.19 4-2 4s-2-1.56-2-4a6.78 6.78 0 0 1 .13-1.29z" fill="#595bd4" class="color000000 svgShape"></path>
  <path d="M1.62 70.55c.17.14.34.26.51.4.71 2.61 6 20.36 20.51 28.58v5.59c-1 2.15-4.85 11.66-3.35 21.19a2 2 0 0 0 2 1.69h.31a2 2 0 0 0 1.67-2.29 33 33 0 0 1 1.2-13.7c1.65 5.39 4.73 13 9.52 15.74a2 2 0 1 0 2-3.48c-4.84-2.75-8.16-14.4-9-18.66a2 2 0 0 0-.27-.66l-.19-26.73c1-12.67 4.06-21.24 7.71-27A5.75 5.75 0 0 0 39 54c3.31 0 6-3.14 6-7a7.76 7.76 0 0 0-1-3.88 45.46 45.46 0 0 1 9-3.92c.78-.08 1.58-.12 2.38-.12 9.46 0 17.29 5.35 17.37 5.4a2 2 0 0 0 1 .36 35.41 35.41 0 0 0 4-.22l17.6 1.19h.13c4.42 0 5.25 1.08 5.33 1.21a.62.62 0 0 1 0 .52c-5.46 9.72-13.38 12.67-17.31 13.57a1.94 1.94 0 0 0-.29-.08c-5-.87-4.37-6.12-4.28-6.72a2 2 0 0 0-3.95-.64c-.45 2.76.07 7.76 4.28 10.15v.08l7.54 35.53a2 2 0 0 0 .35.77 42.92 42.92 0 0 1 8.7 25.8 2 2 0 1 0 4 0 49.33 49.33 0 0 0-1.65-12.35l7.57-2.84a2 2 0 0 0 1.3-1.88L107 94.77c2.41-4.68 11.74-6.38 15.21-6.63a2 2 0 0 0 1.79-1.8l4-38.13a2 2 0 0 0-2.64-2.09c-2 .7-4 1.45-6 2.23C93.65 58.74 91.4 74 91.32 74.62a2 2 0 0 0 0 .59L95.19 98l-3.53 1.5c-.29-.43-.59-.87-.9-1.3l-7-33c4.43-.87 14.22-4.08 20.77-15.82a4.66 4.66 0 0 0-.16-4.39c-1.27-2.09-4.11-3.11-8.67-3.14L84.1 41a11 11 0 0 0 1.76-7.88 2 2 0 0 0-.15-.47L75.36 10.12a7.06 7.06 0 0 0-3.94-3.47L51.34.32A8 8 0 0 0 49 0a8.26 8.26 0 0 0-2.7.42L29.18 6.6a8.41 8.41 0 0 0-3.92 3.22l-5.21 8.64a11.26 11.26 0 0 0-1.4 4.61l-.78 16.6C0 60.91-.27 67 .07 68.3a5 5 0 0 0 1.55 2.25ZM98.21 101a2 2 0 0 0 1.19-2.17l-4.06-24c.42-1.9 3.94-14.11 25.54-22.84.92-.37 1.86-.74 2.8-1.09l-3.45 33.37c-4.07.55-14.24 2.57-17.08 9.22a2 2 0 0 0-.16.8l.07 13.2-6.06 2.32a46.16 46.16 0 0 0-3.2-6.9Zm-91-27.46a12.29 12.29 0 0 0 3.2.43 14.66 14.66 0 0 0 6.45-1.61 47.27 47.27 0 0 0 5.61 5.89l.12 16.52C14 88.91 9.28 79 7.22 73.57Zm15.79-.3c-.75-.77-1.66-1.76-2.67-3A31.39 31.39 0 0 0 24 67q-.57 2.94-1 6.24ZM39 50c-.85 0-1.6-.89-1.88-2.06a38.19 38.19 0 0 1 3.47-2.71A3.94 3.94 0 0 1 41 47c0 1.6-.94 3-2 3Zm41.57-18.94 1.39 3a6.67 6.67 0 0 1-1.2 4.75c-1.18 1.41-3.27 2.09-6.2 2A39.68 39.68 0 0 0 64 36.27a25.49 25.49 0 0 1 16.57-5.21Zm-10.35-20.6a3.18 3.18 0 0 1 1.5 1.32l7 15.23c-9.92.14-17 5.61-19.84 8.27a31.08 31.08 0 0 0-3.13-.19V35c1.11-10.49-1.86-24-3.45-30.19ZM22.65 23.25a7.38 7.38 0 0 1 .83-2.73l5.21-8.64a4.62 4.62 0 0 1 1.86-1.52l2-.73.45 11.45A2 2 0 0 0 35 23h.08A2 2 0 0 0 37 20.92L36.51 8.2l11.14-4 .35-.1c1.19 4.42 4.43 17.58 4 28.11-14.54-3.68-24.93.79-30 3.85Zm-1.29 18.48a2 2 0 0 0 .33-.55 27.55 27.55 0 0 1 7.62-4.24l-4.87 6.53a14.61 14.61 0 0 1-4.95 4.15l-5.09 2.71c1.94-2.52 4.24-5.33 6.96-8.6ZM9.05 57.7l12.15-6.47a18.5 18.5 0 0 0 6.5-5.43l7.83-10.51a37.3 37.3 0 0 1 14.65.62c-4.43 1.52-15.22 6-21.65 15.7C17.2 60.93 8.65 63.25 5.39 63.82a58.46 58.46 0 0 1 3.66-6.12Zm15.8 1.66c-.07.23-.15.46-.22.69-2 3-8.06 9.94-14.22 9.94a9.16 9.16 0 0 1-5.64-2.05c2.32-.23 9.71-1.53 20.08-8.57Z" fill="#595bd4" class="color000000 svgShape"></path>
</svg>
