<svg id="SvgjsSvg1001" width="288" height="288" xmlns="http://www.w3.org/2000/svg" version="1.1" xmlns:xlink="http://www.w3.org/1999/xlink" xmlns:svgjs="http://svgjs.com/svgjs"><defs id="SvgjsDefs1002"></defs><g id="SvgjsG1008"><svg xmlns="http://www.w3.org/2000/svg" enable-background="new 0 0 64 64" viewBox="0 0 64 64" width="288" height="288"><path fill="#ffc40f" d="M37.7 11.4l.65 3.54 3.58 1.34-2.03 1.76c-2.69 2.33-6.78 2.04-9.11-.65-1.17-1.35-1.68-3.04-1.56-4.7.12-1.64.87-3.25 2.21-4.42l2.03-1.76 1.05 4.01L37.7 11.4zM4.23 40.43l3.41 1.14.82 3.74 2.03-1.76c2.69-2.33 2.98-6.42.65-9.11-1.17-1.35-2.77-2.09-4.43-2.21-1.64-.12-3.34.4-4.68 1.57L0 35.55l3.82 1.61L4.23 40.43z" class="colorfad041 svgShape"></path><path fill="#332e2e" d="M31.2,17.05c0.45,0.52,0.84,1.08,1.16,1.66c0.9,1.64,1.28,3.48,1.15,5.28c-0.08,1.07-0.34,2.14-0.77,3.14
				c-0.27,0.62-0.6,1.21-1.01,1.76c-0.42,0.59-0.92,1.14-1.5,1.64l-6.01,5.22c-0.42,0.37-0.87,0.69-1.32,0.97
				c-1.27,0.77-2.67,1.21-4.1,1.33c-0.85,0.08-1.71,0.04-2.56-0.11c-1.44-0.26-2.81-0.85-4.02-1.76l-0.01-0.01
				c-0.52-0.4-1.02-0.85-1.47-1.37c-0.45-0.52-0.83-1.06-1.15-1.64l-0.01-0.01c-0.91-1.64-1.29-3.48-1.16-5.29
				c0.09-1.34,0.47-2.66,1.11-3.87c0.42-0.76,0.93-1.47,1.56-2.11c0.18-0.2,0.38-0.38,0.59-0.57l6.01-5.22
				c0.2-0.17,0.4-0.33,0.6-0.48c0.57-0.42,1.17-0.76,1.79-1.03c1.02-0.46,2.09-0.72,3.18-0.8c0.69-0.05,1.38-0.02,2.07,0.08
				c1.55,0.22,3.06,0.82,4.36,1.8C30.25,16.06,30.75,16.52,31.2,17.05z" class="colorececec svgShape"></path><path fill="#ffc40f" d="M11.11 21.87c.7 3.82 2.59 9.96 7.69 16.17-.85.08-1.71.04-2.56-.11-3.95-5.2-5.82-10.23-6.7-13.95C9.96 23.22 10.47 22.51 11.11 21.87zM15.55 17.96c.75 4.09 2.87 10.91 8.89 17.59l-.22.19c-.42.37-.87.69-1.32.97-5.77-6.44-8.11-12.91-9.05-17.27L15.55 17.96zM20.11 14.57c.82 4.13 3 10.69 8.79 17.11l-1.45 1.26c-5.83-6.45-8.18-12.95-9.13-17.34C18.88 15.19 19.49 14.84 20.11 14.57zM25.36 13.85c1.15 3.76 3.3 8.52 7.38 13.27-.27.62-.6 1.21-1.01 1.76-4.87-5.45-7.27-10.92-8.44-15.11C23.98 13.72 24.67 13.75 25.36 13.85z" class="colorfad041 svgShape"></path><path fill="#f12619" d="M59.77 23.57l.65 3.54L64 28.45l-2.03 1.76c-2.69 2.33-6.78 2.04-9.11-.65-1.17-1.35-1.68-3.04-1.56-4.7.12-1.64.87-3.25 2.21-4.42l2.03-1.76 1.05 4.01L59.77 23.57zM26.3 52.6l3.41 1.14.82 3.74 2.03-1.76c2.69-2.33 2.98-6.42.65-9.11-1.17-1.35-2.77-2.09-4.43-2.21-1.64-.12-3.34.4-4.68 1.57l-2.03 1.76 3.82 1.61L26.3 52.6z" class="colorec291c svgShape"></path><path fill="#332e2e" d="M53.26,29.21c0.45,0.52,0.84,1.08,1.16,1.66c0.9,1.64,1.28,3.48,1.15,5.28c-0.08,1.07-0.34,2.14-0.77,3.14
				c-0.27,0.62-0.6,1.21-1.01,1.76c-0.42,0.59-0.92,1.14-1.5,1.64l-6.01,5.22c-0.42,0.37-0.87,0.69-1.32,0.97
				c-1.27,0.77-2.67,1.21-4.1,1.33c-0.85,0.08-1.71,0.04-2.56-0.11c-1.44-0.26-2.81-0.85-4.02-1.76l-0.01-0.01
				c-0.52-0.4-1.02-0.85-1.47-1.37c-0.45-0.52-0.83-1.06-1.15-1.64l-0.01-0.01c-0.91-1.64-1.29-3.48-1.16-5.29
				c0.09-1.34,0.47-2.66,1.11-3.87c0.42-0.76,0.93-1.47,1.56-2.11c0.18-0.2,0.38-0.38,0.59-0.57l6.01-5.22
				c0.2-0.17,0.4-0.33,0.6-0.48c0.57-0.42,1.17-0.76,1.79-1.03c1.02-0.46,2.09-0.72,3.18-0.8c0.69-0.05,1.38-0.02,2.07,0.08
				c1.55,0.22,3.06,0.82,4.36,1.8C52.31,28.23,52.81,28.69,53.26,29.21z" class="colorececec svgShape"></path><path fill="#f51e0e" d="M33.17 34.04c.7 3.82 2.59 9.96 7.69 16.17-.85.08-1.71.04-2.56-.11-3.95-5.2-5.82-10.23-6.7-13.95C32.02 35.39 32.54 34.67 33.17 34.04zM37.62 30.13c.75 4.09 2.87 10.91 8.89 17.59l-.22.19c-.42.37-.87.69-1.32.97-5.77-6.44-8.11-12.91-9.05-17.27L37.62 30.13zM42.17 26.74c.82 4.13 3 10.69 8.79 17.11l-1.45 1.26c-5.83-6.45-8.18-12.95-9.13-17.34C40.95 27.35 41.55 27.01 42.17 26.74zM47.42 26.02c1.15 3.76 3.3 8.52 7.38 13.27-.27.62-.6 1.21-1.01 1.76-4.87-5.45-7.27-10.92-8.44-15.11C46.05 25.89 46.74 25.92 47.42 26.02z" class="colorfc3021 svgShape"></path></svg></g></svg>