<svg xmlns="http://www.w3.org/2000/svg" enable-background="new 0 0 50 50" viewBox="0 0 50 50" id="fish-fillet">
  <g>
    <path fill="#B0AFB0" d="M42.048,34.1462c-9.3562,5.4372-24.5653,5.4372-33.9826,0c-4.7359-2.7344-7.1027-6.3251-7.0926-9.911
					l-0.0057,1.3899c-0.0102,3.5859,2.3566,7.1766,7.0925,9.911c9.4174,5.4372,24.6264,5.4372,33.9826,0
					c4.6481-2.7016,6.9748-6.2352,6.9849-9.7737l0.0058-1.3899C49.0229,27.9116,46.6962,31.4453,42.048,34.1462z"></path>
    <path fill="#E8E8E8" d="M41.9374,14.4621c9.4174,5.4371,9.4669,14.2468,0.1106,19.684s-24.5653,5.4374-33.9827,0.0002
						c-9.4094-5.4325-9.4668-14.2468-0.1106-19.684S32.528,9.0295,41.9374,14.4621z"></path>
    <path fill="#D7D7D7" d="M36.9448,17.364c6.641,3.8342,6.6758,10.0466,0.078,13.8808s-17.323,3.8343-23.9639,0.0002
						c-6.6353-3.8309-6.6758-10.0466-0.078-13.8808S30.3094,13.5331,36.9448,17.364z"></path>
    <path fill="#B0AFB0" d="M36.9448,18.583c3.0698,1.7725,4.7096,4.0533,4.9535,6.3723c0.2958-2.7241-1.3458-5.5085-4.9535-7.5915
						C26.108,11.1076,7.1529,15.7857,8.1074,24.8717C8.3561,22.5819,26.7736,12.7111,36.9448,18.583z"></path>
  </g>
  <path fill="#80BC41" d="M20.4459 20.7887c-2.0796-.0269-4.2193.2156-6.3673.425-1.0721.09-2.1474.1831-3.2047.1969-1.0019.0005-2.0462-.0007-2.8879-.2419-.0306-.0088-.061-.0179-.0912-.0272.9185.1981 1.9859.1642 3.0279.1343 1.0501-.0429 2.1152-.1312 3.1871-.2364C16.1403 20.8661 18.412 20.6097 20.4459 20.7887zM24.4728 22.3856c-1.5933.334-3.188.6333-4.7865.9467-.2994.0594-.6058.1204-.9082.1828-.3124.3498-.7453.6727-1.2304.9537-.2651.1495-.5443.287-.836.4059-.2888.116-.6059.2389-.9249.2659.3011-.0971.562-.2322.8271-.3664.2599-.1394.521-.2747.7717-.4206.4639-.2604.8931-.5385 1.3272-.8265-.3747.076-.7565.1537-1.1342.2326-2.8969.5628-4.9777 1.2157-6.877 1.0847 1.8363-.0008 3.3492-.5183 6.8532-1.2519.5987-.1187 1.1974-.2375 1.7983-.348l-.0674-.0117-.4219-.0942c-.285-.0626-.5539-.1357-.8267-.2102-.5286-.1552-1.0489-.3235-1.5178-.5418.6025.0885 1.1533.2273 1.6878.3767.2669.0802.5295.1594.7842.2514l.3795.1355.1454.0645c.4988-.0937.9978-.1876 1.4989-.2732C22.1658 22.7442 23.3186 22.5553 24.4728 22.3856z"></path>
  <path fill="#80BC41" d="M29.87,15.9843c-1.0019,1.5007-2.8559,3.2025-4.2634,4.3429c0.0743,0.1284,0.1388,0.2613,0.1745,0.4014
				c0.1299,0.4344,0.1075,0.9398-0.2691,1.4086c0.1479,0.0003,0.2877,0.0137,0.4011,0.0424c0.0617,0.0144,0.1206,0.03,0.1777,0.0464
				c0.2076,0.0595,0.3899,0.1293,0.584,0.191c0.4918,0.16,0.9988,0.3053,1.5059,0.4505c1.0242,0.2858,2.0775,0.5381,3.1655,0.762
				c-1.1394-0.1584-2.2395-0.3705-3.292-0.6339c-0.2795-0.0681-0.5533-0.1417-0.8233-0.2191
				c-0.2411-0.0691-0.4793-0.1411-0.7161-0.2143c-0.1798-0.053-0.3582-0.1186-0.5395-0.1705
				c-0.3185-0.0913-0.6455-0.1402-1.0018-0.0038c-0.5796,0.2081-1.1969,0.4324-1.6963,0.717
				c-0.4727,0.3152-0.9412,0.647-1.4464,0.968c-0.489,0.3259-0.9893,0.6371-1.4874,0.9565
				c-0.5043,0.3099-1.0116,0.6382-1.6176,0.8618c0.5855-0.2448,1.0518-0.5846,1.5285-0.9141
				c0.4777-0.3252,0.9707-0.6499,1.4352-0.9829c0.4706-0.3235,0.9431-0.6539,1.437-0.9898
				c0.5512-0.3195,1.1542-0.5402,1.7734-0.7714c0.1423-0.0508,0.2982-0.0789,0.4541-0.0914
				c-0.6363-0.2242-1.2974-0.4254-1.9687-0.6178c-0.1373-0.0394-3.5143-0.9887-3.671-1.0326
				c-0.1013-0.0284-4.8606-1.3642-4.5597-1.2798l-1.0516-0.2746c-3.3252,0.786-5.3687,0.4873-6.2696,0.793
				c0.7797-0.3842,1.1073-0.1523,6.1776-0.8117c-2.2739-0.3803-0.6921-0.1418-3.4015-0.5584l-2.3312-0.374
				c6.5442,0.8082,3.7846,0.5004,5.9295,0.7977l1.0934,0.2752c0.103,0.0291,4.5755,1.2947,4.2972,1.216
				c-0.2285-0.3902-0.6349-0.7051-1.0097-1.0303c-0.4621-0.3844-0.9231-0.7647-1.4144-1.1309
				c-0.9494-0.7494-1.9881-1.448-3.0208-2.1525c1.2101,0.5836,2.2672,1.2798,3.246,2.0109
				c0.0775-0.1268,0.1591-0.2524,0.2417-0.3737c0.0686-0.0873,0.1159-0.1692,0.1519-0.2505
				c0.0473-0.082,0.1098-0.1633,0.1134-0.2387c0.0754-0.336-0.1494-0.6556,0.0572-1.0072c0.0211,0.3345,0.2883,0.5944,0.2241,0.9809
				c-0.0166,0.0984-0.0841,0.1897-0.1405,0.2805c-0.0636,0.0926-0.1199,0.1834-0.2131,0.2636
				c-0.1223,0.1291-0.2529,0.256-0.3916,0.3805c0.462,0.369,0.9219,0.7453,1.334,1.1423c0.3537,0.3456,0.7411,0.7049,0.8751,1.1405
				c1.8484,0.5512,4.0794,1.1601,5.7432,1.8481l0.1019-0.0013c0.2878-0.4751,0.2444-0.9422,0.0789-1.3524
				c-0.1789-0.4332-0.4962-0.8297-0.9749-1.131c-0.4553-0.3138-1.0599-0.5443-1.5914-0.8304
				c-0.5246-0.2877-1.0027-0.6462-1.0983-1.1243c0.2146,0.4396,0.7148,0.751,1.2615,1.0069c0.5099,0.2454,1.0725,0.46,1.547,0.745
				c0.0782-0.4206,0.0178-0.8198-0.1269-1.1936c-0.1523-0.4179-0.3788-0.8151-0.6064-1.2164
				c-0.4267-0.8098-0.8564-1.6165-1.1825-2.4623c0.5488,0.7683,0.9999,1.5697,1.451,2.3712
				c0.1729,0.3361,0.3583,0.6756,0.4804,1.0353c0.8937-1.018,1.1728-2.1027,1.6827-2.9055
				c-0.1191,0.7998-0.5032,1.6939-1.0084,2.2966c-0.1818,0.2229-0.3953,0.4406-0.6629,0.6389
				c0.0229,0.06,0.0459,0.1201,0.0586,0.1848c0.1093,0.3979,0.1179,0.8319-0.0591,1.2663l0.0851,0.0511
				c0.3313,0.2286,0.5935,0.4985,0.7692,0.801C26.4295,19.4298,28.2335,17.6926,29.87,15.9843z"></path>
  <path fill="#A9C838" d="M31.7333,23.5876c0.0007,0.0765-0.0334,0.1662-0.1439,0.2221c-0.127,0.0668-0.2811,0.057-0.4138,0.042
				c-0.3305-0.0338-0.6653-0.0686-0.983-0.1252c-0.2788-0.0532-0.5456-0.118-0.8092-0.1861
				c-0.5509-0.1386-1.0895-0.2738-1.6312-0.4214c-0.6112-0.1675-1.2223-0.3351-1.8335-0.5026
				c-0.0532-0.0152-0.1094-0.0274-0.1725-0.0227c-0.056,0.003-0.1192,0.0232-0.1741,0.0456
				c-0.3293,0.1348-0.5569,0.3559-0.7685,0.5666c-0.3471,0.3475-0.694,0.6948-1.041,1.0423
				c-1.5186,1.5144-2.8905,2.4133-5.7935,2.1515c-0.2715-0.0243-0.542-0.0598-0.8355-0.037
				c0.3937-0.2539,0.8048-0.499,1.2261-0.7334l-0.0871-0.0594c0.3232-0.2625,0.6454-0.5293,1.0115-0.7719
				c-0.8605,0.4142-1.8861,0.5671-2.8581,0.6781c-2.1265,0.2502-4.2415,0.3812-6.3086,0.3885l-0.107,0.0114
				c0.185-0.0769,0.369-0.1579,0.5385-0.2506c-0.5747-0.203-1.038-0.5038-1.3408-0.8732c0.4995-0.2692,1.141-0.3987,1.677-0.333
				c0.2974-0.289,0.7769-0.5182,1.2759-0.612c-0.2495-0.0868-0.5218-0.203-0.5008-0.4033c0.0809-0.8411,2.5272-0.4495,3.9729-0.3452
				c-0.086-0.0114-0.1678-0.0286-0.2452-0.0508c-0.2777-0.0796-0.8527-0.3735-1.0049-0.6188
				c-0.0765-0.1365-0.0688-0.3138,0.0901-0.463c-0.9488,0.2231-4.6362,0.7972-5.0701,0.4455
				c0.2227-0.0775,0.4495-0.1538,0.6722-0.2313c-0.5027,0.1386-1.042,0.1482-1.455,0.0298
				c-0.1476-0.0423-1.3935-0.5832-1.5212-0.8215c-0.1097-0.2072-0.1521-0.4027-0.3807-0.556
				c0.4247-0.0577,0.8452-0.1627,1.2729-0.2233c1.0961-0.1596,2.1234,0.0049,3.2126-0.1068
				c-1.7083-0.0121-3.3484-0.1727-4.8735-0.476c0.7668-0.4106,1.6197-0.7352,2.5209-0.9009
				c-1.2302,0.2281-2.2502-0.324-3.4763-0.0947c0.2788-0.0805,0.5501-0.1899,0.7969-0.3216
				c-0.8064,0.0835-1.1008-0.4249-1.5452-0.4123c0.7564-0.3812,1.659-0.8333,2.5656-0.7849
				c-0.0213-0.113-0.0397-0.2289-0.0569-0.3408c0.5806-0.0315,1.1701-0.0162,1.6392,0.1183
				c0.0837,0.024,0.1637,0.0517,0.2389,0.0838c-0.017-0.0967-0.0809-0.1838-0.1814-0.2507c2.3416-0.0316,6.7425,1.1743,6.9781,1.209
				c-1.3696-0.6508-2.1711-0.965-2.5039-1.4356c-0.261-0.3688-0.154-0.8843,0.3761-1.2708c0.318,0.0872,0.7615-0.0454,1.1538-0.0819
				c0.6958-0.0687,2.0607,0.3483,2.2791,0.8178c-0.1099-0.3089,0.118-0.7109,0.567-0.9801
				c1.2202,0.5153,1.2139,1.2769,1.5125,1.9153c0.0376,0.0839,0.1092,0.1736,0.2258,0.207c0.0477,0.0137,0.103,0.0179,0.1665,0.0085
				c0.012-0.1609,0.025-0.3175,0.0339-0.4753c0.0105-0.0925,0.0169-0.1862,0.0762-0.2798c0.0565-0.0909,0.176-0.1864,0.3256-0.2237
				c0.1537-0.0362,0.3019-0.0053,0.4275,0.027c0.0266,0.0072,0.0531,0.0146,0.0793,0.0221
				c0.6728,0.1928,1.2315,0.4936,1.6309,0.8728c-0.4228-0.7055-1.2695-1.246-1.5845-1.9894
				c-0.0552-0.1265-0.0869-0.2808,0.0446-0.4188c0.1478,0.0235,0.2886,0.0547,0.422,0.0929
				c0.1909,0.0547,0.3665,0.1239,0.5258,0.2054c-0.1676-0.1664-0.3383-0.3452-0.3074-0.5655
				c0.0395-0.275,0.374-0.5383,0.6421-0.7936c0.3107-0.2968,0.555-0.6163,0.7156-0.9371c-0.0031,0.3385,0.7635,0.3903,1.3105,1.1548
				c0.1534-0.2159,0.3495-0.427,0.5835-0.6235c0.2463,0.5786,0.5172,1.1488,0.7634,1.7274c-0.021-0.3459,0.4941-0.7088,0.773-0.9053
				c0.2606-0.1812,0.5558-0.36,0.6827-0.5758c0.7886,0.3373,1.1285,1.0532,0.762,2.0478c-0.1167,0.314-0.2897,0.6312-0.3687,0.9447
				c-0.0779,0.3175-0.0682,0.6373-0.3227,0.9463c0.1609-0.1563,0.3697-0.318,0.4988-0.4795c0.308-0.3815,0.6159-0.763,0.9238-1.1445
				c0.1576-0.1994,0.3253-0.4035,0.5696-0.574c0.5242-0.3653,1.3184-0.5196,1.8694-0.8698c0.5019,0.392,0.7804,0.9341,0.5506,1.5175
				c0.1961-0.0928,0.4046-0.1667,0.6162-0.2283c0.1648,0.0018,0.1857,0.0372,0.1739,0.0728
				c-0.0107,0.0464-0.0604,0.0896-0.107,0.1297c-0.6826,0.5912-1.3153,1.1699-1.8435,1.8014
				c-0.8587,1.0297-2.2528,1.9058-3.2963,2.894c-0.2195,0.2081-0.4278,0.4311-0.4729,0.655
				c-0.0561,0.2551,0.1109,0.4787,0.3672,0.6361c0.2552,0.1533,0.5914,0.2536,0.9226,0.3485
				c0.3528,0.1048,0.7085,0.2067,1.0642,0.3087c0.0814,0.0244,0.1634,0.0485,0.246,0.0722
				c0.2335,0.0669,0.4722,0.1295,0.7197,0.1778c0.6463,0.1232,1.3746,0.1481,1.9739,0.3198
				c0.0286,0.0082,0.0569,0.0167,0.0849,0.0256C31.6416,23.4659,31.7286,23.5099,31.7333,23.5876z M28.0542,22.9955
				c1.0525,0.2634,2.1526,0.4755,3.292,0.6339c-1.0879-0.2239-2.1413-0.4762-3.1655-0.762c-0.507-0.1453-1.014-0.2906-1.5059-0.4505
				c-0.1941-0.0616-0.3764-0.1315-0.584-0.191c-0.0571-0.0164-0.116-0.032-0.1777-0.0464
				c-0.1134-0.0287-0.2532-0.0421-0.4011-0.0424c0.3766-0.4688,0.3991-0.9741,0.2691-1.4086
				c-0.0358-0.1402-0.1002-0.273-0.1745-0.4014c1.4075-1.1404,3.2616-2.8422,4.2634-4.3429
				c-1.9842,2.0713-3.1784,3.1647-4.2698,4.3336c-0.1757-0.3025-0.438-0.5724-0.7692-0.801l-0.0851-0.0511
				c0.177-0.4343,0.1685-0.8684,0.0591-1.2663c-0.0127-0.0648-0.0357-0.1248-0.0586-0.1848
				c0.2676-0.1983,0.4811-0.416,0.6629-0.6389c0.5051-0.6026,0.8893-1.4968,1.0083-2.2966c-0.5272,0.83-0.7865,1.8847-1.6827,2.9055
				c-0.1222-0.3597-0.3075-0.6992-0.4804-1.0353c-0.4511-0.8014-0.9022-1.6029-1.451-2.3712
				c0.326,0.8458,0.7558,1.6525,1.1825,2.4623c0.2276,0.4013,0.4541,0.7986,0.6064,1.2164c0.1447,0.3738,0.2051,0.773,0.1269,1.1936
				c-0.4744-0.2849-1.0371-0.4996-1.547-0.745c-0.5467-0.2559-1.0469-0.5673-1.2615-1.0069
				c0.0956,0.4781,0.5738,0.8366,1.0983,1.1243c0.5314,0.2861,1.1361,0.5166,1.5914,0.8304c0.4788,0.3013,0.796,0.6978,0.9749,1.131
				c0.1655,0.4102,0.2089,0.8773-0.0789,1.3524l-0.1019,0.0013c-1.6648-0.6884-3.9121-1.302-5.7432-1.8481
				c-0.134-0.4356-0.5214-0.7949-0.8751-1.1405c-0.4121-0.397-0.8719-0.7732-1.3339-1.1423
				c0.1388-0.1245,0.2694-0.2514,0.3916-0.3805c0.0931-0.0802,0.1495-0.171,0.2131-0.2636
				c0.0564-0.0908,0.1239-0.1821,0.1405-0.2805c0.0642-0.3865-0.203-0.6464-0.2241-0.9809
				c-0.2042,0.3475,0.0147,0.687-0.0572,1.0072c-0.0035,0.0754-0.0661,0.1568-0.1134,0.2388
				c-0.036,0.0813-0.0833,0.1632-0.1519,0.2505c-0.0826,0.1214-0.1642,0.247-0.2417,0.3737
				c-0.9788-0.7311-2.0359-1.4273-3.246-2.0109c1.0327,0.7045,2.0714,1.4031,3.0208,2.1525
				c0.4914,0.3662,0.9523,0.7465,1.4144,1.1309c0.3748,0.3252,0.7813,0.6401,1.0097,1.0303
				c-0.103-0.0291-4.5755-1.2947-4.2972-1.2159l-1.0934-0.2752c-1.4816-0.2053-4.3371-0.601-5.9295-0.7977l2.3312,0.3739
				c2.7361,0.4207,1.1601,0.1835,3.4015,0.5584c-5.0722,0.6597-5.3937,0.4254-6.1776,0.8117
				c0.9335-0.3168,2.8273,0.0207,6.2696-0.793l1.0516,0.2746c0.4393,0.1233,4.8383,1.358,4.5597,1.2798
				c0.1039,0.0291,3.5336,0.9932,3.671,1.0326c0.6712,0.1923,1.3323,0.3936,1.9686,0.6178
				c-0.1558,0.0125-0.3118,0.0406-0.4541,0.0914c-0.6192,0.2312-1.2222,0.4519-1.7734,0.7714
				c-0.4939,0.3359-0.9664,0.6663-1.437,0.9898c-0.4644,0.3329-0.9575,0.6577-1.4352,0.9829
				c-0.4767,0.3294-0.943,0.6693-1.5285,0.914c0.606-0.2236,1.1134-0.5519,1.6176-0.8618c0.4981-0.3193,0.9985-0.6306,1.4874-0.9565
				c0.5052-0.321,0.9737-0.6528,1.4464-0.968c0.4994-0.2846,1.1167-0.5088,1.6963-0.717c0.3563-0.1364,0.6833-0.0875,1.0018,0.0038
				c0.1812,0.0519,0.3597,0.1176,0.5395,0.1705c0.2368,0.0732,0.475,0.1452,0.7161,0.2143
				C27.5009,22.8538,27.7746,22.9274,28.0542,22.9955 M19.6863,23.3323c1.5985-0.3134,3.1932-0.6128,4.7865-0.9467
				c-1.1542,0.1697-2.3069,0.3586-3.4578,0.556c-0.5011,0.0856-1.0001,0.1795-1.4989,0.2732l-0.1454-0.0645l-0.3795-0.1355
				c-0.2547-0.092-0.5173-0.1712-0.7842-0.2514c-0.5345-0.1494-1.0853-0.2882-1.6878-0.3767
				c0.4689,0.2183,0.9892,0.3866,1.5178,0.5418c0.2728,0.0744,0.5417,0.1476,0.8267,0.2102l0.4219,0.0942l0.0674,0.0117
				c-0.6008,0.1105-1.1995,0.2292-1.7983,0.348c-3.5104,0.735-5.0183,1.2511-6.8532,1.2519c1.8995,0.131,3.978-0.5215,6.877-1.0847
				c0.3777-0.0789,0.7595-0.1566,1.1342-0.2326c-0.434,0.288-0.8633,0.5661-1.3272,0.8265
				c-0.2508,0.1459-0.5118,0.2812-0.7717,0.4206c-0.2651,0.1341-0.526,0.2693-0.8271,0.3664
				c0.3189-0.0269,0.6361-0.1499,0.9249-0.2659c0.2917-0.1188,0.571-0.2564,0.836-0.4059c0.4851-0.281,0.918-0.6039,1.2304-0.9537
				C19.0805,23.4528,19.3868,23.3918,19.6863,23.3323 M14.0786,21.2137c2.148-0.2094,4.2877-0.4519,6.3673-0.425
				c-2.0338-0.1791-4.3054,0.0773-6.3362,0.2507c-1.0719,0.1052-2.137,0.1935-3.1871,0.2364
				c-1.042,0.0299-2.1094,0.0638-3.0279-0.1343c0.0302,0.0093,0.0606,0.0184,0.0912,0.0272
				c0.8418,0.2412,1.8861,0.2425,2.8879,0.2419C11.9312,21.3968,13.0064,21.3037,14.0786,21.2137"></path>
  <path fill="#80BC41" d="M27.5981 29.1905c2.0796-.0269 4.2193.2156 6.3673.425 1.0721.09 2.1474.1831 3.2047.1969.9886.0005 2.0868.0049 2.9792-.2691-.9185.1981-1.9859.1642-3.0279.1343-1.0501-.0429-2.1152-.1312-3.1871-.2364-1.068-.0912-2.1421-.2036-3.2114-.2601C29.6587 29.1195 28.5981 29.1024 27.5981 29.1905zM23.5712 30.7873c1.5933.334 3.188.6333 4.7865.9467.2994.0594.6058.1204.9082.1828.7387.8272 2.2714 1.5646 2.9913 1.6254-.7565-.2439-2.1561-1.1027-2.926-1.6134.3747.076.7565.1537 1.1342.2326 2.8969.5628 4.9777 1.2157 6.877 1.0848-1.8363-.0008-3.3492-.5183-6.8532-1.2519-.5987-.1187-1.1975-.2375-1.7983-.348l.0674-.0117.4219-.0942c.285-.0626.5539-.1357.8267-.2102.5286-.1552 1.0489-.3235 1.5178-.5418-.6025.0885-1.1533.2273-1.6878.3767-.2669.0802-.5295.1594-.7842.2514l-.3795.1355-.1454.0645c-.4988-.0937-.9978-.1876-1.4989-.2732C25.8781 31.146 24.7253 30.957 23.5712 30.7873z"></path>
  <path fill="#80BC41" d="M18.1739,24.3861c0.518,0.7759,1.2074,1.5332,1.9398,2.2705c0.7214,0.706,1.495,1.4011,2.3236,2.0724
				c-0.0743,0.1284-0.1388,0.2613-0.1745,0.4014c-0.1299,0.4345-0.1075,0.9398,0.2691,1.4086
				c-0.1479,0.0003-0.2877,0.0137-0.4011,0.0424c-0.0617,0.0144-0.1206,0.03-0.1777,0.0464
				c-0.2076,0.0595-0.3899,0.1293-0.584,0.191c-0.4918,0.16-0.9988,0.3053-1.5059,0.4505c-1.0242,0.2858-2.0775,0.5381-3.1655,0.762
				c1.1394-0.1584,2.2395-0.3705,3.292-0.6339c0.2795-0.0681,0.5533-0.1417,0.8233-0.2191
				c0.2411-0.0691,0.4793-0.1411,0.7161-0.2143c0.1798-0.053,0.3582-0.1186,0.5395-0.1705
				c0.3185-0.0913,0.6455-0.1402,1.0018-0.0038c0.5796,0.2081,1.1969,0.4324,1.6963,0.717c0.4727,0.3152,0.9412,0.647,1.4464,0.968
				c0.489,0.3259,0.9893,0.6371,1.4874,0.9565c0.5043,0.3099,1.0116,0.6382,1.6176,0.8618
				c-0.5855-0.2448-1.0518-0.5846-1.5285-0.9141c-0.4777-0.3252-0.9707-0.6499-1.4352-0.9829
				c-0.4706-0.3235-0.9431-0.6539-1.437-0.9898c-0.5512-0.3195-1.1542-0.5402-1.7734-0.7714
				c-0.1423-0.0508-0.2982-0.0789-0.4541-0.0914c1.2271-0.4323,2.5528-0.7811,3.8294-1.1354l1.8102-0.5149l2.4378-0.6871
				l1.0529-0.3094l1.0691-0.2833l1.0516-0.2746c1.0005,0.2365,2.0161,0.4001,3.0238,0.5047
				c2.0636,0.1951,2.493,0.0329,3.2458,0.2883c-0.6546-0.3225-1.3127-0.2559-3.2771-0.4627c-0.54-0.0514-1.087-0.1199-1.6353-0.1845
				c-0.4227-0.0506-0.8434-0.1096-1.2652-0.1644l1.0814-0.1839c0.7599-0.1413,1.543-0.255,2.3201-0.3745l2.3312-0.374
				c-1.5924,0.1967-3.195,0.3732-4.7572,0.6147l-1.1723,0.183l-1.0934,0.2752l-1.0874,0.2809l-1.0579,0.2994l-2.1519,0.6357
				c0.3187-0.5442,1.9259-1.7898,2.4242-2.1612c0.9494-0.7494,1.9881-1.448,3.0208-2.1525
				c-1.2101,0.5836-2.2672,1.2798-3.246,2.0109c-0.0775-0.1268-0.1591-0.2524-0.2417-0.3737
				c-0.0686-0.0873-0.1159-0.1692-0.1519-0.2505c-0.0473-0.082-0.1098-0.1633-0.1134-0.2387
				c-0.0354-0.1579,0.0015-0.3175,0.0171-0.4823c0.0197-0.166,0.0313-0.3451-0.0743-0.5249
				c-0.0211,0.3345-0.2883,0.5944-0.2241,0.9809c0.0166,0.0984,0.0841,0.1897,0.1405,0.2805
				c0.0636,0.0926,0.1199,0.1834,0.2131,0.2636c0.1223,0.1291,0.2529,0.256,0.3916,0.3805
				c-0.5692,0.4546-1.9947,1.5861-2.2091,2.2828l-2.0036,0.5894c-1.281,0.3861-2.566,0.7734-3.7397,1.2586l-0.1019-0.0013
				c-0.2878-0.4751-0.2444-0.9422-0.0789-1.3524c0.1789-0.4332,0.4962-0.8297,0.9749-1.131
				c0.4553-0.3138,1.0599-0.5443,1.5914-0.8304c0.5246-0.2877,1.0027-0.6462,1.0983-1.1243
				c-0.2146,0.4396-0.7148,0.751-1.2615,1.0069c-0.5099,0.2454-1.0725,0.46-1.547,0.745c-0.1577-0.8487,0.2636-1.582,0.7333-2.41
				c0.4267-0.8098,0.8564-1.6165,1.1825-2.4623c-0.5488,0.7683-0.9999,1.5697-1.451,2.3712
				c-0.1729,0.3361-0.3583,0.6756-0.4804,1.0353c-0.8937-1.018-1.1728-2.1027-1.6827-2.9055
				c0.0376,0.2526,0.1121,0.5101,0.1875,0.7635c0.2378,0.7985,0.7765,1.648,1.4837,2.172
				c-0.1685,0.4412-0.1967,0.9672,0.0005,1.4511l-0.0851,0.0511c-0.3313,0.2286-0.5935,0.4985-0.7692,0.801
				c-0.6725-0.7203-1.395-1.4222-2.101-2.1288C19.601,25.86,18.8858,25.1292,18.1739,24.3861z"></path>
  <path fill="#A9C838" d="M16.3805,31.7897c0.028-0.0089,0.0563-0.0174,0.0849-0.0256c0.5993-0.1717,1.3276-0.1966,1.9739-0.3199
				c0.2475-0.0483,0.4862-0.1109,0.7197-0.1778c0.0826-0.0237,0.1646-0.0478,0.246-0.0722
				c0.3557-0.1019,0.7114-0.2039,1.0642-0.3087c0.3312-0.0949,0.6674-0.1952,0.9226-0.3485
				c0.2563-0.1574,0.4233-0.3809,0.3672-0.6361c-0.0451-0.2239-0.2534-0.4468-0.4729-0.655
				c-1.0435-0.9882-2.4376-1.8642-3.2963-2.894c-0.5282-0.6315-1.1609-1.2102-1.8435-1.8014
				c-0.0466-0.0401-0.0963-0.0833-0.107-0.1297c-0.0118-0.0356,0.0091-0.071,0.1739-0.0728
				c0.2117,0.0616,0.4201,0.1355,0.6162,0.2283c-0.2298-0.5833,0.0488-1.1254,0.5506-1.5175
				c0.551,0.3502,1.3452,0.5045,1.8694,0.8698c0.2444,0.1705,0.4121,0.3747,0.5696,0.574c0.3079,0.3815,0.6159,0.763,0.9238,1.1445
				c0.1291,0.1615,0.3379,0.3232,0.4988,0.4795c-0.2545-0.309-0.2448-0.6288-0.3227-0.9463
				c-0.0791-0.3134-0.252-0.6306-0.3687-0.9447c-0.1477-0.4007-0.2005-0.8018-0.0885-1.1663
				c0.1081-0.3631,0.391-0.685,0.8505-0.8815c0.1872,0.3186,0.8328,0.6075,1.2137,1.0043c0.1466,0.1528,0.2514,0.3214,0.242,0.4769
				c0.2463-0.5786,0.5172-1.1488,0.7634-1.7274c0.234,0.1965,0.4301,0.4076,0.5835,0.6235
				c0.2063-0.2883,0.5061-0.5422,0.8768-0.7479c0.2019-0.1074,0.4353-0.2201,0.4336-0.4069
				c0.1607,0.3207,0.4049,0.6403,0.7156,0.9371c0.2681,0.2553,0.6026,0.5186,0.6421,0.7936
				c0.0309,0.2203-0.1398,0.3991-0.3074,0.5655c0.2971-0.152,0.6221-0.2465,0.9478-0.2983
				c0.4762,0.4999-1.0985,1.6718-1.5399,2.4082c0.6417-0.6093,2.4175-1.4944,2.5397-0.4183
				c0.0089,0.1578,0.0219,0.3145,0.0339,0.4753c0.0635,0.0094,0.1187,0.0051,0.1665-0.0085
				c0.3395-0.0973,0.3557-0.8179,0.7173-1.3447c0.2177-0.3183,0.5707-0.5875,1.021-0.7776c0.449,0.2692,0.6769,0.6711,0.567,0.9801
				c0.1108-0.2383,0.4373-0.3957,0.7582-0.531c0.1642-0.0674,0.3373-0.1335,0.5216-0.1864
				c0.3004-0.0861,0.6303-0.1369,0.9992-0.1004c0.3924,0.0366,0.8359,0.1691,1.1538,0.0819
				c0.5301,0.3864,0.6371,0.9019,0.3761,1.2708c-0.2609,0.369-0.7789,0.6167-1.2795,0.8556c-0.4096,0.1936-0.819,0.3874-1.2244,0.58
				c0.8781-0.1294,1.6176-0.414,2.4533-0.6c0.3209-0.0689,0.6578-0.1274,0.9908-0.1845c0.3083-0.0502,0.6137-0.1033,0.918-0.1524
				c0.8394-0.1413,1.6871-0.2847,2.616-0.2722c-0.1005,0.0669-0.1644,0.154-0.1814,0.2507
				c0.0751-0.0321,0.1552-0.0598,0.2389-0.0838c0.4692-0.1344,1.0586-0.1498,1.6392-0.1183
				c-0.0172,0.1119-0.0356,0.2278-0.0569,0.3408c0.9076-0.0485,1.8263,0.4123,2.5656,0.7849
				c-0.334-0.0095-0.5066,0.2318-0.9479,0.3582c-0.179,0.0513-0.3784,0.0767-0.5973,0.0541
				c0.2468,0.1317,0.5182,0.2411,0.7969,0.3216c-1.2261-0.2293-2.2461,0.3228-3.4763,0.0947
				c0.9012,0.1657,1.7542,0.4903,2.5209,0.9009c-1.525,0.3033-3.1652,0.4639-4.8735,0.476
				c1.0891,0.1117,2.1164-0.0528,3.2126,0.1068c0.4277,0.0606,0.8481,0.1656,1.2729,0.2233
				c-0.2286,0.1534-0.271,0.3489-0.3807,0.556c-0.1305,0.2436-0.6355,0.3959-0.9346,0.5581
				c-0.1773,0.1003-0.3617,0.199-0.5866,0.2634c-0.413,0.1183-0.9523,0.1088-1.455-0.0298
				c0.2227,0.0775,0.4495,0.1538,0.6722,0.2313c-0.4434,0.3595-3.9571-0.1838-5.0701-0.4455
				c0.5322,0.4999-0.6331,1.0628-1.16,1.1326c0.7693-0.0555,1.5385-0.1112,2.3077-0.1667c0.3162-0.022,0.6398-0.042,0.9767,0.0332
				c0.6795,0.1473,1.0457,0.5834,0.1877,0.882c0.499,0.0939,0.9784,0.323,1.2759,0.612c0.5359-0.0657,1.1775,0.0638,1.677,0.333
				c-0.3028,0.3694-0.7662,0.6702-1.3408,0.8732c0.1696,0.0927,0.3535,0.1737,0.5385,0.2506l-0.107-0.0114
				c-1.992-0.0071-7.3592-0.1966-9.1667-1.0666c0.3661,0.2426,0.6884,0.5093,1.0115,0.7719l-0.0871,0.0594
				c0.4213,0.2344,0.8323,0.4795,1.2261,0.7334c-0.2935-0.0228-0.5641,0.0126-0.8355,0.037
				c-2.8653,0.2584-4.275-0.6371-5.7935-2.1515c-0.3471-0.3475-0.694-0.6948-1.041-1.0423
				c-0.2115-0.2106-0.4391-0.4318-0.7685-0.5666c-0.0548-0.0224-0.118-0.0426-0.1741-0.0457
				c-0.0631-0.0047-0.1194,0.0075-0.1725,0.0227c-0.6112,0.1675-1.2223,0.3351-1.8335,0.5026
				c-0.5417,0.1476-1.0802,0.2828-1.6312,0.4214c-0.2635,0.068-0.5303,0.1329-0.8092,0.1861
				c-0.3176,0.0566-0.6524,0.0914-0.983,0.1252c-0.1328,0.015-0.2869,0.0248-0.4138-0.042
				c-0.1106-0.056-0.1446-0.1457-0.1439-0.2221C16.3153,31.9116,16.4024,31.8676,16.3805,31.7897z M19.9898,31.3973
				c0.2795-0.0681,0.5533-0.1417,0.8232-0.2191c0.2411-0.0691,0.4793-0.1411,0.7161-0.2143
				c0.1797-0.053,0.3582-0.1186,0.5395-0.1705c0.3185-0.0913,0.6455-0.1402,1.0018-0.0038c0.5796,0.2082,1.1969,0.4324,1.6963,0.717
				c0.4727,0.3152,0.9412,0.647,1.4464,0.968c0.489,0.3259,0.9893,0.6371,1.4874,0.9565c0.5043,0.3099,1.0116,0.6382,1.6176,0.8618
				c-0.5855-0.2448-1.0518-0.5846-1.5285-0.914c-0.4777-0.3252-0.9707-0.6499-1.4352-0.9829
				c-0.4706-0.3235-0.9431-0.6539-1.437-0.9898c-0.5512-0.3195-1.1542-0.5402-1.7734-0.7714
				c-0.1423-0.0508-0.2982-0.0789-0.4541-0.0914c1.226-0.432,2.5492-0.7801,3.8294-1.1354l1.8102-0.515l2.4378-0.6871l1.0529-0.3094
				l1.0691-0.2833l1.0516-0.2746c1.0005,0.2365,2.0161,0.4001,3.0238,0.5047c2.0636,0.1951,2.493,0.0329,3.2458,0.2883
				c-0.6546-0.3225-1.3129-0.256-3.2771-0.4627c-0.54-0.0514-1.087-0.1199-1.6353-0.1845
				c-0.4227-0.0506-0.8434-0.1095-1.2652-0.1644l1.0814-0.1839c0.7599-0.1413,1.543-0.255,2.3201-0.3745l2.3312-0.374
				c-1.5924,0.1967-3.195,0.3732-4.7572,0.6147l-1.1723,0.183l-1.0934,0.2752l-1.0874,0.2809l-1.0579,0.2994l-2.1519,0.6356
				c0.3184-0.5437,1.9235-1.788,2.4242-2.1612c0.9494-0.7494,1.9881-1.448,3.0208-2.1525c-1.2101,0.5836-2.2672,1.2798-3.246,2.0109
				c-0.0775-0.1268-0.1591-0.2523-0.2417-0.3737c-0.0686-0.0872-0.1159-0.1692-0.1519-0.2505
				c-0.0473-0.082-0.1098-0.1633-0.1134-0.2388c-0.0354-0.1579,0.0015-0.3175,0.0172-0.4823
				c0.0197-0.166,0.0313-0.3451-0.0743-0.5249c-0.0211,0.3345-0.2883,0.5944-0.2241,0.9809
				c0.0166,0.0984,0.0841,0.1897,0.1405,0.2805c0.0636,0.0926,0.1199,0.1834,0.2131,0.2636
				c0.1223,0.1291,0.2529,0.256,0.3916,0.3805c-0.5692,0.4546-1.9947,1.5861-2.2091,2.2828l-2.0035,0.5894
				c-1.281,0.3861-2.566,0.7734-3.7396,1.2586l-0.1019-0.0013c-0.2878-0.4751-0.2444-0.9422-0.0789-1.3524
				c0.1789-0.4332,0.4962-0.8297,0.9749-1.131c0.4553-0.3138,1.0599-0.5443,1.5914-0.8304
				c0.5246-0.2877,1.0027-0.6462,1.0983-1.1243c-0.2146,0.4396-0.7148,0.751-1.2615,1.0069c-0.5099,0.2454-1.0725,0.46-1.547,0.745
				c-0.1577-0.8487,0.2637-1.582,0.7333-2.41c0.4267-0.8098,0.8564-1.6165,1.1825-2.4623c-0.5488,0.7683-0.9999,1.5697-1.451,2.3712
				c-0.1729,0.3361-0.3583,0.6756-0.4804,1.0353c-0.8801-1.0025-1.1865-2.1243-1.6827-2.9055
				c0.0376,0.2526,0.1121,0.5101,0.1875,0.7635c0.2378,0.7985,0.7765,1.648,1.4837,2.172
				c-0.1685,0.4412-0.1967,0.9672,0.0005,1.4511l-0.0851,0.0511c-0.3313,0.2286-0.5935,0.4985-0.7692,0.801
				c-0.6725-0.7203-1.395-1.4222-2.101-2.1288c-0.7417-0.7309-1.4568-1.4617-2.1688-2.2049
				c0.518,0.7759,1.2074,1.5332,1.9398,2.2705c0.7214,0.706,1.495,1.4011,2.3236,2.0724c-0.0743,0.1284-0.1388,0.2613-0.1745,0.4014
				c-0.13,0.4344-0.1075,0.9398,0.2691,1.4086c-0.1479,0.0003-0.2877,0.0137-0.4011,0.0424
				c-0.0617,0.0144-0.1206,0.03-0.1777,0.0464c-0.2076,0.0595-0.3899,0.1293-0.584,0.191c-0.4918,0.16-0.9988,0.3053-1.5059,0.4505
				c-1.0242,0.2858-2.0775,0.5381-3.1655,0.762C17.8372,31.8728,18.9373,31.6607,19.9898,31.3973 M28.3576,31.7341
				c0.2994,0.0594,0.6058,0.1204,0.9082,0.1828c0.7387,0.8272,2.2714,1.5646,2.9913,1.6254
				c-0.7565-0.2439-2.1561-1.1027-2.926-1.6134c0.3747,0.076,0.7565,0.1537,1.1342,0.2326c2.8969,0.5628,4.9777,1.2157,6.877,1.0848
				c-1.8363-0.0008-3.3492-0.5183-6.8532-1.2519c-0.5987-0.1187-1.1975-0.2375-1.7983-0.348l0.0674-0.0117l0.4219-0.0942
				c0.285-0.0626,0.5539-0.1357,0.8267-0.2102c0.5286-0.1552,1.0489-0.3235,1.5178-0.5418
				c-0.6025,0.0885-1.1533,0.2273-1.6878,0.3767c-0.2669,0.0802-0.5295,0.1594-0.7842,0.2514l-0.3795,0.1355l-0.1454,0.0645
				c-0.4988-0.0937-0.9978-0.1876-1.4989-0.2732c-1.1509-0.1974-2.3037-0.3863-3.4578-0.556
				C25.1644,31.1213,26.7591,31.4207,28.3576,31.7341 M33.9654,29.6155c1.0721,0.09,2.1474,0.1831,3.2047,0.1969
				c0.9831,0.0005,2.0866,0.0048,2.9792-0.2691c-0.9185,0.1981-1.9859,0.1642-3.0279,0.1343
				c-1.0501-0.0429-2.1152-0.1312-3.1871-0.2364c-1.068-0.0912-2.1421-0.2036-3.2114-0.2601
				c-1.0641-0.0616-2.1247-0.0787-3.1248,0.0093C29.6776,29.1636,31.8173,29.4061,33.9654,29.6155"></path>
  <g>
    <path fill="#80BC41" d="M29.8786 22.2275c2.0796-.0269 4.2193.2156 6.3673.425 1.0721.09 2.1474.1831 3.2047.1969.9886.0005 2.0868.0049 2.9792-.2691-.9185.1981-1.9859.1642-3.0279.1343-1.0501-.0429-2.1152-.1312-3.1871-.2364C34.1842 22.3048 31.9125 22.0484 29.8786 22.2275zM25.8517 23.8243c1.5933.334 3.188.6333 4.7865.9467.2994.0594.6058.1204.9082.1828.3124.3498.7453.6727 1.2304.9537.265.1495.5443.287.836.4059.2888.116.6059.2389.9249.2659-.3011-.0971-.562-.2322-.8271-.3664-.2599-.1394-.521-.2747-.7717-.4206-.4639-.2604-.8931-.5385-1.3272-.8265.3747.076.7565.1537 1.1342.2326 1.1515.2237 2.2896.4859 3.4401.7291 1.1485.2362 2.3493.4306 3.4369.3556-1.1177-.0005-2.2805-.2249-3.4155-.484-1.137-.2662-2.2903-.5277-3.4377-.7679-.5987-.1187-1.1974-.2375-1.7983-.348l.0674-.0117.4219-.0942c.285-.0626.5539-.1357.8267-.2102.5286-.1552 1.0489-.3235 1.5178-.5418-.6025.0885-1.1533.2273-1.6878.3767-.2669.0802-.5295.1594-.7842.2514l-.3795.1355-.1454.0645c-.4988-.0937-.9978-.1876-1.4989-.2732C28.1586 24.183 27.0058 23.994 25.8517 23.8243z"></path>
    <path fill="#80BC41" d="M20.4544,17.423c0.518,0.7759,1.2074,1.5332,1.9398,2.2705c0.7214,0.706,1.495,1.4011,2.3236,2.0724
				c-0.0743,0.1284-0.1388,0.2613-0.1745,0.4014c-0.1299,0.4344-0.1075,0.9398,0.2691,1.4086
				c-0.1479,0.0003-0.2877,0.0137-0.4011,0.0424c-0.0617,0.0144-0.1206,0.03-0.1777,0.0464
				c-0.2076,0.0595-0.3899,0.1293-0.584,0.191c-0.4918,0.16-0.9988,0.3053-1.5059,0.4505c-1.0242,0.2858-2.0775,0.5381-3.1655,0.762
				c1.1394-0.1584,2.2395-0.3705,3.292-0.6339c0.2795-0.0681,0.5533-0.1417,0.8233-0.2191
				c0.2411-0.0691,0.4793-0.1411,0.7161-0.2143c0.1798-0.053,0.3582-0.1186,0.5395-0.1705
				c0.3185-0.0913,0.6455-0.1402,1.0018-0.0038c1.9176,0.6887,1.5635,0.6814,3.1427,1.685c0.721,0.4806,2.29,1.5176,3.1051,1.8183
				c-1.8966-0.7929-3.1806-2.5403-6.1741-3.658c-0.1423-0.0508-0.2982-0.0789-0.4541-0.0914
				c0.6363-0.2242,1.2974-0.4254,1.9687-0.6178c0.6158-0.1764,1.2401-0.3454,1.8608-0.5176l1.8102-0.515
				c0.1012-0.0289,3.7203-1.062,3.4906-0.9965l1.0691-0.2833l1.0516-0.2746c1.0005,0.2365,2.0161,0.4001,3.0238,0.5047
				c0.5513,0.0521,1.0975,0.0941,1.64,0.1067c0.5374,0.018,1.0688-0.0006,1.6058,0.1816c-0.5049-0.2488-1.1197-0.2751-1.6434-0.3159
				c-0.5452-0.0462-1.0874-0.0894-1.6337-0.1469c-0.54-0.0514-1.087-0.1199-1.6353-0.1845
				c-0.4227-0.0506-0.8434-0.1096-1.2652-0.1644l1.0814-0.1839c0.7599-0.1413,1.543-0.255,2.3201-0.3745l2.3312-0.374
				c-1.5924,0.1967-3.195,0.3732-4.7572,0.6147l-1.1723,0.183l-1.0934,0.2752c-0.1013,0.0287-4.3982,1.2454-4.2972,1.216
				c0.5691-0.9718,4.5073-3.674,5.445-4.3137c-1.2101,0.5836-2.2672,1.2798-3.246,2.0109
				c-0.0775-0.1268-0.1591-0.2524-0.2417-0.3737c-0.0686-0.0873-0.1159-0.1692-0.1519-0.2505
				c-0.0473-0.082-0.1098-0.1633-0.1134-0.2387c-0.0354-0.1579,0.0015-0.3175,0.0171-0.4823
				c0.0197-0.166,0.0313-0.3451-0.0743-0.5249c-0.0211,0.3345-0.2883,0.5944-0.2241,0.9809
				c0.0166,0.0984,0.0841,0.1897,0.1405,0.2805c0.0636,0.0926,0.1199,0.1834,0.2131,0.2636
				c0.1223,0.1291,0.2529,0.256,0.3916,0.3805c-0.462,0.369-0.9219,0.7453-1.334,1.1423c-0.3537,0.3456-0.7411,0.7049-0.8751,1.1405
				l-2.0036,0.5894c-1.281,0.3861-2.566,0.7734-3.7397,1.2587l-0.1019-0.0013c-0.2878-0.4751-0.2444-0.9422-0.0789-1.3524
				c0.1789-0.4332,0.4962-0.8297,0.9749-1.131c0.4553-0.3138,1.0599-0.5443,1.5914-0.8304
				c0.5246-0.2877,1.0027-0.6462,1.0983-1.1243c-0.2146,0.4396-0.7148,0.751-1.2615,1.0069c-0.5099,0.2454-1.0725,0.46-1.547,0.745
				c-0.0782-0.4206-0.0178-0.8198,0.1269-1.1936c0.2536-0.6957,1.2055-2.1654,1.7889-3.6787
				c-0.5363,0.7508-1.654,2.5896-1.9314,3.4064c-0.3993-0.4548-0.6667-0.9204-0.9119-1.385
				c-0.2621-0.5016-0.4466-1.01-0.7708-1.5205c0.0376,0.2526,0.1121,0.5101,0.1875,0.7635
				c0.0754,0.2533,0.1835,0.5127,0.3191,0.7679c0.1356,0.2552,0.2926,0.5158,0.5017,0.7652
				c0.1818,0.2229,0.3953,0.4406,0.6629,0.6389c-0.0229,0.06-0.0459,0.1201-0.0586,0.1848
				c-0.1093,0.3979-0.1179,0.8319,0.0591,1.2663l-0.0851,0.0511c-0.3313,0.2286-0.5935,0.4985-0.7692,0.801
				c-0.6725-0.7203-1.395-1.4222-2.101-2.1288C21.8815,18.897,21.1663,18.1662,20.4544,17.423z"></path>
    <path fill="#A9C838" d="M18.661,24.8267c0.028-0.0089,0.0563-0.0174,0.0849-0.0256c0.5993-0.1717,1.3276-0.1966,1.9739-0.3198
				c0.2475-0.0483,0.4862-0.1109,0.7197-0.1778c0.0826-0.0237,0.1646-0.0478,0.246-0.0722
				c0.3557-0.1019,0.7114-0.2039,1.0642-0.3087c0.3312-0.0949,0.6674-0.1952,0.9226-0.3485
				c0.2563-0.1574,0.4233-0.3809,0.3672-0.6361c-0.0451-0.2239-0.2534-0.4468-0.4729-0.655
				c-1.0435-0.9882-2.4376-1.8642-3.2963-2.894c-0.5282-0.6315-1.1609-1.2102-1.8435-1.8014
				c-0.0466-0.0401-0.0963-0.0833-0.107-0.1297c-0.0118-0.0356,0.0091-0.071,0.1739-0.0728
				c0.2117,0.0616,0.4201,0.1355,0.6162,0.2283c-0.2298-0.5833,0.0488-1.1254,0.5506-1.5175
				c0.551,0.3502,1.3452,0.5045,1.8694,0.8698c0.2444,0.1705,0.4121,0.3747,0.5696,0.574c0.3079,0.3815,0.6159,0.763,0.9238,1.1445
				c0.1291,0.1615,0.3379,0.3232,0.4988,0.4795c-0.2545-0.309-0.2448-0.6288-0.3227-0.9463
				c-0.0791-0.3134-0.252-0.6306-0.3687-0.9447c-0.1477-0.4007-0.2005-0.8018-0.0885-1.1663
				c0.1081-0.3631,0.391-0.685,0.8505-0.8815c0.2555,0.4347,1.4903,0.9114,1.4556,1.4811c0.2463-0.5786,0.5172-1.1488,0.7634-1.7274
				c0.234,0.1965,0.4301,0.4076,0.5835,0.6235c0.5437-0.7599,1.3136-0.8124,1.3105-1.1548
				c0.1607,0.3207,0.4049,0.6403,0.7156,0.9371c0.2681,0.2553,0.6026,0.5186,0.6421,0.7936
				c0.0309,0.2203-0.1398,0.3991-0.3074,0.5655c0.1593-0.0815,0.3349-0.1507,0.5258-0.2054
				c0.1334-0.0382,0.2742-0.0694,0.422-0.0929c0.1315,0.138,0.0997,0.2924,0.0446,0.4188c-0.315,0.7434-1.1617,1.2839-1.5845,1.9894
				c0.3995-0.3793,0.9581-0.68,1.6309-0.8728c0.0263-0.0075,0.0527-0.0149,0.0793-0.0221c0.1256-0.0323,0.2739-0.0631,0.4275-0.027
				c0.1496,0.0373,0.2691,0.1328,0.3256,0.2237c0.0593,0.0937,0.0657,0.1873,0.0762,0.2798
				c0.0089,0.1578,0.0219,0.3145,0.0339,0.4753c0.0635,0.0094,0.1187,0.0051,0.1665-0.0085
				c0.1166-0.0334,0.1882-0.1231,0.2258-0.207c0.1753-0.3749,0.2501-0.7859,0.4915-1.1377c0.2177-0.3183,0.5707-0.5875,1.021-0.7776
				c0.449,0.2692,0.6769,0.6711,0.567,0.9801c0.1108-0.2383,0.4373-0.3957,0.7582-0.531c0.1642-0.0674,0.3373-0.1335,0.5216-0.1863
				c0.3004-0.0861,0.6303-0.1369,0.9992-0.1004c0.3924,0.0366,0.8359,0.1691,1.1538,0.0819
				c0.5301,0.3864,0.6371,0.9019,0.3761,1.2708c-0.2609,0.369-0.7789,0.6167-1.2795,0.8556c-0.4096,0.1936-0.819,0.3874-1.2244,0.58
				c0.8781-0.1294,1.6176-0.414,2.4533-0.6c0.3209-0.0689,0.6578-0.1274,0.9908-0.1845c0.3083-0.0502,0.6137-0.1033,0.918-0.1524
				c0.8394-0.1413,1.6871-0.2847,2.616-0.2722c-0.1005,0.0669-0.1644,0.154-0.1814,0.2507
				c0.5353-0.2287,1.2983-0.2335,1.8781-0.2021c-0.0172,0.1119-0.0356,0.2278-0.0569,0.3408
				c0.4266-0.0228,0.9081,0.0798,1.3393,0.2312c0.4341,0.1543,0.8303,0.3541,1.2264,0.5537
				c-0.0783-0.0022-0.1475,0.0083-0.2107,0.0264c-0.1128,0.0323-0.2057,0.089-0.2944,0.1413
				c-0.1298,0.0739-0.2777,0.1432-0.4428,0.1905c-0.179,0.0513-0.3784,0.0767-0.5973,0.0541
				c0.2468,0.1317,0.5182,0.2411,0.7969,0.3216c-1.2261-0.2293-2.2461,0.3228-3.4763,0.0947
				c0.9012,0.1657,1.7542,0.4903,2.5209,0.9009c-1.525,0.3033-3.1652,0.4639-4.8735,0.476
				c1.0891,0.1117,2.1164-0.0528,3.2126,0.1068c0.4277,0.0606,0.8481,0.1656,1.2729,0.2233
				c-0.2286,0.1534-0.271,0.3489-0.3807,0.556c-0.1305,0.2436-0.6355,0.3959-0.9346,0.5581
				c-0.1773,0.1003-0.3617,0.199-0.5866,0.2634c-0.413,0.1183-0.9523,0.1088-1.455-0.0298
				c0.2227,0.0775,0.4495,0.1538,0.6722,0.2313c-0.0332,0.0269-0.0766,0.0464-0.1262,0.0606
				c-0.1143,0.0328-0.2627,0.0374-0.4028,0.0375c-1.4736-0.0017-3.0253-0.1872-4.541-0.5436
				c0.1589,0.1492,0.1666,0.3265,0.0901,0.463c-0.0836,0.1348-0.2395,0.2406-0.4003,0.3364
				c-0.1778,0.1086-0.3734,0.2162-0.6046,0.2824c-0.0774,0.0222-0.1591,0.0394-0.2452,0.0508
				c0.7693-0.0555,1.5385-0.1112,2.3077-0.1667c0.3162-0.022,0.6398-0.042,0.9767,0.0332c0.3339,0.0724,0.6689,0.2744,0.6885,0.4786
				c0.0209,0.2004-0.2513,0.3165-0.5008,0.4033c0.499,0.0939,0.9784,0.323,1.2759,0.612c0.5359-0.0657,1.1775,0.0638,1.677,0.333
				c-0.3028,0.3694-0.7662,0.6702-1.3408,0.8732c0.1696,0.0927,0.3535,0.1737,0.5385,0.2506
				c-1.2031-0.042-3.0886-0.0085-6.4156-0.3999c-0.972-0.111-1.9976-0.2639-2.8581-0.6781
				c0.3661,0.2426,0.6884,0.5093,1.0115,0.7719l-0.0871,0.0594c0.4213,0.2344,0.8323,0.4795,1.2261,0.7334
				c-0.2935-0.0228-0.5641,0.0126-0.8355,0.037c-2.8653,0.2584-4.275-0.6371-5.7935-2.1515
				c-0.3471-0.3475-0.694-0.6948-1.041-1.0423c-0.2115-0.2106-0.4391-0.4318-0.7685-0.5666
				c-0.0548-0.0224-0.118-0.0426-0.1741-0.0456c-0.0631-0.0047-0.1194,0.0075-0.1725,0.0227
				c-0.6112,0.1675-1.2223,0.3351-1.8335,0.5026c-0.5417,0.1476-1.0802,0.2828-1.6312,0.4214
				c-0.2635,0.068-0.5303,0.1329-0.8092,0.1861c-0.3176,0.0566-0.6524,0.0914-0.983,0.1252
				c-0.1328,0.015-0.2869,0.0248-0.4138-0.042c-0.1106-0.056-0.1446-0.1457-0.1439-0.2221
				C18.5958,24.9486,18.6829,24.9046,18.661,24.8267z M22.2703,24.4342c0.2795-0.0681,0.5533-0.1417,0.8232-0.2191
				c0.2411-0.0691,0.4793-0.1411,0.7161-0.2143c0.1797-0.053,0.3582-0.1186,0.5395-0.1705
				c0.3185-0.0913,0.6455-0.1402,1.0018-0.0038c1.9176,0.6887,1.5635,0.6814,3.1426,1.685c0.7208,0.4804,2.29,1.5176,3.1051,1.8183
				c-1.8966-0.7929-3.1806-2.5402-6.1741-3.658c-0.1423-0.0508-0.2982-0.0789-0.4541-0.0914
				c0.6363-0.2242,1.2974-0.4254,1.9686-0.6178c0.6158-0.1764,1.2401-0.3454,1.8608-0.5176l1.8102-0.515
				c0.1012-0.0289,3.7203-1.062,3.4906-0.9965l1.0691-0.2833l1.0516-0.2746c1.0005,0.2365,2.0161,0.4001,3.0238,0.5047
				c0.5513,0.0521,1.0975,0.0941,1.64,0.1067c0.5374,0.018,1.0689-0.0006,1.6058,0.1816c-0.5049-0.2488-1.1197-0.2751-1.6434-0.3159
				c-0.5452-0.0462-1.0874-0.0894-1.6337-0.1469c-0.54-0.0514-1.087-0.1199-1.6353-0.1845
				c-0.4227-0.0506-0.8434-0.1095-1.2652-0.1644l1.0814-0.1839c0.7599-0.1413,1.543-0.255,2.3201-0.3745l2.3312-0.3739
				c-1.5924,0.1967-3.195,0.3732-4.7572,0.6147l-1.1723,0.183l-1.0934,0.2752c-0.1013,0.0287-4.3982,1.2454-4.2972,1.2159
				c0.5691-0.9718,4.5074-3.6741,5.445-4.3137c-1.2101,0.5836-2.2672,1.2798-3.246,2.0109
				c-0.0775-0.1268-0.1591-0.2523-0.2417-0.3737c-0.0686-0.0872-0.1159-0.1692-0.1519-0.2505
				c-0.0473-0.082-0.1098-0.1633-0.1134-0.2388c-0.0354-0.1579,0.0015-0.3175,0.0172-0.4823
				c0.0197-0.166,0.0313-0.3451-0.0743-0.5249c-0.0211,0.3345-0.2883,0.5944-0.2241,0.9809
				c0.0166,0.0984,0.0841,0.1897,0.1405,0.2805c0.0636,0.0926,0.1199,0.1834,0.2131,0.2636
				c0.1223,0.1291,0.2529,0.256,0.3916,0.3805c-0.462,0.369-0.9219,0.7453-1.3339,1.1423
				c-0.3537,0.3456-0.7411,0.7049-0.8751,1.1405l-2.0035,0.5894c-1.281,0.3861-2.566,0.7734-3.7396,1.2586l-0.1019-0.0013
				c-0.2878-0.4751-0.2444-0.9422-0.0789-1.3524c0.1789-0.4332,0.4962-0.8297,0.9749-1.131
				c0.4553-0.3138,1.0599-0.5443,1.5914-0.8304c0.5246-0.2877,1.0027-0.6462,1.0983-1.1243
				c-0.2146,0.4396-0.7148,0.751-1.2615,1.0069c-0.5099,0.2454-1.0725,0.46-1.547,0.745c-0.0782-0.4206-0.0178-0.8198,0.1269-1.1936
				c0.2536-0.6957,1.2055-2.1654,1.7889-3.6787c-0.5363,0.7508-1.654,2.5896-1.9314,3.4064
				c-0.3993-0.4548-0.6667-0.9204-0.9119-1.385c-0.2621-0.5016-0.4466-1.01-0.7708-1.5205
				c0.0376,0.2526,0.1121,0.5101,0.1875,0.7635c0.0754,0.2533,0.1835,0.5127,0.3191,0.7679
				c0.1356,0.2552,0.2926,0.5158,0.5017,0.7653c0.1818,0.2229,0.3953,0.4406,0.6629,0.6389
				c-0.0229,0.06-0.0459,0.1201-0.0586,0.1848c-0.1093,0.3979-0.1179,0.8319,0.0591,1.2663l-0.0851,0.0511
				c-0.3313,0.2286-0.5935,0.4985-0.7692,0.801c-0.6725-0.7203-1.395-1.4222-2.101-2.1288
				c-0.7417-0.7309-1.4568-1.4617-2.1688-2.2049c0.518,0.7759,1.2074,1.5332,1.9398,2.2705c0.7214,0.706,1.495,1.4011,2.3236,2.0724
				c-0.0743,0.1284-0.1388,0.2613-0.1745,0.4014c-0.13,0.4344-0.1075,0.9398,0.2691,1.4086
				c-0.1479,0.0003-0.2877,0.0137-0.4011,0.0424c-0.0617,0.0144-0.1206,0.03-0.1777,0.0464
				c-0.2076,0.0595-0.3899,0.1293-0.584,0.191c-0.4918,0.16-0.9988,0.3053-1.5059,0.4505c-1.0242,0.2858-2.0775,0.5381-3.1655,0.762
				C20.1177,24.9097,21.2178,24.6977,22.2703,24.4342 M30.6381,24.771c0.2994,0.0594,0.6058,0.1204,0.9082,0.1828
				c0.3124,0.3498,0.7453,0.6727,1.2304,0.9537c0.265,0.1495,0.5443,0.287,0.836,0.4059c0.2888,0.116,0.6059,0.2389,0.9249,0.2659
				c-0.3011-0.0971-0.562-0.2322-0.8271-0.3664c-0.2599-0.1394-0.521-0.2747-0.7717-0.4206
				c-0.4639-0.2604-0.8931-0.5385-1.3272-0.8265c0.3747,0.076,0.7565,0.1537,1.1342,0.2326
				c1.1515,0.2237,2.2896,0.4859,3.4401,0.7291c1.1485,0.2362,2.3493,0.4306,3.4369,0.3556
				c-1.1177-0.0005-2.2805-0.2249-3.4155-0.484c-1.137-0.2662-2.2903-0.5277-3.4377-0.7679
				c-0.5987-0.1187-1.1974-0.2375-1.7983-0.348l0.0674-0.0117l0.4219-0.0942c0.285-0.0626,0.5539-0.1357,0.8267-0.2102
				c0.5286-0.1552,1.0489-0.3235,1.5178-0.5418c-0.6025,0.0885-1.1533,0.2273-1.6878,0.3767
				c-0.2669,0.0802-0.5295,0.1594-0.7842,0.2514l-0.3795,0.1355l-0.1454,0.0645c-0.4988-0.0937-0.9978-0.1876-1.4989-0.2732
				c-1.1509-0.1974-2.3037-0.3863-3.4578-0.556C27.4449,24.1583,29.0396,24.4577,30.6381,24.771 M36.2459,22.6524
				c1.0721,0.09,2.1474,0.1831,3.2047,0.1969c0.9831,0.0005,2.0866,0.0048,2.9792-0.2691
				c-0.9185,0.1981-1.9859,0.1642-3.0279,0.1343c-1.0501-0.0429-2.1152-0.1312-3.1871-0.2364
				c-2.0308-0.1734-4.3022-0.4298-6.3362-0.2507C31.9581,22.2006,34.0978,22.443,36.2459,22.6524"></path>
  </g>
  <g>
    <path fill="#80BC41" d="M21.7187 29.4532c-2.0796-.0269-4.2193.2156-6.3673.425-1.0721.09-2.1474.1831-3.2047.1969-.9886.0005-2.0868.0049-2.9792-.2691.9185.1981 1.9859.1642 3.0279.1343 1.0501-.0429 2.1152-.1312 3.1871-.2364 1.068-.0912 2.1421-.2036 3.2114-.2601C19.658 29.3822 20.7186 29.3651 21.7187 29.4532zM25.7456 31.05c-1.5933.334-3.188.6333-4.7865.9467-.2994.0594-.6058.1205-.9082.1828-.7387.8272-2.2714 1.5646-2.9913 1.6254.7565-.2439 2.1561-1.1027 2.926-1.6134-3.7807.7668-2.4013.5022-4.5743.9617-1.1485.2362-2.3493.4306-3.4369.3556 1.1177-.0005 2.2805-.2249 3.4155-.484 1.137-.2662 2.2903-.5277 3.4377-.7679.5987-.1187 1.1974-.2375 1.7983-.348l-.0674-.0117-.4219-.0942c-.285-.0626-.5539-.1357-.8267-.2102-.5286-.1552-1.0489-.3235-1.5178-.5418.6025.0885 1.1533.2273 1.6878.3767.2669.0802.5295.1594.7842.2514l.3795.1355.1454.0645c.4988-.0937.9978-.1876 1.4989-.2732C23.4386 31.4087 24.5914 31.2197 25.7456 31.05z"></path>
    <path fill="#80BC41" d="M31.1428,24.6488c-1.0019,1.5007-2.8559,3.2025-4.2634,4.3429c0.0743,0.1284,0.1388,0.2613,0.1745,0.4014
				c0.1299,0.4344,0.1075,0.9398-0.2691,1.4086c0.1479,0.0003,0.2877,0.0137,0.4011,0.0424c0.0617,0.0144,0.1206,0.03,0.1777,0.0464
				c0.2076,0.0595,0.3899,0.1293,0.584,0.191c0.4918,0.16,0.9988,0.3053,1.5059,0.4505c1.0242,0.2858,2.0776,0.5381,3.1655,0.762
				c-1.1394-0.1584-2.2395-0.3705-3.292-0.6339c-0.2795-0.0681-0.5533-0.1417-0.8233-0.2191
				c-0.2411-0.0691-0.4793-0.1411-0.7161-0.2143c-0.1798-0.053-0.3582-0.1186-0.5395-0.1705
				c-0.3185-0.0913-0.6455-0.1402-1.0018-0.0038c-0.5796,0.2081-1.1969,0.4324-1.6963,0.717
				c-0.4727,0.3152-0.9412,0.647-1.4464,0.968c-0.721,0.4806-2.29,1.5176-3.1051,1.8183c0.6897-0.2883,2.8342-1.8041,2.9637-1.8969
				c0.4706-0.3235,0.9431-0.6539,1.437-0.9898c0.5512-0.3195,1.1542-0.5402,1.7734-0.7714
				c0.1423-0.0508,0.2982-0.0789,0.4541-0.0914c-1.2271-0.4323-2.5528-0.7811-3.8294-1.1354l-1.8102-0.5149l-2.4378-0.6871
				l-1.0529-0.3094l-1.0691-0.2833l-1.0516-0.2746c-1.0005,0.2365-2.0161,0.4001-3.0238,0.5047
				c-0.5513,0.0521-1.0975,0.0941-1.64,0.1067c-0.5374,0.018-1.0688-0.0006-1.6058,0.1816
				c0.5049-0.2488,1.1197-0.2751,1.6434-0.3159c0.5452-0.0462,1.0874-0.0894,1.6337-0.1469c0.54-0.0514,1.087-0.1199,1.6353-0.1845
				c0.4227-0.0506,0.8434-0.1096,1.2652-0.1644l-1.0814-0.1839c-0.7599-0.1413-1.543-0.255-2.3201-0.3745l-2.3312-0.374
				c1.5924,0.1967,3.195,0.3732,4.7572,0.6147l1.1723,0.183l1.0934,0.2752l1.0874,0.2809l1.0579,0.2994l2.1519,0.6356
				c-0.2285-0.3902-0.6349-0.7051-1.0097-1.0303c-0.4621-0.3844-0.9231-0.7647-1.4144-1.1309
				c-0.9494-0.7494-1.9881-1.448-3.0208-2.1525c1.2101,0.5836,2.2672,1.2798,3.246,2.0109
				c0.0775-0.1268,0.1591-0.2524,0.2417-0.3737c0.0686-0.0873,0.1159-0.1692,0.1519-0.2505
				c0.0473-0.082,0.1098-0.1633,0.1134-0.2387c0.0354-0.1579-0.0015-0.3175-0.0171-0.4823
				c-0.0197-0.166-0.0313-0.3451,0.0743-0.5249c0.0211,0.3345,0.2883,0.5944,0.2241,0.9809
				c-0.0166,0.0984-0.0841,0.1897-0.1405,0.2805c-0.0636,0.0926-0.1199,0.1834-0.2131,0.2636
				c-0.1223,0.1291-0.2529,0.256-0.3916,0.3805c0.462,0.369,0.9219,0.7453,1.334,1.1423c0.3537,0.3456,0.7411,0.7049,0.8751,1.1405
				l2.0036,0.5894c1.281,0.3861,2.566,0.7734,3.7397,1.2587l0.1019-0.0013c0.2878-0.4751,0.2444-0.9422,0.0789-1.3524
				c-0.1789-0.4332-0.4962-0.8297-0.9749-1.131c-0.4553-0.3138-1.0599-0.5443-1.5914-0.8304
				c-0.5246-0.2877-1.0027-0.6462-1.0983-1.1243c0.2146,0.4396,0.7148,0.751,1.2615,1.0069c0.5099,0.2454,1.0725,0.46,1.547,0.745
				c0.0782-0.4206,0.0178-0.8198-0.1269-1.1936c-0.1523-0.4179-0.3788-0.8151-0.6064-1.2164
				c-0.4267-0.8098-0.8564-1.6165-1.1825-2.4623c0.5488,0.7683,0.9999,1.5697,1.451,2.3712
				c0.1729,0.3361,0.3583,0.6756,0.4804,1.0353c0.8937-1.018,1.1728-2.1027,1.6827-2.9055
				c-0.1191,0.7998-0.5032,1.6939-1.0084,2.2966c-0.1818,0.2229-0.3953,0.4406-0.6629,0.6389
				c0.0229,0.06,0.0459,0.1201,0.0586,0.1848c0.1093,0.3979,0.1179,0.8319-0.0591,1.2663l0.0851,0.0511
				c0.3313,0.2286,0.5935,0.4985,0.7692,0.801c0.6725-0.7203,1.395-1.4222,2.101-2.1288
				C29.7157,26.1227,30.4309,25.3919,31.1428,24.6488z"></path>
    <path fill="#A9C838" d="M33.0061,32.2521c0.0007,0.0765-0.0334,0.1662-0.1439,0.2221c-0.127,0.0668-0.2811,0.057-0.4138,0.042
				c-0.7742-0.0791-1.0301-0.1145-1.7921-0.3113c-0.5509-0.1386-1.0895-0.2738-1.6312-0.4214
				c-0.6112-0.1675-1.2223-0.3351-1.8335-0.5026c-0.0532-0.0152-0.1094-0.0274-0.1725-0.0227
				c-0.056,0.003-0.1192,0.0232-0.1741,0.0456c-0.3293,0.1348-0.5569,0.3559-0.7685,0.5666
				c-2.1405,2.1433-3.2807,3.5144-6.8346,3.1938c-0.2715-0.0243-0.542-0.0598-0.8355-0.037
				c0.3937-0.2539,0.8048-0.499,1.2261-0.7334l-0.0871-0.0594c0.3232-0.2625,0.6454-0.5293,1.0115-0.7719
				c-1.8075,0.8701-7.1748,1.0596-9.1667,1.0666l-0.107,0.0114c0.185-0.0769,0.369-0.1579,0.5385-0.2506
				c-0.5747-0.203-1.038-0.5038-1.3408-0.8732c0.4995-0.2692,1.141-0.3987,1.677-0.333c0.2974-0.289,0.7769-0.5182,1.2759-0.612
				c-1.1289-0.3928-0.1797-1.0088,1.1643-0.9152c0.7693,0.0555,1.5384,0.1112,2.3077,0.1667
				c-0.086-0.0114-0.1678-0.0286-0.2452-0.0508c-0.2312-0.0662-0.4267-0.1739-0.6046-0.2824
				c-0.1608-0.0958-0.3167-0.2016-0.4003-0.3364c-0.0765-0.1365-0.0689-0.3138,0.0901-0.463
				c-0.9488,0.2231-4.6362,0.7972-5.0701,0.4455c0.2227-0.0775,0.4495-0.1538,0.6722-0.2313
				c-0.8923,0.246-1.4956,0.0753-2.0416-0.2336c-0.299-0.1621-0.804-0.3145-0.9345-0.5581
				c-0.1097-0.2072-0.1521-0.4027-0.3807-0.556c0.4247-0.0577,0.8452-0.1627,1.2729-0.2233
				c1.0961-0.1596,2.1234,0.0049,3.2126-0.1068c-1.7083-0.0121-3.3484-0.1727-4.8735-0.476
				c0.7668-0.4106,1.6197-0.7352,2.5209-0.9009c-1.2302,0.2281-2.2502-0.324-3.4763-0.0947
				c0.2788-0.0805,0.5501-0.1899,0.7969-0.3216C6.7626,27.4045,6.3638,27.0207,6.11,26.948
				c-0.0631-0.0181-0.1324-0.0286-0.2107-0.0264c0.7564-0.3812,1.659-0.8333,2.5656-0.7849
				c-0.0213-0.113-0.0397-0.2289-0.0569-0.3408c0.5806-0.0315,1.1701-0.0162,1.6392,0.1183
				c0.0837,0.024,0.1637,0.0517,0.2389,0.0838c-0.017-0.0967-0.0809-0.1838-0.1814-0.2507c0.9289-0.0125,1.7766,0.1309,2.616,0.2722
				c0.3042,0.049,0.6096,0.1022,0.918,0.1524c1.762,0.3021,2.423,0.634,3.4441,0.7844c-1.6438-0.7811-3.7111-1.5522-2.1278-2.7064
				c0.318,0.0872,0.7615-0.0454,1.1538-0.0819c0.3689-0.0364,0.6988,0.0144,0.9992,0.1004c0.1843,0.0528,0.3574,0.119,0.5216,0.1863
				c0.3209,0.1353,0.6474,0.2926,0.7582,0.531c-0.1099-0.3089,0.118-0.7109,0.567-0.9801c0.4502,0.1901,0.8032,0.4593,1.021,0.7776
				c0.2415,0.3518,0.3162,0.7628,0.4915,1.1377c0.0376,0.0839,0.1092,0.1736,0.2258,0.207c0.0477,0.0137,0.103,0.0179,0.1665,0.0085
				c0.012-0.1609,0.025-0.3175,0.0339-0.4753c0.0105-0.0925,0.0169-0.1862,0.0762-0.2798c0.0565-0.0909,0.176-0.1864,0.3256-0.2237
				c0.4717-0.111,1.659,0.4673,2.1378,0.9219c-0.4228-0.7055-1.2695-1.246-1.5845-1.9894
				c-0.0552-0.1265-0.0869-0.2808,0.0446-0.4188c0.1478,0.0235,0.2886,0.0547,0.422,0.0929
				c0.1909,0.0547,0.3665,0.1239,0.5258,0.2054c-0.1676-0.1664-0.3383-0.3452-0.3074-0.5655
				c0.0395-0.275,0.374-0.5383,0.6421-0.7936c0.3107-0.2968,0.555-0.6164,0.7156-0.9371c-0.0017,0.1868,0.2318,0.2995,0.4336,0.4069
				c0.3707,0.2057,0.6705,0.4596,0.8768,0.7479c0.1534-0.2159,0.3495-0.427,0.5835-0.6235
				c0.2463,0.5786,0.5172,1.1488,0.7634,1.7274c-0.021-0.3459,0.4941-0.7088,0.773-0.9053c0.2606-0.1812,0.5558-0.36,0.6827-0.5758
				c0.4595,0.1965,0.7424,0.5184,0.8505,0.8815c0.2511,0.8171-0.3011,1.4917-0.4573,2.1109
				c-0.0779,0.3175-0.0682,0.6373-0.3227,0.9463c0.1609-0.1563,0.3697-0.318,0.4988-0.4795c0.308-0.3815,0.6159-0.763,0.9238-1.1445
				c0.1576-0.1994,0.3253-0.4035,0.5697-0.574c0.5242-0.3653,1.3184-0.5196,1.8694-0.8698c0.5019,0.392,0.7804,0.9341,0.5506,1.5175
				c0.1961-0.0928,0.4046-0.1667,0.6162-0.2283c0.1648,0.0018,0.1857,0.0372,0.1739,0.0728
				c-0.0107,0.0464-0.0605,0.0896-0.107,0.1297c-0.6826,0.5912-1.3153,1.1699-1.8435,1.8014
				c-0.8587,1.0297-2.2528,1.9058-3.2963,2.894c-0.2195,0.2081-0.4278,0.4311-0.4729,0.655
				c-0.0561,0.2551,0.1109,0.4787,0.3672,0.6361c0.2552,0.1533,0.5914,0.2536,0.9226,0.3485
				c0.3528,0.1048,0.7085,0.2067,1.0642,0.3087c0.0814,0.0244,0.1634,0.0485,0.246,0.0722
				c0.2335,0.0669,0.4722,0.1295,0.7197,0.1778c0.6691,0.1276,1.4399,0.1498,2.0588,0.3454
				C32.9144,32.1303,33.0014,32.1743,33.0061,32.2521z M29.327,31.66c1.0525,0.2634,2.1526,0.4755,3.292,0.6339
				c-1.0879-0.2239-2.1413-0.4762-3.1655-0.762c-0.507-0.1453-1.014-0.2906-1.5059-0.4505c-0.1941-0.0616-0.3764-0.1315-0.584-0.191
				c-0.0571-0.0164-0.116-0.032-0.1777-0.0464c-0.1134-0.0287-0.2532-0.0421-0.4011-0.0424
				c0.3766-0.4688,0.3991-0.9741,0.2691-1.4086c-0.0358-0.1402-0.1002-0.273-0.1745-0.4014
				c1.4075-1.1404,3.2616-2.8422,4.2634-4.3429c-1.9842,2.0713-3.1784,3.1647-4.2698,4.3336
				c-0.1757-0.3025-0.438-0.5724-0.7692-0.801l-0.0851-0.0511c0.177-0.4343,0.1685-0.8684,0.0591-1.2663
				c-0.0127-0.0648-0.0357-0.1248-0.0586-0.1848c0.2676-0.1983,0.4811-0.416,0.6629-0.6389
				c0.5051-0.6026,0.8893-1.4968,1.0083-2.2966c-0.5272,0.83-0.7865,1.8847-1.6827,2.9055
				c-0.1222-0.3597-0.3075-0.6992-0.4804-1.0353c-0.4511-0.8014-0.9022-1.6029-1.451-2.3712
				c0.326,0.8458,0.7558,1.6525,1.1825,2.4623c0.2276,0.4013,0.4541,0.7986,0.6064,1.2164c0.1447,0.3738,0.2051,0.773,0.1269,1.1936
				c-0.4744-0.2849-1.0371-0.4996-1.547-0.745c-0.5467-0.2559-1.0469-0.5673-1.2615-1.0069
				c0.0956,0.4781,0.5738,0.8366,1.0983,1.1243c0.5314,0.2861,1.1361,0.5166,1.5914,0.8304c0.4788,0.3013,0.796,0.6978,0.9749,1.131
				c0.1655,0.4102,0.2089,0.8773-0.0789,1.3524l-0.1019,0.0013c-1.1736-0.4853-2.4587-0.8725-3.7396-1.2586l-2.0035-0.5894
				c-0.134-0.4356-0.5214-0.7949-0.8751-1.1405c-0.4121-0.397-0.8719-0.7732-1.3339-1.1423
				c0.1388-0.1245,0.2694-0.2514,0.3916-0.3805c0.0931-0.0802,0.1495-0.171,0.2131-0.2636
				c0.0564-0.0908,0.1239-0.1821,0.1405-0.2805c0.0642-0.3865-0.203-0.6464-0.2241-0.9809
				c-0.1057,0.1798-0.094,0.3589-0.0743,0.5249c0.0156,0.1649,0.0526,0.3244,0.0172,0.4823
				c-0.0035,0.0754-0.0661,0.1568-0.1134,0.2388c-0.036,0.0813-0.0833,0.1632-0.1519,0.2505
				c-0.0826,0.1214-0.1642,0.247-0.2417,0.3737c-0.9788-0.7311-2.0359-1.4273-3.246-2.0109
				c1.0327,0.7045,2.0714,1.4031,3.0208,2.1525c0.4914,0.3662,0.9523,0.7465,1.4144,1.1309
				c0.3748,0.3252,0.7813,0.6401,1.0097,1.0303l-2.1519-0.6356l-1.0579-0.2994l-1.0874-0.2809l-1.0934-0.2752l-1.1723-0.183
				c-1.5622-0.2415-3.1648-0.418-4.7572-0.6147l2.3312,0.3739c0.7771,0.1195,1.5601,0.2332,2.3201,0.3745l1.0814,0.1839
				c-0.4218,0.0549-0.8425,0.1138-1.2652,0.1644c-0.5483,0.0646-1.0953,0.1331-1.6353,0.1845
				c-0.5463,0.0575-1.0884,0.1007-1.6337,0.1469c-0.5238,0.0408-1.1385,0.0671-1.6434,0.3159
				c0.537-0.1822,1.0684-0.1636,1.6058-0.1816c0.5424-0.0126,1.0886-0.0546,1.64-0.1067c1.0077-0.1045,2.0232-0.2682,3.0238-0.5047
				l1.0516,0.2746l1.0691,0.2833l1.0529,0.3094l2.4378,0.6871l1.8102,0.515c1.2737,0.3535,2.6029,0.7033,3.8294,1.1354
				c-0.1558,0.0125-0.3118,0.0406-0.4541,0.0914c-0.6192,0.2312-1.2222,0.4519-1.7734,0.7714
				c-0.4939,0.3359-0.9664,0.6663-1.437,0.9898c-0.2607,0.1869-2.2776,1.6101-2.9637,1.8969
				c0.8151-0.3007,2.3843-1.3378,3.1051-1.8183c0.5052-0.321,0.9737-0.6528,1.4464-0.968c0.4994-0.2846,1.1167-0.5088,1.6963-0.717
				c0.3563-0.1364,0.6833-0.0875,1.0018,0.0038c0.1812,0.0519,0.3597,0.1176,0.5395,0.1705
				c0.2368,0.0732,0.475,0.1452,0.7161,0.2143C28.7737,31.5182,29.0474,31.5919,29.327,31.66 M20.9591,31.9968
				c1.5985-0.3134,3.1932-0.6128,4.7865-0.9467c-1.1542,0.1697-2.3069,0.3586-3.4578,0.556
				c-0.5011,0.0856-1.0001,0.1795-1.4989,0.2732l-0.1454-0.0645l-0.3795-0.1355c-0.2547-0.092-0.5173-0.1712-0.7842-0.2514
				c-0.5345-0.1494-1.0853-0.2882-1.6878-0.3767c0.4689,0.2183,0.9892,0.3866,1.5178,0.5418
				c0.2728,0.0744,0.5417,0.1476,0.8267,0.2102l0.4219,0.0942l0.0674,0.0117c-0.6008,0.1105-1.1995,0.2292-1.7983,0.348
				c-1.1473,0.2402-2.3007,0.5017-3.4377,0.7679c-1.135,0.2591-2.2978,0.4835-3.4155,0.484
				c1.0876,0.075,2.2884-0.1194,3.4369-0.3556c1.9412-0.4105,0.996-0.236,4.5743-0.9617c-0.7798,0.5173-2.1729,1.3706-2.926,1.6134
				c0.6998-0.0591,2.233-0.7763,2.9913-1.6254C20.3533,32.1172,20.6596,32.0562,20.9591,31.9968 M15.3514,29.8782
				c2.148-0.2094,4.2877-0.4519,6.3673-0.425c-1.0001-0.088-2.0606-0.071-3.1248-0.0093c-1.0693,0.0564-2.1434,0.1689-3.2114,0.2601
				c-1.0719,0.1052-2.137,0.1935-3.1871,0.2364c-1.042,0.0299-2.1094,0.0638-3.0279-0.1343
				c0.8933,0.2742,1.9777,0.2696,2.9792,0.2691C13.204,30.0612,14.2792,29.9682,15.3514,29.8782"></path>
  </g>
  <g>
    <g>
      <path fill="#2F91C2" d="M26.0292,24.5959c-1.2733-0.7351-3.3407-0.7352-4.6057,0l0.0112-3.9331
							c1.265-0.7351,3.3324-0.7351,4.6057,0C26.0366,21.9738,26.0329,23.2848,26.0292,24.5959z"></path>
      <path fill="#EED774" d="M25.2894,25.0258c-0.8677-0.501-2.2595-0.5011-3.1215-0.0001l0.0111-3.9331
							c0.8621-0.501,2.2538-0.5009,3.1215,0.0001C25.2969,22.4037,25.2931,23.7147,25.2894,25.0258z"></path>
      <path fill="#2F91C2" d="M21.4346,20.6627l-0.0112,3.9331c-0.3418,0.1986-0.5863,0.43-0.7434,0.6759l0.0111-3.9331
							C20.8482,21.0927,21.0928,20.8613,21.4346,20.6627z"></path>
      <path fill="#EFD874" d="M21.7814,21.4009l-0.0112,3.9331c-0.3482-0.0356-0.7116-0.0623-1.0903-0.0623l0.0111-3.9331
							C21.0699,21.3386,21.4333,21.3653,21.7814,21.4009z"></path>
      <path fill="#EED774" d="M22.1791,21.0925l-0.0112,3.9331c-0.1583,0.092-0.2958,0.1957-0.3976,0.3084l0.0111-3.9331
							C21.8833,21.2882,22.0208,21.1845,22.1791,21.0925z"></path>
      <path fill="#2F91C2" d="M26.9886,25.9393c0.0014-0.4863-0.3186-0.9734-0.9594-1.3434
							c0.0037-1.3111,0.0075-2.6221,0.0111-3.9331c0.6408,0.37,0.9609,0.8571,0.9594,1.3434
							C26.9964,23.1861,26.992,24.7594,26.9886,25.9393z"></path>
      <path fill="#EED774" d="M25.9459,25.941c0.0011-0.3307-0.2183-0.6623-0.6565-0.9152
							c0.0037-1.3111,0.0074-2.6221,0.0111-3.9331c0.4381,0.2529,0.6576,0.5845,0.6565,0.9152
							C25.9537,23.1878,25.9492,24.761,25.9459,25.941z"></path>
      <path fill="#F5E18D" d="M25.957 22.0075l-.0112 3.9331c-.0009.3244-.214.6481-.6409.8962l.0112-3.9331C25.7431 22.6556 25.9561 22.3319 25.957 22.0075zM25.3161 22.9037l-.0112 3.9331c-.1583.092-.342.169-.5363.2284l.0111-3.9331C24.9741 23.0727 25.1578 22.9957 25.3161 22.9037z"></path>
      <path fill="#EFD874" d="M24.7799,23.1321l-0.0112,3.9331c-0.4165-1.1151-1.807-1.5842-2.9984-1.7312l0.0111-3.9331
							c0.7683,0.0948,1.4399,0.2933,1.9636,0.5957C24.2687,22.299,24.6137,22.6873,24.7799,23.1321z"></path>
      <path fill="#F7E28E" d="M25.3006,21.0926c0.8677,0.501,0.8776,1.3101,0.0155,1.8111c-0.1583,0.092-0.342,0.169-0.5363,0.2284
							c-0.1661-0.4447-0.5111-0.8331-1.0348-1.1354c-0.5237-0.3024-1.1953-0.5009-1.9636-0.5957
							C22.4439,20.6677,24.2059,20.4606,25.3006,21.0926z"></path>
      <path fill="#EED774" d="M26.9998,22.006l-0.0112,3.9331c-0.0014,0.48-0.3159,0.9593-0.9443,1.3245l0.0112-3.9331
							C26.6838,22.9654,26.9984,22.4861,26.9998,22.006z"></path>
      <path fill="#2F91C2" d="M12.456,26.2167l0.0111-3.9331c-0.001,0.3451,0.0436,0.6883,0.1338,1.0264l-0.0112,3.9331
							C12.4996,26.905,12.455,26.5618,12.456,26.2167z"></path>
      <path fill="#E02426" d="M20.6911,21.3386L20.68,25.2717c-2.3337-0.0178-5.298,0.6878-8.0902,1.9714l0.0111-3.9331
							C15.3931,22.0264,18.3575,21.3208,20.6911,21.3386z"></path>
      <path fill="#EED774" d="M26.0554,23.3306l-0.0112,3.9331c-0.3418,0.1986-0.7352,0.344-1.1644,0.4328l0.0111-3.9331
							C25.3202,23.6746,25.7137,23.5292,26.0554,23.3306z"></path>
      <path fill="#DCC55E" d="M26.0403,20.6627c1.2733,0.7351,1.2801,1.9327,0.0151,2.6678
							c-0.3418,0.1986-0.7352,0.344-1.1644,0.4328c-0.0012-0.2194-0.0486-0.4298-0.1161-0.6284
							c0.1992-0.0623,0.3829-0.1393,0.5412-0.2313c0.8621-0.501,0.8522-1.3101-0.0155-1.8111
							c-1.1016-0.636-2.8614-0.4197-3.5192,0.3083c-0.3482-0.0356-0.7116-0.0623-1.0903-0.0623
							c0.1571-0.2459,0.4017-0.4773,0.7434-0.6759C22.6996,19.9276,24.767,19.9276,26.0403,20.6627z"></path>
      <path fill="#EED774" d="M24.891,23.7634l-0.0112,3.9331c-0.0012-0.2194-0.0486-0.4298-0.1161-0.6284l0.0111-3.9331
							C24.8424,23.3336,24.8898,23.544,24.891,23.7634z"></path>
      <path fill="#2F91C2" d="M24.8919,23.8325l-0.0112,3.9331c0.0001-0.0231-0.0002-0.0462-0.0009-0.0691l0.0111-3.9331
							C24.8917,23.7863,24.8919,23.8094,24.8919,23.8325z"></path>
      <path fill="#E02426" d="M35.7161,21.3196l-0.0112,3.9331c-0.0146,5.1632-8.5575,7.6348-14.202,7.1364l0.0111-3.9331
							c3.6252,0.3201,7.5822-0.3795,10.5102-2.0811C34.4714,24.9528,35.7111,23.1132,35.7161,21.3196z"></path>
      <path fill="#EE4541" d="M32.59,16.8565c4.3796,2.5285,4.127,6.7913-0.5657,9.5185c-2.9279,1.7015-6.885,2.4011-10.5102,2.081
							c2.2069-1.6215,3.4153-3.3409,3.3769-4.6926c0.4292-0.0888,0.8227-0.2342,1.1644-0.4328
							c1.265-0.7351,1.2582-1.9327-0.0151-2.6678c-1.2733-0.7351-3.3407-0.7352-4.6057,0c-0.3418,0.1986-0.5863,0.43-0.7434,0.6759
							c-2.3337-0.0178-5.298,0.6878-8.0902,1.9714C10.851,16.7523,24.9748,12.4599,32.59,16.8565z"></path>
    </g>
    <path fill="#F06263" d="M26.6265 23.3164c.6113-.0349 1.2225-.0597 1.8337-.0711.3049-.013.6098-.011.9266.0153.316-.0126.6306.1147.9063.2372 1.0924.5234 2.3056.7476 3.5284.7201-1.2126.1963-2.4892-.022-3.6105-.5368-.5373-.3027-1.1353-.2517-1.7514-.2819C27.8485 23.3839 27.2375 23.3552 26.6265 23.3164zM27.209 21.6221c.5848-.1811 1.1721-.3524 1.7626-.5106.2928-.086.5892-.1575.9031-.2083.3036-.0883.6396-.0406.9368.0119 1.1863.2449 2.4178.1703 3.598-.1508-1.1297.4826-2.4212.5782-3.6335.3486-.5944-.1644-1.1625.0291-1.7677.1482C28.4114 21.3934 27.8114 21.5127 27.209 21.6221zM25.2782 19.9239c4.3594-2.9028 3.5838-.9621 6.6627-2.8617-.9468.7827-2.1584 1.2401-3.386 1.3632-.6166.0106-1.1066.3571-1.6534.6427C26.3665 19.364 25.8249 19.6483 25.2782 19.9239zM20.3471 20.0928c-.4624-.0264-.9248-.0451-1.3871-.0538-.2306-.0098-.4613-.0083-.701.0116-.696-.0277-1.218.7722-3.3548.7242.9173.1485 1.883-.0166 2.7313-.406.4065-.229.8588-.1904 1.3249-.2133C19.4226 20.1439 19.8849 20.1222 20.3471 20.0928zM23.2514 18.8769c-.4337-.1627-.8696-.3179-1.3085-.4636-.2173-.0779-.438-.145-.6728-.1973-.2254-.0801-.4812-.0589-.708-.0325-.9067.1325-1.8334.0216-2.7104-.2731.8318.4144 1.8029.5437 2.7285.424.4562-.0979.8766.0734 1.3284.1901C22.3535 18.651 22.8013 18.7677 23.2514 18.8769zM23.6688 19.7202c.1094-.3133.2678-.6125.471-.8803.0965-.1398.2215-.254.2947-.3813.0759-.1233.0934-.2682.0901-.426-.0099-.651-.0348-1.3158.0232-1.9759.1089.6573.1443 1.3095.1776 1.9759-.0013.1692-.0303.3656-.1355.5222-.1021.1531-.2225.265-.3312.3828C24.0431 19.1784 23.8445 19.4391 23.6688 19.7202z"></path>
    <g>
      <path fill="#73AE43" d="M33.2971,22.8581c-0.0081-0.0527,0.0606-0.09,0.1129-0.0797c0.0523,0.0103,0.0927,0.0505,0.1302,0.0884
				c0.6806,0.688,1.5077,1.2304,2.4099,1.5805c0.1351,0.0524,0.2721,0.1006,0.4122,0.1379
				c0.4281,0.1138,0.8838,0.1223,1.3159,0.0247c0.1553-0.0351,0.325-0.0213,0.4768-0.0694s0.3059-0.1019,0.465-0.0983
				s0.328,0.0784,0.3939,0.2234c0.018,0.0396,0.0275,0.0824,0.037,0.1248c0.042,0.1887,0.0839,0.3773,0.1259,0.566
				c0.0073,0.0326,0.0145,0.066,0.0105,0.0991c-0.0035,0.0289-0.0155,0.0562-0.0301,0.0813
				c-0.0537,0.0923-0.1432,0.1595-0.24,0.2045c-0.0968,0.0451-0.2015,0.07-0.3053,0.0946c0,0-1.2612,0.1851-2.286-0.227
				s-1.6256-0.631-2.1809-1.3027C33.5897,23.6346,33.3793,23.3948,33.2971,22.8581z"></path>
      <path fill="#80BC41" d="M39.2643,25.2846c0.0245-0.0232-0.019-0.1726-0.0209-0.2017c-0.0034-0.0637-0.0178-0.1222-0.0426-0.1811
				c-0.0074-0.0187-0.0431-0.0673-0.0579-0.1048c-0.0128-0.0188-0.0175-0.035-0.0122-0.04
				c0.0246-0.0285,0.1485-0.0118,0.1833-0.0241c0.096-0.029,0.1438-0.131,0.1807-0.2225c0.0514-0.1362,0.0977-0.2778,0.083-0.4184
				c-0.0106-0.0981-0.0503-0.1945-0.0424-0.2895c-0.0023-0.0133,0.0008-0.0265,0.0038-0.0396
				c0.0182,0.0137,0.0254,0.0377,0.0354,0.0592c0.0076,0.0134,0.0126,0.0242,0.0228,0.035c0.0154,0.0163,0.0363,0.0275,0.06,0.0308
				l0.0026,0.0027c0.0263,0.006,0.0501,0.0041,0.0768-0.0006c0.0478-0.0092,0.1238-0.0811,0.1643-0.1091
				c-0.0428,0.1126-0.0368,0.2768-0.0295,0.3987c0.0069,0.1377-0.034,0.2742-0.0956,0.3995
				c-0.0641,0.1225-0.1492,0.2339-0.2343,0.3454C39.4457,25.0409,39.3834,25.1926,39.2643,25.2846z"></path>
      <path fill="#73AE43" d="M39.4311,24.7045c-0.0572,0.0593-0.1222,0.1156-0.2042,0.116c-0.0264-0.0008-0.0578-0.0122-0.084-0.0234
				c-0.0128-0.0188-0.0175-0.035-0.0122-0.04c0.0246-0.0285,0.1485-0.0118,0.1833-0.0241c0.096-0.029,0.1438-0.131,0.1807-0.2225
				c0.0514-0.1362,0.0977-0.2778,0.083-0.4184c-0.0106-0.0981-0.0503-0.1945-0.0424-0.2895
				c0.0131,0.003,0.0262,0.0112,0.0392,0.0196c0.0339,0.0194,0.0674,0.0495,0.0803,0.0631l0.0051,0.0054
				c0.0254,0.0377,0.0373,0.0883,0.0386,0.1385C39.7181,24.2785,39.5976,24.5212,39.4311,24.7045z"></path>
      <path fill="#A9C838" d="M39.6192,23.6263c0.0332-0.0374,0.0801-0.0699,0.1296-0.0625c0.038,0.0057,0.0686,0.0337,0.0943,0.0623
				c0.0274,0.0304,0.0531,0.0646,0.0607,0.1048c0.0024,0.0128,0.0029,0.0262-0.0004,0.0388
				c-0.0061,0.0231-0.0239,0.0411-0.0422,0.0564c-0.046,0.0385-0.0995,0.0681-0.1567,0.0864
				c-0.0134,0.0043-0.0274,0.008-0.0413,0.0058c-0.0125-0.002-0.0237-0.0086-0.0345-0.015c-0.0248-0.0148-0.0502-0.03-0.0686-0.0522
				C39.5024,23.7815,39.5707,23.6808,39.6192,23.6263z"></path>
      <path fill="#589441" d="M38.9675,24.5927c0,0,0.1187,0.1212,0.1763,0.1394c0.0576,0.0182,0.1445,0.4771,0.1306,0.5306
				c-0.0139,0.0536-0.0977,0.0937-0.0977,0.0937s-0.0306-0.0288-0.054-0.0833c-0.0234-0.0546-0.0386-0.1048-0.0494-0.1632
				c-0.0108-0.0584-0.0165-0.0772-0.0296-0.1295c-0.0131-0.0522-0.022-0.1044-0.0311-0.1523
				c-0.0091-0.048-0.0295-0.1336-0.041-0.1671c-0.0115-0.0335-0.0415-0.0738-0.0476-0.0802
				C38.9179,24.5744,38.9675,24.5927,38.9675,24.5927z"></path>
    </g>
    <g>
      <path fill="#73AE43" d="M14.5477,27.8826c-0.0081-0.0527,0.0606-0.09,0.1129-0.0797c0.0523,0.0103,0.0927,0.0505,0.1302,0.0884
					c0.6806,0.688,1.5077,1.2304,2.4099,1.5805c0.1351,0.0524,0.2721,0.1006,0.4122,0.1379
					c0.4281,0.1138,0.8838,0.1223,1.3159,0.0247c0.1553-0.0351,0.325-0.0213,0.4768-0.0694
					c0.1518-0.0481,0.3059-0.1019,0.465-0.0983c0.1592,0.0036,0.328,0.0784,0.3939,0.2234c0.018,0.0396,0.0275,0.0824,0.037,0.1248
					c0.042,0.1887,0.0839,0.3773,0.1259,0.566c0.0072,0.0326,0.0145,0.066,0.0105,0.0991
					c-0.0035,0.0289-0.0155,0.0561-0.0301,0.0813c-0.0537,0.0923-0.1432,0.1595-0.2399,0.2045
					c-0.0968,0.0451-0.2015,0.07-0.3053,0.0946c0,0-1.2612,0.1851-2.286-0.227c-1.0248-0.4122-1.6256-0.631-2.1809-1.3027
					C14.8404,28.659,14.63,28.4192,14.5477,27.8826z"></path>
      <path fill="#80BC41" d="M20.515,30.309c0.0245-0.0232-0.019-0.1726-0.0209-0.2017c-0.0034-0.0637-0.0178-0.1222-0.0426-0.1811
					c-0.0074-0.0187-0.0431-0.0673-0.0579-0.1048c-0.0128-0.0188-0.0175-0.035-0.0122-0.04
					c0.0246-0.0285,0.1485-0.0118,0.1833-0.0241c0.096-0.029,0.1438-0.131,0.1807-0.2225c0.0514-0.1362,0.0977-0.2778,0.083-0.4184
					c-0.0106-0.0981-0.0503-0.1945-0.0424-0.2895c-0.0023-0.0133,0.0008-0.0265,0.0038-0.0396
					c0.0182,0.0137,0.0254,0.0377,0.0354,0.0592c0.0076,0.0134,0.0126,0.0242,0.0228,0.035c0.0154,0.0163,0.0363,0.0275,0.06,0.0308
					l0.0026,0.0027c0.0263,0.006,0.0501,0.0041,0.0768-0.0006c0.0478-0.0092,0.1238-0.0811,0.1643-0.1091
					c-0.0428,0.1126-0.0368,0.2768-0.0295,0.3987c0.0069,0.1377-0.034,0.2742-0.0956,0.3995
					c-0.0641,0.1225-0.1492,0.2339-0.2343,0.3454C20.6964,30.0653,20.6341,30.217,20.515,30.309z"></path>
      <path fill="#73AE43" d="M20.6818,29.7289c-0.0572,0.0593-0.1222,0.1156-0.2042,0.116c-0.0264-0.0008-0.0578-0.0122-0.084-0.0234
					c-0.0128-0.0188-0.0175-0.035-0.0122-0.04c0.0246-0.0285,0.1485-0.0118,0.1833-0.0241c0.096-0.029,0.1438-0.131,0.1807-0.2225
					c0.0514-0.1362,0.0977-0.2778,0.083-0.4184c-0.0106-0.0981-0.0503-0.1945-0.0424-0.2895
					c0.0131,0.003,0.0262,0.0112,0.0392,0.0196c0.0339,0.0194,0.0674,0.0495,0.0803,0.0631l0.0051,0.0054
					c0.0254,0.0377,0.0373,0.0883,0.0386,0.1385C20.9688,29.3029,20.8483,29.5457,20.6818,29.7289z"></path>
      <path fill="#A9C838" d="M20.8698,28.6507c0.0332-0.0374,0.0801-0.0699,0.1296-0.0625c0.038,0.0057,0.0686,0.0337,0.0943,0.0623
					c0.0274,0.0304,0.0531,0.0646,0.0607,0.1048c0.0024,0.0128,0.0029,0.0262-0.0004,0.0388
					c-0.0061,0.0231-0.0239,0.0411-0.0422,0.0564c-0.046,0.0385-0.0995,0.0681-0.1567,0.0864
					c-0.0134,0.0043-0.0274,0.008-0.0413,0.0058c-0.0125-0.002-0.0237-0.0086-0.0345-0.015
					c-0.0248-0.0148-0.0502-0.03-0.0686-0.0522C20.7531,28.8059,20.8214,28.7052,20.8698,28.6507z"></path>
      <path fill="#589441" d="M20.2182,29.6171c0,0,0.1187,0.1212,0.1763,0.1394c0.0576,0.0182,0.1445,0.4771,0.1306,0.5306
					s-0.0977,0.0937-0.0977,0.0937s-0.0306-0.0288-0.054-0.0833s-0.0386-0.1048-0.0494-0.1632
					c-0.0108-0.0584-0.0165-0.0772-0.0296-0.1295c-0.0131-0.0522-0.022-0.1044-0.0311-0.1523
					c-0.0091-0.048-0.0295-0.1336-0.041-0.1671c-0.0115-0.0335-0.0415-0.0738-0.0476-0.0802
					C20.1686,29.5988,20.2182,29.6171,20.2182,29.6171z"></path>
      <g>
        <g>
          <path fill="#3D3D3D" d="M15.1216,20.4065l0.3139,0.4149c-0.4413-0.5833,1.091-1.7447,1.5335-1.1598l-0.3139-0.4149
						c-0.0861-0.1139-0.2467-0.1717-0.4603-0.1463c-0.4278,0.0509-0.9149,0.4171-1.0844,0.8154
						C15.024,20.119,15.0347,20.2917,15.1216,20.4065z"></path>
          <path fill="#3D3D3D" d="M14.7373,20.6929l0.3139,0.4149c0.1284,0.1697,0.3679,0.2553,0.6873,0.2173
						c0.6415-0.0763,1.3733-0.6237,1.6294-1.2255c0.1275-0.2996,0.1108-0.5552-0.0183-0.7259l-0.3139-0.4149
						c0.4738,0.6263-0.6296,1.8347-1.6111,1.9514C15.1052,20.9482,14.8657,20.8626,14.7373,20.6929z"></path>
          <path fill="#686868" d="M17.054,19.6847c-0.2561,0.6018-0.988,1.1492-1.6294,1.2255
							c-0.6417,0.0763-0.9608-0.3461-0.7047-0.9479C15.3332,18.5213,17.66,18.2609,17.054,19.6847z M16.6681,19.7306
							c0.4024-0.9455-1.1453-0.7836-1.5577,0.1853C14.7014,20.8768,16.2577,20.6948,16.6681,19.7306"></path>
        </g>
      </g>
      <g>
        <g>
          <path fill="#3D3D3D" d="M30.263,19.1056l0.3139,0.4149c-0.0868-0.1148-0.0976-0.2875-0.0112-0.4906
						c0.1695-0.3983,0.6566-0.7645,1.0844-0.8154c0.2136-0.0254,0.3741,0.0324,0.4603,0.1462l-0.3139-0.4149
						c-0.0861-0.1139-0.2467-0.1717-0.4603-0.1463c-0.4278,0.0509-0.9149,0.4171-1.0844,0.8154
						C30.1654,18.8181,30.1762,18.9908,30.263,19.1056z"></path>
          <path fill="#3D3D3D" d="M29.8788,19.392l0.3139,0.4149c0.1284,0.1697,0.3679,0.2553,0.6873,0.2173
						c0.6415-0.0763,1.3733-0.6237,1.6294-1.2255c0.1275-0.2996,0.1108-0.5552-0.0183-0.7259l-0.3139-0.4149
						c0.1292,0.1708,0.1458,0.4263,0.0183,0.7259c-0.2561,0.6018-0.988,1.1492-1.6294,1.2255
						C30.2467,19.6473,30.0072,19.5617,29.8788,19.392z"></path>
          <path fill="#686868" d="M31.4892,17.4402c0.6415-0.0763,0.9606,0.3461,0.7063,0.9436
							c-0.2561,0.6018-0.988,1.1492-1.6294,1.2255c-0.6417,0.0763-0.9608-0.3461-0.7047-0.9479
							C30.1157,18.064,30.8475,17.5165,31.4892,17.4402z M31.8096,18.4297c0.1695-0.3983-0.0457-0.681-0.4733-0.6301
							c-0.4278,0.0509-0.9149,0.4171-1.0844,0.8154c-0.1714,0.4026,0.0393,0.6859,0.4671,0.635
							C31.1466,19.1991,31.6382,18.8323,31.8096,18.4297"></path>
        </g>
      </g>
      <g>
        <path fill="#FDDB00" d="M37.3636,22.2898c-1.3691-1.0174-1.2955-2.3268-1.2216-2.5199
					c0.0708-0.2106,0.1935-0.4304,0.2736-0.5886c0.0801-0.1583-0.0044-0.4313,0.1369-0.5465
					c0.1453-0.0978,0.4877,0.0036,0.5489,0.0467c0,0,0.0349-0.0062,0.0838-0.0329c0.2035-0.072,0.6686-0.1906,1.2655,0.0275
					c0.7662,0.2602,1.2611,1.0185,1.7064,1.8037c0.1869,0.345,0.1938,0.6858,0.1175,0.9695
					c-0.0887,0.4118-0.3218,0.7232-0.3466,0.7816C39.8588,22.3512,38.7528,23.3216,37.3636,22.2898z"></path>
        <path fill="#F8C814" d="M37.2201,22.1896c-1.2262-1.0247-1.1519-2.2261-1.0811-2.4368
					c0.0739-0.1931,0.1966-0.4129,0.2767-0.5712c0.077-0.1757-0.0075-0.4488,0.1369-0.5464
					c0.0637-0.0473,0.1895-0.0516,0.3005-0.0353c-0.0349,0.0062-0.0699,0.0124-0.1017,0.036
					c-0.1592,0.1184-0.0716,0.4089-0.1665,0.5877c-0.0761,0.1756-0.1997,0.3955-0.2705,0.6061
					C36.2414,20.0227,36.174,21.1689,37.2201,22.1896z"></path>
        <path fill="#EBB41F" d="M40.2746,21.4493c-0.0372-0.0114-0.0434-0.0464-0.0644-0.0607
					c-0.0706-0.0955-0.1249-0.1939-0.1637-0.313c-0.0325-0.0842-0.0449-0.154-0.0752-0.2207
					c-0.0737-0.113-0.1971-0.1991-0.2855-0.2914c-0.1559-0.1704-0.2172-0.4116-0.3592-0.6024
					c-0.0977-0.1446-0.2623-0.2595-0.3771-0.4012c-0.0504-0.0811-0.1008-0.1621-0.1652-0.2227
					c-0.1296-0.1211-0.3105-0.125-0.437-0.2286c-0.1024-0.0718-0.1621-0.2053-0.2793-0.2565
					c-0.059-0.0256-0.132-0.0305-0.1871-0.0388c-0.2042-0.0359-0.3919-0.1825-0.5877-0.1658
					c-0.0349,0.0062-0.0699,0.0124-0.1079,0.0011c0.2035-0.072,0.6686-0.1906,1.2655,0.0275
					c0.7662,0.2602,1.2611,1.0185,1.7064,1.8037C40.344,20.8248,40.3509,21.1657,40.2746,21.4493z" opacity=".2"></path>
      </g>
      <g>
        <path fill="#FDDB00" d="M19.5821,28.2224c-1.635,0.4861-2.639-0.3577-2.7493-0.5325c-0.1261-0.1829-0.2285-0.4129-0.3072-0.5718
					c-0.0787-0.1589-0.3479-0.255-0.3554-0.4371c0.0088-0.1749,0.2952-0.3882,0.3664-0.4114c0,0,0.016-0.0317,0.0239-0.0868
					c0.0643-0.2061,0.2482-0.6494,0.7806-0.9965c0.6675-0.4573,1.5712-0.399,2.4666-0.2848c0.3882,0.0571,0.6651,0.256,0.8465,0.487
					c0.2764,0.3178,0.3861,0.6911,0.4179,0.7459C21.1268,26.2618,21.2407,27.7288,19.5821,28.2224z"></path>
        <path fill="#F8C814" d="M19.4159,28.2772c-1.5552,0.3673-2.4724-0.4123-2.5986-0.5952
					c-0.1103-0.1749-0.2127-0.4049-0.2914-0.5638c-0.0945-0.1669-0.3637-0.2629-0.3553-0.4371
					c0.0003-0.0794,0.0723-0.1827,0.1519-0.2617c-0.016,0.0317-0.032,0.0634-0.0322,0.103
					c-0.0007,0.1984,0.2843,0.3024,0.3706,0.4855c0.0949,0.1662,0.1969,0.3969,0.3231,0.5798
					C17.0947,27.7618,17.9718,28.5028,19.4159,28.2772z"></path>
        <path fill="#EBB41F" d="M20.6541,25.3884c-0.0314,0.0229-0.0631,0.0069-0.0872,0.0152
					c-0.1187-0.0008-0.2301-0.0162-0.3487-0.0566c-0.0869-0.0244-0.1502-0.0564-0.2218-0.0721
					c-0.1346-0.0087-0.2775,0.0384-0.4044,0.0539c-0.2298,0.0227-0.4596-0.0728-0.6975-0.0736
					c-0.1744-0.0084-0.3649,0.0544-0.5472,0.0614c-0.0951-0.0082-0.1902-0.0164-0.2773-0.0012
					c-0.1746,0.0312-0.2862,0.1736-0.4449,0.2128c-0.1189,0.0389-0.2615,0.0067-0.3727,0.0699
					c-0.0559,0.0319-0.1036,0.0874-0.1432,0.1265c-0.1511,0.1419-0.381,0.2043-0.485,0.371
					c-0.016,0.0317-0.032,0.0634-0.0638,0.0871c0.0643-0.2061,0.2482-0.6494,0.7806-0.9965
					c0.6675-0.4573,1.5712-0.399,2.4666-0.2848C20.1958,24.9585,20.4728,25.1574,20.6541,25.3884z" opacity=".2"></path>
      </g>
    </g>
    <g>
      <path fill="#80BC41" d="M13.2868 29.417c-.3245-.0854-.6689-.1311-1.0133-.1822-.1713-.0278-.3433-.0552-.5093-.0944-.1568-.039-.3203-.08-.4426-.1507-.0044-.0026-.0089-.0052-.0132-.0078.136.0669.3044.1033.4687.1393.166.0343.3362.0621.5081.0875.1707.0274.3433.0518.5128.0847C12.967 29.3254 13.1337 29.3642 13.2868 29.417zM13.8547 29.8243c-.2624-.01-.5237-.0254-.7862-.0388-.0492-.0024-.0995-.0048-.1493-.0069-.0626.0425-.1429.0762-.2298.1012-.0473.013-.0964.0237-.1467.0309-.0497.0069-.1042.0137-.1552.0055.0509-.0034.097-.0144.1438-.025.0461-.0117.0923-.0226.1372-.0357.0828-.0226.1608-.0494.24-.0775-.0616-.0027-.1244-.0055-.1866-.0079-.189-.01-.3774-.0134-.567-.0202-.189-.0079-.3846-.0244-.5519-.0786.175.0436.3657.0539.5535.0576.1884.0027.3791.0069.5681.0141.0984.0048.1967.0096.2951.0158l-.0101-.0045-.0624-.0312c-.0422-.0209-.0814-.0429-.1212-.0652-.0767-.0449-.1515-.0916-.2164-.1441.0908.0374.1716.0806.2495.1249.0386.023.0767.0456.1129.07l.0541.036.0202.0158c.0817.0048.1635.0096.2453.0158C13.4796 29.7903 13.6674 29.8058 13.8547 29.8243z"></path>
      <path fill="#80BC41" d="M14.9496,29.0331c-0.1114,0.1012-0.2489,0.1928-0.3923,0.2796
					c-0.1405,0.0823-0.2887,0.1609-0.4447,0.2336c0.0066,0.023,0.0115,0.0463,0.0116,0.0697
					c0.0034,0.0731-0.0199,0.1513-0.0971,0.21c0.0231,0.0058,0.0445,0.0134,0.0611,0.0223c0.0091,0.0047,0.0177,0.0094,0.026,0.0142
					c0.0302,0.0174,0.056,0.0355,0.084,0.0527c0.0707,0.0443,0.1444,0.0868,0.2181,0.1293
					c0.1492,0.0847,0.3042,0.1654,0.4657,0.2429c-0.1722-0.0693-0.3361-0.1455-0.4905-0.2278
					c-0.0411-0.0216-0.0811-0.0438-0.1203-0.0665c-0.035-0.0202-0.0695-0.0408-0.1037-0.0615
					c-0.0261-0.0153-0.0514-0.0326-0.0778-0.0478c-0.0463-0.0267-0.0956-0.0472-0.1567-0.0397
					c-0.0988,0.0099-0.2042,0.0209-0.2935,0.046c-0.0863,0.0309-0.1726,0.0645-0.2642,0.095
					c-0.0893,0.0319-0.1797,0.0611-0.2702,0.0916c-0.091,0.0288-0.1833,0.0604-0.2869,0.0717
					c0.1012-0.0154,0.1875-0.0504,0.275-0.0834c0.0875-0.0322,0.1773-0.0638,0.263-0.0978
					c0.0863-0.0323,0.1732-0.0655,0.2636-0.0988c0.0988-0.0285,0.2018-0.0395,0.3077-0.0515
					c0.0243-0.0024,0.0498-0.0007,0.0746,0.0034c-0.0908-0.0599-0.1865-0.1173-0.284-0.1736
					c-0.0895-0.0517-0.1806-0.1025-0.271-0.1537l-0.2632-0.1513l-0.3547-0.2028l-0.1527-0.0895l-0.1563-0.0861l-0.1539-0.0841
					c-0.1659-0.0021-0.3312-0.0161-0.493-0.0391c-0.0883-0.0134-0.1755-0.0281-0.2609-0.0473
					c-0.0848-0.0182-0.1673-0.0418-0.2585-0.0343c0.0888-0.0192,0.186,0.0007,0.2696,0.0148
					c0.0872,0.0141,0.1737,0.0285,0.2615,0.0408c0.0865,0.013,0.1748,0.0237,0.2632,0.035
					c0.0681,0.0086,0.1363,0.0158,0.2045,0.0237l-0.1621-0.071c-0.1134-0.0518-0.2316-0.1002-0.3485-0.1492l-0.3503-0.1496
					c0.2416,0.093,0.4855,0.1832,0.7206,0.282l0.1764,0.0744l0.1604,0.0858l0.1592,0.0864l0.1539,0.0882l0.312,0.1835
					c-0.0205-0.07-0.0718-0.1352-0.1178-0.2007c-0.0573-0.0782-0.1146-0.1558-0.1772-0.2323
					c-0.1193-0.1544-0.2546-0.3043-0.3888-0.4549c0.1666,0.1386,0.3049,0.2889,0.4295,0.4415
					c0.0171-0.0168,0.0348-0.0333,0.0524-0.0491c0.0142-0.011,0.0248-0.022,0.0336-0.0333c0.0106-0.011,0.0236-0.0213,0.0271-0.0329
					c0.0117-0.0233,0.0122-0.0497,0.0162-0.0762c0.0034-0.0268,0.0086-0.0552,0.0321-0.0793
					c-0.0098,0.0532,0.0219,0.1043-0.0032,0.1623c-0.0064,0.0148-0.0206,0.0264-0.0329,0.0384
					c-0.0136,0.012-0.0259,0.024-0.0437,0.0329c-0.0242,0.0154-0.0496,0.0302-0.0762,0.0443
					c0.0579,0.0758,0.1152,0.1527,0.1642,0.2309c0.0419,0.0679,0.0885,0.1393,0.0924,0.2127l0.2906,0.1705
					c0.1854,0.1105,0.3714,0.2213,0.5362,0.3431l0.016,0.0038c0.0636-0.0631,0.0751-0.1379,0.0652-0.2086
					c-0.0111-0.0748-0.0453-0.1492-0.1084-0.2151c-0.059-0.0669-0.1447-0.1266-0.2167-0.1921
					c-0.0709-0.0655-0.1317-0.1403-0.128-0.2189c0.0164,0.0772,0.0826,0.1455,0.1581,0.2069
					c0.0702,0.0583,0.1499,0.1139,0.213,0.177c0.0287-0.0628,0.0348-0.1276,0.0268-0.1918
					c-0.0075-0.0714-0.0275-0.1424-0.0474-0.2141c-0.0352-0.1434-0.0709-0.2865-0.0889-0.4316
					c0.0559,0.1417,0.0952,0.2848,0.1345,0.4278c0.0139,0.0594,0.0297,0.1197,0.0348,0.1808
					c0.0803-0.0556,0.1403-0.118,0.1968-0.1812c0.0606-0.0683,0.1094-0.1407,0.18-0.2079
					c-0.0158,0.0381-0.0375,0.0755-0.0592,0.1122c-0.0217,0.0367-0.0488,0.0731-0.0799,0.1077s-0.066,0.0693-0.1084,0.1002
					c-0.0372,0.0278-0.0791,0.0535-0.1287,0.0741c0.0012,0.0103,0.0025,0.0206,0.002,0.0312
					c0.0016,0.0666-0.014,0.1348-0.0587,0.1959l0.0113,0.0113c0.0429,0.0487,0.0734,0.1012,0.0891,0.1554
					c0.1334-0.0865,0.2739-0.1681,0.412-0.2511C14.6686,29.2081,14.8091,29.1216,14.9496,29.0331z"></path>
      <path fill="#A9C838" d="M14.9443,30.296c-0.0029,0.012-0.0117,0.0247-0.0312,0.0291c-0.0225,0.0055-0.0462-0.0021-0.0664-0.0096
					c-0.0504-0.0182-0.1015-0.0367-0.149-0.058c-0.0416-0.0192-0.0808-0.0398-0.1194-0.0607
					c-0.0808-0.0432-0.1598-0.0854-0.2389-0.1297c-0.0891-0.0501-0.1782-0.1002-0.2674-0.1503
					c-0.0077-0.0045-0.0161-0.0086-0.0261-0.0103c-0.0089-0.0017-0.0196-0.001-0.029,0.0003
					c-0.0568,0.0082-0.1011,0.034-0.1424,0.0587c-0.0679,0.0408-0.1358,0.0817-0.2037,0.1225
					c-0.1175,0.0703-0.2415,0.1438-0.403,0.1729c-0.1959,0.0353-0.4122-0.0014-0.5879-0.0624
					c-0.0415-0.0144-0.0825-0.0305-0.1293-0.0384c0.0715-0.0244,0.1455-0.0467,0.2206-0.0669l-0.0113-0.0127
					c0.0608-0.0285,0.1217-0.0576,0.1885-0.0813c-0.1509,0.0312-0.3174,0.0151-0.4739-0.0055
					c-0.5234-0.0671-0.8472-0.1513-1.0199-0.188c0.032-0.0048,0.0639-0.0103,0.0941-0.0182
					c-0.082-0.0542-0.1428-0.1194-0.1758-0.1891c0.0887-0.0226,0.1942-0.0178,0.2755,0.0134
					c0.0578-0.0336,0.1418-0.0508,0.2236-0.046c-0.0357-0.0233-0.0737-0.0521-0.0626-0.0827
					c0.0111-0.0312,0.0714-0.0497,0.1265-0.048c0.0557,0.0014,0.1055,0.0171,0.1542,0.0329
					c0.1182,0.0387,0.2365,0.0775,0.3547,0.1162c-0.013-0.0051-0.0251-0.011-0.0364-0.0175
					c-0.0336-0.0194-0.06-0.0439-0.0836-0.0678c-0.0214-0.0213-0.0417-0.0439-0.0495-0.0683
					c-0.0066-0.0244,0.0015-0.0518,0.0322-0.069c-0.2512-0.0034-0.5013-0.035-0.732-0.0923
					c-0.0219-0.0055-0.045-0.012-0.0616-0.0216c-0.0072-0.0042-0.0132-0.0089-0.0174-0.0144
					c0.0379-0.0034,0.0764-0.0065,0.1143-0.01c-0.0841,0.0021-0.1689-0.0175-0.2289-0.0522
					c-0.0327-0.0189-0.0577-0.0415-0.0815-0.0641c-0.0405-0.0371-0.1136-0.0806-0.1245-0.1239
					c-0.0091-0.0367-0.0081-0.069-0.0379-0.1019c0.0687,0.0076,0.1386,0.0075,0.208,0.0148
					c0.1778,0.0178,0.3322,0.0837,0.507,0.1088c-0.2669-0.0686-0.5174-0.1578-0.7442-0.2649
					c0.1361-0.0343,0.2823-0.0518,0.4298-0.0426c-0.2015-0.0123-0.3396-0.1386-0.5404-0.1506
					c0.0468-0.0017,0.0935-0.0082,0.1373-0.0192c-0.0351-0.005-0.0654-0.0168-0.0914-0.0318
					c-0.024-0.0139-0.0444-0.0305-0.0619-0.0471c-0.0118-0.0117-0.0242-0.0242-0.0406-0.0336
					c-0.0092-0.0053-0.0196-0.0096-0.0319-0.0124c0.0698-0.0158,0.1396-0.0316,0.2136-0.0388
					c0.0734-0.0069,0.1528-0.0041,0.2187,0.0161c0.0011-0.0185,0.0027-0.0374,0.0044-0.0556
					c0.0921,0.0177,0.1838,0.0432,0.252,0.0825c0.0122,0.007,0.0236,0.0145,0.0341,0.0224
					c0.0011-0.0158-0.0055-0.0319-0.0186-0.0463c0.1459,0.0343,0.273,0.0899,0.3988,0.1448
					c0.0457,0.0196,0.0914,0.0398,0.1377,0.0597c0.0499,0.0219,0.1004,0.0443,0.1479,0.0676
					c0.1235,0.0618,0.2282,0.1352,0.3606,0.1897c-0.0559-0.046-0.1124-0.0923-0.169-0.1386c-0.069-0.057-0.1404-0.116-0.1669-0.1839
					c-0.0265-0.0679,0.0104-0.1444,0.1085-0.1842c0.0464,0.0261,0.121,0.0226,0.1838,0.0322
					c0.0592,0.0087,0.1088,0.0295,0.1525,0.0548c0.0268,0.0155,0.0513,0.0326,0.0744,0.0495
					c0.0449,0.0337,0.0899,0.0711,0.0979,0.1127c-0.0051-0.0526,0.0462-0.1067,0.127-0.1313
					c0.063,0.0473,0.1078,0.1033,0.1294,0.1616c0.0241,0.0645,0.0197,0.1317,0.0325,0.1973
					c0.0026,0.0146,0.0103,0.0314,0.0273,0.0412c0.0069,0.004,0.0154,0.0068,0.0257,0.0078
					c0.0082-0.0247,0.0163-0.0487,0.0239-0.0731c0.0053-0.0141,0.0099-0.0285,0.0229-0.0408
					c0.0124-0.012,0.0348-0.0223,0.0597-0.0223c0.0255,0.0003,0.0475,0.011,0.0659,0.0209
					c0.0039,0.0022,0.0077,0.0044,0.0116,0.0066c0.0978,0.0565,0.1735,0.1254,0.2212,0.2003
					c-0.0386-0.1269-0.15-0.2446-0.1703-0.3733c-0.0037-0.0219-0.0026-0.0473,0.0233-0.0638
					c0.0222,0.0095,0.043,0.0198,0.0624,0.031c0.0277,0.016,0.0525,0.0337,0.0743,0.0527c-0.0197-0.0326-0.0395-0.0672-0.026-0.1005
					c0.0169-0.0415,0.0796-0.0696,0.1315-0.0991c0.0602-0.0343,0.1109-0.0748,0.1486-0.1187
					c-0.0076,0.0292,0.0246,0.0559,0.052,0.0806c0.05,0.0467,0.087,0.0981,0.108,0.1513c0.0324-0.0278,0.0714-0.0532,0.1157-0.0748
					c0.0159,0.1002,0.0361,0.2,0.052,0.3002c0.0046-0.0247,0.0276-0.047,0.0565-0.0652c0.0289-0.0182,0.0644-0.0326,0.0998-0.0463
					c0.0479-0.0182,0.1011-0.0346,0.1294-0.0635c0.0643,0.0487,0.096,0.1101,0.0987,0.1712
					c0.0033,0.0614-0.0206,0.1221-0.0594,0.1791c-0.0305,0.0446-0.07,0.0875-0.0946,0.1335
					c-0.0246,0.0467-0.0356,0.0971-0.0875,0.1355c0.0313-0.0182,0.0703-0.0353,0.0968-0.0556
					c0.0631-0.0477,0.1262-0.0954,0.1893-0.1431c0.0324-0.0251,0.0667-0.0504,0.1116-0.0676
					c0.0963-0.0367,0.2267-0.0298,0.3266-0.0631c0.0632,0.081,0.0857,0.1767,0.0269,0.259
					c0.0343-0.0069,0.0698-0.0103,0.1054-0.0117c0.0257,0.0067,0.0276,0.0131,0.0244,0.0182
					c-0.0035,0.0069-0.013,0.0117-0.0218,0.0161c-0.1299,0.0659-0.2516,0.1317-0.3589,0.21
					c-0.1746,0.1276-0.4271,0.2103-0.629,0.3242c-0.0425,0.024-0.0838,0.0508-0.0996,0.084
					c-0.0188,0.0377-0.0013,0.0793,0.0326,0.1139c0.034,0.034,0.0827,0.0628,0.1308,0.0906c0.0511,0.0302,0.1028,0.06,0.1545,0.0899
					c0.0118,0.007,0.0237,0.014,0.0357,0.0209c0.0339,0.0196,0.0689,0.0387,0.1057,0.0559
					c0.0964,0.0445,0.2094,0.0769,0.2965,0.1272c0.0042,0.0024,0.0083,0.0048,0.0123,0.0073
					C14.9347,30.2734,14.9466,30.2837,14.9443,30.296z M14.3915,30.0596c0.1545,0.0823,0.3184,0.1585,0.4905,0.2278
					c-0.1615-0.0775-0.3166-0.1582-0.4657-0.2429c-0.0737-0.0425-0.1474-0.0851-0.2181-0.1293
					c-0.028-0.0172-0.0538-0.0353-0.084-0.0527c-0.0083-0.0048-0.0169-0.0095-0.026-0.0142
					c-0.0166-0.0089-0.038-0.0165-0.0611-0.0223c0.0773-0.0587,0.1005-0.1369,0.0971-0.21
					c-0.0001-0.0233-0.005-0.0466-0.0116-0.0697c0.1559-0.0727,0.3042-0.1513,0.4447-0.2336
					c0.1434-0.0868,0.2809-0.1784,0.3923-0.2796c-0.1405,0.0885-0.281,0.175-0.4256,0.2604
					c-0.1381,0.083-0.2786,0.1647-0.412,0.2511c-0.0157-0.0542-0.0462-0.1067-0.0891-0.1554l-0.0113-0.0113
					c0.0447-0.0611,0.0603-0.1293,0.0587-0.1959c0.0005-0.0106-0.0007-0.0209-0.002-0.0312
					c0.0496-0.0206,0.0916-0.0463,0.1287-0.0741c0.0425-0.0309,0.0772-0.0655,0.1084-0.1002
					c0.0312-0.0346,0.0582-0.071,0.0799-0.1077s0.0434-0.0741,0.0592-0.1122c-0.0707,0.0672-0.1194,0.1396-0.18,0.2079
					c-0.0565,0.0631-0.1166,0.1256-0.1968,0.1812c-0.0051-0.0611-0.0208-0.1215-0.0348-0.1808
					c-0.0393-0.1431-0.0786-0.2861-0.1345-0.4278c0.018,0.1451,0.0538,0.2882,0.0889,0.4316
					c0.0199,0.0717,0.0399,0.1427,0.0474,0.2141c0.008,0.0642,0.0019,0.129-0.0268,0.1918c-0.0631-0.0631-0.1428-0.1187-0.213-0.177
					c-0.0756-0.0614-0.1417-0.1297-0.1581-0.2069c-0.0037,0.0786,0.0571,0.1534,0.128,0.2189
					c0.072,0.0655,0.1577,0.1252,0.2167,0.1921c0.0632,0.0659,0.0973,0.1403,0.1084,0.2151
					c0.0099,0.0707-0.0016,0.1455-0.0652,0.2086l-0.016-0.0038c-0.1647-0.1218-0.3508-0.2326-0.5362-0.3431l-0.2906-0.1705
					c-0.004-0.0734-0.0506-0.1448-0.0924-0.2127c-0.049-0.0782-0.1063-0.1551-0.1642-0.2309
					c0.0266-0.0141,0.052-0.0288,0.0762-0.0443c0.0177-0.0089,0.0301-0.0209,0.0437-0.0329
					c0.0124-0.012,0.0265-0.0237,0.0329-0.0384c0.0251-0.058-0.0065-0.1091,0.0032-0.1623
					c-0.0236,0.024-0.0287,0.0525-0.0321,0.0793c-0.004,0.0264-0.0044,0.0528-0.0162,0.0762
					c-0.0035,0.0117-0.0165,0.022-0.0271,0.0329c-0.0088,0.0113-0.0194,0.0223-0.0336,0.0333
					c-0.0177,0.0158-0.0353,0.0322-0.0524,0.0491c-0.1247-0.1527-0.2629-0.3029-0.4295-0.4415
					c0.1341,0.1506,0.2694,0.3005,0.3888,0.4549c0.0626,0.0765,0.1199,0.1541,0.1772,0.2323
					c0.046,0.0655,0.0973,0.1307,0.1178,0.2007l-0.312-0.1835l-0.1539-0.0882l-0.1592-0.0864l-0.1604-0.0858l-0.1764-0.0744
					c-0.2351-0.0988-0.479-0.189-0.7206-0.282l0.3503,0.1496c0.117,0.0491,0.2351,0.0974,0.3485,0.1492l0.1621,0.071
					c-0.0682-0.0079-0.1363-0.0151-0.2045-0.0237c-0.0883-0.0113-0.1766-0.0219-0.2632-0.035
					c-0.0878-0.0123-0.1743-0.0268-0.2615-0.0408c-0.0836-0.0141-0.1808-0.034-0.2696-0.0148
					c0.0912-0.0075,0.1736,0.0161,0.2585,0.0343c0.0854,0.0192,0.1725,0.034,0.2609,0.0473c0.1618,0.023,0.3272,0.0371,0.493,0.0391
					l0.1539,0.0841l0.1563,0.0861l0.1527,0.0895l0.3547,0.2028l0.2632,0.1513c0.0904,0.0512,0.1816,0.102,0.271,0.1537
					c0.0976,0.0563,0.1932,0.1136,0.284,0.1736c-0.0249-0.0041-0.0504-0.0058-0.0746-0.0034
					c-0.1059,0.012-0.209,0.023-0.3077,0.0515c-0.0904,0.0333-0.1773,0.0665-0.2636,0.0988
					c-0.0857,0.034-0.1756,0.0655-0.263,0.0978c-0.0875,0.0329-0.1737,0.0679-0.275,0.0834
					c0.1036-0.0113,0.1958-0.0429,0.2869-0.0717c0.0904-0.0305,0.1809-0.0597,0.2702-0.0916
					c0.0916-0.0305,0.1779-0.0641,0.2642-0.095c0.0893-0.025,0.1947-0.036,0.2935-0.046c0.0611-0.0074,0.1104,0.013,0.1567,0.0397
					c0.0263,0.0152,0.0517,0.0325,0.0778,0.0478c0.0342,0.0207,0.0687,0.0413,0.1037,0.0615
					C14.3104,30.0158,14.3504,30.0381,14.3915,30.0596 M13.0685,29.7855c0.2625,0.0134,0.5238,0.0288,0.7862,0.0388
					c-0.1873-0.0185-0.3751-0.034-0.563-0.048c-0.0818-0.0062-0.1635-0.011-0.2453-0.0158l-0.0202-0.0158l-0.0541-0.036
					c-0.0363-0.0244-0.0743-0.047-0.1129-0.07c-0.0778-0.0443-0.1586-0.0875-0.2495-0.1249
					c0.0649,0.0525,0.1397,0.0992,0.2164,0.1441c0.0398,0.0223,0.079,0.0443,0.1212,0.0652l0.0624,0.0312l0.0101,0.0045
					c-0.0984-0.0062-0.1967-0.011-0.2951-0.0158c-0.189-0.0072-0.3797-0.0113-0.5681-0.0141
					c-0.1878-0.0038-0.3786-0.0141-0.5535-0.0576c0.1673,0.0542,0.3629,0.0707,0.5519,0.0786
					c0.1896,0.0069,0.378,0.0103,0.567,0.0202c0.0622,0.0024,0.125,0.0052,0.1866,0.0079c-0.0792,0.0281-0.1572,0.0549-0.24,0.0775
					c-0.045,0.013-0.0911,0.024-0.1372,0.0357c-0.0467,0.0106-0.0929,0.0216-0.1438,0.025c0.051,0.0082,0.1054,0.0014,0.1552-0.0055
					c0.0503-0.0072,0.0994-0.0178,0.1467-0.0309c0.0869-0.025,0.1673-0.0587,0.2298-0.1012
					C12.969,29.7807,13.0193,29.7831,13.0685,29.7855 M12.2735,29.2348c0.3444,0.0511,0.6888,0.0967,1.0133,0.1822
					c-0.1531-0.0528-0.3198-0.0916-0.4888-0.1235c-0.1696-0.0329-0.3421-0.0573-0.5128-0.0847
					c-0.1719-0.0254-0.3421-0.0532-0.5081-0.0875c-0.1643-0.036-0.3327-0.0724-0.4687-0.1393
					c0.0044,0.0026,0.0088,0.0052,0.0132,0.0078c0.1223,0.0706,0.2858,0.1116,0.4426,0.1507
					C11.9302,29.1796,12.1022,29.2071,12.2735,29.2348"></path>
    </g>
    <g>
      <circle cx="25.206" cy="25.426" r=".442" fill="#3D3D3D"></circle>
      <path fill="#4F4D4D" d="M25.3799,25.0858c-0.0128-0.001-0.0255-0.002-0.0383-0.002c-0.2436,0-0.4401,0.1974-0.4401,0.4411
					c0,0.055,0.0098,0.1071,0.0285,0.1552c-0.056-0.0668-0.0894-0.1523-0.0894-0.2456c0-0.2112,0.1719-0.3831,0.3831-0.3831
					C25.2797,25.0514,25.3328,25.0632,25.3799,25.0858z"></path>
      <path fill="#3D3D3D" d="M26.8009,18.2354c-0.244,0-0.4418-0.1978-0.4418-0.4418s0.1978-0.4418,0.4418-0.4418
					C27.385,17.3519,27.3858,18.2354,26.8009,18.2354z"></path>
      <path fill="#4F4D4D" d="M26.9754,17.4536c-0.0128-0.001-0.0255-0.002-0.0383-0.002c-0.3136,0-0.52,0.3169-0.4116,0.5963
					c-0.2073-0.2472-0.0317-0.6287,0.2937-0.6287C26.8751,17.4192,26.9282,17.431,26.9754,17.4536z"></path>
      <g>
        <circle cx="26.627" cy="27.264" r=".442" fill="#3D3D3D"></circle>
        <path fill="#4F4D4D" d="M26.8009,26.9236c-0.0128-0.001-0.0255-0.002-0.0383-0.002c-0.2436,0-0.4401,0.1974-0.4401,0.4411
					c0,0.055,0.0098,0.1071,0.0285,0.1552c-0.056-0.0668-0.0894-0.1523-0.0894-0.2456c0-0.2112,0.1719-0.3831,0.3831-0.3831
					C26.7007,26.8892,26.7538,26.901,26.8009,26.9236z"></path>
      </g>
      <g>
        <path fill="#3D3D3D" d="M29.7264,25.7645c0,0.5841-0.8835,0.5849-0.8835,0c0-0.244,0.1978-0.4418,0.4418-0.4418
					S29.7264,25.5205,29.7264,25.7645z"></path>
        <path fill="#4F4D4D" d="M29.459,25.4244c-0.0128-0.001-0.0255-0.002-0.0383-0.002c-0.2436,0-0.4401,0.1974-0.4401,0.4411
					c0,0.055,0.0098,0.1071,0.0285,0.1552c-0.056-0.0668-0.0894-0.1523-0.0894-0.2456c0-0.2112,0.1719-0.3831,0.3831-0.3831
					C29.3588,25.39,29.4119,25.4018,29.459,25.4244z"></path>
      </g>
    </g>
    <g>
      <circle cx="28.843" cy="23.037" r=".442" fill="#3D3D3D"></circle>
      <path fill="#4F4D4D" d="M29.0173,22.6971c-0.0128-0.001-0.0255-0.002-0.0383-0.002c-0.2436,0-0.4401,0.1974-0.4401,0.4411
					c0,0.055,0.0098,0.1071,0.0285,0.1552c-0.056-0.0668-0.0894-0.1523-0.0894-0.2456c0-0.2112,0.1719-0.3831,0.3831-0.3831
					C28.9171,22.6627,28.9701,22.6745,29.0173,22.6971z"></path>
      <circle cx="32.359" cy="25.13" r=".442" fill="#3D3D3D"></circle>
      <path fill="#4F4D4D" d="M32.5331,24.7901c-0.0128-0.001-0.0255-0.002-0.0383-0.002c-0.2436,0-0.4401,0.1974-0.4401,0.4411
					c0,0.055,0.0098,0.1071,0.0285,0.1552c-0.056-0.0668-0.0894-0.1523-0.0894-0.2456c0-0.2112,0.1719-0.3831,0.3831-0.3831
					C32.4328,24.7557,32.4859,24.7675,32.5331,24.7901z"></path>
      <g>
        <path fill="#3D3D3D" d="M31.6267,22.9169c-0.244,0-0.4418-0.1978-0.4418-0.4418s0.1978-0.4418,0.4418-0.4418
					C32.2107,22.0334,32.2115,22.9169,31.6267,22.9169z"></path>
        <path fill="#4F4D4D" d="M31.8011,22.1351c-0.2691-0.0212-0.4784,0.1889-0.4784,0.4391c0,0.055,0.0098,0.1071,0.0285,0.1552
					c-0.056-0.0668-0.0894-0.1523-0.0894-0.2456c0-0.2112,0.1719-0.3831,0.3831-0.3831
					C31.7009,22.1007,31.7539,22.1125,31.8011,22.1351z"></path>
      </g>
    </g>
    <g>
      <circle cx="19.764" cy="17.389" r=".442" fill="#3D3D3D"></circle>
      <path fill="#4F4D4D" d="M19.9387,17.049c-0.0128-0.001-0.0255-0.002-0.0383-0.002c-0.2436,0-0.4401,0.1974-0.4401,0.4411
					c0,0.055,0.0098,0.1071,0.0285,0.1552c-0.056-0.0668-0.0894-0.1523-0.0894-0.2456c0-0.2112,0.1719-0.3831,0.3831-0.3831
					C19.8385,17.0146,19.8915,17.0264,19.9387,17.049z"></path>
      <circle cx="23.28" cy="19.482" r=".442" fill="#3D3D3D"></circle>
      <path fill="#4F4D4D" d="M23.4544,19.142c-0.0128-0.001-0.0255-0.002-0.0383-0.002c-0.2436,0-0.4401,0.1974-0.4401,0.4411
					c0,0.055,0.0098,0.1071,0.0285,0.1552c-0.056-0.0668-0.0894-0.1523-0.0894-0.2456c0-0.2112,0.1719-0.3831,0.3831-0.3831
					C23.3542,19.1076,23.4073,19.1194,23.4544,19.142z"></path>
      <g>
        <circle cx="22.548" cy="16.827" r=".442" fill="#3D3D3D"></circle>
        <path fill="#4F4D4D" d="M22.7225,16.4871c-0.0128-0.001-0.0255-0.002-0.0383-0.002c-0.2436,0-0.4401,0.1974-0.4401,0.4411
					c0,0.055,0.0098,0.1071,0.0285,0.1552c-0.056-0.0668-0.0894-0.1523-0.0894-0.2456c0-0.2112,0.1719-0.3831,0.3831-0.3831
					C22.6223,16.4527,22.6753,16.4645,22.7225,16.4871z"></path>
      </g>
    </g>
  </g>
</svg>
