<svg xmlns="http://www.w3.org/2000/svg" width="64" height="64" enable-background="new 0 0 64 64" viewBox="0 0 64 64" id="meat">
  <path fill="#ED5565" d="M0.5,28.683c0-5.801,11.92-16.58,26.92-9.58c18.16,8.469,36.08,3.779,36.08,9.58
			c0,4.84-9.819,8.91-23.181,10.129c-2.649,0.24-5.439,0.371-8.319,0.371c-5.49,0-10.649-0.471-15.14-1.291
			C7.11,36.112,0.5,32.651,0.5,28.683z M21.5,26.183c0-1.1-1.569-2-3.5-2s-3.5,0.9-3.5,2s1.569,2,3.5,2S21.5,27.282,21.5,26.183z"></path>
  <path fill="#DA4453" d="M40.319,38.812c-2.649,0.24-5.439,0.371-8.319,0.371c-5.49,0-10.649-0.471-15.14-1.291
			C7.11,36.112,0.5,32.651,0.5,28.683v8c0,3.869,6.28,7.25,15.63,9.07c4.66,0.91,10.08,1.43,15.87,1.43
			c3.01,0,5.931-0.141,8.69-0.41c13.17-1.25,22.81-5.291,22.81-10.09v-8C63.5,33.522,53.681,37.593,40.319,38.812z"></path>
  <path fill="#E6E9ED" d="M18,24.183c1.931,0,3.5,0.9,3.5,2s-1.569,2-3.5,2s-3.5-0.9-3.5-2S16.069,24.183,18,24.183z"></path>
  <path fill="#D3374E" d="M8.5 42.173c-.276 0-.5-.224-.5-.5v-3.951c0-.276.224-.5.5-.5s.5.224.5.5v3.951C9 41.949 8.776 42.173 8.5 42.173zM16.5 44.321c-.276 0-.5-.224-.5-.5v-4.02c0-.276.224-.5.5-.5s.5.224.5.5v4.02C17 44.098 16.776 44.321 16.5 44.321zM24.5 45.382c-.276 0-.5-.224-.5-.5v-4c0-.276.224-.5.5-.5s.5.224.5.5v4C25 45.158 24.776 45.382 24.5 45.382zM32.5 45.683c-.276 0-.5-.224-.5-.5v-4c0-.276.224-.5.5-.5s.5.224.5.5v4C33 45.459 32.776 45.683 32.5 45.683zM40.5 45.292c-.276 0-.5-.224-.5-.5v-4c0-.276.224-.5.5-.5s.5.224.5.5v4C41 45.068 40.776 45.292 40.5 45.292zM48.5 44.132c-.276 0-.5-.224-.5-.5v-4c0-.276.224-.5.5-.5s.5.224.5.5v4C49 43.908 48.776 44.132 48.5 44.132zM56.5 41.782c-.276 0-.5-.224-.5-.5v-4c0-.276.224-.5.5-.5s.5.224.5.5v4C57 41.559 56.776 41.782 56.5 41.782z"></path>
</svg>
