<svg xmlns="http://www.w3.org/2000/svg" enable-background="new 0 0 64 64" viewBox="0 0 64 64" id="melon">
  <path fill="#c0ca33" d="M30.1801758,57.0185547c-1.4002247-0.9911766-1.5409241-3.3556786-0.2416382-4.5165977
		c-0.000061-0.0000038,6.4755249-6.476078,6.4755249-6.476078c0.4345703-0.4394531,1.0229492-0.7416992,1.6484375-0.8442383
		c3.6806641-0.5830078,6.5366211-3.4389648,7.1171875-7.1079102c0.1040039-0.6328125,0.3920898-1.1987305,0.8349609-1.6484375
		l4.598877-4.598877C44.8665199,4.6379762,5.813199,7.9878917,4.9999723,36.000267
		C4.8375916,50.3069954,18.5169258,61.4944382,32.4937134,58.5561523
		C31.6941528,58.1014404,30.9180908,57.5953369,30.1801758,57.0185547z"></path>
  <path fill="#d4e157" d="M13.2802734 49c-.2880859 0-.5737305-.1235352-.7714844-.362793-1.0390625-1.2573242-1.9291992-2.6757812-2.6455078-4.215332-.2329102-.5009766-.015625-1.0957031.4848633-1.3286133.5009766-.2329102 1.0957031-.0161133 1.3286133.4848633.6445312 1.3852539 1.4428711 2.6586914 2.3740234 3.784668C14.5979452 47.9819603 14.0947409 49.0266762 13.2802734 49zM9.4291992 41C8.96875 41 8.5546875 40.6806641 8.453125 40.2124023c-1.1964159-5.4459801-.0024977-11.2912807 3.2539244-15.794426.7634363-1.0566692 2.3843546.0943851 1.6259174 1.1641083-2.9275475 4.0482311-4.0011272 9.3079948-2.925724 14.2055168C10.548728 40.4011879 10.0572453 41.0073662 9.4291992 41z"></path>
  <path fill="#5d4037" d="M27.9995117,15c-0.713728,0.015728-1.2280502-0.7883081-0.9023228-1.4301844
			c0.019022-0.0414953,0.7304478-1.6171789,0.0180454-2.9702063c-0.2573242-0.4887695-0.0698242-1.0932617,0.4189453-1.3505859
			c0.4897461-0.2558594,1.09375-0.0698242,1.3505859,0.4189453c1.1943359,2.2680664,0.0644531,4.6655273,0.0161133,4.7666016
			C28.7285156,14.7919922,28.3710938,15,27.9995117,15z"></path>
  <path fill="#5d4037" d="M19.2753906,11.1772461c-1.9549007-0.1204004-3.146513,0.3952131-3.3057232-1.0897636
			c0.0254498-0.5518379,0.5020123-0.9727364,1.0454693-0.9527168c0.1547852,0.0073242,15.3891602,0.6586914,21.34375-3.9272461
			c1.0289841-0.7910552,2.2593307,0.780231,1.2196655,1.5849981C34.4897461,10.7109375,23.9848633,11.1772461,19.2753906,11.1772461
			z"></path>
  <path fill="#d4e157" d="M35.9464302 28.3035717c-.0057755 1.3077164-1.9944077 1.3076248-2-.000061C33.9522018 26.9958553 35.940834 26.9959469 35.9464302 28.3035717zM45.9464302 29.3035717c-.0057755 1.3077164-1.9944077 1.3076248-2-.000061C43.9522018 27.9958553 45.940834 27.9959469 45.9464302 29.3035717zM37.9464302 31.3035717c-.0057755 1.3077183-1.9944077 1.3076229-2-.000061C35.9522018 29.9958553 37.940834 29.9959469 37.9464302 31.3035717zM45.9464302 33.3035698c-.0057755 1.3077202-1.9944077 1.3076248-2-.000061C43.9522018 31.9958553 45.940834 31.9959469 45.9464302 33.3035698zM35.9464302 34.3035698c-.0057755 1.3077202-1.9944077 1.3076248-2-.000061C33.9522018 32.9958534 35.940834 32.9959488 35.9464302 34.3035698z"></path>
  <path fill="#c0ca33" d="M55.4428711,31.4116211c-0.349884-0.4660358-1.0934143-0.515213-1.495121-0.0912895
			c0.0000038-0.0000191-6.5078087,6.5077934-6.5078087,6.5077934c-0.153553,0.1559448-0.2489471,0.3413849-0.284668,0.5581055
			c-0.7167969,4.527832-4.2412109,8.0517578-8.769043,8.769043c-0.2084351,0.034359-0.4089508,0.1343422-0.5581055,0.284668
			l-6.5078125,6.5078125c-0.4209747,0.4022675-0.3768463,1.1464081,0.0913258,1.4951134
			C47.2830772,67.4421005,67.3805542,47.2466087,55.4428711,31.4116211z"></path>
  <path fill="#fdd835" d="M41.2182617,56.2182617c12.3031235,0.1116791,19.4542503-14.4820213,11.9115601-24.0800171
			l-5.6898804,5.6898804c-0.1535339,0.155983-0.2489586,0.341362-0.284668,0.5581055
			c-0.7167969,4.527832-4.2412109,8.0517578-8.769043,8.769043c-0.2084808,0.034256-0.4089127,0.1344185-0.5581055,0.284668
			c0,0-5.6898804,5.6898804-5.6898804,5.6898804C34.6622314,55.0585327,37.8037109,56.2182617,41.2182617,56.2182617z"></path>
  <path fill="#f9a825" d="M47.2626953,38.0678711c-0.7653885,4.8188934-4.3815041,8.4282684-9.198391,9.1966057
			c-0.2090721,0.092968-0.8867035,0.8465157-1.0624123,1.0016975c7.5626755,6.1744423,17.4363365-3.7087746,11.2642822-11.2642822
			C48.1155891,37.1716995,47.3447075,37.8692207,47.2626953,38.0678711z"></path>
  <path fill="#9e9d24" d="M25.4343872,13.1466675c-8.5895367,4.8197155-13.2062407,15.3610172-10.8273506,25.0843582
		C14.7163086,38.690918,15.1264648,39,15.5791016,39c0.6355515,0.0074196,1.1295509-0.6130333,0.9741116-1.2309647
		c-2.2193918-9.0918961,2.238821-18.9146061,10.4155369-23.2049484V42c0,0.5522461,0.4477539,1,1,1s1-0.4477539,1-1V14.5254517
		c8.217453,4.2750549,12.7028999,14.1268291,10.4779358,23.2436562c-0.2982941,1.2623787,1.6335602,1.7418137,1.9463921,0.4617844
		c2.3782539-9.7253342-2.2379227-20.263855-10.8292751-25.0843925
		C28.8846455,12.9528561,27.113596,12.9529591,25.4343872,13.1466675z"></path>
</svg>
