<svg xmlns="http://www.w3.org/2000/svg" viewBox="0 0 96 96" id="milk-product">
  <g>
    <path fill="#e6e7e8" d="M67.41,20.22V87.46A6.54,6.54,0,0,1,60.87,94H25.37a6.54,6.54,0,0,1-6.54-6.54V20.22A10.38,10.38,0,0,1,20.9,14c.45-.6.18-.24,2.27-2.66V5.23h39.9v6.11l1.79,2.07A10.35,10.35,0,0,1,67.41,20.22Z"></path>
    <path fill="#c5cdd4" d="M45.91,18.25h-20a4.28,4.28,0,0,0-2.24.58c-1,.6-.83,1.33-.83,6.14a2,2,0,0,1-4,.06c-.09-4.13-.26-7.94,2.1-11H37.82a1,1,0,0,0,0-2H22.6l.57-.66V5.23H44.75V9a6.29,6.29,0,0,0,1.51,4.08,14.75,14.75,0,0,1,1.47,2A2.1,2.1,0,0,1,45.91,18.25Z"></path>
    <path fill="#acc2d4" d="M67.41,20.22V87.46A6.54,6.54,0,0,1,60.87,94H51.2a6.54,6.54,0,0,0,6.54-6.54V20.22a10.35,10.35,0,0,0-2.55-6.81A7.38,7.38,0,0,1,53.4,8.6V5.23h9.67v6.11l1.79,2.07A10.35,10.35,0,0,1,67.41,20.22Z"></path>
    <rect width="44.05" height="5.23" x="21.09" fill="#c5cdd4" rx="1.48"></rect>
    <rect width="22.03" height="5.23" x="21.09" fill="#e6e7e8" rx="1.48"></rect>
    <path fill="#fff" d="M34.18,3.64H26.61a1,1,0,0,1-1-1,1,1,0,0,1,1-1h7.57a1,1,0,1,1,0,2.06Z"></path>
    <rect width="24.58" height="5.96" x="30.86" y="37.71" fill="#fc834e" rx=".99"></rect>
    <rect width="13.62" height="5.96" x="36.34" y="37.71" fill="#fcb076" rx=".99"></rect>
    <rect width="5.87" height="1.97" x="40.21" y="39.7" fill="#fce294" rx=".99"></rect>
    <path fill="#231f20" d="M87.14,96H8.86a1,1,0,1,1,0-2H87.14a1,1,0,0,1,0,2Z"></path>
    <path fill="#3a5597" d="M31.11,66.58V90a4,4,0,0,1-4.05,4H17.38a4,4,0,0,1-4-4V66.58a8.87,8.87,0,0,1,1.09-4.28l3.35-6.12V51.82h8.89v4.36L30,62.3A8.87,8.87,0,0,1,31.11,66.58Z"></path>
    <path fill="#3a82ce" d="M21.59 51.82H17.78v3.43h.38A3.43 3.43 0 0021.59 51.82zM18.55 58.5h-2c-2 3.67-3.17 5.22-3.17 8.08V90a4 4 0 004 4H22A4 4 0 0026 90V66.58C26 62.18 22.92 58.5 18.55 58.5z"></path>
    <path fill="#3ab9ec" d="M24 67.83a9.59 9.59 0 00-1.73-4.4 2 2 0 00-1.7-1H18.84a2 2 0 00-1.7 1 9.52 9.52 0 00-1.71 4.41 1.7 1.7 0 001.68 1.9h5.17A1.7 1.7 0 0024 67.83zM24.11 74.32c0-.67 0-1.3 0-1.88A1.43 1.43 0 0022.69 71h-6a1.42 1.42 0 00-1.43 1.43c0 .59 0 1.21 0 1.89a1.43 1.43 0 001.43 1.43h6A1.43 1.43 0 0024.11 74.32zM15.31 80.89c0 2.57 0 5.56 0 9.06a2 2 0 002 2H22A2.05 2.05 0 0024 89.94c0-3.5 0-6.48 0-9A1.92 1.92 0 0022.14 79h-4.9A1.92 1.92 0 0015.31 80.89z"></path>
    <rect width="13.58" height="5.5" x="15.43" y="46.32" fill="#3a82ce" rx="1.14"></rect>
    <rect width="7.88" height="5.5" x="15.43" y="46.32" fill="#3ab9ec" rx="1.14"></rect>
    <path fill="#3ae6ff" d="M20.38,47.8h-3.1a.64.64,0,1,0,0,1.27h3.1a.63.63,0,0,0,.64-.63A.65.65,0,0,0,20.38,47.8Z"></path>
    <rect width="20.09" height="29.37" x="63.23" y="64.63" fill="#3a8ce2"></rect>
    <path fill="#44a5ec" d="M68 76.91a6.29 6.29 0 0110.47 0A1.54 1.54 0 0081.32 76v-6.4a3 3 0 00-3-3H66.6A1.37 1.37 0 0065.23 68v8A1.54 1.54 0 0068 76.91zM70.69 86.9c0-1.26-1.22-.91-2.6-2.9a1.58 1.58 0 00-2.86.91V89a3 3 0 003 3h1.21a1.24 1.24 0 001.24-1.23zM78.46 84a6.3 6.3 0 01-3.91 2.6 1.74 1.74 0 00-1.36 1.73v1.89A1.78 1.78 0 0075 92h3.35a3 3 0 003-3V84.91A1.58 1.58 0 0078.46 84z"></path>
    <path fill="#7bd7ff" d="M82.32,79.75a1,1,0,0,0-1,1v4a1,1,0,0,0,2,0v-4A1,1,0,0,0,82.32,79.75Z"></path>
    <path fill="#3a78d3" d="M81.32,88.86a3,3,0,0,1-3,3.14H68.94V86.12H63.23V94H83.32V88.86a1,1,0,0,0-2,0Z"></path>
    <path fill="#7bd7ff" d="M78.31,66.63a3,3,0,0,1,3,3v3.11a1,1,0,0,0,2,0V64.63H65.73a1,1,0,0,0,0,2Z"></path>
    <polygon fill="#4491d8" points="66.58 56.68 79.97 56.68 83.33 64.63 63.23 64.63 66.58 56.68"></polygon>
    <path fill="#3ab9ec" d="M73.55,61.57h-9l2.06-4.89h9.56l.25.6A3.08,3.08,0,0,1,73.55,61.57Z"></path>
    <rect width="13.4" height="5.08" x="66.58" y="51.6" fill="#e6e7e8"></rect>
    <rect width="3.84" height="5.08" x="76.14" y="51.6" fill="#acc2d4"></rect>
    <circle cx="73.28" cy="80.42" r="4.31" fill="#3ab9ec"></circle>
    <path fill="#8ff0fb" d="M73.31,79.88c2.51,0,2.72-4.17-.6-3.73-2.26.3-1.93,3.73.35,3.73Z"></path>
    <path fill="#3a78c4" d="M70.81,81.25a1.15,1.15,0,0,0-.87,1.89A4.3,4.3,0,0,0,76.7,83a1.13,1.13,0,0,0-1-1.78Z"></path>
    <path fill="#fcb580" d="M58.08,64.91a7.27,7.27,0,0,1-13.35,0H26.66V83.58h27a3.91,3.91,0,1,1,3.9-3.92,3.91,3.91,0,0,1-3.9,3.92h9.57V64.91ZM35.81,77.46A3.22,3.22,0,1,1,39,74.24,3.22,3.22,0,0,1,35.81,77.46Z"></path>
    <path fill="#fcd39e" d="M26.66,64.91V76.12a1.2,1.2,0,0,0,2,.85L33,72.66a3.14,3.14,0,0,1,1.2-1.2L38.72,67a1.2,1.2,0,0,0-.85-2Z"></path>
    <path fill="#fce7b7" d="M33.83,64.91H26.66v6.84a1,1,0,0,0,2,0V69a2.07,2.07,0,0,1,2.07-2.07h3.1a1,1,0,0,0,0-2Z"></path>
    <path fill="#fca66c" d="M58.08,64.91A7.21,7.21,0,0,1,53,69.14a11.28,11.28,0,0,0-5.67,2.94l-5.2,5.2a3.69,3.69,0,0,0,2.61,6.3h8.94a3.91,3.91,0,1,1,1-7.7,3.85,3.85,0,0,1,2.82,2.93,3.91,3.91,0,0,1-3.81,4.77h9.57V64.91Z"></path>
    <path fill="#fc8d5d" d="M61.23,69.12V80.7a.87.87,0,0,1-.88.88h0a.87.87,0,0,1-.85-1,5.91,5.91,0,1,0-11.69,0,1,1,0,0,1-1,1.08,1,1,0,0,0,0,2h6.83a3.91,3.91,0,1,1,0-7.82c5.17,0,5.14,7.82,0,7.82h9.57V69.12a1,1,0,0,0-2,0Z"></path>
    <path fill="#fc834e" d="M39,74.24A3.23,3.23,0,1,1,35.81,71,3.23,3.23,0,0,1,39,74.24Z"></path>
    <path fill="#ed5b3a" d="M37.69,74.24a1.88,1.88,0,1,1-1.88-1.86A1.87,1.87,0,0,1,37.69,74.24Z"></path>
    <path fill="#fc794e" d="M57.56,79.66a3.91,3.91,0,1,1-3.9-3.9A3.9,3.9,0,0,1,57.56,79.66Z"></path>
    <path fill="#ed5b3a" d="M55.94,79.66a2.29,2.29,0,1,1-2.28-2.28A2.29,2.29,0,0,1,55.94,79.66Z"></path>
    <rect width="46.84" height="4.27" x="22.1" y="83.58" fill="#2b3c88" rx="1.62"></rect>
    <rect width="41.47" height="4.27" x="24.78" y="83.58" fill="#3a5aa6" rx="1.62"></rect>
    <rect width="13.09" height="4.27" x="38.97" y="83.58" fill="#3a78c4" rx="1.62"></rect>
    <polygon fill="#2b3c88" points="61.09 94 28.8 94 26.66 87.86 63.23 87.86 61.09 94"></polygon>
    <path fill="#3a5aa6" d="M31.69,91.87l.2.76A1.86,1.86,0,0,0,33.69,94H56.2A1.86,1.86,0,0,0,58,92.63l.21-.76A1.87,1.87,0,0,0,56.4,89.5H33.49A1.87,1.87,0,0,0,31.69,91.87Z"></path>
    <path fill="#3a78c4" d="M38.66,94H51.23A3.23,3.23,0,0,0,48,90.33H41.87A3.24,3.24,0,0,0,38.66,94Z"></path>
    <rect width="10" height="3.37" x="39.42" y="5.23" fill="#fff" rx="1.68"></rect>
    <rect width="22.76" height="8.43" x="31.77" y="20.95" fill="#fff" rx="1.91"></rect>
    <rect width="16.95" height="3.81" x="34.67" y="50.31" fill="#fff" rx="1.91"></rect>
    <rect width="22.76" height="3.81" x="31.77" y="31.57" fill="#fff" rx="1.91"></rect>
    <path fill="#c5cdd4" d="M22.83,46.32h-4V43.59a2,2,0,0,1,4,0Z"></path>
    <path fill="#7bd7ff" d="M72.57,59.83h-4a.71.71,0,1,1,0-1.41h4a.71.71,0,1,1,0,1.41Z"></path>
    <rect width="3.35" height="18.95" x="63.23" y="64.63" fill="#3a69c9"></rect>
    <rect width="5.56" height="1.74" x="43.12" y="90.33" fill="#3a9bd8" rx=".87"></rect>
    <path fill="#231f20" d="M87.14,94H84.32V65.63c0-.38-.06-.36-3.34-8.15V52.6a1,1,0,0,0-1-1H68.41V36.28a20.35,20.35,0,0,0,5.55-14A12.63,12.63,0,0,0,64.07,10V7.19a2.49,2.49,0,0,0,2.08-2.44V2.48A2.49,2.49,0,0,0,63.67,0H22.57a2.48,2.48,0,0,0-2.48,2.48V4.75a2.48,2.48,0,0,0,2.08,2.44V10a12.64,12.64,0,0,0-9.83,12.26,20.33,20.33,0,0,0,5.49,14V46.32H16.58a2.15,2.15,0,0,0-2.15,2.14v3.22a2.15,2.15,0,0,0,2.15,2.14h.2v3.11l-3.23,5.89a10,10,0,0,0-1.21,4.76V91a5,5,0,0,0,1.05,3H8.86a1,1,0,1,0,0,2H87.14a1,1,0,0,0,0-2ZM23.72,87.86a.62.62,0,0,1-.62-.62v-1a.62.62,0,0,1,.62-.62h43.6a.62.62,0,0,1,.62.62v1a.62.62,0,0,1-.62.62Zm20.38-21a8.27,8.27,0,0,0,14.61,0h3.52V83.58H57.6a4.91,4.91,0,1,0-7.89,0h-22V66.91Zm6.65,13.75a2.91,2.91,0,1,1,2.91,2.92A2.9,2.9,0,0,1,50.75,80.66Zm16.57,9.2a2.63,2.63,0,0,0,2.62-2.62,5.09,5.09,0,0,0-.15-1.85A5.31,5.31,0,1,0,68.65,84c-.85-.51-1.36-.38-4.42-.38v-17H82.32V94H62.5l1.44-4.14ZM70,81.42a3.31,3.31,0,1,1,3.31,3.31A3.31,3.31,0,0,1,70,81.42ZM64.74,64.63l2.5-5.95H79.31l2.51,5.95ZM79,56.68H67.58V53.6H79Zm-24.53-19H31.84a2,2,0,0,0-2,2v.75a18.31,18.31,0,0,1-10-5V21.22c0-3.93,2.11-5.94,3.8-7.88H37.82a1,1,0,0,0,0-2H24.17V7.23h37.9v5.11c0,.49.11.5,2,2.72a9.42,9.42,0,0,1,2.3,6.16V35.46a18.27,18.27,0,0,1-10,5v-.75A2,2,0,0,0,54.45,37.71Zm-22.61,2,22.6,0v4H31.86ZM72,22.27a18.4,18.4,0,0,1-3.55,10.89V21.22a11.41,11.41,0,0,0-2.79-7.47l-1.45-1.67A10.63,10.63,0,0,1,72,22.27ZM22.09,2.48A.48.48,0,0,1,22.57,2h41.1a.48.48,0,0,1,.48.48V4.75a.49.49,0,0,1-.48.48H22.57a.49.49,0,0,1-.48-.48ZM14.34,22.27A10.65,10.65,0,0,1,22.05,12.1l-1.43,1.65a11.41,11.41,0,0,0-2.79,7.47V33.09A18.41,18.41,0,0,1,14.34,22.27Zm5.49,15.82a20.28,20.28,0,0,0,10,4.37v1.22a2,2,0,0,0,2,2H54.45a2,2,0,0,0,2-2V42.46a20.29,20.29,0,0,0,10-4.33V51.64a1,1,0,0,0-.83,1v4.88l-3.13,7.43H58.08a1,1,0,0,0-.92.61,6.26,6.26,0,0,1-11.5,0,1,1,0,0,0-.93-.61h-13c-.42-1.52-.74-1.9-4.07-8V53.82h.2A2.15,2.15,0,0,0,30,51.68V48.46a2.15,2.15,0,0,0-2.15-2.14h-8Zm-3.4,13.59V48.46a.15.15,0,0,1,.15-.14c12,0,11.44-.08,11.44.14v3.22c0,.21.68.14-11.44.14A.15.15,0,0,1,16.43,51.68ZM14.34,91V67.58a7.87,7.87,0,0,1,1-3.8c3.63-6.64,3.47-6.24,3.47-6.6V53.82h6.89c0,3.73,0,3.55.13,3.84,3.57,6.54,3.55,6.43,3.85,7.25h-3a1,1,0,0,0-1,1V83.58H23.72A2.62,2.62,0,0,0,21.1,86.2v1a2.62,2.62,0,0,0,2.62,2.62H26L27.39,94h-10A3,3,0,0,1,14.34,91Zm15.17,3-1.44-4.14H61.82L60.38,94Z"></path>
    <path fill="#231f20" d="M35.81,79.46a4.22,4.22,0,1,0-4.22-4.22A4.23,4.23,0,0,0,35.81,79.46Zm0-6.43a2.22,2.22,0,1,1-2.22,2.21A2.22,2.22,0,0,1,35.81,73Z"></path>
  </g>
</svg>
