<svg xmlns="http://www.w3.org/2000/svg" viewBox="0 0 96 96" id="soda">
  <rect width="14.95" height="3.92" x="29.39" y="7.31" fill="#ef3351" rx=".92"></rect>
  <path fill="#5c3448" d="M51.54,63.6a11,11,0,0,0,0,12.73h0a11,11,0,0,1,2,6.37v6.48a5.73,5.73,0,0,1-5,5.78,5.58,5.58,0,0,1-6.12-5.54,5.57,5.57,0,0,1-11.14,0A5.58,5.58,0,0,1,25.17,95a5.73,5.73,0,0,1-5-5.78V83.42a11.66,11.66,0,0,1,2-7.08h0a11,11,0,0,0,0-12.73,11,11,0,0,1-2-6.37V38.11c0-5.42,3.19-7.2,7.77-14.7C31.39,17.76,31,19.07,31,11.23H42.72v5a7.73,7.73,0,0,0,1.15,4.05,125.43,125.43,0,0,0,7.67,11.48,11,11,0,0,1,2,6.36V57.23A11,11,0,0,1,51.54,63.6Z"></path>
  <path fill="#704d5c" d="M51.54,63.6a11,11,0,0,0,0,12.73,7,7,0,0,1,2,4.92c0,8.27.14,8.79-.44,10.19a6.63,6.63,0,0,1-1,1.59,0,0,0,0,0,0,0,5.42,5.42,0,0,1-6.94,1.2h0a5.53,5.53,0,0,1-2.75-4.29c-.07-1.12.11-.24-.28,1.18a5.57,5.57,0,0,1-10.88-1.63c0,3-4.75,3.1-4.75-.3V83.42c0-5,2-6.83,2-7.09a11,11,0,0,0,0-12.73,11,11,0,0,1-2-6.37V38.12a11,11,0,0,1,2-6.37,130.48,130.48,0,0,0,7.67-11.48,7.78,7.78,0,0,0,1.15-4.07v-5h5.33c0,7.44-.37,6.58,2.5,11.23,5.6,9.18,8.35,10.23,8.35,15.67v19.1A11,11,0,0,1,51.54,63.6Z"></path>
  <path fill="#896175" d="M34.21 60H32a1.19 1.19 0 00-1 1.84 14 14 0 010 16.24c-.09.12-.17.25-.25.38a1.2 1.2 0 001 1.85h2.39a1.21 1.21 0 001.17-.94 12.31 12.31 0 011.92-4.19 9 9 0 000-10.42 12.8 12.8 0 01-1.89-3.92A1.2 1.2 0 0034.21 60zM34.33 35a1.23 1.23 0 001.16-.87c.81-2.57 2-3.86 4.59-7.53a3.06 3.06 0 00.11-3.35l-.09-.14a1.21 1.21 0 00-2.05 0c-2.91 4.76-5.64 8.22-7 10.4A1 1 0 0031.83 35z"></path>
  <path fill="#5c3448" d="M51.54,31.75a0,0,0,0,1,0,0,127.19,127.19,0,0,1-7.66-11.47,7.78,7.78,0,0,1-1.15-4.07v-5H39.53c0,7.24-.38,6.55,2.36,11a5,5,0,0,1-.18,5.55l-2.82,4a11,11,0,0,0-2,6.36V57.23a11,11,0,0,0,2,6.37,11,11,0,0,1,0,12.73h0a11.66,11.66,0,0,0-2,7.08v5.77a6.69,6.69,0,0,0,1.37,3.87,1.81,1.81,0,0,0,2.79.1,6.23,6.23,0,0,0,1.39-3.22s0,0,0,0a5.59,5.59,0,0,0,6.1,5,5.72,5.72,0,0,0,5-5.78V81.25a7,7,0,0,0-2-4.92,11,11,0,0,1,0-12.73,11,11,0,0,0,2-6.37V38.13A11.14,11.14,0,0,0,51.54,31.75Z"></path>
  <path fill="#302d3d" d="M31.29,92.91A6.58,6.58,0,0,1,25.07,96a6.75,6.75,0,0,1-5.92-6.78V83.42a12.64,12.64,0,0,1,2.21-7.66,10,10,0,0,0,0-11.58,11.93,11.93,0,0,1-2.22-7V38.11a11.91,11.91,0,0,1,2.21-6.94A125.65,125.65,0,0,0,29,19.75a6.81,6.81,0,0,0,1-3.53v-5a1,1,0,0,1,1-1H42.72a1,1,0,0,1,1,1v5a6.66,6.66,0,0,0,1,3.53,129.65,129.65,0,0,0,7.63,11.42,11.92,11.92,0,0,1,2.22,6.94V57.23a11.93,11.93,0,0,1-2.22,7h0a10,10,0,0,0,0,11.58,12,12,0,0,1,2.22,6.95v6.48A6.75,6.75,0,0,1,48.65,96a6.57,6.57,0,0,1-6.22-3.06A6.57,6.57,0,0,1,31.29,92.91ZM32,12.23v4a8.75,8.75,0,0,1-1.3,4.58A129.36,129.36,0,0,1,23,32.33a10,10,0,0,0-1.84,5.78V57.23A9.93,9.93,0,0,0,23,63a12,12,0,0,1,0,13.89,10.71,10.71,0,0,0-1.85,6.51v5.77A4.74,4.74,0,0,0,25.26,94a4.58,4.58,0,0,0,5-4.55,1,1,0,0,1,2,0,4.57,4.57,0,0,0,9.14,0,1,1,0,0,1,2,0,4.57,4.57,0,0,0,5,4.55,4.74,4.74,0,0,0,4.12-4.79V82.71a9.93,9.93,0,0,0-1.85-5.79,12,12,0,0,1,0-13.9h0a9.93,9.93,0,0,0,1.85-5.79V38.11a9.92,9.92,0,0,0-1.85-5.78A127.89,127.89,0,0,1,43,20.8c-1.6-2.6-1.3-4.68-1.3-8.57Z"></path>
  <path fill="#ff6f92" d="M32.61,1h8.5a1.61,1.61,0,0,1,1.61,1.61v4.7a0,0,0,0,1,0,0H31a0,0,0,0,1,0,0V2.61A1.61,1.61,0,0,1,32.61,1Z"></path>
  <path fill="#ef3351" d="M32.61,3.67h8.5a1.61,1.61,0,0,1,1.61,1.61v2a0,0,0,0,1,0,0H31a0,0,0,0,1,0,0v-2A1.61,1.61,0,0,1,32.61,3.67Z"></path>
  <rect width="9.28" height="3.92" x="29.39" y="7.31" fill="#b82947" rx=".92"></rect>
  <path fill="#b82947" d="M32.61,1h2a1.61,1.61,0,0,1,1.61,1.61v4.7a0,0,0,0,1,0,0H31a0,0,0,0,1,0,0V2.61A1.61,1.61,0,0,1,32.61,1Z"></path>
  <path fill="#302d3d" d="M31.29 90.43a1 1 0 01-1-1V84.79a1 1 0 012 0v4.64A1 1 0 0131.29 90.43zM42.43 90.43a1 1 0 01-1-1V84.79a1 1 0 012 0v4.64A1 1 0 0142.43 90.43z"></path>
  <rect width="33.42" height="19.12" x="20.15" y="38.11" fill="#b82947"></rect>
  <rect width="27.08" height="19.12" x="26.49" y="38.11" fill="#ef3351"></rect>
  <rect width="6.91" height="13.76" x="29.95" y="40.79" fill="#ff6f92" rx="1.33"></rect>
  <path fill="#302d3d" d="M43.42,12.24H30.3a1.92,1.92,0,0,1-1.91-1.92V8.23A1.92,1.92,0,0,1,30.3,6.31H43.42a1.92,1.92,0,0,1,1.91,1.92v2.09A1.92,1.92,0,0,1,43.42,12.24Zm-13-2H43.33V8.31H30.39Zm13-1.93h0Z"></path>
  <path fill="#302d3d" d="M42.72 8.31H31a1 1 0 01-1-1V2.61A2.61 2.61 0 0132.61 0h8.5a2.61 2.61 0 012.61 2.61v4.7A1 1 0 0142.72 8.31zM32 6.31h9.72V2.61A.61.61 0 0041.11 2h-8.5a.61.61 0 00-.61.61zM53.57 58.23H20.15a1 1 0 01-1-1V38.11a1 1 0 011-1H53.57a1 1 0 011 1V57.23A1 1 0 0153.57 58.23zm-32.42-2H52.57V39.11H21.15z"></path>
  <circle cx="36.86" cy="47.67" r="5.41" fill="#fff"></circle>
  <path fill="#302d3d" d="M36.86 54.08a6.41 6.41 0 116.41-6.41A6.41 6.41 0 0136.86 54.08zm0-10.82a4.41 4.41 0 104.41 4.41A4.42 4.42 0 0036.86 43.26zM42.27 65.64H31.45a1 1 0 010-2H42.27a1 1 0 010 2zM36.86 19.18H30.74a1 1 0 010-2h6.12a1 1 0 010 2z"></path>
  <path fill="#e7792e" d="M73.82,63.6a11,11,0,0,0,0,12.73,11,11,0,0,1,2,6.38v6.48a5.72,5.72,0,0,1-5,5.78,5.57,5.57,0,0,1-6.12-5.54,5.57,5.57,0,1,1-11.14,0A5.57,5.57,0,0,1,47.45,95a5.72,5.72,0,0,1-5-5.78V83.42a11.66,11.66,0,0,1,2-7.08,11,11,0,0,0,0-12.74,11,11,0,0,1-2-6.37V38.11a11,11,0,0,1,2-6.36l3.2-4.5c1.91-2.69,4.53-7.08,4.47-7a7.73,7.73,0,0,0,1.15-4.05v-5H65v5a7.73,7.73,0,0,0,1.15,4.05l1.93,3.14c1.88,3.05,5.81,8.44,5.74,8.34a11,11,0,0,1,2,6.36V57.23A11,11,0,0,1,73.82,63.6Z"></path>
  <path fill="#e7562e" d="M58.79,11.23H53.28c0,5.77.06,5.58-.22,6.77h5.73Z"></path>
  <path fill="#e7a12e" d="M64,28.12a5.75,5.75,0,0,0-9.63,0c-4.36,6.72-5.9,7.38-5.9,10V57.23a5,5,0,0,0,.92,2.89A17,17,0,0,1,52.1,73.57a3.63,3.63,0,0,0,3.58,4.35H62.6a3.63,3.63,0,0,0,3.58-4.35,17,17,0,0,1,2.75-13.44,5,5,0,0,0,.92-2.89V38.1C69.85,35.47,68.29,34.78,64,28.12Z"></path>
  <path fill="#e7792e" d="M48.43,53.33v3.9a5,5,0,0,0,.92,2.89A17,17,0,0,1,52.1,73.57a3.63,3.63,0,0,0,3.58,4.35H62.6a3.63,3.63,0,0,0,3.58-4.35,17,17,0,0,1,2.75-13.44,5,5,0,0,0,.92-2.89V53.33Z"></path>
  <path fill="#e7562e" d="M75.85,54h-6v3.24a5,5,0,0,1-.92,2.89,17,17,0,0,0-2.75,13.45,3.62,3.62,0,0,1-3.58,4.34H55.69a3.63,3.63,0,0,1-3.59-4.34,17,17,0,0,0-2.74-13.46,5,5,0,0,1-.93-2.89V54h-6c0,3.51-.32,6.3,2,9.6a11,11,0,0,1,0,12.73h0a11.66,11.66,0,0,0-2,7.08v5.77a5.73,5.73,0,0,0,5,5.78,5.57,5.57,0,0,0,6.12-5.54,5.57,5.57,0,1,0,11.14,0A5.57,5.57,0,0,0,70.83,95a5.72,5.72,0,0,0,5-5.78V82.71a11,11,0,0,0-2-6.37h0a11,11,0,0,1,0-12.73C76.14,60.32,75.85,57.55,75.85,54Z"></path>
  <path fill="#fff" d="M61.25,34.06a1,1,0,0,0,.84-1.59c-1.73-2.53-1.88-3-3-3s-1.13.33-2.94,3A1,1,0,0,0,57,34.06Z"></path>
  <path fill="#e7a12e" d="M61.91,62.06H56.37a1,1,0,0,0-1,1.32,21,21,0,0,1,.89,9.36,1,1,0,0,0,1,1.18H61a1,1,0,0,0,1-1.18,20.88,20.88,0,0,1,.9-9.36A1,1,0,0,0,61.91,62.06Z"></path>
  <path fill="#302d3d" d="M53.57,92.91A6.59,6.59,0,0,1,47.35,96a6.75,6.75,0,0,1-5.92-6.78V83.42a12.57,12.57,0,0,1,2.22-7.66,10,10,0,0,0,0-11.58,11.93,11.93,0,0,1-2.22-7V38.11c0-5.74,3.24-7.63,7.92-15.23,3.36-5.45,2.93-4,2.93-11.65a1,1,0,0,1,1-1H65a1,1,0,0,1,1,1v5a6.81,6.81,0,0,0,1,3.53,128.57,128.57,0,0,0,7.64,11.42,11.91,11.91,0,0,1,2.21,6.94V57.23a11.93,11.93,0,0,1-2.22,7h0a10,10,0,0,0,0,11.58,11.9,11.9,0,0,1,2.22,6.95v6.48A6.75,6.75,0,0,1,70.93,96a6.59,6.59,0,0,1-6.22-3.06A6.57,6.57,0,0,1,53.57,92.91Zm.71-80.68v4A8.72,8.72,0,0,1,53,20.8a127.54,127.54,0,0,1-7.7,11.53,9.92,9.92,0,0,0-1.85,5.78V57.23A9.93,9.93,0,0,0,45.28,63a12,12,0,0,1,0,13.89,10.77,10.77,0,0,0-1.85,6.51v5.77A4.74,4.74,0,0,0,47.55,94a4.57,4.57,0,0,0,5-4.55,1,1,0,0,1,2,0,4.57,4.57,0,0,0,9.14,0,1,1,0,1,1,2,0,4.57,4.57,0,0,0,5,4.55,4.74,4.74,0,0,0,4.11-4.79V82.71A10,10,0,0,0,73,76.92,12,12,0,0,1,73,63h0a9.93,9.93,0,0,0,1.85-5.79V38.11c0-5-2.85-6.44-7.62-14.18C63.67,18.15,64,19.06,64,12.23Z"></path>
  <rect width="14.95" height="3.92" x="51.67" y="7.31" fill="#579fef" rx=".92"></rect>
  <rect width="9.44" height="3.92" x="51.67" y="7.31" fill="#3477ef" rx=".92"></rect>
  <path fill="#66c7ef" d="M54.89,1h8.5A1.61,1.61,0,0,1,65,2.61v4.7a0,0,0,0,1,0,0H53.28a0,0,0,0,1,0,0V2.61A1.61,1.61,0,0,1,54.89,1Z"></path>
  <path fill="#579fef" d="M54.89,3.67h8.5A1.61,1.61,0,0,1,65,5.28v2a0,0,0,0,1,0,0H53.28a0,0,0,0,1,0,0v-2A1.61,1.61,0,0,1,54.89,3.67Z"></path>
  <path fill="#3477ef" d="M54.89,1h1.64a1.61,1.61,0,0,1,1.61,1.61v4.7a0,0,0,0,1,0,0H53.28a0,0,0,0,1,0,0V2.61A1.61,1.61,0,0,1,54.89,1Z"></path>
  <path fill="#302d3d" d="M53.57 90.43a1 1 0 01-1-1V84.79a1 1 0 012 0v4.64A1 1 0 0153.57 90.43zM64.71 90.43a1 1 0 01-1-1V84.79a1 1 0 012 0v4.64A1 1 0 0164.71 90.43z"></path>
  <rect width="33.42" height="19.12" x="42.43" y="38.11" fill="#3477ef"></rect>
  <rect width="20.25" height="19.12" x="49.02" y="38.11" fill="#579fef"></rect>
  <rect width="13.12" height="14.25" x="52.58" y="40.55" fill="#93c2ef" rx="1.57" transform="rotate(90 59.14 47.67)"></rect>
  <path fill="#302d3d" d="M65.7,12.24H52.58a1.92,1.92,0,0,1-1.91-1.92V8.23a1.92,1.92,0,0,1,1.91-1.92H65.7a1.92,1.92,0,0,1,1.91,1.92v2.09A1.92,1.92,0,0,1,65.7,12.24Zm-13-2H65.61V8.31H52.67Zm13-1.93h0Z"></path>
  <path fill="#302d3d" d="M65 8.31H53.28a1 1 0 01-1-1V2.61A2.61 2.61 0 0154.89 0h8.5A2.61 2.61 0 0166 2.61v4.7A1 1 0 0165 8.31zm-10.72-2H64V2.61A.61.61 0 0063.39 2h-8.5a.61.61 0 00-.61.61zM75.85 58.23H42.43a1 1 0 01-1-1V38.11a1 1 0 011-1H75.85a1 1 0 011 1V57.23A1 1 0 0175.85 58.23zm-32.42-2H74.85V39.11H43.43z"></path>
  <circle cx="59.14" cy="47.67" r="5.41" fill="#fff"></circle>
  <path fill="#302d3d" d="M59.14 54.08a6.41 6.41 0 116.41-6.41A6.42 6.42 0 0159.14 54.08zm0-10.82a4.41 4.41 0 104.41 4.41A4.42 4.42 0 0059.14 43.26zM64.55 65.64H53.73a1 1 0 010-2H64.55a1 1 0 010 2zM59.14 19.18H53a1 1 0 010-2h6.12a1 1 0 010 2z"></path>
</svg>
