<svg xmlns="http://www.w3.org/2000/svg" viewBox="0 0 96 96" id="take-away">
  <g>
    <path fill="#d25148" d="M59.06,44.61A18.59,18.59,0,1,1,40.47,26,18.6,18.6,0,0,1,59.06,44.61Z"></path>
    <path fill="#af3d48" d="M54.83,61.89a8,8,0,0,1-16.07.63L37.4,28.08a1.94,1.94,0,0,1,1.77-2,18.6,18.6,0,0,1,14.46,5.41C54.78,60.68,54.55,54.9,54.83,61.89Z"></path>
    <path fill="#ff7448" d="M59.82,60.47A8,8,0,0,1,44,62.87c-.35-1.25-.11,2.47-2.06-46.82A8,8,0,1,1,58,15.42C58.55,28.35,58.19,19.07,59.82,60.47Z"></path>
    <path fill="#ffab52" d="M46.36,14.33a.78.78,0,0,1-1.07-1,5,5,0,0,1,4.48-3.25H50a5,5,0,0,1,4.51,2.77.78.78,0,0,1-1,1.08A9.27,9.27,0,0,0,46.36,14.33Z"></path>
    <path fill="#eb5139" d="M59.82,60.47A8,8,0,0,1,44,62.87c.25-1.27-.72,1.41,14.4-37.61Z"></path>
    <path fill="#dc4248" d="M46.57 18.34a1 1 0 01-.47-1.89A9.07 9.07 0 0154 16.14a1 1 0 01-.8 1.84 7 7 0 00-6.12.24A1 1 0 0146.57 18.34zM46.91 26.92A1 1 0 0146.44 25a9 9 0 017.86-.31 1 1 0 01-.8 1.83 7 7 0 00-6.12.24A1 1 0 0146.91 26.92zM47.25 35.51a1 1 0 01-.47-1.89 9.07 9.07 0 017.86-.31 1 1 0 01-.8 1.84 7 7 0 00-6.12.24A1 1 0 0147.25 35.51zM47.59 44.09a1 1 0 01-.47-1.88A9 9 0 0155 41.9a1 1 0 01-.8 1.83 7 7 0 00-6.12.24A1 1 0 0147.59 44.09z"></path>
    <path fill="#ffab6b" d="M54.5,73.53a10.16,10.16,0,0,1-5.81-13.15L69.28,7.23a10.17,10.17,0,1,1,19,7.34L67.65,67.72A10.16,10.16,0,0,1,54.5,73.53Z"></path>
    <path fill="#ff886b" d="M88.24,14.57c-11.76,30.34-6.59,17-20.59,53.15a10.17,10.17,0,0,1-15.22,4.72A10.19,10.19,0,0,0,63.28,66C76,33.33,71.47,44.9,83.87,12.88a10.18,10.18,0,0,0-3.7-12h0l.16,0A10.18,10.18,0,0,1,88.24,14.57Z"></path>
    <path fill="#ff7448" d="M88.24,14.57,78.9,38.67a3.29,3.29,0,1,1-6.13-2.38l1.34-3.45a1.54,1.54,0,0,0-.49-1.76l-.92-.73A2.14,2.14,0,0,1,72,27.92l.22-.55a2.52,2.52,0,1,0-4.7-1.82l-.18.45a2.5,2.5,0,1,1-4.66-1.81L69.17,7.51A10.37,10.37,0,0,1,81.76,1.18,10.18,10.18,0,0,1,88.24,14.57Z"></path>
    <path fill="#ff4739" d="M88.24,14.57,78.9,38.67a3.29,3.29,0,0,1-5.44,1.08L83.87,12.88a10.18,10.18,0,0,0-3.7-12,11.13,11.13,0,0,1,1.12.22A10.18,10.18,0,0,1,88.24,14.57Z"></path>
    <path fill="#dc4248" d="M82.21 15.22a1 1 0 01-.73-.32A9.18 9.18 0 0074.05 12a1 1 0 11-.16-2A11.17 11.17 0 0183 13.54 1 1 0 0182.21 15.22zM78.29 25.35a1 1 0 01-.73-.32 9.19 9.19 0 00-7.44-2.88 1 1 0 01-.16-2A11.15 11.15 0 0179 23.67 1 1 0 0178.29 25.35zM68.59 32.39a10.48 10.48 0 00-2.39-.11 1 1 0 11-.16-2 10.77 10.77 0 012.72.11 1 1 0 01-.17 2zM70.44 45.61a1 1 0 01-.73-.32 9.15 9.15 0 00-7.43-2.88 1 1 0 01-1.08-.92 1 1 0 01.92-1.07 11.17 11.17 0 019.05 3.5A1 1 0 0170.44 45.61z"></path>
    <path fill="#ff9261" d="M75.09,95H20.91a5.21,5.21,0,0,1-5.16-6c7.51-51.61,3.44-23.62,6-41H74.28c.5,3.41.85,5.82,6,41A5.21,5.21,0,0,1,75.09,95Z"></path>
    <path fill="#ff6f52" d="M76.51,63.33a4.33,4.33,0,0,1-5.76-1.09,1.12,1.12,0,0,0-1.79,0,4.37,4.37,0,0,1-6.92,0,1.14,1.14,0,0,0-1.83,0,4.37,4.37,0,0,1-6.92,0,1.14,1.14,0,0,0-1.83,0,4.37,4.37,0,0,1-6.92,0,1.14,1.14,0,0,0-1.83,0,4.37,4.37,0,0,1-6.92,0,1.14,1.14,0,0,0-1.83,0,4.37,4.37,0,0,1-6.92,0,1.12,1.12,0,0,0-1.79,0,4.34,4.34,0,0,1-5.76,1.09l1.69-11.62H74.82Z"></path>
    <path fill="#ffb061" d="M66.64,88.83H29.36a4.24,4.24,0,0,1-4.21-4.77l1.7-13.84A2.67,2.67,0,0,1,29.93,68a4.38,4.38,0,0,0,4.27-2,.79.79,0,0,1,1.35,0A4.38,4.38,0,0,0,43,66a.79.79,0,0,1,1.36,0,4.37,4.37,0,0,0,7.38,0,.79.79,0,0,1,1.36,0,4.38,4.38,0,0,0,7.4,0,.79.79,0,0,1,1.35,0,4.38,4.38,0,0,0,4.27,2,2.67,2.67,0,0,1,3.08,2.26l1.7,13.84A4.24,4.24,0,0,1,66.64,88.83Z"></path>
    <path fill="#ffce8a" d="M78.62,51.65v4.06a4.51,4.51,0,0,1-3.93,4.54,4.37,4.37,0,0,1-4.82-4.35,4.38,4.38,0,0,1-8.75,0,4.38,4.38,0,0,1-8.75,0,4.37,4.37,0,0,1-8.74,0,4.38,4.38,0,0,1-8.75,0,4.38,4.38,0,0,1-8.75,0,4.37,4.37,0,0,1-4.82,4.35,4.51,4.51,0,0,1-3.93-4.54V51.65A3.66,3.66,0,0,1,21,48H75A3.66,3.66,0,0,1,78.62,51.65Z"></path>
    <path fill="#ffeca8" d="M75,48H21a3.66,3.66,0,0,0-3.65,3.65h0a.85.85,0,0,0,.85.85H77.77C79.59,52.5,78.44,48,75,48Z"></path>
    <circle cx="28.85" cy="41.38" r="1.97" fill="#a03d48"></circle>
    <circle cx="36.34" cy="34.51" r="1.81" fill="#a03d48"></circle>
    <path fill="#ffab6b" d="M36.34 45.09H35.28a1 1 0 010-2h1.06a1 1 0 010 2zM39.22 41.12a1 1 0 01-.71-1.7l.25-.25a1 1 0 011.42 0 1 1 0 010 1.41C39.86 40.9 39.68 41.12 39.22 41.12zM30.82 35.78a1 1 0 01-.87-.5l-.32-.55a1 1 0 111.74-1l.31.55A1 1 0 0130.82 35.78zM38.31 30.41a1 1 0 01-.16-2l.37-.06a1 1 0 01.33 2A4.06 4.06 0 0138.31 30.41z"></path>
    <path fill="#d7e2f2" d="M61.89,82.58H34.11a3.14,3.14,0,0,1-2.63-1.4l-1.89-2.84a3.16,3.16,0,0,1,0-3.51L31.48,72a3.15,3.15,0,0,1,2.63-1.41H61.89A3.15,3.15,0,0,1,64.52,72l1.89,2.84a3.16,3.16,0,0,1,0,3.51l-1.89,2.84A3.14,3.14,0,0,1,61.89,82.58Z"></path>
    <path fill="#fff" d="M34.78,79.58A1.43,1.43,0,0,1,33.6,79l-1.06-1.59a1.44,1.44,0,0,1,0-1.57l1.06-1.59a1.43,1.43,0,0,1,1.18-.63H61.22a1.42,1.42,0,0,1,1.18.63l1.06,1.59a1.44,1.44,0,0,1,0,1.57L62.4,79a1.43,1.43,0,0,1-1.18.62Z"></path>
    <path fill="#ff9261" d="M53,86.4H43a1,1,0,0,1,0-2.06H53a1,1,0,0,1,0,2.06Z"></path>
    <path fill="#302d3d" d="M46.57 18.34c.61 0 1.35-.85 3.5-.94a7.06 7.06 0 013.09.58 1 1 0 00.8-1.84 9.08 9.08 0 00-7.86.31A1 1 0 0046.57 18.34zM46.44 25a1 1 0 00.94 1.76 7.08 7.08 0 016.12-.24 1 1 0 10.8-1.83A9 9 0 0046.44 25zM46.78 33.62a1 1 0 00.94 1.77 7.07 7.07 0 016.12-.24 1 1 0 00.8-1.84A9.07 9.07 0 0046.78 33.62z"></path>
    <path fill="#302d3d" d="M89.17,14.94A11.16,11.16,0,1,0,68.26,7.11c-.56,1.41-8.62,22.25-8.66,22.36L59,15.38A9,9,0,1,0,41,16.09l.35,9C29.9,24.23,19.47,34.7,21,47a4.66,4.66,0,0,0-4.66,4.65v4.06a5.65,5.65,0,0,0,2.53,4.71L14.76,88.88A6.22,6.22,0,0,0,20.91,96H75.09a6.22,6.22,0,0,0,6.15-7.12L77.09,60.42a5.65,5.65,0,0,0,2.53-4.71V51.65a4.65,4.65,0,0,0-3-4.34ZM74.24,30.29l-.92-.73A1.11,1.11,0,0,1,73,28.28l.21-.55a3.52,3.52,0,0,0-6.56-2.54c-.25.64-.37,1-1,1.28a1.51,1.51,0,0,1-2-1.92L70.11,7.87A9.3,9.3,0,0,1,81.7,2.23a9.16,9.16,0,0,1,5.61,12L78,38.31a2.29,2.29,0,1,1-4.27-1.66L75,33.2A2.51,2.51,0,0,0,74.24,30.29ZM43,16A7,7,0,1,1,57,15.46l.74,18.7c-.35.89-.53,1.39-3,7.67a9,9,0,0,0-7.69.38,1,1,0,0,0,.47,1.88c.61,0,1.35-.85,3.5-.94a7.07,7.07,0,0,1,3,.55L52.8,47H44.19C43.24,22.86,43.5,29.55,43,16ZM41.4,27l.79,20H23.05A17.6,17.6,0,0,1,41.4,27ZM79.26,89.17A4.21,4.21,0,0,1,75.09,94H20.91a4.22,4.22,0,0,1-4.17-4.83l4.08-28A5.36,5.36,0,0,0,26.13,59a5.38,5.38,0,0,0,8.75,0,5.38,5.38,0,0,0,8.75,0,5.37,5.37,0,0,0,8.74,0,5.68,5.68,0,0,0,1.88,1.64,0,0,0,0,1,0,0h0A5.37,5.37,0,0,0,61.12,59a5.38,5.38,0,0,0,8.75,0,5.47,5.47,0,0,0,4.92,2.22l.39-.06ZM77.62,51.65v4.06a3.68,3.68,0,0,1-.87,2.38,3.34,3.34,0,0,1-5.88-2.19,1,1,0,0,0-2,0,3.38,3.38,0,0,1-6.75,0A1,1,0,0,0,60.61,55a1,1,0,0,0-.49.86,3.35,3.35,0,0,1-4.47,3.17l-.51-.21a3.37,3.37,0,0,1-1.77-3,1,1,0,0,0-1-1,1.11,1.11,0,0,0-.56.17c-.53.37-.41.85-.47,1.23a3.36,3.36,0,0,1-3.29,3v0s0,0-.06,0a3.37,3.37,0,0,1-3.37-3.37,1,1,0,0,0-.1-.43,1,1,0,0,0-1.9.43,3.38,3.38,0,0,1-6.75,0,1,1,0,0,0-2,0,3.38,3.38,0,0,1-6.75,0,1,1,0,0,0-2,0,3.38,3.38,0,1,1-6.75-.19V51.65A2.66,2.66,0,0,1,20.57,49c.31-.06-1,0,21.7,0,35.24,0,33-.08,33.63.17A2.66,2.66,0,0,1,77.62,51.65Zm-3-4.65H54.94c8.75-22.57.07-.17,7.56-19.51a3.5,3.5,0,0,0,5.81-1.13l.17-.45A1.52,1.52,0,1,1,71.32,27l-.22.55a3.11,3.11,0,0,0,1,3.57l.93.73a.54.54,0,0,1,.16.62l-1.33,3.45a4.29,4.29,0,0,0,4.83,5.76Z"></path>
    <path fill="#302d3d" d="M74.05 12a9.18 9.18 0 017.43 2.88A1 1 0 0083 13.54 11.17 11.17 0 0073.89 10a1 1 0 10.16 2zM78.29 25.35A1 1 0 0079 23.67 11.14 11.14 0 0070 20.16a1 1 0 00.17 2A9.18 9.18 0 0177.56 25 1 1 0 0078.29 25.35zM66.2 32.28a10.64 10.64 0 012.4.11 1 1 0 00.16-2A10.77 10.77 0 0066 30.29a1 1 0 00.16 2zM62.12 40.42a1 1 0 00-.92 1.07 1 1 0 001.08.92 9.15 9.15 0 017.43 2.88 1 1 0 00.74.32 1 1 0 00.73-1.69A11.18 11.18 0 0062.12 40.42zM58.37 52.54c.16 0 .14.09.12-.26A1.23 1.23 0 0158.37 52.54zM28.85 44.34a3 3 0 10-3-3A3 3 0 0028.85 44.34zm0-3.93a1 1 0 110 1.93 1 1 0 010-1.93zM36.35 37.32a2.82 2.82 0 10-2.82-2.81A2.81 2.81 0 0036.35 37.32zm0-3.63a.82.82 0 11-.82.82A.82.82 0 0136.35 33.69zM36.35 43.09H35.28a1 1 0 000 2h1.07a1 1 0 000-2zM38.76 39.17l-.25.25a1 1 0 000 1.41 1 1 0 001.42 0l.25-.25a1 1 0 000-1.41A1 1 0 0038.76 39.17zM30 35.28a1 1 0 101.73-1l-.31-.55a1 1 0 10-1.74 1zM38.31 30.41a3.17 3.17 0 00.54-.08 1 1 0 10-.32-2l-.38.06a1 1 0 00.16 2zM64.59 70.59a4.07 4.07 0 00-2.7-1H34.11a4.14 4.14 0 00-3.46 1.86l-1.9 2.84a4.16 4.16 0 000 4.61l1.9 2.84a4.13 4.13 0 003.46 1.85H61.89a4.13 4.13 0 003.46-1.85l1.9-2.84a4.16 4.16 0 000-4.61C65.27 71.33 65.16 71.06 64.59 70.59zm1 7.19l-1.89 2.84a2.15 2.15 0 01-1.8 1H34.11a2.15 2.15 0 01-1.8-1l-1.89-2.84a2.13 2.13 0 010-2.39l1.89-2.85a2.15 2.15 0 011.8-1c30.13 0 28.14-.13 28.84.28s.54.38 2.63 3.52A2.14 2.14 0 0165.58 77.78z"></path>
  </g>
</svg>
