<svg xmlns="http://www.w3.org/2000/svg" viewBox="0 0 64 64" id="vegetable-fruit">
  <path fill="#8bc000" d="M37.992,31.907a31.857,31.857,0,0,0-3.365,3.217l-5.073,3.163L22.46,36.246,24.578,31a36.141,36.141,0,0,0,2.16-8.657L38.836,20Z"></path>
  <path fill="#a4d200" d="M38.808,20.393l-10.07,1.95A36.141,36.141,0,0,1,26.578,31L24.46,36.246l5.726,1.647,4.441-2.769a31.857,31.857,0,0,1,3.365-3.217Z"></path>
  <polygon fill="#fff" points="33.854 29.073 30 31 30.675 26.273 31.285 23.264 36 25.451 33.854 29.073"></polygon>
  <polygon fill="#709300" points="16.65 16.005 14.747 15.392 12.88 21.182 11.633 18.272 9.795 19.061 11.898 23.968 13.171 23.423 14.156 23.74 16.65 16.005"></polygon>
  <path fill="#709300" d="M13.6,17.748a4,4,0,0,0,5.309-2.9A2.983,2.983,0,0,0,19.6,9.47a2.907,2.907,0,0,0-.016-2.97A2.968,2.968,0,0,0,20,5a2.989,2.989,0,0,0-5.242-1.976,2.993,2.993,0,0,0-2.6,2.07A4.01,4.01,0,0,0,9.8,6.6L10,13Z"></path>
  <path fill="#f89b1c" d="M9.9,44.158l-.5-1.626a60.441,60.441,0,0,1-2.066-9.226h0A32.828,32.828,0,0,1,7,28.671H7A6.671,6.671,0,0,1,13.671,22h0a6.671,6.671,0,0,1,6.662,6.32L20.6,33.4,21,44Z"></path>
  <path fill="#672892" d="M34.469,57.735a8.13,8.13,0,0,0,4.283,2.952h0A8.125,8.125,0,0,0,40.988,61h0a19.86,19.86,0,0,0,19.86-19.86V33.269L57,25l-6.6,6.979-.416,1.143a9.769,9.769,0,0,1-8.37,6.4h0a9.773,9.773,0,0,0-6.4,3.144Z"></path>
  <path fill="#7435a6" d="M58,31.269l-2.285-4.91L50.4,31.979l-.416,1.143a9.769,9.769,0,0,1-8.37,6.4h0a9.765,9.765,0,0,0-5.867,2.613h0l.178.2A11.377,11.377,0,0,1,39,50a11.663,11.663,0,0,1-3.813,8.416,6.489,6.489,0,0,0,.717.271A8.13,8.13,0,0,0,38.14,59,19.86,19.86,0,0,0,58,39.14V31.269Z"></path>
  <path fill="#e9353f" d="M35.185,43A10.427,10.427,0,0,1,38,50c0,6.627-6.716,12-15,12S8,56.627,8,50a10.426,10.426,0,0,1,2.816-7L23,39Z"></path>
  <path fill="#ff4b50" d="M35.185,43,23,39l-9.2,3.02A10.422,10.422,0,0,0,11,49c0,6.627,6.716,12,15,12a18.486,18.486,0,0,0,4.247-.5C34.868,58.46,38,54.524,38,50A10.431,10.431,0,0,0,35.185,43Z"></path>
  <path fill="#709300" d="M25 31l.586 3.517A2.972 2.972 0 0028.518 37h0a2.976 2.976 0 00.94-.153L35 35h0a6.516 6.516 0 01-5.043 4.809L29 40l7 3H34.123A33.5 33.5 0 0126 42h0a9 9 0 01-1.8 5.4L23 49l-1.2-1.6A9 9 0 0120 42h0a33.5 33.5 0 01-8.123 1H10l7-3-.957-.191A6.516 6.516 0 0111 35h0l5.542 1.847a2.976 2.976 0 00.94.153h0a2.972 2.972 0 002.932-2.483L21 31zM58.2 26.551A10.241 10.241 0 0060 20.757V20H56v.394a11.9 11.9 0 01-1.458 5.7 6.392 6.392 0 00-5 4.278L49 32h.764A9.464 9.464 0 0054 31h0l2 3a6.709 6.709 0 003-3 6.709 6.709 0 003 3V32.392A6.39 6.39 0 0058.2 26.551zM51 22a4.993 4.993 0 00-4.127-4.912A4.937 4.937 0 0047 16a5 5 0 00-5-5c-.137 0-.266.03-.4.04A4.97 4.97 0 0034 9.023a4.973 4.973 0 00-7.9 2.987c-.034 0-.066-.01-.1-.01a5 5 0 10.566 9.943 8 8 0 006.515 5A6 6 0 0039 32h.022a4.977 4.977 0 008.426-5.237A4.984 4.984 0 0051 22z"></path>
  <path fill="#80ac00" d="M51,22a4.993,4.993,0,0,0-4.127-4.912A4.937,4.937,0,0,0,47,16a5,5,0,0,0-5-5c-.137,0-.266.03-.4.04A4.97,4.97,0,0,0,34,9.023a5.014,5.014,0,0,0-2.1-.934,4.994,4.994,0,0,0-1.8,2.921c-.034,0-.066-.01-.1-.01a5,5,0,1,0,.566,9.943,8,8,0,0,0,6.515,5A6,6,0,0,0,43,31h.022a5,5,0,0,0,3.064,1.907,4.9,4.9,0,0,0,1.362-6.144A4.984,4.984,0,0,0,51,22Z"></path>
  <path fill="#8bc000" d="M14,16a4,4,0,0,1-4,4,4.285,4.285,0,0,1-.72-.07,2.981,2.981,0,0,1-5.26-1.69,2.961,2.961,0,0,1-.22-4.26A2,2,0,0,1,2,12a1.972,1.972,0,0,1,1.04-1.74A2.992,2.992,0,1,1,7.3,6.09,3.193,3.193,0,0,1,8,6a2.994,2.994,0,0,1,2.78,4.12A2.974,2.974,0,0,1,13,13c0,.12-.02.23-.03.34A3.988,3.988,0,0,1,14,16Z"></path>
  <path fill="#80ac00" d="M29.957 39.809A6.516 6.516 0 0035 35l-5.542 1.847a2.971 2.971 0 01-3.872-2.33L25 31H21l-.586 3.517a2.966 2.966 0 01-3.846 2.337 6.5 6.5 0 003.475 1.955L21 39l-7 3h1.877A33.5 33.5 0 0024 41a9 9 0 001.257 4.575A9 9 0 0026 42a33.5 33.5 0 008.123 1H36l-7-3zM54.542 26.092a6.392 6.392 0 00-5 4.278L49 32h.764A9.464 9.464 0 0054 31h0l2 3a6.709 6.709 0 003-3 6.691 6.691 0 001 1.442v-.05a6.39 6.39 0 00-3.8-5.841A10.241 10.241 0 0058 20.757V20H56v.394A11.9 11.9 0 0154.542 26.092z"></path>
  <path fill="#fdb716" d="M10.03,35.243l-.442-1.768L16.859,35.9a1.984,1.984,0,0,0,1.337-.031,2.072,2.072,0,0,0,1.25-1.623L20.153,30h.268l-.088-1.68a6.667,6.667,0,0,0-5.661-6.237A6.666,6.666,0,0,0,9,28.671a32.828,32.828,0,0,0,.329,4.635q.343,2.4.885,4.765a2.939,2.939,0,0,0,3.828,2.109h0A7.557,7.557,0,0,1,10.03,35.243Z"></path>
  <path fill="#a4d200" d="M14,16a3.988,3.988,0,0,0-1.03-2.66c.01-.11.03-.22.03-.34a2.974,2.974,0,0,0-2.22-2.88A2.994,2.994,0,0,0,8,6a3.193,3.193,0,0,0-.7.09,3.027,3.027,0,0,0-1.316-.9A2.981,2.981,0,0,0,5.04,10.26,1.972,1.972,0,0,0,4,12a2,2,0,0,0,1.8,1.98,2.961,2.961,0,0,0,.22,4.26,3.015,3.015,0,0,0,1.963,2.573,3.021,3.021,0,0,0,1.3-.883A4.285,4.285,0,0,0,10,20,4,4,0,0,0,14,16Z"></path>
  <path fill="#80ac00" d="M19.6,9.47a2.907,2.907,0,0,0-.016-2.97A2.968,2.968,0,0,0,20,5a2.989,2.989,0,0,0-5.242-1.976,2.993,2.993,0,0,0-2.6,2.07A3.976,3.976,0,0,0,10.5,5.9,3.975,3.975,0,0,1,12,9a3.9,3.9,0,0,1-.036.529A3.987,3.987,0,0,1,14,13v.023a4.948,4.948,0,0,1,.6,4.941c.134.013.266.036.4.036a4,4,0,0,0,3.907-3.155A2.983,2.983,0,0,0,19.6,9.47Z"></path>
  <path d="M59.6,26.176A11.171,11.171,0,0,0,61,20.757V20a1,1,0,0,0-1-1H56a1,1,0,0,0-1,1V20.4a10.934,10.934,0,0,1-1.125,4.813A7.371,7.371,0,0,0,49,29.1c0-.032.005-.063.005-.1a5.75,5.75,0,0,0-.254-1.687,5.976,5.976,0,0,0-.757-10.964C48,16.232,48,16.116,48,16a6.008,6.008,0,0,0-5.8-6A5.993,5.993,0,0,0,37,7a5.893,5.893,0,0,0-3,.821A5.893,5.893,0,0,0,31,7a6.019,6.019,0,0,0-5.669,4.037,5.959,5.959,0,0,0-3.38,1.571,3.953,3.953,0,0,0-1.132-3.439A3.878,3.878,0,0,0,20.7,6.5,3.874,3.874,0,0,0,21,5a3.988,3.988,0,0,0-6.716-2.921,3.977,3.977,0,0,0-2.872,2.183,5.011,5.011,0,0,0-1.806,1.08A3.968,3.968,0,0,0,8,5a3.488,3.488,0,0,0-.349.018,3.989,3.989,0,0,0-6.009,5.141,2.98,2.98,0,0,0,.667,4.315A3.915,3.915,0,0,0,2,16a3.992,3.992,0,0,0,1.076,2.714A4.026,4.026,0,0,0,7,22a3.965,3.965,0,0,0,2.645-1.015C9.758,21,9.876,21,10,21a4.779,4.779,0,0,0,.6-.061l.257.6A7.677,7.677,0,0,0,6,28.671a33.719,33.719,0,0,0,.34,4.776,61.5,61.5,0,0,0,2.1,9.379L8.8,44A11.03,11.03,0,0,0,7,50c0,7.168,7.178,13,16,13a17.935,17.935,0,0,0,11.371-3.868A9.036,9.036,0,0,0,40.988,62a20.884,20.884,0,0,0,20.86-20.86V34.983A.99.99,0,0,0,63,34V32.392A7.4,7.4,0,0,0,59.6,26.176Zm-9.111,4.511a5.379,5.379,0,0,1,4.217-3.609,1,1,0,0,0,.711-.507A12.951,12.951,0,0,0,56.985,21H59a9.21,9.21,0,0,1-1.624,4.985,1,1,0,0,0,.419,1.48,5.4,5.4,0,0,1,3.2,4.6A5.692,5.692,0,0,1,59.9,30.553a1.042,1.042,0,0,0-1.79,0,5.744,5.744,0,0,1-1.8,2.1l-1.472-2.208a1,1,0,0,0-1.279-.34,8.533,8.533,0,0,1-3.158.87Zm-2.3,1.9a1,1,0,0,0,.76.409,8.786,8.786,0,0,1-7.417,5.529,10.723,10.723,0,0,0-6.543,2.956l-3.031-1.3a7.557,7.557,0,0,0,4.012-4.937c.006-.025,0-.05.009-.075a30.816,30.816,0,0,1,2.342-2.216c.073.007.141.026.215.031A5.929,5.929,0,0,0,43,35a5.994,5.994,0,0,0,5.038-2.753A1.006,1.006,0,0,0,48.189,32.585ZM28.606,40.919l2.1.9a32.48,32.48,0,0,1-4.465-.79A1,1,0,0,0,25,42a8.051,8.051,0,0,1-1.6,4.8l-.4.533-.4-.533A8.051,8.051,0,0,1,21,42a1,1,0,0,0-1.243-.97,32.48,32.48,0,0,1-4.465.79l2.1-.9a1,1,0,0,0-.2-1.9l-.957-.192a5.536,5.536,0,0,1-3.363-2.148l3.35,1.116A3.971,3.971,0,0,0,21.4,34.681L21.847,32h2.306l.447,2.681A3.971,3.971,0,0,0,29.774,37.8l3.35-1.116a5.535,5.535,0,0,1-3.364,2.148l-.956.192a1,1,0,0,0-.2,1.9ZM15.741,18.94a5.033,5.033,0,0,0,4-3.352,4.132,4.132,0,0,0,.543-.319A5.907,5.907,0,0,0,20,17a6,6,0,0,0,5.629,5.981A35.1,35.1,0,0,1,23.87,30H21.422l-.091-1.732a7.667,7.667,0,0,0-6.318-7.145Zm15.75,8.69c.25.072.5.144.756.2a6.894,6.894,0,0,0,.28.793l-1.267.634Zm-2.075,4.181a1,1,0,0,0,1.031.084l3.088-1.544a6.906,6.906,0,0,0,2.489,1.968c-.673.62-1.326,1.261-1.943,1.933L29.141,35.9a1.973,1.973,0,0,1-2.569-1.547l-.586-3.517a.963.963,0,0,0-.158-.38,37.041,37.041,0,0,0,1.5-5.444,8.927,8.927,0,0,0,2.263,1.819l-.576,4.028A1,1,0,0,0,29.416,31.811ZM25.905,12.994c.039.006.126.015.166.016a1,1,0,0,0,1.009-.8A4.009,4.009,0,0,1,31,9a3.96,3.96,0,0,1,2.4.82,1,1,0,0,0,1.206,0,3.97,3.97,0,0,1,6.077,1.613,1,1,0,0,0,1,.6c.069-.006.137-.015.2-.024A.835.835,0,0,1,42,12a3.972,3.972,0,0,1,3.9,4.871,1,1,0,0,0,.8,1.2,3.978,3.978,0,0,1,.458,7.732,1,1,0,0,0-.6,1.407A3.945,3.945,0,0,1,47,29a3.985,3.985,0,0,1-7.181,2.4A1.041,1.041,0,0,0,39,31a4.97,4.97,0,0,1-4.931-4.213,1,1,0,0,0-.874-.837,6.98,6.98,0,0,1-5.7-4.376,1,1,0,0,0-.93-.631,1.117,1.117,0,0,0-.114.006l-.181.024A2.006,2.006,0,0,1,26,21a4,4,0,0,1-.095-8.006ZM12.365,6.071a1,1,0,0,0,.74-.671,1.986,1.986,0,0,1,1.734-1.379,1,1,0,0,0,.669-.335A1.971,1.971,0,0,1,17,3a2,2,0,0,1,2,2,1.966,1.966,0,0,1-.28,1A1,1,0,0,0,18.72,7a1.909,1.909,0,0,1,.01,1.974,1,1,0,0,0,.335,1.338,1.983,1.983,0,0,1-.462,3.578,1,1,0,0,0-.674.741A3.012,3.012,0,0,1,15,17c-.034,0-.067-.008-.1-.009a4.938,4.938,0,0,0-.9-3.968V13a3.987,3.987,0,0,0-2.036-3.471A3.9,3.9,0,0,0,12,9a3.965,3.965,0,0,0-.8-2.38A3,3,0,0,1,12.365,6.071ZM9.443,18.943a1,1,0,0,0-.926.341A1.964,1.964,0,0,1,7,20a2.013,2.013,0,0,1-1.983-1.844,1,1,0,0,0-.333-.664,1.961,1.961,0,0,1-.15-2.833A1,1,0,0,0,3.9,12.985,1,1,0,0,1,3,12a.978.978,0,0,1,.521-.864A1,1,0,0,0,3.7,9.506,1.991,1.991,0,1,1,6.532,6.73a1,1,0,0,0,.989.335A2.207,2.207,0,0,1,8,7,2,2,0,0,1,9.852,9.75a1,1,0,0,0,.671,1.336A1.985,1.985,0,0,1,12,13a1.02,1.02,0,0,1-.011.115l-.015.132a1,1,0,0,0,.248.757A2.986,2.986,0,0,1,10,19,3.307,3.307,0,0,1,9.443,18.943ZM12.5,20.3a5.028,5.028,0,0,0,.894-.656l-.464,1.39-.11.012ZM8.319,33.164A31.819,31.819,0,0,1,8,28.671a5.671,5.671,0,0,1,11.334-.3l.262,4.97-.168,1.009A1.973,1.973,0,0,1,16.859,35.9l-5.543-1.848a1,1,0,0,0-1.286,1.192,7.557,7.557,0,0,0,4.012,4.937l-3.813,1.634A59.774,59.774,0,0,1,8.319,33.164ZM9,50a9.316,9.316,0,0,1,2.284-6h.593a34.524,34.524,0,0,0,7.2-.76A10.065,10.065,0,0,0,21,48l1.2,1.6a1,1,0,0,0,1.6,0L25,48a10.065,10.065,0,0,0,1.921-4.76,34.524,34.524,0,0,0,7.2.76h.592A9.312,9.312,0,0,1,37,50c0,6.065-6.28,11-14,11S9,56.065,9,50ZM40.988,60a7.161,7.161,0,0,1-1.962-.274,7.072,7.072,0,0,1-3.213-1.973A11.428,11.428,0,0,0,39,50a11.112,11.112,0,0,0-2.141-6.492.974.974,0,0,0-.005-1.014A8.741,8.741,0,0,1,41.7,40.516a10.8,10.8,0,0,0,9.227-7.053l.206-.565a10.553,10.553,0,0,0,2.505-.641l1.532,2.3a1,1,0,0,0,1.279.34A7.756,7.756,0,0,0,59,32.836a7.83,7.83,0,0,0,.848.88V41.14A18.881,18.881,0,0,1,40.988,60Z"></path>
</svg>
